<svg width="1024" height="1024" viewBox="0 0 1024 1024" fill="none" xmlns="http://www.w3.org/2000/svg">
<path d="M509.217 589.912C487.237 653.33 421.993 696.987 379.23 745.738C365.734 761.126 353.282 777.265 344.445 795.825C339.803 805.572 338.148 816.753 333.081 826.183C324.326 842.47 312.061 851.711 307.948 870.955C302.669 895.665 306.086 923.683 306.086 948.868H873.739C873.739 923.149 878.063 892.963 870.341 868.173C864.37 848.998 846.817 834.959 843.614 815.303C831.106 738.495 818.376 662.126 796.997 587.129C786.301 549.6 775.554 510.485 757.175 475.825C734.603 433.256 701.907 395.427 667.826 361.749C641.535 335.771 607.944 317.124 582.191 291.266C560.806 269.798 563.595 227.01 523.13 228.337C517.186 228.532 511.599 229.762 506.543 233.02C498.142 238.441 492.123 247.142 484.173 253.216C473.419 232.547 450.657 219.964 428.633 233.766C416.005 241.677 413.718 255.195 404.844 265.949C388.797 285.391 368.072 301.519 350.859 319.999C332.443 339.766 310.589 360.152 297.474 383.999C287.997 401.231 287.39 420.76 275.355 436.868C244.571 478.073 197.145 514.843 187.725 567.651C183.17 593.19 181.451 623.492 190.297 648.347C204.048 686.983 253.211 720.847 294.956 717.389C328.019 714.648 352.943 689.535 378.434 671.03C401.97 653.945 428.691 643.563 453.565 628.827C473.135 617.231 490.009 601.913 509.217 589.912Z" fill="white" style="fill:white;fill-opacity:1;"/>
<path d="M219.825 562.087C231.42 562.087 248.152 559.101 258.606 564.948C265.755 568.943 269.261 576.738 263.301 583.463C253.272 594.774 227.834 589.913 214.26 589.913C214.26 621.067 213.575 641.533 236.521 665.044C251.041 654.818 262.855 641.322 275.477 628.875C280.536 623.886 287.114 615.241 294.95 615.099C301.837 614.973 309.094 622.45 314.434 626.087C296.567 643.954 276.134 661.059 261.564 681.739C308.913 701.752 338.96 661.794 375.651 638.431C400.781 622.431 429.203 612.244 453.564 595.078C467.667 585.141 481.368 574.692 495.303 564.53C500.752 560.557 507.441 554.493 514.771 555.807C521.079 556.937 526.14 562.766 529.66 567.697C545.104 589.337 530.835 615.099 518.405 634.435C487.679 682.226 441.883 717.053 405.08 759.652C386.832 780.778 368.745 800.635 364.521 829.218H815.303C815.173 781.418 801.719 731.05 791.44 684.522C777.249 620.263 763.494 551.794 733.857 492.522C699.472 423.753 636.435 363.281 573.217 320.927C565.564 315.801 556.582 310.987 551.799 302.793C544.892 290.958 543.651 260.981 526.051 258.563C518.126 257.478 513.293 267.15 508.312 271.613C501.089 278.083 491.155 282.179 481.39 279.794C469.261 276.834 458.334 254.745 445.809 258.09C437.542 260.299 436.832 271.549 433.246 277.791C429.979 283.467 425.004 287.705 420.12 291.951C387.322 320.479 349.055 355.52 325.481 392.348C315.578 407.819 315.633 426.727 306.278 442.435C290.337 469.204 265.733 493.421 245.943 517.565C234.27 531.807 222.753 543.327 219.825 562.087Z" fill="black" style="fill:black;fill-opacity:1;"/>
<path d="M581.565 400.695C593.678 429.493 617.614 454.141 633.246 481.391C666.053 538.587 692.012 600.066 704.548 665.043C707.715 681.466 710.926 698.432 712.097 715.13C712.604 722.304 710.823 732.427 715.628 738.496C719.674 743.602 728.617 743.496 734.447 742.542C747.063 740.474 746.142 728.108 744.946 717.913C742.082 693.576 737.803 669.225 731.406 645.565C707.511 557.217 665.374 448.445 581.565 400.695ZM422.956 439.652C408.506 433.589 388.446 436.764 372.872 436.872C367.61 436.908 359.88 435.94 355.567 439.73C346.048 448.097 359.546 469.44 370.128 469.726C377.31 469.921 383.947 463.034 389.565 459.408C400.448 452.388 412.124 446.795 422.956 439.652Z" fill="white" style="fill:white;fill-opacity:1;"/>
<path d="M333.914 921.045H845.914C845.914 902.763 850.672 867.335 829.065 858.723C818.686 854.588 804.028 857.045 793.045 857.045H381.218C370.748 857.045 355.015 854.229 345.679 859.905C328.488 870.354 333.914 904.23 333.914 921.045Z" fill="black" style="fill:black;fill-opacity:1;"/>
</svg>
