<svg width="1024" height="1024" viewBox="0 0 1024 1024" fill="none" xmlns="http://www.w3.org/2000/svg">
<path d="M306.089 486.957C293.536 460.422 274.128 436.236 257.858 411.827C251.074 401.653 241.098 390.367 237.74 378.435C234.776 367.895 242.175 358.003 243.956 347.827C247.807 325.858 243.547 303.121 227.884 286.729C186.701 243.635 108.037 275.738 111.899 336.696C113.045 354.8 122.467 373.34 136.608 384.657C146.949 392.93 160.8 396.122 166.265 409.166C173.211 425.742 176.366 444.634 181.264 461.914C192.019 499.86 202.097 538.001 212.66 576C220.39 603.81 227.836 631.714 235.717 659.479C240.505 676.355 248.052 694.879 249.983 712.307C251.519 726.164 235.931 736.006 231.328 748.522C224.876 766.078 236.101 782.531 231.968 798.501C228.181 813.143 210.133 821.744 205.358 837.566C201.396 850.708 203.132 865.742 203.132 879.305V948.87H820.871V879.305C820.871 865.742 822.608 850.708 818.645 837.566C813.87 821.744 795.822 813.143 792.035 798.501C787.903 782.531 799.128 766.078 792.675 748.522C788.073 736.006 772.485 726.164 774.021 712.307C775.952 694.879 783.498 676.355 788.287 659.479C796.167 631.714 803.614 603.81 811.344 576C821.907 538.001 831.985 499.86 842.743 461.914C847.64 444.634 850.793 425.742 857.738 409.166C863.206 396.119 877.058 392.941 887.395 384.657C901.175 373.613 910.964 354.371 912.105 336.696C916.042 275.712 837.267 243.674 796.12 286.729C780.457 303.121 776.197 325.858 780.048 347.827C781.829 358.003 789.228 367.898 786.261 378.435C782.906 390.367 772.927 401.653 766.146 411.827C749.876 436.236 730.467 460.422 717.915 486.957C699.257 451.557 688.16 410.41 674.281 372.87C668.234 356.522 655.724 335.141 654.919 317.691C654.346 305.23 671.646 292.714 676.368 281.044C690.779 245.449 671.345 203.637 634.437 192.154C608.75 184.159 577.836 192.576 561.502 214.373C541.047 241.673 542.268 292.383 576.002 308.87C570.459 332.823 559.69 355.465 551.097 378.435C538.604 411.838 527.117 446.298 512.002 478.609C496.887 446.298 485.4 411.838 472.906 378.435C464.313 355.465 453.545 332.823 448.002 308.87C481.735 292.383 482.957 241.673 462.502 214.373C446.168 192.576 415.253 184.159 389.567 192.154C352.659 203.637 333.225 245.449 347.636 281.044C352.375 292.753 369.677 305.464 369.084 318.011C368.266 335.299 355.717 356.659 349.723 372.87C335.843 410.41 324.746 451.557 306.089 486.957Z" fill="white" style="fill:white;fill-opacity:1;"/>
<path d="M400.696 218.608C353.484 230.434 370.024 304.396 417.392 293.463C466.436 282.143 448.763 206.567 400.696 218.608ZM606.609 218.538C557.566 229.858 575.238 305.433 623.305 293.393C670.518 281.567 653.978 207.605 606.609 218.538ZM166.957 296.774C120.499 311.397 144.301 383.299 192.001 368.27C238.381 353.656 213.758 282.043 166.957 296.774ZM832.003 296.774C783.998 311.884 812.531 386.182 859.824 368.023C904.059 351.038 877.04 282.597 832.003 296.774ZM211.479 392.348C183.283 399.961 204.94 441.742 210.672 461.913C227.245 520.237 242.641 578.886 259.173 637.218L271.517 681.74C273.272 688.006 274.188 696.972 279.831 701.14C287.492 706.8 302.687 704 311.653 704H704.001C715.078 704 729.064 706.252 739.774 703.116C748.319 700.614 749.619 692.057 751.722 684.519L764.828 637.218C782.136 576.148 799.416 514.936 815.628 453.566C820.79 434.026 839.739 399.697 812.522 392.348C787.685 429.168 763.888 466.691 739.248 503.653C733.524 512.237 722.725 536.273 709.897 534.481C696.849 532.658 690.077 497.431 686.125 486.957C670.426 445.326 655.405 403.431 639.862 361.74C635.632 350.398 631.889 325.098 617.453 323.248C596.617 320.579 591.45 352.727 585.951 367.305C570.892 407.232 555.766 447.166 540.353 486.957C535.756 498.828 531.587 521.456 517.413 525.015C493.691 530.975 487.581 497.561 481.531 481.392C466.925 442.343 451.574 403.584 437.009 364.522C432.66 352.855 428.044 327.399 414.25 323.682C391.508 317.546 385.706 357.847 380.038 372.87C364.689 413.574 349.889 454.501 334.801 495.305C331.32 504.713 326.061 532.809 314.104 534.481C300.275 536.412 287.272 507.426 281.044 498.087L253.218 456.348C239.094 435.15 225.729 413.474 211.479 392.348ZM281.044 731.826V742.957C249.798 749.279 249.798 786.722 281.044 793.044V804.174H742.957V793.044C774.203 786.722 774.203 749.279 742.957 742.957V731.826H281.044Z" fill="black" style="fill:black;fill-opacity:1;"/>
<path d="M503.695 745.031C474.118 756.27 491.037 802.089 520.307 790.967C549.883 779.728 532.965 733.909 503.695 745.031Z" fill="white" style="fill:white;fill-opacity:1;"/>
<path d="M230.957 921.045H793.044C793.044 901.573 793.305 882.08 793.033 862.61C792.899 853.033 792.323 842.843 784.061 836.462C774.832 829.339 759.43 832.002 748.522 832.002H278.261C267.451 832.002 252.169 829.358 242.391 834.862C232.106 840.65 231.115 852.045 230.968 862.61C230.695 882.08 230.957 901.573 230.957 921.045Z" fill="black" style="fill:black;fill-opacity:1;"/>
</svg>
