<svg width="1024" height="1024" viewBox="0 0 1024 1024" fill="none" xmlns="http://www.w3.org/2000/svg">
<path d="M242.086 267.129V353.39C242.086 365.388 239.426 381.299 244.947 392.346C249.705 401.874 259.035 409.426 265.95 417.39C283.909 438.076 302.677 458.058 320.792 478.607C328.392 487.225 339.288 495.378 343.365 506.433C349.968 524.35 345.043 551.473 345.043 570.433C345.043 616.26 348.852 663.923 344.879 709.564C343.226 728.569 324.026 741.258 311.76 754.085C294.035 772.623 277.18 791.748 258.782 809.696C248.264 819.955 235.491 828.604 226.556 840.357C208.748 863.787 217.043 907.076 217.043 934.955H806.956C806.956 907.224 815.323 863.615 797.442 840.388C788.507 828.779 775.618 820.005 765.217 809.726C746.935 791.665 729.964 772.626 712.239 754.085C699.973 741.258 680.773 728.569 679.12 709.564C675.146 663.923 678.956 616.26 678.956 570.433C678.956 551.473 674.03 524.35 680.634 506.433C684.71 495.378 695.607 487.225 703.206 478.607C721.321 458.058 740.09 438.076 758.049 417.39C764.963 409.426 774.291 401.874 779.052 392.346C784.572 381.299 781.912 365.388 781.912 353.39V267.129H639.999V319.998H578.782V267.129H447.999V319.998H383.999V267.129H242.086Z" fill="black" style="fill:black;fill-opacity:1;"/>
<path d="M269.913 294.957V350.609C269.913 359.452 268.477 369.987 271.591 378.435C278.305 396.639 301.112 414.389 314.195 428.519C320.106 434.9 325.618 443.081 334.022 446.323C352.303 453.371 381.234 448 400.696 448H651.13C664.406 448 683.72 451.534 695.179 443.54C709.459 433.575 720.687 416.34 732.299 403.479C739.281 395.743 748.703 388.486 752.409 378.435C755.523 369.987 754.087 359.452 754.087 350.609V294.957H667.826V347.827H550.957V294.957H475.826V347.827H356.174V294.957H269.913ZM372.87 473.044V756.87H651.13V473.044H372.87ZM244.87 907.131H779.13C779.13 893.808 782.33 875.554 777.066 863.082C772.803 852.984 761.664 845.115 754.087 837.563C736.787 820.319 717.651 792.991 695.652 781.991C683.962 776.145 666.624 779.131 653.913 779.131H403.478C382.216 779.131 351.187 773.415 331.13 780.809C316.895 786.06 305.405 802.074 294.957 812.522C280.662 826.816 254.873 844.28 246.934 863.082C241.67 875.554 244.87 893.808 244.87 907.131Z" fill="white" style="fill:white;fill-opacity:1;"/>
</svg>
