<svg width="1024" height="1024" viewBox="0 0 1024 1024" fill="none" xmlns="http://www.w3.org/2000/svg">
<path d="M767.215 896.388H276.398C271.191 896.388 266.198 894.32 262.516 890.638C258.834 886.956 256.766 881.962 256.766 876.755V827.674C256.766 822.467 258.834 817.473 262.516 813.791C266.198 810.109 271.191 808.041 276.398 808.041H767.215C772.422 808.041 777.415 810.109 781.097 813.791C784.779 817.473 786.847 822.467 786.847 827.674V876.755C786.847 881.962 784.779 886.956 781.097 890.638C777.415 894.32 772.422 896.388 767.215 896.388Z" fill="#4D4D4D" style="fill:#4D4D4D;fill:color(display-p3 0.3020 0.3020 0.3020);fill-opacity:1;"/>
<path d="M327.443 890.498H256.766V802.151H327.443V890.498Z" fill="#808080" style="fill:#808080;fill:color(display-p3 0.5020 0.5020 0.5020);fill-opacity:1;"/>
<mask id="mask0_1_3873" style="mask-type:luminance" maskUnits="userSpaceOnUse" x="226" y="777" width="592" height="149">
<path d="M226.57 777.454H817.513V925.837H226.57V777.454Z" fill="white" style="fill:white;fill-opacity:1;"/>
</mask>
<g mask="url(#mask0_1_3873)">
<path d="M286.214 866.939H757.398V837.49H286.214V866.939ZM767.214 925.837H276.398C249.344 925.837 227.316 903.809 227.316 876.756V827.674C227.316 800.6 249.344 778.592 276.398 778.592H767.214C794.288 778.592 816.296 800.6 816.296 827.674V876.756C816.296 903.809 794.288 925.837 767.214 925.837Z" fill="black" style="fill:black;fill-opacity:1;"/>
</g>
<path d="M784.885 808.041H258.73C253.523 808.041 248.53 805.973 244.848 802.291C241.166 798.609 239.098 793.616 239.098 788.409V698.098C239.098 692.892 241.166 687.898 244.848 684.216C248.53 680.534 253.523 678.466 258.73 678.466H784.885C790.092 678.466 795.086 680.534 798.768 684.216C802.45 687.898 804.518 692.892 804.518 698.098V788.409C804.518 793.616 802.45 798.609 798.768 802.291C795.086 805.973 790.092 808.041 784.885 808.041Z" fill="#4D4D4D" style="fill:#4D4D4D;fill:color(display-p3 0.3020 0.3020 0.3020);fill-opacity:1;"/>
<path d="M313.699 784.482H244.984V696.135H313.699V784.482Z" fill="#808080" style="fill:#808080;fill:color(display-p3 0.5020 0.5020 0.5020);fill-opacity:1;"/>
<path d="M268.546 778.592H775.069V707.915H268.546V778.592ZM784.885 837.49H258.73C231.676 837.49 209.648 815.462 209.648 788.408V698.098C209.648 671.025 231.676 649.017 258.73 649.017H784.885C811.959 649.017 833.967 671.025 833.967 698.098V788.408C833.967 815.462 811.959 837.49 784.885 837.49Z" fill="black" style="fill:black;fill-opacity:1;"/>
<path d="M521.806 349.795V107.98M451.129 178.658H592.484" stroke="black" style="stroke:black;stroke-opacity:1;" stroke-width="5.75175" stroke-miterlimit="10" stroke-linecap="round"/>
<path d="M547.329 270.695H499.896C489.766 270.695 480.598 276.723 476.573 286.009L447.144 353.997C445.768 357.183 445.059 360.617 445.059 364.088C445.059 367.559 445.768 370.993 447.144 374.179L476.573 442.167C478.544 446.715 481.802 450.588 485.946 453.309C490.09 456.03 494.939 457.48 499.896 457.48H547.329C557.459 457.48 566.628 451.473 570.653 442.167L600.062 374.179C601.438 370.993 602.147 367.559 602.147 364.088C602.147 360.617 601.438 357.183 600.062 353.997L570.653 286.009C568.679 281.462 565.42 277.59 561.277 274.87C557.134 272.15 552.286 270.699 547.329 270.695Z" fill="#666666" style="fill:#666666;fill:color(display-p3 0.4000 0.4000 0.4000);fill-opacity:1;"/>
<path d="M502.546 428.032H544.678L572.36 364.088L544.678 300.125H502.546L474.864 364.088L502.546 428.032ZM547.309 486.93H499.896C489.189 486.934 478.715 483.804 469.766 477.925C460.818 472.047 453.786 463.677 449.538 453.849L420.129 385.88C417.165 378.997 415.637 371.582 415.637 364.088C415.637 356.594 417.165 349.179 420.129 342.296L449.538 274.328C453.785 264.497 460.816 256.125 469.765 250.243C478.713 244.361 489.187 241.227 499.896 241.227H547.309C558.021 241.223 568.499 244.355 577.452 250.237C586.404 256.12 593.438 264.494 597.686 274.328L627.076 342.296C630.04 349.179 631.568 356.594 631.568 364.088C631.568 371.582 630.04 378.997 627.076 385.88L597.667 453.849C593.418 463.68 586.383 472.052 577.43 477.931C568.478 483.81 557.999 486.938 547.289 486.93" fill="black" style="fill:black;fill-opacity:1;"/>
<path d="M758.911 356.529C822.462 356.529 873.997 403.844 873.997 462.251C873.997 585.603 778.092 656.084 758.911 673.715C739.73 691.345 643.824 673.715 643.824 673.715V462.251C643.824 403.864 695.34 356.51 758.911 356.51" fill="#4D4D4D" style="fill:#4D4D4D;fill:color(display-p3 0.3020 0.3020 0.3020);fill-opacity:1;"/>
<path d="M861.451 370.233C816.296 456.617 729.913 360.417 694.574 652.943C694.574 652.943 716.17 705.853 680.831 654.907C645.492 603.96 684.758 509.527 684.758 458.58C684.758 407.634 727.949 375.868 763.288 358.886C798.627 341.903 869.305 370.233 861.451 370.233Z" fill="#808080" style="fill:#808080;fill:color(display-p3 0.5020 0.5020 0.5020);fill-opacity:1;"/>
<mask id="mask1_1_3873" style="mask-type:luminance" maskUnits="userSpaceOnUse" x="613" y="327" width="291" height="384">
<path d="M613.332 327.866H903.444V710.703H613.332V327.866Z" fill="white" style="fill:white;fill-opacity:1;"/>
</mask>
<g mask="url(#mask1_1_3873)">
<path d="M673.269 649.645C702.836 653.473 731.048 654.475 740.393 651.608C742.042 650.136 743.927 648.526 746.008 646.739C772.944 623.573 844.544 562.083 844.544 462.251C844.544 419.55 806.123 384.82 758.907 384.82C711.671 384.82 673.269 419.57 673.269 462.251V649.645ZM720.702 709.878C712.024 709.878 702.365 709.407 691.606 708.504C673.738 706.957 655.947 704.625 638.284 701.515L614.371 697.117V462.251C614.371 388.354 679.218 328.219 758.907 328.219C838.615 328.219 903.442 388.354 903.442 462.251C903.442 587.429 814.487 663.84 785.254 688.95C782.741 691.109 780.581 692.955 779.246 694.172C767.624 704.872 749.463 709.878 720.702 709.878Z" fill="black" style="fill:black;fill-opacity:1;"/>
</g>
<path d="M636.891 349.462C700.462 349.462 751.978 396.777 751.978 455.184C751.978 578.536 656.072 649.037 636.891 666.647C617.71 684.277 521.805 666.647 521.805 666.647V455.203C521.805 396.796 573.34 349.462 636.891 349.462Z" fill="#4D4D4D" style="fill:#4D4D4D;fill:color(display-p3 0.3020 0.3020 0.3020);fill-opacity:1;"/>
<path d="M708.318 370.233C631.751 413.425 598.375 372.197 588.559 672.576C588.559 672.576 572.853 701.927 537.514 650.98C502.175 600.033 523.771 509.527 523.771 458.58C523.771 407.634 566.963 375.868 602.302 358.886C637.64 341.903 708.318 370.233 708.318 370.233Z" fill="#808080" style="fill:#808080;fill:color(display-p3 0.5020 0.5020 0.5020);fill-opacity:1;"/>
<path d="M551.257 642.577C580.824 646.406 609.056 647.407 618.381 644.54C620.241 642.903 622.112 641.28 623.996 639.672C650.952 616.525 722.552 555.035 722.552 455.184C722.552 412.502 684.112 377.752 636.895 377.752C589.678 377.752 551.257 412.502 551.257 455.184V642.577ZM598.709 702.81C590.012 702.81 580.353 702.359 569.614 701.456C551.745 699.908 533.953 697.57 516.292 694.447L492.359 690.049V455.184C492.359 381.286 557.206 321.151 636.895 321.151C716.584 321.151 781.431 381.286 781.431 455.184C781.431 580.361 692.475 656.772 663.242 681.882C660.729 684.041 658.569 685.887 657.234 687.104C645.612 697.804 627.452 702.81 598.709 702.81Z" fill="black" style="fill:black;fill-opacity:1;"/>
<path d="M284.723 356.529C221.172 356.529 169.637 403.844 169.637 462.232C169.637 585.584 265.542 656.065 284.723 673.695C303.904 691.325 399.81 673.695 399.81 673.695V462.251C399.81 403.864 348.274 356.51 284.723 356.51" fill="#4D4D4D" style="fill:#4D4D4D;fill:color(display-p3 0.3020 0.3020 0.3020);fill-opacity:1;"/>
<path d="M299.957 353.231C176.271 429.131 239.095 541.901 327.442 660.796C327.442 660.796 282.287 692.857 246.949 641.929C211.61 590.983 158.602 523.054 158.602 472.107C158.602 421.16 193.94 370.214 229.279 353.231C264.618 336.249 299.957 353.231 299.957 353.231Z" fill="#808080" style="fill:#808080;fill:color(display-p3 0.5020 0.5020 0.5020);fill-opacity:1;"/>
<path d="M303.237 651.608C312.562 654.475 340.794 653.473 370.361 649.645V462.251C370.361 419.55 331.94 384.82 284.723 384.82C237.507 384.82 199.085 419.57 199.085 462.251C199.085 562.103 270.666 623.593 297.641 646.739L303.237 651.589M322.909 709.878C294.166 709.878 276.006 704.872 264.364 694.172C262.387 692.402 260.385 690.661 258.356 688.95C229.143 663.82 140.188 587.41 140.188 462.251C140.188 388.354 205.034 328.219 284.723 328.219C364.432 328.219 429.259 388.354 429.259 462.251V697.117L405.327 701.515C404.286 701.711 379.549 706.226 352.004 708.523C341.265 709.407 331.606 709.878 322.909 709.878Z" fill="black" style="fill:black;fill-opacity:1;"/>
<path d="M406.739 349.462C343.169 349.462 291.633 396.777 291.633 455.184C291.633 578.536 387.538 649.037 406.719 666.647C425.901 684.277 521.806 666.647 521.806 666.647V455.203C521.806 396.796 470.29 349.462 406.739 349.462Z" fill="#4D4D4D" style="fill:#4D4D4D;fill:color(display-p3 0.3020 0.3020 0.3020);fill-opacity:1;"/>
<path d="M439.35 350.601C368.673 416.233 380.453 534.068 468.799 652.943C468.799 652.943 433.461 704.42 398.122 653.474C362.783 602.527 301.922 515.417 301.922 464.47C301.922 413.523 345.114 381.758 380.452 364.775C415.791 347.793 439.35 350.601 439.35 350.601Z" fill="#808080" style="fill:#808080;fill:color(display-p3 0.5020 0.5020 0.5020);fill-opacity:1;"/>
<path d="M425.252 644.54C434.597 647.426 462.829 646.425 492.357 642.577V455.184C492.357 412.502 453.955 377.752 406.739 377.752C359.503 377.752 321.081 412.502 321.081 455.184C321.081 555.035 392.682 616.525 419.637 639.672C421.718 641.458 423.584 643.068 425.233 644.54M444.924 702.81C416.162 702.81 398.002 697.804 386.38 687.104C385.045 685.887 382.885 684.022 380.392 681.882C351.139 656.772 262.203 580.361 262.203 455.184C262.203 381.286 327.03 321.151 406.719 321.151C486.428 321.151 551.255 381.286 551.255 455.184V690.049L527.342 694.447C526.302 694.643 501.564 699.159 474 701.456C463.281 702.359 453.602 702.81 444.924 702.81Z" fill="black" style="fill:black;fill-opacity:1;"/>
<path d="M345.113 678.466L407.643 813.931Z" fill="white" style="fill:white;fill-opacity:1;"/>
<mask id="mask2_1_3873" style="mask-type:luminance" maskUnits="userSpaceOnUse" x="140" y="78" width="764" height="848">
<path d="M140.188 78.5312H903.446V925.837H140.188V78.5312Z" fill="white" style="fill:white;fill-opacity:1;"/>
</mask>
<g mask="url(#mask2_1_3873)">
<path d="M345.113 678.466L407.663 813.931" stroke="black" style="stroke:black;stroke-opacity:1;" stroke-width="5.75175" stroke-miterlimit="10"/>
</g>
<path d="M491.023 678.466L553.573 813.931Z" fill="white" style="fill:white;fill-opacity:1;"/>
<mask id="mask3_1_3873" style="mask-type:luminance" maskUnits="userSpaceOnUse" x="140" y="78" width="764" height="848">
<path d="M140.188 78.5312H903.446V925.837H140.188V78.5312Z" fill="white" style="fill:white;fill-opacity:1;"/>
</mask>
<g mask="url(#mask3_1_3873)">
<path d="M491.023 678.466L553.573 813.931" stroke="black" style="stroke:black;stroke-opacity:1;" stroke-width="5.75175" stroke-miterlimit="10"/>
</g>
<path d="M636.953 678.466L699.483 813.931Z" fill="white" style="fill:white;fill-opacity:1;"/>
<mask id="mask4_1_3873" style="mask-type:luminance" maskUnits="userSpaceOnUse" x="140" y="78" width="764" height="848">
<path d="M140.188 78.5312H903.446V925.837H140.188V78.5312Z" fill="white" style="fill:white;fill-opacity:1;"/>
</mask>
<g mask="url(#mask4_1_3873)">
<path d="M636.953 678.466L699.483 813.931" stroke="black" style="stroke:black;stroke-opacity:1;" stroke-width="5.75175" stroke-miterlimit="10"/>
</g>
</svg>
