<svg width="1024" height="1024" viewBox="0 0 1024 1024" fill="none" xmlns="http://www.w3.org/2000/svg">
<path d="M747.732 849.931C747.732 667.37 597.316 607.527 614.501 493.704C643.218 474.112 664.955 445.89 676.565 413.122C688.176 380.355 689.058 344.743 679.083 311.441C669.108 278.139 648.795 248.875 621.082 227.886C593.37 206.897 559.697 195.271 524.938 194.692C489.696 193.922 455.141 204.516 426.387 224.907C397.633 245.299 376.206 274.404 365.276 307.918C354.347 341.432 354.496 377.574 365.7 410.996C376.905 444.419 398.571 473.348 427.492 493.502C446.698 607.527 296.484 668.178 296.484 849.931C363.201 869.946 406.466 889.759 523.321 889.759C640.176 889.759 681.015 869.946 747.732 849.931Z" fill="#4D4D4D" style="fill:#4D4D4D;fill:color(display-p3 0.3020 0.3020 0.3020);fill-opacity:1;"/>
<path d="M518.269 223.198C518.269 223.198 467.726 275.763 465.704 352.588C463.683 429.616 494.008 475.104 494.008 486.022C494.008 497.141 494.817 543.438 483.9 583.064C472.983 622.69 411.118 762.997 415.161 858.018C417.992 924.33 302.754 836.992 302.754 836.992L318.119 722.563L432.548 555.569L423.855 485.011L355.521 379.477L395.146 254.131L518.269 223.198Z" fill="#808080" style="fill:#808080;fill:color(display-p3 0.5020 0.5020 0.5020);fill-opacity:1;"/>
<mask id="mask0_1_3942" style="mask-type:luminance" maskUnits="userSpaceOnUse" x="263" y="161" width="518" height="762">
<path d="M263.531 161.738H780.687V922.914H263.531V161.738Z" fill="white" style="fill:white;fill-opacity:1;"/>
</mask>
<g mask="url(#mask0_1_3942)">
<path d="M330.45 825.872L334.291 827.085C386.856 843.663 428.503 856.804 523.322 856.804C616.928 856.804 657.16 844.067 708.107 827.691L713.768 825.872C707.703 752.281 673.333 702.547 640.379 654.228C606.617 605.303 571.843 554.76 581.75 488.649C582.427 484.184 584.015 479.907 586.414 476.081C588.814 472.255 591.975 468.964 595.699 466.41C618.602 450.482 635.821 427.658 644.851 401.263C653.88 374.868 654.249 346.28 645.902 319.661C637.555 293.043 620.929 269.783 598.445 253.27C575.961 236.757 548.793 227.852 520.896 227.852C492.999 227.852 465.831 236.757 443.347 253.27C420.863 269.783 404.237 293.043 395.89 319.661C387.543 346.28 387.912 374.868 396.941 401.263C405.971 427.658 423.19 450.482 446.092 466.41C449.713 468.915 452.794 472.12 455.156 475.835C457.517 479.551 459.11 483.702 459.84 488.043C471.162 554.76 436.59 605.909 402.828 655.441C370.48 703.558 336.717 753.09 330.45 825.872ZM523.322 922.914C418.193 922.914 367.65 906.741 314.479 889.96L286.983 881.469C280.205 879.428 274.265 875.259 270.041 869.579C265.817 863.898 263.535 857.009 263.531 849.93C263.531 743.386 310.435 674.041 348.443 618.444C378.769 573.359 397.167 544.449 396.156 511.293C364.519 485.222 341.788 449.946 331.12 410.364C320.452 370.783 322.376 328.861 336.626 290.423C350.877 251.986 376.745 218.941 410.637 195.879C444.529 172.817 484.763 160.884 525.748 161.738C576.345 162.94 624.518 183.658 660.192 219.559C679.766 238.922 695.043 262.19 705.028 287.849C715.014 313.507 719.485 340.981 718.15 368.482C716.815 395.982 709.704 422.894 697.28 447.464C684.856 472.035 667.397 493.714 646.04 511.09C646.04 546.066 667.875 577.807 694.561 616.826C732.974 672.828 780.687 742.173 780.687 849.93C780.687 864.487 771.185 877.426 757.235 881.469L728.122 890.567C676.164 907.145 627.036 922.914 523.322 922.914Z" fill="black" style="fill:black;fill-opacity:1;"/>
</g>
</svg>
