<svg width="1024" height="1024" viewBox="0 0 1024 1024" fill="none" xmlns="http://www.w3.org/2000/svg">
<path d="M591.548 179.706C591.548 198.202 584.2 215.941 571.122 229.02C558.043 242.099 540.304 249.447 521.807 249.447C503.311 249.447 485.572 242.099 472.493 229.02C459.414 215.941 452.066 198.202 452.066 179.706C452.066 161.209 459.414 143.47 472.493 130.391C485.572 117.313 503.311 109.965 521.807 109.965C540.304 109.965 558.043 117.313 571.122 130.391C584.2 143.47 591.548 161.209 591.548 179.706Z" fill="white" style="fill:white;fill-opacity:1;"/>
<path d="M591.548 179.706C591.548 198.202 584.2 215.941 571.122 229.02C558.043 242.099 540.304 249.447 521.807 249.447C503.311 249.447 485.572 242.099 472.493 229.02C459.414 215.941 452.066 198.202 452.066 179.706C452.066 161.209 459.414 143.47 472.493 130.391C485.572 117.313 503.311 109.965 521.807 109.965C540.304 109.965 558.043 117.313 571.122 130.391C584.2 143.47 591.548 161.209 591.548 179.706Z" stroke="black" style="stroke:black;stroke-opacity:1;" stroke-width="5.86281" stroke-miterlimit="10" stroke-linejoin="round"/>
<path d="M727.025 420.047C613.958 450.665 538.714 642.977 538.714 642.977C538.714 642.977 548.12 469.876 628.367 322.59C572.534 277.963 523.105 250.547 523.105 250.547C523.105 250.547 258.95 394.632 260.751 559.929C262.753 725.226 393.229 854.101 376.819 888.721C360.81 923.142 685.6 921.341 669.191 888.721C652.981 855.902 781.857 723.424 783.658 559.929C784.258 510.5 760.644 462.672 727.225 419.847" fill="#CCCCCC" style="fill:#CCCCCC;fill:color(display-p3 0.8000 0.8000 0.8000);fill-opacity:1;"/>
<path d="M531.311 263.755C430.251 437.857 406.237 515.903 406.237 569.934C406.237 683.801 508.297 866.108 459.268 894.124H387.226L297.173 714.019L261.152 587.945L279.163 479.882L351.205 389.829L531.311 263.755Z" fill="white" style="fill:white;fill-opacity:1;"/>
<mask id="mask0_1_3950" style="mask-type:luminance" maskUnits="userSpaceOnUse" x="230" y="220" width="584" height="724">
<path d="M230.535 220.129H813.477V943.954H230.535V220.129Z" fill="white" style="fill:white;fill-opacity:1;"/>
</mask>
<g mask="url(#mask0_1_3950)">
<path d="M408.037 875.513C444.9 881.92 482.297 884.735 519.703 883.918H523.105C578.938 883.718 618.761 879.316 637.972 875.113C640.574 854.301 653.982 829.887 672.793 796.267C706.412 735.631 752.439 652.783 753.44 559.728C753.84 527.509 741.433 492.689 716.218 456.068C643.976 491.288 584.341 608.157 566.33 653.984C563.699 660.574 558.818 666.019 552.554 669.353C546.289 672.687 539.046 673.693 532.11 672.194C525.162 670.686 518.975 666.761 514.65 661.117C510.326 655.473 508.145 648.478 508.496 641.376C516.734 533.832 544.397 428.672 590.144 330.994C568.385 314.685 545.881 299.393 522.705 285.167C500.291 298.775 454.665 327.993 409.838 366.615C355.006 414.243 289.768 486.285 290.569 559.728C291.569 653.783 338.197 735.631 372.216 795.466C391.628 829.687 405.636 854.501 408.037 875.513ZM519.903 943.953C486.884 943.953 455.265 942.353 429.85 939.551C384.624 934.748 369.815 926.943 361.01 920.139C348.202 910.134 343.199 894.524 347.802 880.116C345.801 870.11 331.393 845.296 319.786 825.084C284.965 763.248 231.934 669.793 230.533 560.329C229.733 482.483 277.161 401.836 371.416 320.588C413.823 283.91 459.815 251.595 508.696 224.132C513.139 221.679 518.13 220.393 523.205 220.393C528.279 220.393 533.271 221.679 537.713 224.132C539.715 225.332 589.944 253.549 647.178 299.176C652.688 303.581 656.47 309.787 657.86 316.703C659.251 323.62 658.161 330.805 654.782 336.998C630.46 382.657 611.394 430.927 597.949 480.882C636.571 432.654 677.195 402.436 719.42 390.829C725.148 389.273 731.21 389.45 736.838 391.337C742.466 393.225 747.407 396.739 751.038 401.436C793.063 455.667 814.275 509.099 813.675 560.329C812.474 668.592 760.244 762.847 725.624 825.284C714.417 845.496 700.609 870.31 698.207 880.316C702.61 894.124 698.207 909.133 686 919.139C677.595 925.943 662.987 933.748 617.96 938.951C586.853 942.259 555.588 943.862 524.306 943.753H520.103" fill="black" style="fill:black;fill-opacity:1;"/>
</g>
<path d="M325.191 769.051C356.41 817.68 688.404 826.685 721.424 769.051" stroke="black" style="stroke:black;stroke-opacity:1;" stroke-width="5.86281" stroke-miterlimit="10" stroke-linecap="round" stroke-linejoin="round"/>
</svg>
