<svg width="1024" height="1024" viewBox="0 0 1024 1024" fill="none" xmlns="http://www.w3.org/2000/svg">
<path d="M745.31 897.94H298.086C320.043 870.736 332.142 836.899 332.413 801.94C332.413 788.364 330.474 746.279 298.086 705.94H745.31C723.353 733.144 711.254 766.981 710.983 801.94C710.983 815.516 712.922 857.601 745.31 897.94Z" fill="#CCCCCC" style="fill:#CCCCCC;fill:color(display-p3 0.8000 0.8000 0.8000);fill-opacity:1;"/>
<path d="M397.577 897.94C404.559 877.964 419.686 847.904 420.85 810.667C422.208 764.51 405.141 729.794 397.577 707.879C376.826 707.879 344.632 705.94 323.88 705.94L354.135 810.667L306.426 897.94H397.577Z" fill="white" style="fill:white;fill-opacity:1;"/>
<path d="M346.183 868.849H697.213C680.034 825.897 680.034 777.983 697.213 735.031H346.183C363.362 777.983 363.362 825.897 346.183 868.849ZM745.31 927.031H298.086C287.613 927.031 278.11 920.243 273.843 909.964C271.722 904.849 270.999 899.261 271.748 893.774C272.498 888.287 274.694 883.099 278.11 878.74C295.778 857.016 305.556 829.941 305.843 801.94C305.843 786.037 302.159 755.201 278.11 725.14C274.729 720.802 272.554 715.647 271.804 710.199C271.055 704.75 271.758 699.199 273.843 694.11C278.11 683.637 287.419 676.849 298.086 676.849H745.31C755.783 676.849 765.286 683.637 769.552 693.916C771.694 699.027 772.428 704.619 771.678 710.11C770.928 715.601 768.72 720.791 765.286 725.14C747.617 746.864 737.84 773.939 737.552 801.94C737.552 817.843 741.237 848.679 765.286 878.74C768.685 883.069 770.872 888.224 771.622 893.677C772.371 899.13 771.657 904.684 769.552 909.77C767.696 914.738 764.395 919.037 760.074 922.113C755.754 925.189 750.612 926.902 745.31 927.031Z" fill="black" style="fill:black;fill-opacity:1;"/>
<path d="M302.74 628.946L234.086 382.643C240.486 386.522 332.025 516.461 377.989 487.758C414.45 464.873 406.886 324.461 409.795 269.576C425.892 320.388 479.807 451.491 521.698 451.491C563.589 451.491 617.504 320.388 633.601 269.576C634.571 275.782 618.28 458.085 681.504 487.758C717.577 504.825 797.674 387.879 809.31 382.643C797.286 450.91 753.456 545.164 741.431 628.558C738.492 649.914 727.952 669.495 711.744 683.708C695.535 697.921 674.746 705.815 653.189 705.94H390.983C369.439 705.915 348.629 698.111 332.38 683.965C316.132 669.819 305.537 650.281 302.547 628.946" fill="#CCCCCC" style="fill:#CCCCCC;fill:color(display-p3 0.8000 0.8000 0.8000);fill-opacity:1;"/>
<path d="M294.401 444.122C422.789 508.122 306.425 676.849 572.122 676.849L378.182 705.94C337.378 668.444 308.283 619.952 294.401 566.303C281.601 513.94 288.195 469.916 294.401 444.122Z" fill="white" style="fill:white;fill-opacity:1;"/>
<path d="M290.717 485.431L328.147 620.413L329.117 624.292C331.437 639.004 338.955 652.398 350.306 662.041C361.657 671.684 376.09 676.938 390.984 676.849H653.19C684.22 676.849 710.79 654.158 715.25 624.098C723.408 576.979 735.606 530.651 751.711 485.625C722.814 512.195 696.05 526.352 670.838 514.522C638.644 499.201 618.087 459.055 609.941 394.861C578.911 453.237 550.79 480.582 521.699 480.582C492.608 480.582 464.293 453.043 433.069 394.085V393.698C428.802 452.267 418.717 495.71 391.178 512.97C382.843 518.308 373.148 521.136 363.25 521.116C339.202 521.116 313.796 505.601 290.523 485.431M653.19 735.031H390.984C363.426 734.965 336.827 724.904 316.123 706.716C295.169 688.334 281.253 663.243 276.753 635.734L208.681 391.176C205.578 379.928 208.875 367.516 217.408 360.146C221.356 356.558 226.356 354.337 231.666 353.813C236.976 353.289 242.313 354.489 246.887 357.237C253.834 362.185 259.815 368.364 264.535 375.467C276.947 390.788 300.22 419.104 323.687 439.661C349.869 462.546 362.281 463.71 364.414 462.546C365.384 461.576 373.335 452.267 377.99 410.182C381.481 378.958 381.869 341.528 382.256 311.467C382.45 294.401 382.644 279.661 383.226 267.831C384.002 254.061 393.699 242.619 406.305 240.679C418.911 238.74 430.935 246.885 435.008 260.073C446.373 294.586 460.378 328.172 476.899 360.534C500.559 406.304 516.656 420.267 521.699 422.207C526.741 420.267 543.032 406.304 566.499 360.534C583.018 328.171 597.023 294.585 608.39 260.073C612.269 247.467 623.517 239.516 635.541 240.679C647.76 241.649 657.65 251.54 659.784 264.534C660.366 268.413 660.172 271.128 659.784 280.437C654.353 422.788 679.953 453.625 690.426 460.219C693.335 459.249 702.644 455.37 721.456 437.334C737.553 421.819 753.844 402.813 766.838 387.492C784.293 367.128 790.499 359.564 799.226 355.685C808.341 351.807 818.62 353.552 826.184 360.146C829.957 363.686 832.785 368.113 834.41 373.024C836.036 377.936 836.408 383.175 835.493 388.267C829.675 421.237 817.456 458.279 804.462 497.649C788.366 541.647 776.038 586.933 767.614 633.019C763.722 661.501 749.755 687.646 728.244 706.716C707.49 724.948 680.815 735.012 653.19 735.031Z" fill="black" style="fill:black;fill-opacity:1;"/>
<path d="M451.88 217.213C451.88 224.089 450.525 230.898 447.894 237.251C445.262 243.605 441.405 249.377 436.543 254.239C431.68 259.102 425.908 262.959 419.555 265.59C413.202 268.222 406.392 269.576 399.516 269.576C392.639 269.576 385.83 268.222 379.477 265.59C373.124 262.959 367.352 259.102 362.489 254.239C357.627 249.377 353.77 243.605 351.138 237.251C348.507 230.898 347.152 224.089 347.152 217.213C347.152 203.325 352.669 190.006 362.489 180.186C372.309 170.366 385.628 164.849 399.516 164.849C413.404 164.849 426.723 170.366 436.543 180.186C446.363 190.006 451.88 203.325 451.88 217.213Z" fill="#F2F2F2" style="fill:#F2F2F2;fill:color(display-p3 0.9490 0.9490 0.9490);fill-opacity:1;"/>
<path d="M451.88 217.213C451.88 224.089 450.525 230.898 447.894 237.251C445.262 243.605 441.405 249.377 436.543 254.239C431.68 259.102 425.908 262.959 419.555 265.59C413.202 268.222 406.392 269.576 399.516 269.576C392.639 269.576 385.83 268.222 379.477 265.59C373.124 262.959 367.352 259.102 362.489 254.239C357.627 249.377 353.77 243.605 351.138 237.251C348.507 230.898 347.152 224.089 347.152 217.213C347.152 203.325 352.669 190.006 362.489 180.186C372.309 170.366 385.628 164.849 399.516 164.849C413.404 164.849 426.723 170.366 436.543 180.186C446.363 190.006 451.88 203.325 451.88 217.213Z" stroke="black" style="stroke:black;stroke-opacity:1;" stroke-width="5.68182" stroke-miterlimit="10" stroke-linejoin="round"/>
<path d="M696.243 217.213C696.243 224.089 694.888 230.898 692.257 237.251C689.625 243.605 685.768 249.377 680.906 254.239C676.044 259.102 670.271 262.959 663.918 265.59C657.565 268.222 650.756 269.576 643.879 269.576C637.003 269.576 630.194 268.222 623.841 265.59C617.488 262.959 611.715 259.102 606.853 254.239C601.99 249.377 598.133 243.605 595.502 237.251C592.87 230.898 591.516 224.089 591.516 217.213C591.516 203.325 597.032 190.006 606.853 180.186C616.673 170.366 629.992 164.849 643.879 164.849C657.767 164.849 671.086 170.366 680.906 180.186C690.726 190.006 696.243 203.325 696.243 217.213Z" fill="#F2F2F2" style="fill:#F2F2F2;fill:color(display-p3 0.9490 0.9490 0.9490);fill-opacity:1;"/>
<path d="M696.243 217.213C696.243 224.089 694.888 230.898 692.257 237.251C689.625 243.605 685.768 249.377 680.906 254.239C676.044 259.102 670.271 262.959 663.918 265.59C657.565 268.222 650.756 269.576 643.879 269.576C637.003 269.576 630.194 268.222 623.841 265.59C617.488 262.959 611.715 259.102 606.853 254.239C601.99 249.377 598.133 243.605 595.502 237.251C592.87 230.898 591.516 224.089 591.516 217.213C591.516 203.325 597.032 190.006 606.853 180.186C616.673 170.366 629.992 164.849 643.879 164.849C657.767 164.849 671.086 170.366 680.906 180.186C690.726 190.006 696.243 203.325 696.243 217.213Z" stroke="black" style="stroke:black;stroke-opacity:1;" stroke-width="5.68182" stroke-miterlimit="10" stroke-linejoin="round"/>
<path d="M888.243 321.94C888.243 335.828 882.726 349.146 872.906 358.966C863.086 368.787 849.767 374.303 835.879 374.303C821.992 374.303 808.673 368.787 798.853 358.966C789.032 349.146 783.516 335.828 783.516 321.94C783.516 308.052 789.032 294.733 798.853 284.913C808.673 275.093 821.992 269.576 835.879 269.576C849.767 269.576 863.086 275.093 872.906 284.913C882.726 294.733 888.243 308.052 888.243 321.94Z" fill="#F2F2F2" style="fill:#F2F2F2;fill:color(display-p3 0.9490 0.9490 0.9490);fill-opacity:1;"/>
<path d="M888.243 321.94C888.243 335.828 882.726 349.146 872.906 358.966C863.086 368.787 849.767 374.303 835.879 374.303C821.992 374.303 808.673 368.787 798.853 358.966C789.032 349.146 783.516 335.828 783.516 321.94C783.516 308.052 789.032 294.733 798.853 284.913C808.673 275.093 821.992 269.576 835.879 269.576C849.767 269.576 863.086 275.093 872.906 284.913C882.726 294.733 888.243 308.052 888.243 321.94Z" stroke="black" style="stroke:black;stroke-opacity:1;" stroke-width="5.68182" stroke-miterlimit="10" stroke-linejoin="round"/>
<path d="M259.88 321.94C259.88 328.816 258.525 335.625 255.894 341.978C253.262 348.332 249.405 354.104 244.543 358.966C239.68 363.829 233.908 367.686 227.555 370.317C221.202 372.949 214.392 374.303 207.516 374.303C200.639 374.303 193.83 372.949 187.477 370.317C181.124 367.686 175.352 363.829 170.489 358.966C165.627 354.104 161.77 348.332 159.138 341.978C156.507 335.625 155.152 328.816 155.152 321.94C155.152 308.052 160.669 294.733 170.489 284.913C180.309 275.093 193.628 269.576 207.516 269.576C221.404 269.576 234.723 275.093 244.543 284.913C254.363 294.733 259.88 308.052 259.88 321.94Z" fill="#F2F2F2" style="fill:#F2F2F2;fill:color(display-p3 0.9490 0.9490 0.9490);fill-opacity:1;"/>
<path d="M330.086 810.667H713.31M259.88 321.94C259.88 328.816 258.525 335.625 255.894 341.978C253.262 348.332 249.405 354.104 244.543 358.966C239.68 363.829 233.908 367.686 227.555 370.317C221.202 372.949 214.392 374.303 207.516 374.303C200.639 374.303 193.83 372.949 187.477 370.317C181.124 367.686 175.352 363.829 170.489 358.966C165.627 354.104 161.77 348.332 159.138 341.978C156.507 335.625 155.152 328.816 155.152 321.94C155.152 308.052 160.669 294.733 170.489 284.913C180.309 275.093 193.628 269.576 207.516 269.576C221.404 269.576 234.723 275.093 244.543 284.913C254.363 294.733 259.88 308.052 259.88 321.94Z" stroke="black" style="stroke:black;stroke-opacity:1;" stroke-width="5.68182" stroke-miterlimit="10" stroke-linejoin="round"/>
</svg>
