<svg width="1024" height="1024" viewBox="0 0 1024 1024" fill="none" xmlns="http://www.w3.org/2000/svg">
<path d="M320.435 533.987C321.452 394.943 231.878 279.31 258.343 196.046H786.019C812.484 279.31 722.909 394.739 723.724 533.987C724.741 681.174 813.298 803.321 786.019 889.231H258.343C231.064 803.321 319.417 680.97 320.435 533.987Z" fill="#CCCCCC" style="fill:#CCCCCC;fill:color(display-p3 0.8000 0.8000 0.8000);fill-opacity:1;"/>
<path d="M409.194 199.508C389.243 311.883 421.408 454.591 421.408 551.698C421.408 646.362 384.153 757.313 390.872 889.639L267.91 889.232L307.608 551.698L267.91 195.029L409.194 199.508Z" fill="white" style="fill:white;fill-opacity:1;"/>
<mask id="mask0_1_4067" style="mask-type:luminance" maskUnits="userSpaceOnUse" x="220" y="162" width="605" height="761">
<path d="M220.07 162.863H824.291V922.211H220.07V162.863Z" fill="white" style="fill:white;fill-opacity:1;"/>
</mask>
<g mask="url(#mask0_1_4067)">
<path d="M731.663 736.548C712.73 676.899 691.354 609.515 690.947 534.394C690.336 461.513 712.119 396.368 731.459 338.959C745.71 296.818 758.128 259.156 757.924 229.027H286.436C286.436 259.156 298.855 296.818 312.902 338.959C332.242 396.368 354.025 461.513 353.617 534.394C353.007 609.515 331.631 676.899 312.902 736.548C298.244 782.557 285.215 823.679 286.233 856.048H758.331C759.146 823.476 746.117 782.557 731.663 736.548ZM226.788 899.207C209.484 844.241 229.027 782.149 249.792 716.597C267.3 661.631 287.047 599.132 287.454 533.784C287.861 471.896 268.725 415.097 250.403 360.131C229.638 298.04 209.687 239.205 226.788 185.868C228.912 179.173 233.119 173.331 238.795 169.193C244.47 165.056 251.319 162.838 258.343 162.863H786.018C800.269 162.863 813.094 172.228 817.573 185.868C834.266 239.205 814.723 297.836 793.754 360.131C775.432 415.097 756.296 472.099 756.906 533.784C757.314 598.929 777.061 661.427 794.365 716.597C815.13 782.149 834.877 844.241 817.573 899.207C815.448 905.902 811.242 911.744 805.566 915.881C799.89 920.019 793.042 922.237 786.018 922.211H258.343C251.319 922.237 244.47 920.019 238.795 915.881C233.119 911.744 228.912 905.902 226.788 899.207Z" fill="black" style="fill:black;fill-opacity:1;"/>
</g>
<path d="M420.799 212.74V331.223M623.766 212.74V331.223M267.504 770.138H776.857M302.316 449.502H742.045" stroke="black" style="stroke:black;stroke-opacity:1;" stroke-width="5.96421" stroke-miterlimit="10" stroke-linejoin="round"/>
</svg>
