<svg width="1024" height="1024" viewBox="0 0 1024 1024" fill="none" xmlns="http://www.w3.org/2000/svg">
<path d="M467.477 281.044C447.172 307.459 430.309 336.794 411.825 364.522C366.73 432.165 317.544 504.63 331.922 589.914C338.756 630.437 361.507 667.626 384.001 701.218C390.983 711.642 413.97 734.376 410.358 747.93C407.03 760.415 380.439 766.888 370.085 771.643C331.121 789.532 287.915 806.381 253.327 832.12C218.75 857.851 228.172 911.272 228.172 948.87H795.825C795.825 911.272 805.246 857.851 770.67 832.12C736.082 806.381 692.876 789.532 653.911 771.643C643.557 766.888 616.967 760.415 613.639 747.93C610.302 735.413 629.831 716.227 636.259 706.783C658.483 674.124 679.542 639.594 689.651 601.044C713.276 510.954 655.798 429.961 608.463 358.957C592.305 334.721 578.01 303.522 556.52 283.827C566.229 272.404 575.208 259.996 577.866 244.87C579.891 233.347 579.41 219.941 576.168 208.696C565.077 170.232 516.562 152.148 481.39 169.74C450.372 185.256 436.565 223.834 449.331 256.001C453.363 266.157 459.168 274.157 467.477 281.044Z" fill="white" style="fill:white;fill-opacity:1;"/>
<path d="M500.871 193.818C453.374 208.655 475.874 281.955 523.132 267.14C570.709 252.225 547.669 179.199 500.871 193.818ZM314.436 829.219C326.165 834.141 340.773 832.001 353.392 832.001H709.566C683.772 811.162 644.729 800.307 614.958 785.384C602.589 779.185 582.526 771.766 578.581 756.829C575.5 745.156 585.437 730.177 591.205 720.697C608.424 692.392 629.653 666.853 644.846 637.219C680.391 567.879 662.476 500.86 624.407 436.871C613.205 418.044 601.323 395.246 584.349 381.219C552.43 441.178 507.379 494.977 478.61 556.523C471.99 551.973 460.551 546.417 461.049 536.933C461.73 523.919 477.519 506.163 484.314 495.306C505.114 462.079 525.614 428.64 545.957 395.132C553.771 382.259 571.791 363.744 565.157 347.827C554.639 322.6 528.288 280.541 495.417 297.818C474.302 308.915 459.964 345.187 447.074 364.523C404.576 428.27 343.369 504.844 360.819 587.132C369.801 629.494 395.006 666.3 419.396 701.219C428.779 714.656 450.177 738.814 445.422 756.829C441.704 770.901 423.525 778.116 411.827 784.007C380.002 800.035 347.666 816.327 314.436 829.219ZM256.001 921.045H768.001C768.001 905.704 773.071 869.77 755.774 861.505C746.338 857 730.914 859.827 720.697 859.827H300.523C291.023 859.827 277.021 857.306 268.228 861.505C250.931 869.77 256.001 905.704 256.001 921.045Z" fill="black" style="fill:black;fill-opacity:1;"/>
</svg>
