<svg width="1024" height="1024" viewBox="0 0 1024 1024" fill="none" xmlns="http://www.w3.org/2000/svg">
<path d="M453.565 333.912C438.95 341.191 426.852 351.203 417.391 364.52C348.677 314.753 224.72 311.943 165.008 378.542C130.42 417.12 123.124 467.68 125.328 517.564C127.713 571.56 158.956 624.296 188.299 667.825C197.982 682.194 214.316 696.555 221.089 712.347C226.326 724.559 210.47 735.387 205.829 745.738C195.408 768.973 202.504 794.798 222.608 809.738C190.497 843.686 203.13 905.023 203.13 948.868H820.869V870.955C820.869 847.612 821.765 827.694 801.391 812.52C818.448 794.528 828.747 773.252 819.302 748.52C815.017 737.301 797.528 724.893 802.91 712.347C806.831 703.211 815.838 695.153 821.832 687.303C832.03 673.944 841.413 659.83 850.295 645.564C889.914 581.923 914.329 505.243 889.444 431.303C861.979 349.697 779.581 323.63 701.217 330.92C670.747 333.756 631.501 341.787 609.391 364.52C597.437 352.667 585.597 341.464 570.434 333.912C583.604 314.99 599.457 299.391 602.988 275.477C605.32 259.683 605.211 240.683 600.428 225.39C581.701 165.486 502.096 144.555 453.576 182.343C423.983 205.389 413.837 245.191 422.068 281.042C426.952 302.324 441.541 316.64 453.565 333.912Z" fill="white" style="fill:white;fill-opacity:1;"/>
<path d="M498.085 193.445C416.866 211.059 445.107 336.084 525.911 318.557C607.13 300.943 578.889 175.92 498.085 193.445ZM509.215 486.957H514.781C526.084 459.949 542.988 434.683 561.156 411.827C567.247 404.163 583.403 392.326 580.601 381.229C578.26 371.955 566.668 364.923 559.302 359.959C535.578 343.967 495.233 341.171 470.259 356.367C461.388 361.765 443.012 371.916 443.009 384.003C443.003 394.839 458.906 406.718 465.228 414.609C482.63 436.33 498.455 461.246 509.215 486.957ZM498.085 704.001V581.566C498.085 562.307 501.602 538.992 496.313 520.349C486.977 487.464 462.573 451.88 441.139 425.74C424.735 405.733 404.431 388.019 381.215 376.404C312.56 342.053 206.011 351.01 168.646 425.74C135.277 492.478 160.287 569.776 197.711 628.87C209.311 647.185 221.694 664.972 235.446 681.74C241.345 688.933 247.917 698.605 256.791 702.323C275.61 710.203 308.058 704.001 328.346 704.001H498.085ZM525.911 704.001H695.65C716.18 704.001 748.411 710.125 767.525 702.323C776.424 698.689 782.715 688.925 788.559 681.74C802.246 664.905 814.679 647.197 826.285 628.87C863.709 569.776 888.719 492.478 855.35 425.74C817.985 351.01 711.436 342.053 642.781 376.404C619.565 388.019 599.261 405.733 582.857 425.74C561.423 451.88 537.019 487.464 527.684 520.349C522.394 538.992 525.911 562.307 525.911 581.566V704.001ZM255.998 731.827V742.957C223.848 747.29 223.848 788.712 255.998 793.044V804.175H767.998V793.044C800.148 788.712 800.148 747.29 767.998 742.957V731.827H255.998Z" fill="black" style="fill:black;fill-opacity:1;"/>
<path d="M503.695 745.031C474.118 756.27 491.037 802.089 520.307 790.967C549.883 779.728 532.965 733.909 503.695 745.031Z" fill="white" style="fill:white;fill-opacity:1;"/>
<path d="M230.957 921.045H793.044C793.044 901.573 793.305 882.08 793.033 862.61C792.899 853.033 792.323 842.843 784.061 836.462C774.832 829.339 759.43 832.002 748.522 832.002H278.261C267.451 832.002 252.169 829.358 242.391 834.862C232.106 840.65 231.115 852.045 230.968 862.61C230.695 882.08 230.957 901.573 230.957 921.045Z" fill="black" style="fill:black;fill-opacity:1;"/>
</svg>
