<svg width="1024" height="1024" viewBox="0 0 1024 1024" fill="none" xmlns="http://www.w3.org/2000/svg">
<path d="M403.478 598.26C389.807 668.752 355.23 728.35 308.076 781.912C286.764 806.118 251.461 824.895 237.434 854.26C223.601 883.216 228.173 917.712 228.173 948.869H795.825C795.825 917.712 800.397 883.216 786.565 854.26C772.607 825.043 737.174 806.049 715.923 781.912C668.769 728.35 634.192 668.752 620.521 598.26C631.084 598.04 640.923 596.485 651.13 593.694C658.924 591.562 666.562 588.872 673.377 584.43C710.739 560.08 685.551 521.616 662.152 498.195C654.689 490.729 642.426 483.845 639.693 473.001C637.492 464.272 641.466 453.96 642.309 445.217C643.569 432.158 641.897 419.043 639.204 406.26C626.067 343.938 570.518 305.992 509.217 306.086C450.145 306.178 397.142 347.683 384.795 406.26C382.102 419.043 380.429 432.158 381.69 445.217C382.533 453.96 386.507 464.272 384.305 473.001C381.573 483.845 369.31 490.729 361.847 498.195C338.448 521.616 313.26 560.08 350.622 584.43C357.437 588.872 365.075 591.562 372.869 593.694C383.076 596.485 392.915 598.04 403.478 598.26Z" fill="white" style="fill:white;fill-opacity:1;"/>
<path d="M358.956 550.956H665.043C655.02 521.235 621.634 510.945 609.193 484.174C604.12 473.26 612.521 459.108 614.121 448C616.494 431.516 614.096 413.418 608.088 397.913C578.915 322.604 474.531 310.584 427.934 375.652C413.801 395.386 406.936 421.028 409.527 445.217C410.796 457.088 420.142 472.69 414.805 484.174C402.364 510.945 368.979 521.235 358.956 550.956ZM434.086 578.783C424.773 652.41 396.193 718.592 349.328 776.348C334.31 794.855 318.21 812.741 300.521 828.744C288.088 839.994 271.009 850.529 262.794 865.5C253.676 882.126 255.999 902.812 255.999 921.043H767.999C767.999 902.812 770.323 882.126 761.204 865.5C752.993 850.529 735.91 839.994 723.477 828.744C705.788 812.741 689.688 794.855 674.67 776.348C627.806 718.592 599.226 652.41 589.912 578.783H434.086Z" fill="black" style="fill:black;fill-opacity:1;"/>
</svg>
