<svg width="1024" height="1024" viewBox="0 0 1024 1024" fill="none" xmlns="http://www.w3.org/2000/svg">
<path d="M228.175 253.219V353.393C228.175 366.827 224.883 385.571 231.035 397.914C235.71 407.297 244.798 415.103 251.616 422.958C269.636 443.719 288.719 463.542 306.881 484.175C314.503 492.832 324.848 500.963 329.067 512.001C335.675 529.306 331.131 554.89 331.131 573.219C331.131 616.299 334.704 661.096 330.967 704.001C329.415 721.849 312.352 733.912 300.523 745.74C272.51 773.753 239.634 800.68 215.358 832.001C192.875 861.01 203.131 914.175 203.131 948.871H820.871C820.871 914.175 831.13 861.01 808.644 832.001C784.368 800.68 751.492 773.753 723.479 745.74C711.65 733.912 694.587 721.849 693.035 704.001C689.298 661.096 692.871 616.299 692.871 573.219C692.871 554.89 688.327 529.306 694.935 512.001C699.154 500.963 709.499 492.832 717.121 484.175C735.283 463.542 754.366 443.719 772.386 422.958C779.204 415.103 788.292 407.297 792.967 397.914C799.119 385.571 795.827 366.827 795.827 353.393V253.219H626.088V306.088H589.914V253.219H434.088V306.088H397.914V253.219H228.175Z" fill="white" style="fill:white;fill-opacity:1;"/>
<path d="M256 281.043V350.608C256 361.046 254.013 374.043 257.678 383.999C264.125 401.505 284.836 417.739 297.269 431.29C302.425 436.914 307.18 443.481 314.543 446.322C334.222 453.907 365.81 447.999 386.782 447.999H667.826C681.722 447.999 702.684 451.892 714.657 443.539C727.877 434.315 738.746 418.334 749.315 406.26C755.339 399.376 763.083 392.79 766.322 383.999C769.987 374.043 768 361.046 768 350.608V281.043H653.913V333.913H562.087V281.043H461.913V333.913H370.087V281.043H256ZM358.956 475.826V751.304H665.043V475.826H358.956ZM228.174 923.826H795.826C795.826 904.408 800.434 878.057 793.018 859.828C783.98 837.615 754.184 818.148 737.391 801.391C730.006 794.02 722.418 784.523 712.348 780.808C690.866 772.888 657.23 779.13 634.435 779.13H356.174C342.046 779.13 321.825 775.513 308.869 781.99C288.587 792.13 272.445 816.406 256 831.749C246.066 841.021 234.257 849.021 229.991 862.608C224.264 880.845 228.174 904.84 228.174 923.826Z" fill="black" style="fill:black;fill-opacity:1;"/>
</svg>
