<svg width="1024" height="1024" viewBox="0 0 1024 1024" fill="none" xmlns="http://www.w3.org/2000/svg">
<path d="M492.523 278.262C467.412 303.584 450.08 334.972 430.379 364.523C384.827 432.85 326.846 511.055 349.157 598.262C364.564 658.475 414.562 699.624 434.088 756.871C390.376 775.706 345.481 798.009 303.305 820.262C285.758 829.519 262.047 839.581 251.457 857.156C237.769 879.86 242.088 909.639 242.088 934.958H781.914C781.914 909.639 786.23 879.86 772.545 857.156C761.954 839.581 738.244 829.519 720.697 820.262C678.176 797.828 633.456 777.201 589.914 756.871C609.439 699.624 659.437 658.475 674.845 598.262C697.963 507.905 634.689 423.322 586.344 353.393C568.485 327.562 553.729 300.701 531.479 278.262C584.19 257.827 568.02 178.172 512.001 178.172C455.981 178.172 439.812 257.827 492.523 278.262Z" fill="black" style="fill:black;fill-opacity:1;"/>
<path d="M506.45 207.619C474.892 215.201 488.825 260.95 520.229 252.01C548.403 243.988 534.234 200.941 506.45 207.619ZM347.827 829.217C358.843 833.839 372.147 832 384.001 832H676.175C651.755 813.518 618.856 806.353 592.697 790.077C581.9 783.363 568.697 775.018 564.194 762.432C557.647 744.122 573.934 721.094 583.422 706.783C606.159 672.49 633.278 638.161 645.458 598.261C668.971 521.222 616.633 458.115 581.566 395.13H576.001C557.7 433.825 530.881 469.824 508.654 506.435C501.352 518.461 491.365 544.047 478.821 550.965C471.439 555.036 460.125 545.672 453.566 542.609C480.588 507.194 501.291 466.207 525.026 428.522C535.099 412.53 553.559 391.566 557.199 372.87C560.357 356.65 541.166 335.196 532.395 322.836C528.385 317.184 524.381 311.56 517.307 309.768C493.533 303.736 478.426 343.29 468.336 358.957C432.585 414.461 384.702 469.635 374.092 537.044C365.46 591.875 394.834 638.161 423.884 681.739C437.371 701.966 463.692 730.527 461.018 756.87C459.649 770.351 447.222 779.476 436.871 786.477C410.647 804.219 377.757 819.028 347.827 829.217ZM269.914 907.13H754.088C754.055 894.934 754.411 881.695 746.567 871.482C729.954 849.856 678.276 859.826 653.914 859.826H361.74C336.858 859.826 287.798 849.761 274.291 876.633C269.544 886.077 269.942 896.863 269.914 907.13Z" fill="white" style="fill:white;fill-opacity:1;"/>
</svg>
