<svg width="1024" height="1024" viewBox="0 0 1024 1024" fill="none" xmlns="http://www.w3.org/2000/svg">
<path d="M492.522 331.129C465.598 343.125 434.945 356.746 420.175 383.998C400.298 371.744 381.441 359.862 358.957 352.683C292.881 331.585 203.053 344.605 163.34 406.259C154.533 419.93 148.887 435.034 145.061 450.781C140.475 469.658 138.043 489.793 139.382 509.216C142.966 561.273 168.012 611.691 197.246 653.911C209.879 672.16 229.691 689.76 239.235 709.564C247.572 726.858 231.11 733.728 223.021 745.996C208.894 767.422 219.387 795.187 242.088 804.172C237.051 818.979 223.402 828.106 218.85 843.132C210.697 870.023 217.044 906.934 217.044 934.955H806.957C806.957 906.934 813.302 870.023 805.151 843.132C800.596 828.106 786.947 818.979 781.914 804.172C803.373 795.677 814.595 770.085 802.58 748.771C794.975 735.275 775.934 727.887 784.766 709.564C794.31 689.76 814.12 672.16 826.755 653.911C855.99 611.691 881.036 561.273 884.62 509.216C885.958 489.793 883.526 469.658 878.94 450.781C875.114 435.034 869.468 419.93 860.662 406.259C820.948 344.605 731.12 331.585 665.044 352.683C642.561 359.862 623.703 371.744 603.827 383.998C590.604 359.601 558.879 338.019 531.479 333.911C558.359 319.523 581.602 304.853 588.472 272.694C600.426 216.747 548.155 165.878 492.522 180.2C416.435 199.79 415.372 312.633 492.522 331.129Z" fill="black" style="fill:black;fill-opacity:1;"/>
<path d="M500.868 207.395C438.014 222.271 460.784 319.359 523.129 304.608C585.982 289.733 563.212 192.645 500.868 207.395ZM498.085 360.43C481.523 364.251 465.81 375.813 453.619 387.269C448.443 392.133 441.584 398.374 443.354 406.263C447.021 422.599 468.392 441.844 477.424 456.35C485.805 469.812 492.013 484.618 500.525 497.925C503.414 502.444 507.794 508.946 514.127 507.127C527.255 503.359 536.599 472.803 543.174 461.915C551.272 448.503 559.962 435.391 569.498 422.958C573.65 417.549 581.088 410.873 580.998 403.48C580.896 394.751 570.892 387.488 564.865 382.513C545.796 366.764 523.524 354.562 498.085 360.43ZM269.911 704.002H498.085V598.263C498.085 581.845 501.274 561.602 497.211 545.644C494.281 534.132 483.435 522.712 477.889 512.002C458.074 473.755 435.621 432.43 400.694 405.984C326.957 350.151 187.424 359.378 170.561 467.48C168.594 480.096 166.256 493.67 167.428 506.437C171.963 555.736 195.368 602.935 223.795 642.784C238.178 662.944 259.54 681.733 269.911 704.002ZM525.911 704.002H754.085C764.456 681.733 785.818 662.944 800.201 642.784C828.628 602.935 852.033 555.736 856.566 506.437C857.754 493.539 855.197 480.177 853.049 467.48C849.1 444.156 840.36 420.877 823.166 403.995C772.587 354.331 675.301 366.61 623.302 405.984C590.02 431.186 571.092 468.178 550.955 503.654C543.831 516.204 530.28 531.917 526.785 545.644C522.722 561.602 525.911 581.845 525.911 598.263V704.002ZM269.911 731.828C269.371 738.949 268.717 744.753 263.464 750.157C258.074 755.7 246.637 758.708 246.637 767.991C246.637 777.307 257.721 778.478 263.141 783.54C269.115 789.119 269.494 796.571 269.911 804.176H754.085C754.502 796.571 754.881 789.119 760.855 783.54C766.27 778.484 777.359 777.307 777.359 767.999C777.359 758.719 766.343 757.1 760.855 752.077C754.864 746.592 754.5 739.385 754.085 731.828H269.911Z" fill="white" style="fill:white;fill-opacity:1;"/>
<path d="M501.133 745.345C471.862 758.262 493.058 803.816 522.871 790.657C552.141 777.74 530.946 732.186 501.133 745.345Z" fill="black" style="fill:black;fill-opacity:1;"/>
<path d="M244.87 907.129H779.131C779.131 884.431 786.956 847.361 762.422 834.859C752.12 829.608 737.467 831.998 726.262 831.998H300.523C288.599 831.998 272.529 829.28 261.58 834.859C237.046 847.361 244.87 884.431 244.87 907.129Z" fill="white" style="fill:white;fill-opacity:1;"/>
</svg>
