<svg width="1024" height="1024" viewBox="0 0 1024 1024" fill="none" xmlns="http://www.w3.org/2000/svg">
<path d="M320 934.958H859.826C859.826 912.168 862.856 886.95 853.89 865.393C847.454 849.924 833.04 840.9 830.055 823.654C817.744 752.566 806.055 682.305 788.516 612.175C777.252 567.125 764.318 519.62 742.096 478.61C711.674 422.457 664.414 374.098 614.956 334.471C600.297 322.726 577.998 312.371 566.895 297.229C554.19 279.898 555.497 247.854 528.684 243.307C508.469 239.882 504.999 266.876 486.956 265.613C466.368 264.166 462.21 234.726 436.872 244.899C416.818 252.952 408.411 276.813 394.98 292.175C368.787 322.136 336.027 350.599 314.34 384.001C304.192 399.631 303.991 418.219 295.051 434.088C268.051 482.022 212.296 513.562 202.062 570.436C198.077 592.572 196.605 624.294 204.697 645.567C218.796 682.625 267.297 709.678 306.087 700.54C331.573 694.538 352.125 672.04 372.869 657.128C392.2 643.235 413.551 634.854 434.087 623.295C456.826 610.495 476.986 595.096 498.075 579.85C506.824 573.525 516.496 567.91 521.132 581.664C525.543 594.739 517.209 609.601 510.736 620.523C493.473 649.66 469.019 674.631 445.217 698.436C417.344 726.312 386.092 753.696 365.167 787.48C356.393 801.649 354.382 817.523 346.983 832.001C339.751 846.148 326.981 855.008 322.582 870.958C317.045 891.043 320 914.297 320 934.958Z" fill="black" style="fill:black;fill-opacity:1;"/>
<path d="M445.216 272.695C424.51 297.705 405.374 323.553 383.528 347.826C368.925 364.051 351.15 379.703 339.07 397.913C326.454 416.932 326.902 440.345 312.541 459.13C295.826 480.999 277.238 501.749 259.864 523.13C249.813 535.499 238.821 546.757 233.738 562.087C242.308 562.092 253.288 560.626 260.918 565.367C269.372 570.624 269.374 581.376 260.918 586.632C252.019 592.161 238.184 589.913 228.172 589.913C228.172 615.067 227.249 634.148 244.868 653.913C258.03 644.641 277.856 613.979 294.949 614.848C301.956 615.207 308.915 622.33 314.433 626.087C300.128 640.392 284.362 654.046 272.694 670.608C308.64 679.168 328.766 653.428 356.172 634.504C388.209 612.388 424.739 598.519 456.346 575.577C470.429 565.353 494.042 538.885 511.998 538.101C520.75 537.719 528.449 545.38 534.137 551.076C555.001 571.976 553.565 597.963 541.708 623.304C516.79 676.56 464.814 717.362 425.487 759.652C405.622 781.017 382.955 801.825 378.433 832H801.39C801.053 791.223 789.881 749.412 781.912 709.565C764.913 624.553 747.082 527.257 694.321 456.347C666.166 418.512 632.029 384.751 595.477 355.091C584.697 346.345 573.72 337.867 562.085 330.281C554.645 325.431 544.783 321.263 539.861 313.519C533.795 303.975 532.712 289.038 528.694 278.261C507.243 287.749 488.764 303.204 464.803 288.757C457.593 284.41 451.816 277.854 445.216 272.695Z" fill="white" style="fill:white;fill-opacity:1;"/>
<path d="M578.781 397.914C585.59 414.023 597.831 427.888 607.534 442.436C625.471 469.327 643.263 496.722 657.295 525.914C679.008 571.081 695.701 618.664 705.532 667.827C710.329 691.81 710.688 716.256 715.129 740.175H745.738C745.738 648.41 710.118 547.218 656.271 473.044C635.366 444.247 609.994 415.698 578.781 397.914ZM422.955 436.871H372.868C367.122 436.882 357.569 435.404 352.934 439.731C343.551 448.485 359.069 471.567 370.127 470.521C377.337 469.839 383.762 463.163 389.564 459.41C401.226 451.872 413.792 447.561 422.955 436.871Z" fill="black" style="fill:black;fill-opacity:1;"/>
<path d="M347.828 907.129H832.002C831.963 892.74 831.857 876.759 820.245 866.274C811.886 858.722 800.736 859.83 790.263 859.824H442.437C422.958 859.824 403.477 859.699 384.002 859.827C373.364 859.897 362.718 860.278 355.349 869.129C346.684 879.539 347.836 894.476 347.828 907.129Z" fill="white" style="fill:white;fill-opacity:1;"/>
</svg>
