<svg width="1024" height="1024" viewBox="0 0 1024 1024" fill="none" xmlns="http://www.w3.org/2000/svg">
<path d="M420.173 587.13C404.974 648.821 388.195 702.286 349.286 754.087C331.318 777.984 311.275 800.248 289.39 820.619C276.036 833.055 258.954 843.158 250.434 859.837C238.763 882.674 242.086 910.194 242.086 934.957H781.912C781.912 910.194 785.234 882.674 773.567 859.837C765.044 843.158 747.961 833.055 734.608 820.619C712.723 800.248 692.68 777.984 674.712 754.087C635.803 702.286 619.024 648.821 603.825 587.13C614.015 586.326 624.383 584.993 634.434 583.065C641.941 581.626 649.56 579.57 656.692 576.796C660.387 575.36 664.425 573.818 667.522 571.264C698.411 545.778 654.847 513.091 637.222 495.263C632.425 490.413 626.537 485.267 624.285 478.609C619.216 463.616 630.065 442.162 628.073 425.739C620.69 364.867 574.109 320 511.999 320C449.888 320 403.307 364.867 395.925 425.739C393.933 442.162 404.782 463.616 399.712 478.609C397.461 485.267 391.573 490.413 386.776 495.263C369.151 513.091 325.586 545.778 356.476 571.264C359.573 573.818 363.611 575.36 367.306 576.796C374.438 579.57 382.057 581.626 389.564 583.065C399.615 584.993 409.983 586.326 420.173 587.13Z" fill="black" style="fill:black;fill-opacity:1;"/>
<path d="M375.653 548.174H648.349C637.572 532.878 623.261 519.461 609.392 506.908C602.912 501.04 591.278 494.392 588.982 485.346C586.742 476.514 596.264 462.459 598.22 453.566C602.853 432.501 599.211 411.354 589.012 392.348C553.576 326.314 453.035 336.507 428.804 406.261C423.016 422.924 422.242 439.274 426.405 456.348C428.542 465.111 438.507 479.288 434.105 488.028C430.304 495.577 420.665 501.051 414.61 506.686C400.864 519.477 386.472 532.814 375.653 548.174ZM448.001 576C446.362 655.444 403.802 733.607 354.077 793.044C324.091 828.887 270.053 856.64 269.914 907.131H754.088C753.949 856.64 699.911 828.887 669.925 793.044C620.2 733.607 577.64 655.444 576.001 576H448.001Z" fill="white" style="fill:white;fill-opacity:1;"/>
</svg>
