<svg width="1024" height="1024" viewBox="0 0 1024 1024" fill="none" xmlns="http://www.w3.org/2000/svg">
<path d="M389.564 303.303C372.356 377.685 331.638 445.973 314.433 520.346C290.06 491.752 271.289 457.02 250.433 425.738C240.911 411.455 225.262 394.887 220.111 378.433C216.878 368.101 225.481 359.871 228.579 350.607C235.538 329.777 229.046 304.508 211.354 291.165C171.499 261.102 123.783 296.914 128.293 342.259C129.815 357.572 140.097 370.559 153.047 378.411C163.877 384.975 173.561 384.686 178.358 397.964C191.3 433.818 199.15 472.424 209.111 509.216C225.209 568.65 241.596 628.064 258.389 687.303C261.477 698.211 269.383 714.45 265.337 725.786C262.451 733.878 253.928 738.943 249.075 745.779C237.444 762.15 240.975 783.612 255.996 795.825C245.232 809.042 229.099 821.589 222.632 837.564C218.45 847.893 219.822 860.053 219.822 870.955V934.955H806.952V873.738C806.952 862.763 808.204 850.801 804.183 840.357C797.917 824.074 780.896 809.763 767.996 798.607C781.027 783.567 787.616 763.658 774.916 745.779C769.02 737.479 758.318 731.677 757.761 720.586C757.171 708.888 763.221 695.623 766.384 684.52C772.712 662.323 778.325 639.923 784.691 617.738C798.223 570.589 811.443 523.249 823.971 475.825C830.88 449.66 835.905 420.15 846.601 395.293C851.733 383.37 864.026 383.389 873.724 376.616C891.563 364.159 899.632 344.085 895.842 322.781C888.215 279.896 829.625 265.554 803.162 300.64C792.822 314.35 789.967 334.301 795.415 350.607C798.512 359.871 807.116 368.101 803.883 378.433C799.317 393.02 785.701 407.525 777.27 420.172C756.211 451.763 731.385 483.185 715.126 517.564C698.851 491.886 691.251 459.663 680.555 431.303C664.861 389.683 644.681 346.559 634.43 303.303C687.957 285.055 669.597 203.352 614.952 203.352C559.155 203.352 540.818 284.721 595.474 303.303C578.23 347.758 561.036 392.252 544.207 436.868C535.036 461.188 521.977 486.335 517.561 511.999H506.43C502.014 486.335 488.956 461.188 479.784 436.868C462.955 392.252 445.761 347.758 428.517 303.303C483.173 284.721 464.836 203.352 409.039 203.352C354.394 203.352 336.035 285.055 389.561 303.303H389.564Z" fill="black" style="fill:black;fill-opacity:1;"/>
<path d="M403.522 232.884C375.885 240.386 385.541 286.085 414.599 279.329C445.467 272.155 433.705 224.692 403.522 232.884ZM609.407 232.67C579.219 239.71 590.522 287.245 620.482 279.115C648.116 271.615 638.46 225.894 609.407 232.67ZM169.863 310.945C141.901 321.936 160.57 365.57 189.097 354.106C217.062 342.867 197.5 300.084 169.863 310.945ZM837.678 310.697C807.362 320.264 824.183 366.143 854.14 354.106C880.506 343.51 865.499 301.915 837.678 310.697ZM409.045 336.695C389.837 393.477 369.596 450.373 348.362 506.434C340.204 527.974 336.75 558.107 306.2 550.071C292.385 546.437 284.652 528.539 277.336 517.565C258.167 488.812 239.153 459.951 219.828 431.304C218.52 441.688 223.064 451.876 225.716 461.912C230.625 480.503 235.647 499.074 240.917 517.565C258.512 579.294 277.837 641.449 292.176 703.999H731.828C752.809 612.477 781.319 521.649 806.958 431.304C783.07 453.195 766.483 487.841 748.524 514.782C741.25 525.693 733.272 544.136 720.439 549.278C691.274 560.962 685.317 526.032 678.071 506.434C657.251 450.12 639.281 391.568 614.958 336.695C599.871 356.861 593.045 388.201 584.211 411.825C568.876 452.824 544.469 496.706 537.045 539.825H486.958C479.534 496.706 455.128 452.824 439.793 411.825C430.958 388.201 424.133 356.861 409.045 336.695ZM294.958 729.043C294.755 737.382 294.836 745.97 288.188 752.075C282.707 757.108 271.685 758.708 271.685 767.997C271.685 777.313 282.779 778.47 288.188 783.538C294.811 789.743 294.755 798.564 294.958 806.956H729.045C729.249 798.564 729.19 789.743 735.816 783.538C741.225 778.47 752.319 777.313 752.319 767.997C752.319 758.708 741.297 757.108 735.816 752.075C729.168 745.97 729.249 737.382 729.045 729.043H294.958Z" fill="white" style="fill:white;fill-opacity:1;"/>
<path d="M501.133 745.345C471.862 758.262 493.058 803.816 522.871 790.657C552.141 777.74 530.946 732.186 501.133 745.345Z" fill="black" style="fill:black;fill-opacity:1;"/>
<path d="M247.652 907.132H779.131C779.131 884.434 786.955 847.364 762.421 834.862C752.12 829.611 737.467 832.001 726.261 832.001H297.739C286.626 832.001 271.797 829.542 261.621 834.862C239.472 846.438 247.652 886.379 247.652 907.132Z" fill="white" style="fill:white;fill-opacity:1;"/>
</svg>
