<svg width="1024" height="1024" viewBox="0 0 1024 1024" fill="none" xmlns="http://www.w3.org/2000/svg">
<path d="M580.674 461.316L684.208 331.338C686.159 328.882 689.916 328.954 691.722 331.483C751.04 412.62 778.856 539.491 663.4 698.007C662.963 698.614 662.388 699.107 661.722 699.446C661.056 699.786 660.319 699.961 659.571 699.958H365.441C364.694 699.961 363.956 699.786 363.29 699.446C362.624 699.107 362.049 698.614 361.612 698.007C164.514 427.431 384.732 249.118 466.808 233.006C470.637 232.284 472.154 227.587 469.337 224.842L469.12 224.625C466.35 221.976 463.835 219.073 461.606 215.955C453.948 205.194 449.832 192.315 449.829 179.107C449.829 144.211 477.934 115.961 512.542 115.961C547.15 115.961 575.255 144.211 575.255 179.107C575.255 192.835 570.92 205.551 563.479 215.955C561.239 219.134 558.71 222.024 555.965 224.625C553.219 227.371 554.664 232.067 558.493 232.645C581.613 236.113 612.753 250.202 646.855 282.281C648.661 284.015 648.806 286.832 647.289 288.783L536.529 423.385C534.868 425.336 535.156 428.298 537.107 429.96L573.955 461.894C575.978 463.628 579.085 463.339 580.746 461.244L580.674 461.316Z" fill="#5F5955" style="fill:#5F5955;fill:color(display-p3 0.3725 0.3490 0.3333);fill-opacity:1;"/>
<path d="M546.066 232.355H546.283Z" fill="#5F5955" style="fill:#5F5955;fill:color(display-p3 0.3725 0.3490 0.3333);fill-opacity:1;"/>
<path d="M546.066 232.355H546.283" stroke="#1E1E1E" style="stroke:#1E1E1E;stroke:color(display-p3 0.1176 0.1176 0.1176);stroke-opacity:1;" stroke-width="3.16" stroke-linejoin="round"/>
<path opacity="0.25" d="M480.825 158.734C488.566 158.734 494.842 152.459 494.842 144.718C494.842 136.977 488.566 130.701 480.825 130.701C473.084 130.701 466.809 136.977 466.809 144.718C466.809 152.459 473.084 158.734 480.825 158.734Z" fill="white" style="fill:white;fill-opacity:1;"/>
<path opacity="0.25" d="M466.303 233.441C495.131 201.795 372.306 258.873 329.172 351.208C306.63 399.544 279.825 460.234 280.981 509.797C282.065 555.026 350.269 684.715 340.01 655.164C254.177 408.503 417.39 287.122 466.303 233.441Z" fill="white" style="fill:white;fill-opacity:1;"/>
<path opacity="0.18" fill-rule="evenodd" clip-rule="evenodd" d="M674.381 679.873C658.053 696.852 642.447 699.742 618.243 700.464C542.236 696.49 465.723 700.464 465.723 700.464L359.66 692.444C625.107 679.367 648.805 669.18 702.487 628.503L674.454 679.945L674.381 679.873ZM465.868 243.049C553.146 235.102 549.75 238.714 566.657 199.049L563.116 244.711C557.192 265.374 507.7 270.071 489.638 261.617C479.595 256.921 465.795 243.049 465.795 243.049H465.868Z" fill="black" style="fill:black;fill-opacity:1;"/>
<path d="M546.066 232.355H546.283" stroke="#1E1E1E" style="stroke:#1E1E1E;stroke:color(display-p3 0.1176 0.1176 0.1176);stroke-opacity:1;" stroke-width="3.16" stroke-linejoin="round"/>
<path opacity="0.18" fill-rule="evenodd" clip-rule="evenodd" d="M476.199 229.827C557.336 198.254 555.168 202.661 560.37 160.178L569.546 204.756C569.546 226.142 523.595 244.205 504.015 241.098C493.178 239.364 476.199 229.899 476.199 229.899V229.827Z" fill="black" style="fill:black;fill-opacity:1;"/>
<path d="M589.417 449.829L683.486 331.844C685.365 329.46 689.122 329.46 690.928 331.916C750.318 413.053 778.134 539.997 662.606 698.513C662.169 699.12 661.594 699.613 660.928 699.952C660.262 700.292 659.524 700.467 658.777 700.464H364.575C363.827 700.467 363.09 700.292 362.424 699.952C361.758 699.613 361.182 699.12 360.745 698.513C163.503 427.792 384.082 249.407 466.014 233.512C469.843 232.789 471.288 228.165 468.47 225.492L468.181 225.203C465.411 222.554 462.896 219.651 460.667 216.533C453.01 205.772 448.894 192.893 448.89 179.686C448.89 144.789 476.996 116.539 511.603 116.539C546.211 116.539 574.316 144.789 574.316 179.686C574.316 193.413 569.982 206.129 562.54 216.533C560.3 219.712 557.771 222.602 555.026 225.203H554.953C552.208 227.949 553.653 232.645 557.482 233.223C580.602 236.619 611.814 250.707 645.989 282.931C647.795 284.593 647.939 287.41 646.422 289.289L547.295 409.802C543.401 414.541 541.509 420.612 542.022 426.724C542.535 432.836 545.411 438.507 550.04 442.531L561.456 452.43C569.837 459.655 582.553 458.499 589.417 449.829Z" stroke="#1E1E1E" style="stroke:#1E1E1E;stroke:color(display-p3 0.1176 0.1176 0.1176);stroke-opacity:1;" stroke-width="3.04" stroke-linejoin="round"/>
<path d="M468.469 225.492C499.464 252.297 538.624 238.353 555.097 225.203" stroke="#1E1E1E" style="stroke:#1E1E1E;stroke:color(display-p3 0.1176 0.1176 0.1176);stroke-opacity:1;" stroke-width="3.06" stroke-linejoin="round"/>
<path d="M338.997 686.375H320.429V686.664C320.429 686.664 312.048 688.254 305.473 693.094C298.898 697.935 300.777 711.952 300.777 711.952C300.777 711.952 291.312 717.154 279.752 726.04C267.036 735.722 251.863 749.666 243.771 765.778C228.31 796.484 255.693 823.072 255.693 823.072C255.693 823.072 227.804 833.621 228.021 859.558C228.238 885.424 237.991 898.501 252.947 903.125H771.63C786.586 898.573 796.34 885.496 796.557 859.631C796.701 833.693 768.813 823.144 768.813 823.144C768.813 823.144 796.195 796.556 780.806 765.85C772.786 749.811 757.541 735.794 744.825 726.113C733.265 717.226 723.801 712.024 723.801 712.024C723.801 712.024 725.679 698.007 719.104 693.167C712.53 688.326 704.149 686.736 704.149 686.736V686.447H685.508M768.09 823.217L255.042 823.144Z" fill="#5F5955" style="fill:#5F5955;fill:color(display-p3 0.3725 0.3490 0.3333);fill-opacity:1;"/>
<path opacity="0.25" d="M236.908 860.933C237.197 886.003 249.913 898.719 269.348 903.199C269.493 903.199 269.637 903.199 269.782 903.271C261.834 895.974 257.21 884.775 257.066 868.663C256.777 842.364 291.818 831.671 291.818 831.671C291.818 831.671 257.499 804.722 276.79 773.582C286.905 757.254 306.051 743.165 321.946 733.267C336.469 724.308 348.39 718.961 348.39 718.961C348.39 718.961 346.006 704.8 354.242 699.887C362.406 694.974 373.027 693.312 373.027 693.312V693.023H346.511L357.277 693.312C357.277 693.312 335.457 694.902 326.932 699.598C318.406 704.294 320.863 717.805 320.863 717.805C320.863 717.805 308.508 722.935 293.408 731.46C276.862 740.853 264.724 753.135 254.248 768.669C234.162 798.364 272.961 825.458 272.961 825.458C272.961 825.458 236.547 835.645 236.836 860.788L236.908 860.933Z" fill="white" style="fill:white;fill-opacity:1;"/>
<path d="M768.307 823.217L255.26 823.145" stroke="#1E1E1E" style="stroke:#1E1E1E;stroke:color(display-p3 0.1176 0.1176 0.1176);stroke-opacity:1;" stroke-width="1.59" stroke-linejoin="round"/>
<path opacity="0.18" d="M796.05 863.749C795.761 889.976 794.677 903.343 773.436 908.039H731.82C740.418 900.38 763.682 888.242 763.827 871.408C764.116 843.953 732.47 827.119 732.47 827.119C732.47 827.119 784.924 801.181 763.827 768.668C752.772 751.617 754.217 750.028 736.95 739.768C721.127 730.448 702.27 715.42 702.27 715.42C702.27 715.42 704.871 700.609 695.912 695.479C687.025 690.349 675.465 688.615 675.465 688.615C675.465 688.615 648.01 688.615 647.938 688.399H704.22L692.516 688.615C692.516 688.615 706.532 686.809 715.853 691.722C725.101 696.563 726.69 708.051 726.69 708.051C726.69 708.051 729.58 719.105 745.981 727.992C763.971 737.818 777.265 748.005 788.681 764.261C810.572 795.329 756.818 826.685 756.818 826.685C756.818 826.685 796.411 837.378 796.122 863.605L796.05 863.749Z" fill="black" style="fill:black;fill-opacity:1;"/>
<path d="M338.636 686.375H320.067V686.664C320.067 686.664 311.686 688.254 305.112 693.094C298.537 697.935 300.415 711.952 300.415 711.952C300.415 711.952 290.95 717.154 279.39 726.04C266.674 735.722 251.502 749.666 243.41 765.778C227.948 796.484 255.331 823.072 255.331 823.072C255.331 823.072 227.443 833.621 227.659 859.558C227.876 885.424 237.63 898.501 252.586 903.125H771.269C786.225 898.573 795.978 885.496 796.195 859.631C796.34 833.693 768.451 823.144 768.451 823.144C768.451 823.144 795.834 796.556 780.445 765.85C772.425 749.811 757.18 735.794 744.464 726.113C732.904 717.226 723.439 712.024 723.439 712.024C723.439 712.024 725.318 698.007 718.743 693.167C712.168 688.326 703.787 686.736 703.787 686.736V686.447H338.78L338.636 686.375Z" stroke="#1E1E1E" style="stroke:#1E1E1E;stroke:color(display-p3 0.1176 0.1176 0.1176);stroke-opacity:1;" stroke-width="3.04" stroke-linejoin="round"/>
</svg>
