<svg width="1024" height="1024" viewBox="0 0 1024 1024" fill="none" xmlns="http://www.w3.org/2000/svg">
<path d="M689.411 231.634C680.741 224.192 676.478 183.587 647.361 178.602C629.226 175.495 529.016 49.4189 567.886 165.742C576.195 190.668 543.971 198.904 527.498 201.65C511.025 204.468 489.134 209.092 489.134 209.092C489.134 209.092 444.483 192.546 413.632 220.796C408.213 225.492 365.369 277.729 296.876 286.544C228.455 295.43 226.938 305.184 222.531 316.889C218.124 328.521 201.506 364.718 201.506 364.718C201.506 364.718 189.007 397.231 210.032 392.823C211.838 395.063 208.225 409.369 225.204 403.589C242.255 397.809 284.81 397.014 282.282 377.94C282.282 372.81 307.786 363.201 310.242 370.643C311.687 375.267 324.62 416.16 315.661 419.917C304.968 424.397 223.687 420.134 223.687 420.134C223.687 420.134 220.074 423.385 222.459 431.694C220.652 434.728 208.153 443.543 224.554 451.49C240.955 459.51 240.666 457.848 249.119 466.663C257.644 475.477 318.479 495.202 335.819 475.333C353.087 455.536 357.205 435.306 381.698 439.352C547.728 466.663 567.669 389.572 546.211 421.362C546.211 421.362 391.162 538.624 377.724 606.973C373.461 628.792 330.689 659.065 331.773 684.425H746.199C746.199 684.425 798.075 324.403 689.194 231.561L689.411 231.634Z" fill="#5F5955" style="fill:#5F5955;fill:color(display-p3 0.3725 0.3490 0.3333);fill-opacity:1;"/>
<path opacity="0.4" fill-rule="evenodd" clip-rule="evenodd" d="M470.059 260.534C477.573 254.61 478.006 255.404 478.151 253.454C478.584 245.94 472.66 237.92 465.146 235.68C456.692 233.151 455.175 232.429 447.3 232.935C445.132 233.079 441.881 234.018 440.075 235.174C422.301 246.662 428.009 280.403 452.791 267.326C453.441 266.964 454.164 266.675 454.886 266.386L466.085 262.702C467.53 262.196 468.903 261.473 470.059 260.606V260.534Z" fill="black" style="fill:black;fill-opacity:1;"/>
<path opacity="0.35" fill-rule="evenodd" clip-rule="evenodd" d="M254.898 320.719C248.829 322.525 238.859 331.123 236.547 334.229C231.345 341.165 239.22 350.992 247.312 347.379C251.358 345.573 268.048 342.394 271.082 331.267C271.082 331.267 270.432 327.727 269.348 327.149C268.048 326.426 254.971 320.646 254.971 320.646L254.898 320.719Z" fill="black" style="fill:black;fill-opacity:1;"/>
<g opacity="0.25">
<path d="M198.037 385.237C200.494 373.46 220.146 315.154 228.816 302.799C239.292 286.182 314.432 285.821 331.049 275.344C448.528 201.36 412.403 218.05 485.376 208.007C591.366 193.413 567.957 165.886 562.033 146.017C559.215 136.624 562.033 122.752 567.307 126.654C578.145 136.913 608.562 184.96 595.34 196.809C584.286 208.802 528.798 218.411 510.952 222.53C453.08 235.751 450.84 192.835 401.277 256.126C388.199 272.888 333.145 294.418 323.969 297.597C312.77 301.427 269.926 302.221 240.809 320.79C222.963 332.205 198.109 385.309 198.109 385.309L198.037 385.237Z" fill="white" style="fill:white;fill-opacity:1;"/>
</g>
<path opacity="0.18" fill-rule="evenodd" clip-rule="evenodd" d="M369.775 437.258C387.043 443.544 417.893 466.591 523.668 426.854C531.254 424.036 560.732 400.844 556.469 407.419C551.628 414.933 549.822 432.345 550.834 431.478C564.128 419.051 587.32 395.136 595.195 346.295C596.712 336.903 582.118 330.906 578.289 339.648C524.029 463.846 315.804 417.534 369.847 437.258H369.775Z" fill="black" style="fill:black;fill-opacity:1;"/>
<path opacity="0.25" fill-rule="evenodd" clip-rule="evenodd" d="M552.28 418.4C393.98 555.531 369.559 605.384 337.986 674.238C333.723 683.486 382.203 690.928 383.576 680.885C407.852 500.26 552.28 521.862 552.28 418.4Z" fill="white" style="fill:white;fill-opacity:1;"/>
<path opacity="0.18" fill-rule="evenodd" clip-rule="evenodd" d="M567.235 126.582C567.235 126.582 623.156 169.571 651.189 216.967C812.163 405.973 700.681 693.89 659.932 684.497H746.343C752.051 634.139 804.36 313.132 647.36 178.675C620.266 157.794 613.041 129.978 560.66 119.357L567.235 126.582Z" fill="black" style="fill:black;fill-opacity:1;"/>
<path d="M689.411 231.633C680.741 224.192 679.946 200.638 647.361 178.602C632.116 168.27 529.016 49.4187 567.886 165.741C576.195 190.668 543.971 198.904 527.498 201.65C511.025 204.467 489.134 209.091 489.134 209.091C489.134 209.091 444.483 192.546 413.632 220.796C408.213 225.492 365.369 277.729 296.876 286.543C228.455 295.43 226.938 305.184 222.531 316.888C218.124 328.521 201.506 364.718 201.506 364.718C201.506 364.718 189.007 397.23 210.032 392.823C211.838 395.063 208.225 409.369 225.204 403.589C242.255 397.809 284.81 397.014 282.282 377.94C282.282 372.81 307.786 363.201 310.242 370.642C311.687 375.266 324.62 416.16 315.661 419.917C304.968 424.397 223.687 420.134 223.687 420.134C223.687 420.134 220.074 423.385 222.459 431.694C220.652 434.728 208.153 443.543 224.554 451.49C240.955 459.51 240.666 457.848 249.119 466.663C257.644 475.477 318.479 495.202 335.819 475.333C353.087 455.536 357.205 435.306 381.698 439.352C547.728 466.663 567.669 389.572 546.211 421.362C546.211 421.362 391.162 538.624 377.724 606.972C373.461 628.792 330.689 659.065 331.773 684.424H746.199C746.199 684.424 798.075 324.402 689.194 231.561L689.411 231.633Z" stroke="#1E1E1E" style="stroke:#1E1E1E;stroke:color(display-p3 0.1176 0.1176 0.1176);stroke-opacity:1;" stroke-width="3" stroke-linejoin="round"/>
<path d="M360.672 685.725H341.742L341.67 686.014C341.67 686.014 333.144 687.675 326.425 692.588C319.778 697.501 321.656 711.735 321.656 711.735C321.656 711.735 312.047 717.081 300.27 726.112C287.338 735.938 271.876 750.172 263.712 766.5C248.034 797.712 275.85 824.806 275.85 824.806C275.85 824.806 247.528 835.499 247.672 861.942C247.889 888.314 257.787 901.608 273.032 906.232H800.674C815.847 901.608 825.817 888.314 826.034 862.015C826.251 835.643 797.857 824.878 797.857 824.878C797.857 824.878 825.745 797.784 810.067 766.572C801.903 750.244 786.369 736.011 773.436 726.185C761.659 717.153 752.05 711.807 752.05 711.807C752.05 711.807 753.929 697.574 747.282 692.661C740.635 687.748 732.037 686.086 732.037 686.086C732.037 686.086 732.037 685.941 731.965 685.797H713.035M797.206 824.878L275.2 824.806Z" fill="#5F5955" style="fill:#5F5955;fill:color(display-p3 0.3725 0.3490 0.3333);fill-opacity:1;"/>
<path opacity="0.25" d="M256.777 863.244C257.066 888.749 269.999 901.682 289.795 906.233C289.94 906.233 290.084 906.233 290.229 906.306C282.137 898.864 277.441 887.448 277.296 871.047C277.007 844.315 312.626 833.405 312.626 833.405C312.626 833.405 277.657 805.95 297.309 774.305C307.641 757.759 327.076 743.309 343.26 733.339C358.072 724.235 370.137 718.817 370.137 718.817C370.137 718.817 367.753 704.367 376.134 699.381C384.443 694.396 395.208 692.734 395.208 692.734V692.445H368.259L379.241 692.734C379.241 692.734 357.06 694.324 348.318 699.092C339.648 703.861 342.104 717.661 342.104 717.661C342.104 717.661 329.533 722.863 314.216 731.533C297.382 741.07 285.027 753.569 274.334 769.392C253.887 799.592 293.408 827.192 293.408 827.192C293.408 827.192 256.416 837.596 256.705 863.172L256.777 863.244Z" fill="white" style="fill:white;fill-opacity:1;"/>
<path opacity="0.18" d="M814.258 863.894C813.969 890.554 812.885 904.065 792.077 908.833H751.256C759.709 901.103 782.54 888.748 782.685 871.625C782.974 843.736 751.906 826.613 751.906 826.613C751.906 826.613 803.348 800.242 782.685 767.295C771.847 750.028 773.292 748.366 756.313 737.962C740.779 728.497 722.283 713.252 722.283 713.252C722.283 713.252 724.812 698.224 715.998 693.022C707.255 687.82 695.984 686.086 695.984 686.086C695.984 686.086 669.035 686.086 668.963 685.87H724.234L712.746 686.086C712.746 686.086 726.474 684.28 735.65 689.265C744.753 694.178 746.27 705.883 746.27 705.883C746.27 705.883 749.088 717.082 765.2 726.185C782.829 736.156 795.906 746.488 807.105 763.033C828.563 794.606 775.821 826.468 775.821 826.468C775.821 826.468 814.691 837.306 814.33 863.966L814.258 863.894Z" fill="black" style="fill:black;fill-opacity:1;"/>
<path d="M720.55 685.797L346.439 685.725" stroke="#1E1E1E" style="stroke:#1E1E1E;stroke:color(display-p3 0.1176 0.1176 0.1176);stroke-opacity:1;" stroke-width="3.03" stroke-linejoin="round"/>
<path d="M797.425 824.879L275.418 824.807" stroke="#1E1E1E" style="stroke:#1E1E1E;stroke:color(display-p3 0.1176 0.1176 0.1176);stroke-opacity:1;" stroke-width="1.58" stroke-linejoin="round"/>
<path d="M360.238 685.725H341.308L341.236 686.014C341.236 686.014 332.711 687.675 325.991 692.588C319.344 697.501 321.223 711.735 321.223 711.735C321.223 711.735 311.614 717.081 299.837 726.112C286.904 735.938 271.443 750.172 263.278 766.5C247.6 797.712 275.416 824.806 275.416 824.806C275.416 824.806 247.094 835.499 247.239 861.942C247.456 888.314 257.354 901.608 272.599 906.232H800.241C815.413 901.608 825.384 888.314 825.6 862.015C825.817 835.643 797.423 824.878 797.423 824.878C797.423 824.878 825.311 797.784 809.633 766.572C801.469 750.244 785.935 736.011 773.002 726.185C761.226 717.153 751.616 711.807 751.616 711.807C751.616 711.807 753.495 697.574 746.848 692.661C740.201 687.748 731.603 686.086 731.603 686.086C731.603 686.086 731.603 685.941 731.531 685.797H712.601" stroke="#1E1E1E" style="stroke:#1E1E1E;stroke:color(display-p3 0.1176 0.1176 0.1176);stroke-opacity:1;" stroke-width="3" stroke-linejoin="round"/>
</svg>
