<svg width="1024" height="1024" viewBox="0 0 1024 1024" fill="none" xmlns="http://www.w3.org/2000/svg">
<path d="M685.076 656.893H666.287L623.65 622.205L596.912 445.155C747.947 330.253 645.33 147.422 511.639 147.422C377.948 147.422 279.667 330.976 430.702 445.878L401.073 622.928L358.436 657.615H339.647" fill="#5F5955" style="fill:#5F5955;fill:color(display-p3 0.3725 0.3490 0.3333);fill-opacity:1;"/>
<path d="M685.076 656.893H666.287L623.65 622.205L596.912 445.155C747.947 330.253 645.33 147.422 511.639 147.422C377.948 147.422 279.667 330.976 430.702 445.878L401.073 622.928L358.436 657.615H339.647" stroke="#3C3C3C" style="stroke:#3C3C3C;stroke:color(display-p3 0.2353 0.2353 0.2353);stroke-opacity:1;" stroke-width="2.9" stroke-linecap="round" stroke-linejoin="round"/>
<path d="M599.802 442.264C554.998 472.615 473.338 472.615 427.088 442.264Z" fill="#5F5955" style="fill:#5F5955;fill:color(display-p3 0.3725 0.3490 0.3333);fill-opacity:1;"/>
<path d="M599.802 442.264C554.998 472.615 473.338 472.615 427.088 442.264" stroke="#3C3C3C" style="stroke:#3C3C3C;stroke:color(display-p3 0.2353 0.2353 0.2353);stroke-opacity:1;" stroke-width="2.9" stroke-linecap="round" stroke-linejoin="round"/>
<path d="M599.802 442.264C554.998 472.615 473.338 472.615 427.088 442.264" stroke="#3C3C3C" style="stroke:#3C3C3C;stroke:color(display-p3 0.2353 0.2353 0.2353);stroke-opacity:1;" stroke-width="2.9" stroke-linecap="round" stroke-linejoin="round"/>
<path opacity="0.2" d="M460.33 466.111L446.599 628.708H403.963L427.088 459.607L460.33 466.111Z" fill="white" style="fill:white;fill-opacity:1;"/>
<path opacity="0.2" d="M434.314 254.375C452.673 254.375 467.556 239.492 467.556 221.133C467.556 202.774 452.673 187.891 434.314 187.891C415.955 187.891 401.072 202.774 401.072 221.133C401.072 239.492 415.955 254.375 434.314 254.375Z" fill="white" style="fill:white;fill-opacity:1;"/>
<path opacity="0.2" d="M446.6 628.709L411.19 654.724L374.335 653.279L403.964 628.709H446.6Z" fill="white" style="fill:white;fill-opacity:1;"/>
<path opacity="0.2" fill-rule="evenodd" clip-rule="evenodd" d="M604.861 463.221C590.408 479.842 579.568 492.127 554.998 496.463C491.404 503.689 473.338 479.842 463.221 468.279C461.053 466.111 461.053 463.221 463.221 460.33L435.037 455.271C430.701 469.725 547.771 486.346 596.912 443.709L604.861 462.498V463.221Z" fill="black" style="fill:black;fill-opacity:1;"/>
<path opacity="0.2" fill-rule="evenodd" clip-rule="evenodd" d="M616.424 428.534C597.635 440.096 591.131 457.44 566.56 461.776C502.967 469.003 487.069 474.061 477.674 463.221C475.506 461.053 475.506 458.163 477.674 455.272L449.491 450.214C445.155 464.667 644.607 444.432 661.951 276.054C680.74 275.331 673.513 393.847 616.424 427.811V428.534Z" fill="black" style="fill:black;fill-opacity:1;"/>
<path d="M685.799 656.893H667.01L624.373 622.205L597.635 445.155C748.669 330.253 646.053 147.422 512.362 147.422C378.671 147.422 280.39 330.976 431.424 445.878L401.796 622.928L359.159 657.615H340.37" stroke="#1E1E1E" style="stroke:#1E1E1E;stroke:color(display-p3 0.1176 0.1176 0.1176);stroke-opacity:1;" stroke-width="2.8" stroke-linecap="round" stroke-linejoin="round"/>
<path d="M599.802 442.264C554.998 472.615 473.338 472.615 427.088 442.264" stroke="#1E1E1E" style="stroke:#1E1E1E;stroke:color(display-p3 0.1176 0.1176 0.1176);stroke-opacity:1;" stroke-width="2.8" stroke-linecap="round" stroke-linejoin="round"/>
<path d="M677.127 688.689H346.874" stroke="#1E1E1E" style="stroke:#1E1E1E;stroke:color(display-p3 0.1176 0.1176 0.1176);stroke-opacity:1;" stroke-width="2.9" stroke-linejoin="round"/>
<path d="M670.622 657.615H687.966C687.966 657.615 695.915 659.783 701.697 664.119C707.478 669.178 706.032 682.908 706.032 682.908C706.032 682.908 714.704 687.967 725.544 697.361C737.107 707.478 750.837 721.209 758.786 737.83C773.239 768.904 747.946 795.642 747.946 795.642C747.946 795.642 773.239 806.482 773.239 832.497C773.239 858.513 763.845 872.243 750.114 876.579H274.608C260.878 872.243 252.206 858.513 251.483 832.497C251.483 806.482 276.776 795.642 276.776 795.642C276.776 795.642 251.483 768.904 265.936 737.83C273.163 721.209 286.893 707.478 299.179 697.361C310.018 688.689 318.69 682.908 318.69 682.908C318.69 682.908 317.245 668.455 323.026 664.119C328.807 659.061 336.757 657.615 336.757 657.615H354.1" fill="#5F5955" style="fill:#5F5955;fill:color(display-p3 0.3725 0.3490 0.3333);fill-opacity:1;"/>
<path d="M670.622 657.615H687.966C687.966 657.615 695.915 659.783 701.697 664.119C707.478 669.178 706.032 682.908 706.032 682.908C706.032 682.908 714.704 687.967 725.544 697.361C737.107 707.478 750.837 721.209 758.786 737.83C773.239 768.904 747.946 795.642 747.946 795.642C747.946 795.642 773.239 806.482 773.239 832.497C773.239 858.513 763.845 872.243 750.114 876.579H274.608C260.878 872.243 252.206 858.513 251.483 832.497C251.483 806.482 276.776 795.642 276.776 795.642C276.776 795.642 251.483 768.904 265.936 737.83C273.163 721.209 286.893 707.478 299.179 697.361C310.018 688.689 318.69 682.908 318.69 682.908C318.69 682.908 317.245 668.455 323.026 664.119C328.807 659.061 336.757 657.615 336.757 657.615H354.1" stroke="#3C3C3C" style="stroke:#3C3C3C;stroke:color(display-p3 0.2353 0.2353 0.2353);stroke-opacity:1;" stroke-width="2.7" stroke-linecap="round" stroke-linejoin="round"/>
<path opacity="0.2" d="M764.568 834.665C764.568 859.958 763.123 872.966 745.779 877.302H710.369C717.595 870.075 737.107 857.79 737.107 841.892C737.107 815.153 710.369 798.532 710.369 798.532C710.369 798.532 754.451 773.239 737.107 741.443C727.713 724.822 729.158 723.376 714.705 713.259C701.697 703.865 685.799 689.412 685.799 689.412C685.799 689.412 687.967 674.959 680.74 669.9C673.514 664.841 663.396 663.396 663.396 663.396H640.271H687.967H677.85C677.85 663.396 689.412 661.951 697.361 667.009C705.31 672.068 706.756 682.908 706.756 682.908C706.756 682.908 708.924 693.748 722.654 702.419C737.83 711.814 748.67 721.931 758.787 737.829C777.576 768.181 732.049 798.532 732.049 798.532C732.049 798.532 765.291 808.65 765.291 834.665H764.568Z" fill="black" style="fill:black;fill-opacity:1;"/>
<path opacity="0.2" d="M259.433 823.826C259.433 849.841 272.44 863.571 292.675 867.907C284.725 859.958 279.667 848.396 279.667 831.775C279.667 804.314 315.077 792.751 315.077 792.751C315.077 792.751 280.39 764.568 299.901 732.049C310.018 714.705 329.53 700.252 345.428 690.135C359.881 680.74 372.167 674.959 372.167 674.959C372.167 674.959 369.999 659.783 377.948 654.725C385.897 649.666 396.737 647.498 396.737 647.498H369.999H380.838C380.838 647.498 358.436 649.666 349.764 654.002C341.092 659.061 343.26 672.791 343.26 672.791C343.26 672.791 330.975 677.849 315.8 687.244C299.179 697.361 286.893 709.646 276.054 726.267C255.819 757.341 294.843 785.525 294.843 785.525C294.843 785.525 257.987 796.365 257.987 822.38L259.433 823.826Z" fill="white" style="fill:white;fill-opacity:1;"/>
<path d="M277.499 796.363H747.946" stroke="#1E1E1E" style="stroke:#1E1E1E;stroke:color(display-p3 0.1176 0.1176 0.1176);stroke-opacity:1;" stroke-width="1.5" stroke-linecap="round" stroke-linejoin="round"/>
<path d="M671.345 657.615H688.689C688.689 657.615 696.638 659.783 702.419 664.119C708.2 669.178 706.755 682.908 706.755 682.908C706.755 682.908 715.427 687.967 726.267 697.361C737.829 707.478 751.56 721.209 759.509 737.83C773.962 768.904 748.669 795.642 748.669 795.642C748.669 795.642 773.962 806.482 773.962 832.497C773.962 858.513 764.567 872.243 750.837 876.579H274.608C260.878 872.243 252.206 858.513 251.483 832.497C251.483 806.482 276.776 795.642 276.776 795.642C276.776 795.642 251.483 768.904 265.936 737.83C273.163 721.209 286.893 707.478 299.179 697.361C310.018 688.689 318.69 682.908 318.69 682.908C318.69 682.908 317.245 668.455 323.026 664.119C328.807 659.061 336.757 657.615 336.757 657.615H671.345Z" stroke="#1E1E1E" style="stroke:#1E1E1E;stroke:color(display-p3 0.1176 0.1176 0.1176);stroke-opacity:1;" stroke-width="2.8" stroke-linecap="round" stroke-linejoin="round"/>
</svg>
