<svg width="1024" height="1024" viewBox="0 0 1024 1024" fill="none" xmlns="http://www.w3.org/2000/svg">
<path d="M304.534 556.397C276.429 470.492 229.539 370.426 177.952 294.202C177.952 294.202 198.543 294.708 232.79 294.274C232.79 294.274 240.232 335.023 261.834 336.396C283.726 337.841 287.05 306.701 287.05 306.701H331.989L346.512 315.66H353.809C353.809 315.66 396.22 258.077 466.663 258.221C445.494 244.349 431.478 220.651 431.478 193.702C431.478 151.002 466.663 116.395 510.013 116.395C510.736 116.395 511.531 116.395 512.253 116.467C512.976 116.395 513.77 116.395 514.493 116.395C557.843 116.395 593.029 151.002 593.029 193.702C593.029 220.651 579.012 244.349 557.843 258.221C628.287 258.077 664.99 304.172 664.99 304.172H672.287L692.517 306.701H737.457C737.457 306.701 740.708 337.841 762.672 336.396C784.275 335.023 791.716 294.274 791.716 294.274C825.963 294.708 846.554 294.202 846.554 294.202C794.968 370.426 748.077 470.492 719.972 556.397L698.225 638.762C692.951 666.651 691.361 690.421 694.179 707.833H330.4C333.218 690.421 331.556 666.651 326.354 638.762L304.606 556.397H304.534Z" fill="#5F5955" style="fill:#5F5955;fill:color(display-p3 0.3725 0.3490 0.3333);fill-opacity:1;"/>
<path d="M466.591 258.223C466.591 258.223 511.169 284.088 557.843 258.223H557.626" fill="#5F5955" style="fill:#5F5955;fill:color(display-p3 0.3725 0.3490 0.3333);fill-opacity:1;"/>
<path opacity="0.25" d="M195.87 297.453C195.87 297.453 322.38 510.157 330.327 707.906C330.689 716.287 348.029 718.96 350.919 707.906C382.709 584.358 223.397 297.453 223.397 297.453H195.87Z" fill="white" style="fill:white;fill-opacity:1;"/>
<path opacity="0.25" d="M484.075 161.696C493.732 161.696 501.56 153.997 501.56 144.5C501.56 135.003 493.732 127.305 484.075 127.305C474.419 127.305 466.591 135.003 466.591 144.5C466.591 153.997 474.419 161.696 484.075 161.696Z" fill="white" style="fill:white;fill-opacity:1;"/>
<path opacity="0.18" fill-rule="evenodd" clip-rule="evenodd" d="M695.912 691C680.667 706.606 678.861 705.523 656.247 706.173C585.37 702.488 514.059 706.173 514.059 706.173L415.148 698.803C662.677 686.81 646.421 666.363 696.418 629.01L695.912 691Z" fill="black" style="fill:black;fill-opacity:1;"/>
<path d="M350.702 708.195H333.362V708.484C333.362 708.484 325.487 709.929 319.418 714.409C313.276 718.888 315.083 731.749 315.083 731.749C315.083 731.749 306.268 736.59 295.431 744.682C283.582 753.568 269.421 766.429 261.907 781.168C247.529 809.345 273.033 833.838 273.033 833.838C273.033 833.838 247.023 843.52 247.168 867.362C247.384 891.133 256.488 903.198 270.432 907.389H754.652C768.596 903.198 777.7 891.205 777.917 867.434C778.061 843.592 752.051 833.91 752.051 833.91C752.051 833.91 777.628 809.418 763.25 781.24C755.736 766.501 741.502 753.568 729.653 744.754C718.816 736.59 710.001 731.821 710.001 731.821C710.001 731.821 711.735 718.961 705.666 714.481C699.525 710.002 691.722 708.557 691.722 708.557V708.268H674.31M751.328 833.983L272.311 833.91Z" fill="#5F5955" style="fill:#5F5955;fill:color(display-p3 0.3725 0.3490 0.3333);fill-opacity:1;"/>
<path opacity="0.25" d="M255.404 868.59C255.621 891.638 267.542 903.27 285.677 907.46C285.822 907.46 285.966 907.46 286.111 907.533C278.741 900.813 274.334 890.554 274.262 875.743C274.045 851.539 306.702 841.785 306.702 841.785C306.702 841.785 274.623 817.003 292.685 788.392C302.15 773.437 319.996 760.432 334.879 751.4C348.462 743.164 359.517 738.251 359.517 738.251C359.517 738.251 357.277 725.246 365.008 720.694C372.666 716.214 382.564 714.697 382.564 714.697V714.48H357.855L367.898 714.697C367.898 714.697 347.523 716.142 339.503 720.477C331.556 724.74 333.796 737.239 333.796 737.239C333.796 737.239 322.308 741.935 308.219 749.811C292.758 758.408 281.487 769.68 271.661 783.985C252.876 811.296 289.145 836.15 289.145 836.15C289.145 836.15 255.188 845.542 255.477 868.662L255.404 868.59Z" fill="white" style="fill:white;fill-opacity:1;"/>
<path opacity="0.18" fill-rule="evenodd" clip-rule="evenodd" d="M466.88 264.002C560.371 256.344 556.687 266.748 574.966 230.262L570.992 272.239C564.562 291.241 511.603 295.72 492.24 288.062C481.547 283.799 466.808 264.002 466.808 264.002H466.88ZM636.379 352.148C634.934 318.696 635.873 291.53 590.066 271.228L643.893 277.802C667.952 285.316 670.119 322.019 658.92 340.515C652.707 350.775 636.379 352.075 636.379 352.075V352.148Z" fill="black" style="fill:black;fill-opacity:1;"/>
<path d="M478.729 316.745C478.729 316.745 471.287 358.361 512.542 357.927C550.979 357.494 544.693 316.672 544.693 316.672H618.099C618.099 316.672 621.351 347.812 643.315 346.367C664.917 344.994 672.359 304.245 672.359 304.245H692.156L737.095 304.173C737.095 304.173 740.346 335.313 762.31 333.868C783.913 332.495 791.355 291.746 791.355 291.746C825.602 292.18 846.193 291.674 846.193 291.674C794.606 367.898 747.716 467.964 719.611 553.869L697.863 636.234C692.589 664.123 691 687.893 693.817 705.305H330.038C332.856 687.893 331.194 664.123 325.992 636.234L304.245 553.869C276.14 467.964 229.25 367.898 177.663 291.674C177.663 291.674 198.254 292.18 232.501 291.746C232.501 291.746 239.943 332.495 261.545 333.868C283.437 335.313 286.761 304.173 286.761 304.173H350.846C350.846 304.173 358.288 344.922 379.891 346.295C401.783 347.74 405.106 316.6 405.106 316.6L465.146 316.817H478.946L478.729 316.745Z" stroke="#1E1E1E" style="stroke:#1E1E1E;stroke:color(display-p3 0.1176 0.1176 0.1176);stroke-opacity:1;" stroke-width="3.02" stroke-linejoin="round"/>
<path opacity="0.18" d="M776.833 865.122C776.544 888.17 775.315 899.875 752.412 903.993H707.328C716.648 897.274 741.864 886.653 742.008 871.842C742.297 847.71 708.051 832.899 708.051 832.899C708.051 832.899 764.767 810.14 742.008 781.529C730.087 766.573 731.676 765.128 712.891 756.097C695.768 747.861 675.321 734.711 675.321 734.711C675.321 734.711 678.139 721.706 668.385 717.154C658.704 712.675 646.277 711.158 646.277 711.158C646.277 711.158 616.51 711.158 616.438 710.941H677.417L664.773 711.158C664.773 711.158 679.945 709.568 690.06 713.903C700.103 718.166 701.765 728.281 701.765 728.281C701.765 728.281 704.872 737.962 722.645 745.838C742.153 754.435 756.53 763.394 768.885 777.7C792.583 805.01 734.35 832.61 734.35 832.61C734.35 832.61 777.194 842.002 776.833 865.05V865.122Z" fill="black" style="fill:black;fill-opacity:1;"/>
<path d="M751.473 833.982L272.527 833.91" stroke="#1E1E1E" style="stroke:#1E1E1E;stroke:color(display-p3 0.1176 0.1176 0.1176);stroke-opacity:1;" stroke-width="1.58" stroke-linejoin="round"/>
<path d="M350.341 708.195H333.001V708.484C333.001 708.484 325.125 709.929 319.056 714.409C312.915 718.888 314.721 731.749 314.721 731.749C314.721 731.749 305.907 736.59 295.069 744.682C283.22 753.568 269.059 766.429 261.545 781.168C247.168 809.345 272.672 833.838 272.672 833.838C272.672 833.838 246.662 843.52 246.806 867.362C247.023 891.133 256.127 903.198 270.071 907.389H754.291C768.235 903.198 777.338 891.205 777.555 867.434C777.7 843.592 751.69 833.91 751.69 833.91C751.69 833.91 777.266 809.418 762.888 781.24C755.374 766.501 741.141 753.568 729.292 744.754C718.455 736.59 709.64 731.821 709.64 731.821C709.64 731.821 711.374 718.961 705.305 714.481C699.164 710.002 691.361 708.557 691.361 708.557V708.268H350.63L350.341 708.195Z" stroke="#1E1E1E" style="stroke:#1E1E1E;stroke:color(display-p3 0.1176 0.1176 0.1176);stroke-opacity:1;" stroke-width="3.03" stroke-linejoin="round"/>
<path opacity="0.18" fill-rule="evenodd" clip-rule="evenodd" d="M485.81 255.116C577.639 219.786 575.111 224.771 580.746 176.436L591.511 227.227C591.656 251.503 539.708 271.733 517.455 268.049C505.173 266.026 485.81 255.044 485.81 255.044V255.116Z" fill="black" style="fill:black;fill-opacity:1;"/>
<path d="M356.337 304.1C356.337 304.1 396.074 258.077 466.591 258.221C445.421 244.349 431.405 220.651 431.405 193.702C431.405 151.002 466.591 116.395 509.941 116.395C510.663 116.395 511.458 116.395 512.18 116.467C512.903 116.395 513.698 116.395 514.42 116.395C557.77 116.395 592.956 151.002 592.956 193.702C592.956 220.651 578.939 244.349 557.77 258.221C628.214 258.077 672.214 304.172 672.214 304.172" stroke="#1E1E1E" style="stroke:#1E1E1E;stroke:color(display-p3 0.1176 0.1176 0.1176);stroke-opacity:1;" stroke-width="3.02" stroke-linejoin="round"/>
<path d="M466.591 258.223C466.591 258.223 511.169 284.088 557.843 258.223H557.626" stroke="#1E1E1E" style="stroke:#1E1E1E;stroke:color(display-p3 0.1176 0.1176 0.1176);stroke-opacity:1;" stroke-width="3.02" stroke-linejoin="round"/>
</svg>
