<svg width="1024" height="1024" viewBox="0 0 1024 1024" fill="none" xmlns="http://www.w3.org/2000/svg">
<path d="M701.697 650.389H323.026" stroke="#1E1E1E" style="stroke:#1E1E1E;stroke:color(display-p3 0.1176 0.1176 0.1176);stroke-opacity:1;" stroke-width="2.9" stroke-linejoin="round"/>
<path d="M333.866 680.018H314.355C314.355 680.018 305.683 682.186 299.179 687.244C292.675 692.303 294.12 706.756 294.12 706.756C294.12 706.756 284.726 712.537 272.441 721.209C259.433 731.326 243.535 745.779 235.586 762.4C219.687 794.197 247.871 821.658 247.871 821.658C247.871 821.658 218.965 832.497 219.687 859.236C219.687 885.974 229.804 899.704 245.703 904.04H779.021C794.197 898.982 804.314 885.974 805.036 859.236C805.036 832.497 776.853 821.658 776.853 821.658C776.853 821.658 805.036 794.197 789.138 762.4C780.466 745.779 765.291 731.326 752.283 721.209C739.998 711.814 730.603 706.756 730.603 706.756C730.603 706.756 732.771 692.303 725.545 687.244C719.041 682.186 710.369 680.74 710.369 680.74H690.857" fill="#5F5955" style="fill:#5F5955;fill:color(display-p3 0.3725 0.3490 0.3333);fill-opacity:1;"/>
<path opacity="0.2" d="M229.082 859.958C229.082 885.974 242.089 898.982 262.324 903.318C254.374 895.368 249.316 884.529 249.316 867.908C249.316 840.447 285.449 829.607 285.449 829.607C285.449 829.607 250.039 802.146 270.273 769.627C280.39 753.006 300.624 738.553 316.523 727.713C331.698 718.318 343.983 713.26 343.983 713.26C343.983 713.26 341.816 698.807 349.765 693.748C358.437 688.689 369.276 687.244 369.276 687.244H341.816H352.655C352.655 687.244 330.253 689.412 321.581 693.748C312.909 698.807 315.077 712.537 315.077 712.537C315.077 712.537 302.07 717.596 286.894 726.267C269.55 735.662 257.265 748.67 246.425 764.568C225.468 794.92 265.937 823.103 265.937 823.103C265.937 823.103 228.359 833.943 229.082 859.958Z" fill="white" style="fill:white;fill-opacity:1;"/>
<path opacity="0.2" d="M793.474 863.571C793.474 892.477 792.029 906.93 771.072 911.989H729.158C737.83 903.317 760.955 890.309 760.955 871.52C760.955 841.169 729.881 823.103 729.881 823.103C729.881 823.103 781.912 794.919 760.955 758.786C750.115 739.997 751.56 738.552 734.216 726.99C718.318 716.873 699.529 700.252 699.529 700.252C699.529 700.252 702.42 684.353 693.025 678.572C684.353 672.791 672.791 671.345 672.791 671.345H645.33H701.697H690.135C690.135 671.345 703.865 669.9 713.259 674.959C722.654 680.017 724.099 693.025 724.099 693.025C724.099 693.025 726.99 705.31 743.611 714.705C761.677 725.544 774.685 736.384 786.248 754.451C807.927 788.415 754.451 823.103 754.451 823.103C754.451 823.103 794.197 834.665 793.474 863.571Z" fill="black" style="fill:black;fill-opacity:1;"/>
<path d="M776.13 820.934H247.87" stroke="#1E1E1E" style="stroke:#1E1E1E;stroke:color(display-p3 0.1176 0.1176 0.1176);stroke-opacity:1;" stroke-width="1.5" stroke-linejoin="round"/>
<path d="M333.866 680.018H314.355C314.355 680.018 305.683 682.186 299.179 687.244C292.675 692.303 294.12 706.756 294.12 706.756C294.12 706.756 284.726 712.537 272.441 721.209C259.433 731.326 243.535 745.779 235.586 762.4C219.687 794.197 247.871 821.658 247.871 821.658C247.871 821.658 218.965 832.497 219.687 859.236C219.687 885.974 229.804 899.704 245.703 904.04H779.744C794.919 898.982 805.037 885.974 805.759 859.236C805.759 832.497 777.576 821.658 777.576 821.658C777.576 821.658 805.759 794.197 789.861 762.4C781.189 745.779 766.013 731.326 753.005 721.209C740.72 711.814 731.326 706.756 731.326 706.756C731.326 706.756 733.494 692.303 726.267 687.244C719.763 682.186 711.092 680.74 711.092 680.74H335.312L333.866 680.018Z" stroke="#1E1E1E" style="stroke:#1E1E1E;stroke:color(display-p3 0.1176 0.1176 0.1176);stroke-opacity:1;" stroke-width="2.9" stroke-linejoin="round"/>
<path d="M505.135 465.389V469.002V466.834M505.857 465.389V463.943H504.412" stroke="#1E1E1E" style="stroke:#1E1E1E;stroke:color(display-p3 0.1176 0.1176 0.1176);stroke-opacity:1;" stroke-width="4.2" stroke-linejoin="round"/>
<path opacity="0.2" fill-rule="evenodd" clip-rule="evenodd" d="M379.394 383.728V363.494C414.081 366.385 486.346 365.662 697.361 365.662V399.627C638.826 451.658 379.394 383.728 379.394 383.728Z" fill="black" style="fill:black;fill-opacity:1;"/>
<path d="M321.581 689.411L698.084 680.016V371.443H321.581V689.411Z" fill="#5F5955" style="fill:#5F5955;fill:color(display-p3 0.3725 0.3490 0.3333);fill-opacity:1;"/>
<path opacity="0.2" d="M368.554 379.393V689.411H332.421L338.202 371.443L368.554 379.393Z" fill="white" style="fill:white;fill-opacity:1;"/>
<path opacity="0.2" fill-rule="evenodd" clip-rule="evenodd" d="M339.647 383.006V360.604C379.393 363.494 461.776 363.494 702.419 362.771V400.349C635.213 458.162 339.647 383.006 339.647 383.006Z" fill="black" style="fill:black;fill-opacity:1;"/>
<path d="M321.581 680.739H697.361V371.443H323.026L321.581 680.739Z" stroke="#1E1E1E" style="stroke:#1E1E1E;stroke:color(display-p3 0.1176 0.1176 0.1176);stroke-opacity:1;" stroke-width="3" stroke-linejoin="round"/>
<path d="M700.251 369.999C708.201 369.999 717.595 367.831 725.544 364.94C729.398 363.495 729.398 363.495 725.544 364.94C729.157 363.495 732.771 361.327 736.384 359.159C737.829 358.436 738.552 357.714 739.997 356.991C741.443 355.546 742.888 354.823 743.611 353.378L746.501 350.487C747.224 349.764 747.946 348.319 748.669 347.596C749.392 346.151 750.837 344.706 751.56 343.26C753.005 341.093 753.728 338.202 755.173 335.311V161.874C754.45 161.152 748.669 156.816 742.165 152.48C735.661 148.144 710.368 138.027 703.865 138.027V196.562H639.548V124.296C614.256 114.902 575.955 112.011 542.713 114.179V195.117H481.287V114.179C448.045 112.734 415.526 114.902 390.233 124.296V194.394H324.471V138.027C318.69 138.027 289.061 148.144 282.558 152.48C276.054 156.816 270.272 161.152 269.55 161.874V337.479C269.55 338.925 270.995 340.37 270.995 341.093C270.995 341.093 270.995 342.538 271.718 343.26C272.44 344.706 273.886 346.151 274.608 347.596C275.331 349.042 276.054 349.764 276.776 350.487C277.499 351.21 278.222 352.655 279.667 353.378L283.28 356.991C294.843 365.663 310.018 369.999 323.026 369.999H699.529H700.251Z" fill="#5F5955" style="fill:#5F5955;fill:color(display-p3 0.3725 0.3490 0.3333);fill-opacity:1;"/>
<path d="M725.544 364.94C717.595 367.831 708.201 369.999 700.251 369.999H699.529H323.026C310.018 369.999 294.843 365.663 283.28 356.991L279.667 353.378C278.222 352.655 277.499 351.21 276.776 350.487C276.054 349.764 275.331 349.042 274.608 347.596C273.886 346.151 272.44 344.706 271.718 343.26C270.995 342.538 270.995 341.093 270.995 341.093C270.995 340.37 269.55 338.925 269.55 337.479V161.874C270.272 161.152 276.054 156.816 282.558 152.48C289.061 148.144 318.69 138.027 324.471 138.027V194.394H390.233V124.296C415.526 114.902 448.045 112.734 481.287 114.179V195.117H542.713V114.179C575.955 112.011 614.256 114.902 639.548 124.296V196.562H703.865V138.027C710.368 138.027 735.661 148.144 742.165 152.48C748.669 156.816 754.45 161.152 755.173 161.874V335.311C753.728 338.202 753.005 341.093 751.56 343.26C750.837 344.706 749.392 346.151 748.669 347.596C747.946 348.319 747.224 349.764 746.501 350.487L743.611 353.378C742.888 354.823 741.443 355.546 739.997 356.991C738.552 357.714 737.829 358.436 736.384 359.159C732.771 361.327 729.157 363.495 725.544 364.94ZM725.544 364.94C729.398 363.495 729.398 363.495 725.544 364.94Z" stroke="#1E1E1E" style="stroke:#1E1E1E;stroke:color(display-p3 0.1176 0.1176 0.1176);stroke-opacity:1;" stroke-width="2.9" stroke-linejoin="round"/>
<path opacity="0.2" d="M284.726 148.867H314.354V364.218H284.726V148.867Z" fill="white" style="fill:white;fill-opacity:1;"/>
<path opacity="0.2" fill-rule="evenodd" clip-rule="evenodd" d="M393.123 368.553V358.435C432.146 356.267 703.864 367.107 753.004 307.85L754.45 345.428C688.688 377.947 392.4 369.275 392.4 369.275L393.123 368.553Z" fill="black" style="fill:black;fill-opacity:1;"/>
<path d="M725.544 363.495C717.595 366.385 708.201 368.553 700.251 368.553H699.529H323.026C310.018 368.553 294.843 364.217 283.28 355.546L279.667 351.932C278.222 351.21 277.499 349.764 276.776 349.042C276.054 348.319 275.331 347.596 274.608 346.151C273.886 344.706 272.44 343.26 271.718 341.815C270.995 341.093 270.995 339.647 270.995 339.647C270.995 338.925 269.55 337.479 269.55 336.034V160.429C270.272 159.706 276.054 155.371 282.558 151.035C289.061 146.699 318.69 136.582 324.471 136.582V195.117H390.233V122.851C415.526 113.457 448.045 111.289 481.287 112.734V193.671H542.713V112.734C575.955 110.566 614.256 113.457 639.548 122.851V195.117H703.865V136.582C710.368 136.582 735.661 146.699 742.165 151.035C748.669 155.371 754.45 159.706 755.173 160.429V333.866C753.728 336.757 753.005 339.647 751.56 341.815C750.837 343.26 749.392 344.706 748.669 346.151C747.946 346.874 747.224 348.319 746.501 349.042L743.611 351.932C742.888 353.378 741.443 354.1 739.997 355.546C738.552 356.268 737.829 356.991 736.384 357.714C732.771 359.882 729.157 362.049 725.544 363.495ZM725.544 363.495C729.398 362.049 729.398 362.049 725.544 363.495Z" stroke="#1E1E1E" style="stroke:#1E1E1E;stroke:color(display-p3 0.1176 0.1176 0.1176);stroke-opacity:1;" stroke-width="3" stroke-linejoin="round"/>
</svg>
