<svg width="1024" height="1024" viewBox="0 0 1024 1024" fill="none" xmlns="http://www.w3.org/2000/svg">
<path d="M578.941 441.375L679.874 314.72C681.752 312.336 685.437 312.408 687.171 314.793C745.043 393.834 772.065 517.526 659.499 671.997C658.632 673.225 657.187 673.948 655.742 673.948H369.054C367.537 673.948 366.164 673.225 365.297 671.997C173.184 408.284 387.839 234.451 467.82 218.772C471.577 218.05 473.022 213.498 470.276 210.825L470.06 210.608C467.386 208.079 464.93 205.189 462.762 202.155C455.332 191.655 451.344 179.109 451.347 166.247C451.347 132.217 478.73 104.689 512.47 104.689C546.211 104.689 573.594 132.217 573.594 166.247C573.594 179.613 569.331 192.04 562.178 202.155C560.011 205.189 557.555 208.079 554.881 210.608C552.208 213.281 553.653 217.905 557.338 218.483C579.88 221.879 610.225 235.607 643.46 266.891C645.194 268.553 645.411 271.298 643.821 273.177L535.879 404.383C534.29 406.333 534.507 409.151 536.457 410.813L572.366 441.88C574.317 443.614 577.351 443.325 579.013 441.302L578.941 441.375Z" fill="#F0F0F0" style="fill:#F0F0F0;fill:color(display-p3 0.9412 0.9412 0.9412);fill-opacity:1;"/>
<path d="M545.199 218.195H545.416Z" fill="#5F5955" style="fill:#5F5955;fill:color(display-p3 0.3725 0.3490 0.3333);fill-opacity:1;"/>
<path d="M545.199 218.195H545.416" stroke="#1E1E1E" style="stroke:#1E1E1E;stroke:color(display-p3 0.1176 0.1176 0.1176);stroke-opacity:1;" stroke-width="3.08" stroke-linejoin="round"/>
<path d="M481.618 146.523C489.2 146.523 495.346 140.377 495.346 132.796C495.346 125.214 489.2 119.068 481.618 119.068C474.037 119.068 467.891 125.214 467.891 132.796C467.891 140.377 474.037 146.523 481.618 146.523Z" fill="white" style="fill:white;fill-opacity:1;"/>
<path d="M467.459 219.279C495.564 188.429 375.846 244.061 333.796 334.085C311.832 381.192 285.75 440.292 286.833 488.7C287.917 532.772 354.387 659.138 344.344 630.382C260.751 389.934 419.774 271.733 467.459 219.352V219.279Z" fill="white" style="fill:white;fill-opacity:1;"/>
<path opacity="0.18" fill-rule="evenodd" clip-rule="evenodd" d="M673.66 651.261C657.838 670.624 642.665 673.803 619.039 674.453C544.911 669.54 470.349 673.731 470.349 673.731L366.887 664.049C625.614 650.394 648.662 638.834 700.754 592.666L673.66 651.189V651.261ZM467.025 228.67C552.064 220.867 548.812 224.408 565.285 185.826L561.89 230.332C556.11 250.49 507.847 255.042 490.29 246.805C480.536 242.253 467.098 228.67 467.098 228.67H467.025Z" fill="black" style="fill:black;fill-opacity:1;"/>
<path opacity="0.18" fill-rule="evenodd" clip-rule="evenodd" d="M477.789 219.495C557.409 188.5 555.241 192.835 560.371 151.146L569.402 194.858C569.402 215.81 524.318 233.512 505.1 230.477C494.479 228.815 477.789 219.495 477.789 219.495Z" fill="black" style="fill:black;fill-opacity:1;"/>
<path d="M587.464 430.176L679.15 315.154C681.028 312.842 684.641 312.842 686.375 315.226C744.247 394.268 771.341 518.032 658.775 672.575C657.908 673.731 656.535 674.453 655.09 674.453H368.33C366.885 674.453 365.44 673.731 364.645 672.575C172.388 408.718 387.332 234.884 467.312 219.35C470.997 218.628 472.442 214.148 469.697 211.475L469.408 211.186C466.734 208.657 464.278 205.767 462.11 202.733C454.68 192.234 450.692 179.687 450.695 166.825C450.695 132.795 478.078 105.268 511.818 105.268C545.559 105.268 572.942 132.795 572.942 166.825C572.942 180.191 568.679 192.618 561.526 202.733C559.359 205.767 556.902 208.657 554.229 211.186H554.157C551.484 213.859 552.929 218.483 556.613 218.989C579.155 222.313 609.573 236.04 642.88 267.469C644.614 269.131 644.759 271.876 643.241 273.682L546.643 391.161C542.848 395.787 541.005 401.708 541.504 407.67C542.003 413.632 544.805 419.165 549.316 423.096L560.443 432.705C568.607 439.785 580.962 438.629 587.681 430.176H587.464Z" stroke="#1E1E1E" style="stroke:#1E1E1E;stroke:color(display-p3 0.1176 0.1176 0.1176);stroke-opacity:1;" stroke-width="3" stroke-linejoin="round"/>
<path d="M545.199 218.195H545.416" stroke="#1E1E1E" style="stroke:#1E1E1E;stroke:color(display-p3 0.1176 0.1176 0.1176);stroke-opacity:1;" stroke-width="3.08" stroke-linejoin="round"/>
<path d="M469.625 211.477C499.826 237.631 537.974 223.976 554.013 211.188" stroke="#1E1E1E" style="stroke:#1E1E1E;stroke:color(display-p3 0.1176 0.1176 0.1176);stroke-opacity:1;" stroke-width="3" stroke-linejoin="round"/>
<path d="M343.404 661.738H325.269V662.027C325.269 662.027 317.105 663.617 310.674 668.313C304.316 673.009 306.123 686.665 306.123 686.665C306.123 686.665 296.947 691.794 285.604 700.392C273.249 709.857 258.438 723.44 250.562 739.118C235.534 769.03 262.195 794.967 262.195 794.967C262.195 794.967 235.029 805.227 235.245 830.514C235.462 855.73 244.999 868.518 259.521 872.997H765.055C779.577 868.59 789.187 855.874 789.331 830.587C789.476 805.299 762.31 795.04 762.31 795.04C762.31 795.04 789.042 769.102 773.942 739.19C766.067 723.512 751.255 709.857 738.901 700.464C727.63 691.794 718.382 686.737 718.382 686.737C718.382 686.737 720.188 673.082 713.83 668.385C707.472 663.689 699.235 662.1 699.235 662.1V661.811H681.1" fill="#F0F0F0" style="fill:#F0F0F0;fill:color(display-p3 0.9412 0.9412 0.9412);fill-opacity:1;"/>
<path d="M761.66 795.111L261.545 795.039Z" fill="#5F5955" style="fill:#5F5955;fill:color(display-p3 0.3725 0.3490 0.3333);fill-opacity:1;"/>
<path d="M243.916 831.814C244.133 856.307 256.56 868.59 275.561 872.997C275.706 872.997 275.85 872.997 275.995 873.069C268.264 865.916 263.712 855.007 263.568 839.328C263.351 813.68 297.453 803.276 297.453 803.276C297.453 803.276 264.001 776.977 282.786 746.704C292.685 730.809 311.253 717.009 326.787 707.472C340.948 698.73 352.508 693.528 352.508 693.528C352.508 693.528 350.196 679.728 358.215 674.959C366.163 670.191 376.495 668.602 376.495 668.602V668.312H350.701L361.178 668.602C361.178 668.602 339.864 670.119 331.555 674.743C323.246 679.295 325.631 692.516 325.631 692.516C325.631 692.516 313.637 697.502 298.898 705.81C282.786 714.986 270.937 726.907 260.678 742.08C241.098 771.052 278.957 797.423 278.957 797.423C278.957 797.423 243.482 807.394 243.771 831.887L243.916 831.814Z" fill="white" style="fill:white;fill-opacity:1;"/>
<path d="M761.804 795.111L261.762 795.039" stroke="#1E1E1E" style="stroke:#1E1E1E;stroke:color(display-p3 0.1176 0.1176 0.1176);stroke-opacity:1;" stroke-width="1.55" stroke-linejoin="round"/>
<path d="M343.042 661.738H324.908V662.027C324.908 662.027 316.743 663.617 310.313 668.313C303.955 673.009 305.761 686.665 305.761 686.665C305.761 686.665 296.586 691.794 285.242 700.392C272.888 709.857 258.076 723.44 250.201 739.118C235.173 769.03 261.833 794.967 261.833 794.967C261.833 794.967 234.667 805.227 234.884 830.514C235.101 855.73 244.638 868.518 259.16 872.997H764.694C779.216 868.59 788.825 855.874 788.97 830.587C789.114 805.299 761.948 795.04 761.948 795.04C761.948 795.04 788.681 769.102 773.581 739.19C765.705 723.512 750.894 709.857 738.539 700.464C727.268 691.794 718.02 686.737 718.02 686.737C718.02 686.737 719.826 673.082 713.468 668.385C707.11 663.689 698.874 662.1 698.874 662.1V661.811H343.115L343.042 661.738Z" stroke="#1E1E1E" style="stroke:#1E1E1E;stroke:color(display-p3 0.1176 0.1176 0.1176);stroke-opacity:1;" stroke-width="3" stroke-linejoin="round"/>
<path opacity="0.18" d="M777.338 833.042C777.049 859.269 776.038 872.635 756.747 877.332H718.816C726.691 869.673 747.86 857.535 748.005 840.701C748.294 813.174 719.394 796.339 719.394 796.339C719.394 796.339 767.151 770.402 748.005 737.889C737.962 720.838 739.262 719.249 723.512 708.917C709.134 699.597 691.939 684.569 691.939 684.569C691.939 684.569 694.251 669.757 686.159 664.627C678.067 659.498 667.518 657.764 667.518 657.764C667.518 657.764 642.52 657.764 642.447 657.547H693.745L683.052 657.764C683.052 657.764 695.84 655.958 704.293 660.871C712.747 665.711 714.119 677.199 714.119 677.199C714.119 677.199 716.72 688.253 731.676 697.212C748.077 707.038 760.143 717.226 770.547 733.554C790.488 764.622 741.502 796.05 741.502 796.05C741.502 796.05 777.555 806.743 777.266 833.042H777.338Z" fill="black" style="fill:black;fill-opacity:1;"/>
</svg>
