<svg width="1024" height="1024" viewBox="0 0 1024 1024" fill="none" xmlns="http://www.w3.org/2000/svg">
<path d="M701.187 650.467L322.886 650.395" stroke="#1E1E1E" style="stroke:#1E1E1E;stroke:color(display-p3 0.1176 0.1176 0.1176);stroke-opacity:1;" stroke-width="2.92" stroke-linejoin="round"/>
<path d="M334.012 679.656H314.866L314.793 679.945C314.793 679.945 306.123 681.607 299.404 686.592C292.685 691.578 294.635 706.028 294.635 706.028C294.635 706.028 284.954 711.446 272.96 720.622C259.883 730.593 244.277 745.043 235.968 761.66C220.073 793.306 248.251 820.833 248.251 820.833C248.251 820.833 219.568 831.743 219.784 858.475C220.001 885.208 230.044 898.718 245.433 903.487H779C794.389 898.791 804.432 885.28 804.649 858.547C804.865 831.743 776.11 820.905 776.11 820.905C776.11 820.905 804.287 793.45 788.392 761.732C780.084 745.115 764.478 730.665 751.4 720.694C739.479 711.519 729.798 706.1 729.798 706.1C729.798 706.1 731.676 691.65 725.029 686.665C718.31 681.679 709.64 680.018 709.64 680.018C709.64 680.018 709.64 679.873 709.568 679.729H690.421" fill="#F0F0F0" style="fill:#F0F0F0;fill:color(display-p3 0.9412 0.9412 0.9412);fill-opacity:1;"/>
<path d="M775.46 820.978L247.673 820.906Z" fill="#5F5955" style="fill:#5F5955;fill:color(display-p3 0.3725 0.3490 0.3333);fill-opacity:1;"/>
<path d="M229.033 859.847C229.322 885.785 242.399 898.862 262.412 903.486C262.557 903.486 262.701 903.486 262.846 903.559C254.682 895.972 249.913 884.485 249.769 867.795C249.48 840.629 285.532 829.647 285.532 829.647C285.532 829.647 250.202 801.831 270.071 769.679C280.475 752.845 300.127 738.251 316.528 728.063C331.483 718.815 343.694 713.324 343.694 713.324C343.694 713.324 341.237 698.658 349.69 693.6C358.144 688.543 368.981 686.809 368.981 686.809V686.52H341.743L352.797 686.809C352.797 686.809 330.327 688.398 321.513 693.311C312.771 698.152 315.227 712.096 315.227 712.096C315.227 712.096 302.511 717.37 287.05 726.185C269.999 735.866 257.572 748.51 246.734 764.622C226.071 795.328 266.025 823.289 266.025 823.289C266.025 823.289 228.599 833.837 228.888 859.775L229.033 859.847Z" fill="white" style="fill:white;fill-opacity:1;"/>
<path opacity="0.18" d="M793.234 863.533C792.945 892.288 791.861 906.955 770.692 912.085H729.148C737.746 903.704 761.01 890.41 761.082 871.914C761.371 841.786 729.726 823.362 729.726 823.362C729.726 823.362 782.035 794.895 761.082 759.276C750.1 740.635 751.545 738.829 734.205 727.558C718.383 717.299 699.525 700.898 699.525 700.898C699.525 700.898 702.126 684.642 693.167 679.006C684.281 673.371 672.793 671.492 672.793 671.492C672.793 671.492 645.338 671.492 645.266 671.275H701.476L689.772 671.492C689.772 671.492 703.788 669.541 713.036 674.96C722.284 680.307 723.801 692.878 723.801 692.878C723.801 692.878 726.691 704.944 743.092 714.77C761.082 725.535 774.304 736.734 785.72 754.58C807.539 788.61 753.93 823.073 753.93 823.073C753.93 823.073 793.45 834.777 793.161 863.605L793.234 863.533Z" fill="black" style="fill:black;fill-opacity:1;"/>
<path d="M775.676 820.978L247.89 820.906" stroke="#1E1E1E" style="stroke:#1E1E1E;stroke:color(display-p3 0.1176 0.1176 0.1176);stroke-opacity:1;" stroke-width="1.52" stroke-linejoin="round"/>
<path d="M333.65 679.656H314.504L314.432 679.945C314.432 679.945 305.762 681.607 299.043 686.592C292.323 691.578 294.274 706.028 294.274 706.028C294.274 706.028 284.593 711.446 272.599 720.622C259.522 730.593 243.916 745.043 235.607 761.66C219.712 793.306 247.89 820.833 247.89 820.833C247.89 820.833 219.206 831.743 219.423 858.475C219.64 885.208 229.683 898.718 245.072 903.487H778.638C794.028 898.791 804.07 885.28 804.287 858.547C804.504 831.743 775.748 820.905 775.748 820.905C775.748 820.905 803.926 793.45 788.031 761.732C779.722 745.115 764.116 730.665 751.039 720.694C739.118 711.519 729.436 706.1 729.436 706.1C729.436 706.1 731.315 691.65 724.668 686.665C717.948 681.679 709.278 680.018 709.278 680.018C709.278 680.018 709.278 679.873 709.206 679.729H333.723L333.65 679.656Z" stroke="#1E1E1E" style="stroke:#1E1E1E;stroke:color(display-p3 0.1176 0.1176 0.1176);stroke-opacity:1;" stroke-width="2.89" stroke-linejoin="round"/>
<path d="M504.956 468.759V469.698C504.956 468.759 504.956 467.675 505.028 466.591V465.363C504.956 465.797 504.884 466.158 504.884 466.591V468.759H504.956ZM505.678 464.135C505.678 464.568 505.606 465.002 505.606 465.363C505.606 464.93 505.678 464.496 505.751 464.135H505.678ZM505.028 468.759V469.698C505.028 468.759 505.028 467.675 505.1 466.591H505.028V468.759Z" fill="#5F5955" style="fill:#5F5955;fill:color(display-p3 0.3725 0.3490 0.3333);fill-opacity:1;"/>
<path d="M505.028 466.591C504.956 467.675 504.956 468.759 504.956 469.698V468.759H504.884V466.591C504.884 466.158 504.956 465.797 505.028 465.363V466.591ZM505.028 466.591H505.1C505.028 467.675 505.028 468.759 505.028 469.698V468.759V466.591ZM505.751 464.135C505.678 464.496 505.606 464.93 505.606 465.363C505.606 465.002 505.678 464.568 505.678 464.135H505.751ZM505.751 464.135H504.522" stroke="#1E1E1E" style="stroke:#1E1E1E;stroke:color(display-p3 0.1176 0.1176 0.1176);stroke-opacity:1;" stroke-width="4.22" stroke-linejoin="round"/>
<path opacity="0.18" fill-rule="evenodd" clip-rule="evenodd" d="M379.385 383.359V363.273C414.209 365.874 486.098 365.802 697.285 365.585L697.429 399.398C638.473 451.563 379.385 383.359 379.385 383.359Z" fill="black" style="fill:black;fill-opacity:1;"/>
<path d="M321.151 689.121L698.008 680.018V371.582H321.151V689.121Z" fill="#F0F0F0" style="fill:#F0F0F0;fill:color(display-p3 0.9412 0.9412 0.9412);fill-opacity:1;"/>
<path d="M368.187 379.385V689.121H332.567L337.986 371.293L368.187 379.385Z" fill="white" style="fill:white;fill-opacity:1;"/>
<path opacity="0.18" fill-rule="evenodd" clip-rule="evenodd" d="M339.937 382.564V360.311C379.674 363.201 461.678 363.056 702.704 362.623V400.193C635.512 458.137 339.937 382.636 339.937 382.636V382.564Z" fill="black" style="fill:black;fill-opacity:1;"/>
<path d="M321.802 680.307L697.141 680.379L697.43 371.582H322.669L321.802 680.307Z" stroke="#1E1E1E" style="stroke:#1E1E1E;stroke:color(display-p3 0.1176 0.1176 0.1176);stroke-opacity:1;" stroke-width="3" stroke-linejoin="round"/>
<path d="M700.031 370.136C707.617 370.136 717.082 368.185 725.319 365.006C729.003 363.489 732.76 361.683 736.373 359.299C737.529 358.504 738.757 357.709 739.841 356.77C741.141 355.686 742.442 354.602 743.598 353.446C744.537 352.579 745.404 351.64 746.199 350.701C748.174 348.32 749.916 345.756 751.401 343.042C752.701 340.658 753.785 337.985 754.724 335.095C754.724 319.489 754.146 160.972 754.724 161.623C754.724 161.623 754.724 161.478 754.58 161.406C753.641 160.539 748.15 156.059 741.358 151.869C734.639 147.751 709.351 137.636 703.282 137.78V196.158H639.269V123.98C614.054 114.588 575.906 111.987 542.598 113.721V194.352H481.186V113.721C447.878 112.059 415.438 114.66 390.223 123.98V194.352H324.331V137.78C318.19 137.636 289.217 147.751 282.426 151.869C275.634 156.059 270.143 160.539 269.204 161.406C269.132 161.55 269.06 161.55 269.06 161.623C269.638 160.972 269.06 319.489 269.06 335.095C269.276 335.817 269.493 336.54 269.782 337.262C270.288 338.635 270.866 339.936 271.444 341.236C271.733 341.886 272.094 342.537 272.383 343.115C273.25 344.704 274.262 346.221 275.201 347.666C275.996 348.75 276.79 349.834 277.657 350.773C278.524 351.785 279.319 352.652 280.258 353.519C281.414 354.675 282.715 355.758 284.015 356.842C295.431 365.729 310.965 369.919 323.825 370.208H699.959L700.031 370.136Z" fill="#F0F0F0" stroke="#1E1E1E" style="fill:#F0F0F0;fill:color(display-p3 0.9412 0.9412 0.9412);fill-opacity:1;stroke:#1E1E1E;stroke:color(display-p3 0.1176 0.1176 0.1176);stroke-opacity:1;" stroke-width="2.89" stroke-linejoin="round"/>
<path d="M284.376 149.125H313.926V364.213H284.376V149.125Z" fill="white" style="fill:white;fill-opacity:1;"/>
<path opacity="0.18" fill-rule="evenodd" clip-rule="evenodd" d="M393.112 368.258L392.751 358.071C432.344 355.904 703.571 366.958 753.134 307.496L754.796 344.705C688.759 377.073 393.112 368.258 393.112 368.258Z" fill="black" style="fill:black;fill-opacity:1;"/>
<path d="M700.031 368.837C707.617 368.837 717.082 366.887 725.319 363.708C729.003 362.19 732.76 360.384 736.373 358C737.529 357.205 738.757 356.41 739.841 355.471C741.141 354.387 742.442 353.304 743.598 352.148C744.537 351.281 745.404 350.341 746.199 349.402C748.174 347.021 749.916 344.457 751.401 341.744C752.701 339.359 753.785 336.686 754.724 333.796C754.724 318.19 754.146 159.674 754.724 160.324C754.724 160.324 754.724 160.179 754.58 160.107C753.641 159.24 748.15 154.761 741.358 150.57C734.639 146.452 709.351 136.337 703.282 136.481V194.859H639.269V122.681C614.054 113.289 575.906 110.688 542.598 112.422V193.053H481.186V112.422C447.878 110.76 415.438 113.361 390.223 122.681V194.859H324.331V136.481C318.19 136.337 289.217 146.452 282.426 150.57C275.634 154.761 270.143 159.24 269.204 160.107C269.132 160.252 269.06 160.252 269.06 160.324C269.638 159.674 269.06 318.19 269.06 333.796C269.276 334.519 269.493 335.241 269.782 335.964C270.288 337.336 270.866 338.637 271.444 339.937C271.733 340.588 272.094 341.238 272.383 341.816C273.25 343.405 274.262 344.923 275.201 346.368C275.996 347.451 276.79 348.535 277.657 349.474C278.524 350.486 279.319 351.353 280.258 352.22C281.414 353.376 282.715 354.46 284.015 355.543C295.431 364.43 310.965 368.621 323.825 368.91H699.959L700.031 368.837Z" stroke="#1E1E1E" style="stroke:#1E1E1E;stroke:color(display-p3 0.1176 0.1176 0.1176);stroke-opacity:1;" stroke-width="3" stroke-linejoin="round"/>
</svg>
