<svg width="1024" height="1024" viewBox="0 0 1024 1024" fill="none" xmlns="http://www.w3.org/2000/svg">
<path d="M386.657 942.427C385.193 940.013 387.205 931.877 391.127 924.343C398.077 910.995 397.99 910.468 387.676 903.415C344.586 873.96 305.295 793.456 299.653 723.068L296.773 687.103L286.405 694.721C280.704 698.912 274.322 701.255 272.22 699.926C270.121 698.6 268.534 682.326 268.695 663.763C268.928 636.801 271.485 623.958 281.395 599.93C295.439 565.882 312.84 536.713 328.54 520.892C334.408 514.979 351.562 494.366 366.661 475.084C381.76 455.802 398.123 436.799 403.028 432.856C414.21 423.863 423.142 397.403 420.324 381.621C419.146 375.023 414.681 354.651 410.404 336.352C393.746 265.077 417.321 191.51 475.205 134.143C487.488 121.967 489.61 118.005 484.869 116.103C481.528 114.764 477.197 113.645 475.248 113.622C466.585 113.514 462.884 98.7022 469.499 90.6126C484.833 71.8555 549.686 80.6696 549.686 101.511C549.686 103.041 544.765 107.286 538.754 110.947L527.823 117.603L540.764 127.886C547.881 133.544 554.294 141.426 555.01 145.404C555.727 149.383 549.936 165.004 542.146 180.12C529.62 204.428 518.523 235.744 523.73 232.088C524.779 231.354 536.417 217.333 549.591 200.928C562.767 184.526 574.233 171.539 575.076 172.072C584.589 178.09 601.602 198.163 610.583 213.966C635.3 257.453 634.652 319.835 608.993 367.008C594.903 392.915 596.854 400.731 627.668 441.786C653.235 475.849 662.4 489.845 687.465 533.088C698.114 551.469 696.327 547.58 714.767 592.398C726.853 621.779 729.149 632.846 729.7 664.38C730.271 697.22 729.385 702.025 722.214 704.885C711.667 709.088 707.942 705.363 700.49 683.148C697.357 673.811 693.112 666.175 691.054 666.175C688.996 666.175 686.088 671.057 684.59 677.024C652.713 804.113 621.128 894.737 608.719 894.737C602.647 894.737 603.535 889.77 613.599 867.514C637.57 814.493 665.963 718.929 675.407 659.483C683.356 609.455 676.413 543.896 659.502 509.288C648.22 486.204 615.027 437.608 606.392 431.533C602.767 428.983 596.828 417.914 593.195 406.939C586.644 387.15 586.708 386.753 600.875 359.497C614.036 334.174 615.181 328.828 615.424 291.509C615.621 260.97 613.657 246.376 607.447 232.199C597.43 209.338 581.931 185.909 576.824 185.909C569.766 185.909 560.527 197.249 533.391 239.233C518.456 262.345 503.662 281.281 500.518 281.317C497.372 281.353 494.799 279.282 494.799 276.712C494.799 270.017 515.983 215.612 532.178 180.714C539.781 164.333 544.837 147.998 543.416 144.416C541.995 140.832 533.995 132.899 525.64 126.785C510.792 115.921 510.251 115.79 501.885 121.082C477.837 136.296 449.515 171.875 433.6 206.872C410.678 257.274 408.051 296.867 423.949 352.265C435.118 391.2 430.612 423.95 412.395 436.22C401.157 443.788 366.625 488.396 351.575 514.789C338.916 536.987 324.477 582.302 316.705 624.224C309.624 662.409 310.635 739.158 318.592 767.781C333.765 822.343 366.771 876.466 397.399 897.01C411.533 906.487 412.539 908.241 407.657 914.871C398.96 926.68 394.509 938.134 398.615 938.134C405.263 938.134 435.341 917.48 435.341 912.915C435.341 909.687 438.059 909.068 445.632 910.575C465.377 914.508 506.419 915.526 530.921 912.693L555.604 909.838L572.431 920.695C592.683 933.766 612.907 942.504 616.965 939.936C618.593 938.907 616.471 931.13 612.249 922.656C603.83 905.76 602.55 897.63 608.31 897.63C614.231 897.63 632.76 936.426 629.448 941.889C627.804 944.598 621.831 946.812 616.174 946.812C604.518 946.812 566.077 929.353 561.646 922.044C559.232 918.066 554.98 917.59 537.055 919.292C511.977 921.673 470.111 921.717 458.437 919.374C452.872 918.255 443.548 922.229 428.124 932.287C405.581 946.986 391.508 950.427 386.657 942.427Z" fill="black" stroke="black" style="fill:black;fill-opacity:1;stroke:black;stroke-opacity:1;" stroke-width="10"/>
<path d="M721.981 664.008C718.827 633.211 696.25 559.129 690.016 559.129C689.453 559.129 689.707 577.682 690.58 600.356C691.895 634.588 694.046 645.105 703.252 662.323C709.35 673.728 714.339 685.12 714.339 687.639C714.339 690.155 716.71 692.214 719.605 692.214C723.412 692.214 724.07 684.408 721.981 664.008ZM299.839 640.333C301.562 627.264 307.048 601.487 312.03 583.055C317.012 564.623 320.214 548.989 319.147 548.313C315.972 546.306 292.968 596.457 286.315 619.886C282.925 631.821 280.163 651.348 280.176 663.283L280.199 684.982L288.452 674.542C293.081 668.685 298.083 653.663 299.839 640.335V640.333ZM532.533 105.894C545.986 100.657 523.849 87.5391 501.557 87.5391C479.364 87.5391 468.559 98.6469 482.221 107.41C487.515 110.802 522.644 109.745 532.533 105.894Z" fill="black" stroke="black" style="fill:black;fill-opacity:1;stroke:black;stroke-opacity:1;" stroke-width="1.5"/>
<path d="M467.359 366.903C467.359 361.002 476.322 358.225 482.584 362.185C486.577 364.709 486.198 366.191 481.043 368.252C471.391 372.113 467.359 371.716 467.359 366.903ZM500.911 366.537C496.748 359.676 506.504 354.838 515.247 359.425C520.664 362.269 521.119 364.102 517.167 367.116C510.316 372.335 504.298 372.12 500.911 366.537Z" fill="black" stroke="black" style="fill:black;fill-opacity:1;stroke:black;stroke-opacity:1;" stroke-width="1.5"/>
<path d="M608.214 894.375C607.395 895.002 608.091 895.924 607.825 896.597C607.782 896.71 607.48 896.73 607.436 896.843C607.334 897.104 607.436 897.969 607.436 898.322V901.284" stroke="black" style="stroke:black;stroke-opacity:1;" stroke-width="1.066"/>
<path d="M717.29 690.111C712.05 679.746 697.767 647.49 695.968 641.963C694.721 638.123 693.239 618.969 692.678 599.395C691.731 566.279 691.892 564.244 694.997 570.088C708.714 595.901 727.271 682.15 720.7 689.556C718.78 691.722 718.155 691.821 717.29 690.111ZM280.446 671.746C280.39 652.554 282.75 633.712 287.095 618.736C292.355 600.588 311.32 557.534 317.098 550.625L318.557 548.879L318.59 551.244C318.631 554.096 315.723 567.413 311.612 583.172C306.318 603.478 303.202 618.265 298.725 644.357C297.268 652.835 293.74 664.273 290.896 669.734C289.775 671.884 286.974 675.993 284.67 678.863L280.482 684.08L280.446 671.746ZM481.048 105.157C471.863 96.8621 482.059 88.7188 501.63 88.7188C512.91 88.7188 521.304 90.7565 528.91 95.3492C542.15 103.336 531.928 108.257 502.081 108.257C486.396 108.257 484.11 107.919 481.048 105.157ZM602.1 935.562C596.097 933.158 583.115 926.21 573.249 920.125L555.308 909.058L537.15 911.236C514.341 913.976 476.785 914.001 456.602 911.298C436.276 908.574 436.442 908.559 433.714 913.51C431.322 917.846 403.58 937.141 399.732 937.141C396.757 937.141 399.504 929.154 405.909 919.183C408.912 914.506 411.372 909.777 411.372 908.674C411.372 907.571 405.81 902.376 399.01 897.131C375.85 879.262 360.073 859.284 343.189 826.447C323.482 788.108 317.221 765.711 314.246 722.908C309.612 656.184 320.288 588.625 344.352 532.405C355.388 506.618 387.977 460.684 410.057 439.789C427.201 423.567 430.127 416.348 429.94 390.748C429.82 374.535 428.409 364.776 423.686 347.484C415.52 317.585 413.482 277.084 418.95 253.276C430.624 202.452 464.001 148.845 498.832 124.986L510.173 117.217L518.36 122.792C522.865 125.857 529.921 131.496 534.048 135.326C545.585 146.037 545.248 147.967 522.812 199.557C504.423 241.837 492.394 275.768 494.539 279.301C495.169 280.34 497.44 281.19 499.587 281.19C504.741 281.19 514.348 269.424 537.201 235.135C557.717 204.341 568.321 190.415 573.203 187.855C575.983 186.396 577.12 186.644 579.892 189.329C585.611 194.864 593.614 207.288 601.831 223.377C612.458 244.195 615.197 261.921 613.73 300.387C612.491 332.835 611.843 335.395 597.774 363.53C587.206 384.66 586.433 390.533 592.096 406.735C595.616 416.808 600.853 425.233 614.224 442.324C635.114 469.03 654.903 500.395 661.797 517.734C672.83 545.489 679.845 596.607 677.305 630.796C673.015 688.57 645.382 790.302 613.996 863.866C602.241 891.42 601.626 900.259 610.095 920.017C616.782 935.621 617.795 939.929 614.785 939.929C613.812 939.929 608.103 937.963 602.1 935.559V935.562ZM483.016 367.574C487.343 364.943 487.343 364.912 482.725 361.991C476.934 358.33 469.318 359.487 467.401 364.321C464.318 372.09 472.71 373.841 483.016 367.574ZM516.435 368.378C522.848 364.321 522.533 362.659 514.653 358.94C510.068 356.774 508.117 356.569 504.311 357.857C498.65 359.774 497.962 366.469 503.092 369.712C507.815 372.702 509.935 372.49 516.435 368.378Z" fill="#808080" style="fill:#808080;fill:color(display-p3 0.5020 0.5020 0.5020);fill-opacity:1;"/>
</svg>
