<svg width="1024" height="1024" viewBox="0 0 1024 1024" fill="none" xmlns="http://www.w3.org/2000/svg">
<path d="M386.141 945.376C357.375 943.801 316.238 941.541 294.726 940.356L255.615 938.198L260.095 927.318C262.56 921.335 264.523 914.113 264.457 911.271C261.101 766.759 267.749 740.98 325.308 675.355C339.485 659.188 349.513 645.08 347.588 644.005C342.545 641.181 250.139 666.454 238.468 673.849C230.368 678.982 175.727 698.2 173.221 696.797C168.365 694.079 216.124 662.601 258.034 640.902C318.207 609.742 336.485 602.011 370.758 593.215C446.9 573.671 444.988 574.519 455.571 555.557C461.336 545.23 466.072 523.746 466.699 505.092C467.723 474.61 466.886 472.206 453.116 466.105C418.976 450.978 382.23 428.827 370.817 416.49C364.082 409.207 356.507 402.397 353.985 401.355C351.464 400.313 346.664 372.415 343.318 339.36C339.974 306.305 332.832 264.534 327.448 246.539C316.64 210.402 305.842 145.855 310.186 143.318C311.709 142.427 319.932 146.689 328.457 152.79C342.757 163.014 356.381 167.44 354.646 161.294C351.702 150.847 356.545 125.991 361.53 125.991C364.914 125.991 367.681 128.178 367.681 130.848C367.681 136.628 398.639 163.877 405.203 163.877C407.717 163.877 411.567 159.307 413.759 153.721C416.703 146.221 414.25 140.921 404.376 133.446C394.292 125.812 392.027 120.733 395.153 112.767C404.589 88.7179 442.205 74.3281 495.625 74.3281C538.28 74.3281 552.098 83.4161 558.414 115.613C565.344 150.941 570.308 151.625 597.956 121.035C607.479 110.501 617.706 101.881 620.689 101.881C623.668 101.881 626.106 111.955 626.106 124.269C626.106 151.591 635.921 153.675 654.163 130.228L666.84 113.936L665.44 252.74C663.84 411.347 663.93 411.017 612.576 444.704C594.635 456.472 583.832 466.579 585.586 469.953C587.194 473.048 594.274 489.527 601.322 506.576C621.492 555.37 629.277 564.071 671.077 584.559C738.6 617.655 823.003 670.557 823.003 679.784C823.003 681.565 828.763 687.123 835.803 692.133C855.955 706.474 846.673 709.636 819.78 697.586C774.253 677.188 724.092 659.391 715.211 660.481C708.179 661.344 711.42 669.968 731.096 702.772C765.513 760.147 775.54 799.476 772.875 866.605C771.298 906.264 775.11 929.862 769.163 933.111C762.346 936.831 755.171 927.312 759.428 912.994C767.456 885.994 763.291 795.163 752.721 766.788C737.924 727.064 697.931 660.868 660.02 613.346C614.737 556.586 576.882 488.047 576.882 462.816C576.882 459.406 587.626 451.183 600.759 444.543C613.892 437.902 631.005 424.344 638.793 414.414C652.699 396.683 652.957 394.108 653.372 269.446C653.792 143.415 653.718 142.634 642.492 157.037C628.095 175.515 620.632 171.452 618.52 143.988C617.617 132.228 614.975 122.592 612.648 122.576C610.323 122.561 599.558 132.622 588.73 144.935C577.901 157.249 566.97 167.323 564.44 167.323C561.911 167.323 557.946 158.823 555.626 148.432C553.307 138.044 549.247 128.797 546.602 127.881C541.746 126.201 526.716 149.59 524.704 161.959C522.515 175.405 510.368 170.628 502.995 153.427C491.514 126.634 483.309 135.113 478.708 178.515C477.912 186.034 467.744 179.135 458.405 164.74C437.216 132.077 428.386 131.872 424.239 163.949C422.778 175.277 419.414 184.544 416.764 184.544C414.117 184.544 401.839 176.019 389.487 165.6C377.133 155.181 365.398 146.656 363.416 146.656C361.43 146.656 361.378 155.181 363.298 165.6C367.333 187.478 358.547 190.867 340.973 174.209C317.907 152.352 317.403 161.954 337.45 241.373C344.145 267.895 351.249 312.065 353.235 339.531C355.836 375.481 359.819 393.358 367.458 403.334C379.869 419.549 441.857 458.221 467.188 465.552C480.618 469.441 483.982 472.418 481.56 478.271C479.819 482.474 477.272 498.31 475.898 513.465C472.122 555.145 459.654 570.244 370.669 640.902C297.483 699.014 264.731 772.799 272.058 863.054C274.131 888.628 277.236 912.147 278.954 915.321C280.759 918.652 277.413 922.63 271.044 924.729C261.444 927.894 261.206 928.818 269.234 931.821C274.31 933.72 284 935.328 290.769 935.389C297.537 935.451 329.378 937.079 361.527 939.004C473.826 945.737 743.666 941.835 769.163 933.111C771.7 932.24 773.779 933.049 773.779 934.903C773.779 946.333 525.828 953.033 386.141 945.376Z" fill="black" style="fill:black;fill-opacity:1;"/>
<path d="M769.163 933.111C775.11 929.862 771.298 906.264 772.875 866.605C775.54 799.476 765.513 760.147 731.096 702.772C711.42 669.968 708.179 661.344 715.211 660.481C724.092 659.391 774.253 677.188 819.78 697.586C846.673 709.636 855.955 706.474 835.803 692.133C828.763 687.123 823.003 681.565 823.003 679.784C823.003 670.557 738.6 617.655 671.077 584.559C629.277 564.071 621.492 555.37 601.322 506.576C594.274 489.527 587.194 473.048 585.586 469.953C583.832 466.579 594.635 456.472 612.576 444.704C663.93 411.017 663.84 411.347 665.44 252.74L666.84 113.936L654.163 130.228C635.921 153.675 626.106 151.591 626.106 124.269C626.106 111.955 623.668 101.881 620.689 101.881C617.706 101.881 607.479 110.501 597.956 121.035C570.308 151.625 565.344 150.941 558.414 115.613C552.098 83.4161 538.28 74.3281 495.625 74.3281C442.205 74.3281 404.589 88.7179 395.153 112.767C392.027 120.733 394.292 125.812 404.376 133.446C414.25 140.921 416.703 146.221 413.759 153.721C411.567 159.307 407.717 163.877 405.203 163.877C398.639 163.877 367.681 136.628 367.681 130.848C367.681 128.178 364.914 125.991 361.53 125.991C356.545 125.991 351.702 150.847 354.646 161.294C356.381 167.44 342.757 163.014 328.457 152.79C319.932 146.689 311.709 142.427 310.186 143.318C305.842 145.855 316.64 210.402 327.448 246.539C332.832 264.534 339.974 306.305 343.318 339.36C346.664 372.415 351.464 400.313 353.985 401.355C356.507 402.397 364.082 409.207 370.817 416.49C382.23 428.827 418.976 450.978 453.116 466.105C466.886 472.206 467.723 474.61 466.699 505.092C466.072 523.746 461.336 545.23 455.571 555.557C444.988 574.519 446.9 573.671 370.758 593.215C336.485 602.011 318.207 609.742 258.034 640.902C216.124 662.601 168.365 694.079 173.221 696.797C175.727 698.2 230.368 678.982 238.468 673.849C250.139 666.454 342.545 641.181 347.588 644.005C349.513 645.08 339.485 659.188 325.308 675.355C267.749 740.98 261.101 766.759 264.457 911.271C264.523 914.113 262.56 921.335 260.095 927.318L255.615 938.198L294.726 940.356C316.238 941.541 357.375 943.801 386.141 945.376C525.828 953.033 773.779 946.333 773.779 934.903C773.779 933.049 771.7 932.24 769.163 933.111ZM769.163 933.111C762.346 936.831 755.171 927.312 759.428 912.994C767.456 885.994 763.291 795.163 752.721 766.788C737.924 727.064 697.931 660.868 660.02 613.346C614.737 556.586 576.882 488.047 576.882 462.816C576.882 459.406 587.626 451.183 600.759 444.543C613.892 437.902 631.005 424.344 638.793 414.414C652.699 396.683 652.957 394.108 653.372 269.446C653.792 143.415 653.718 142.634 642.492 157.037C628.095 175.515 620.632 171.452 618.52 143.988C617.617 132.228 614.975 122.592 612.648 122.576C610.323 122.561 599.558 132.622 588.73 144.935C577.901 157.249 566.97 167.323 564.44 167.323C561.911 167.323 557.946 158.823 555.626 148.432C553.307 138.044 549.247 128.797 546.602 127.881C541.746 126.201 526.716 149.59 524.704 161.959C522.515 175.405 510.368 170.628 502.995 153.427C491.514 126.634 483.309 135.113 478.708 178.515C477.912 186.034 467.744 179.135 458.405 164.74C437.216 132.077 428.386 131.872 424.239 163.949C422.778 175.277 419.414 184.544 416.764 184.544C414.117 184.544 401.839 176.019 389.487 165.6C377.133 155.181 365.398 146.656 363.416 146.656C361.43 146.656 361.378 155.181 363.298 165.6C367.333 187.478 358.547 190.867 340.973 174.209C317.907 152.352 317.403 161.954 337.45 241.373C344.145 267.895 351.249 312.065 353.235 339.531C355.836 375.481 359.819 393.358 367.458 403.334C379.869 419.549 441.857 458.221 467.188 465.552C480.618 469.441 483.982 472.418 481.56 478.271C479.819 482.474 477.272 498.31 475.898 513.465C472.122 555.145 459.654 570.244 370.669 640.902C297.483 699.014 264.731 772.799 272.058 863.054C274.131 888.628 277.236 912.147 278.954 915.321C280.759 918.652 277.413 922.63 271.044 924.729C261.444 927.894 261.206 928.818 269.234 931.821C274.31 933.72 284 935.328 290.769 935.389C297.537 935.451 329.378 937.079 361.527 939.004C473.826 945.737 743.666 941.835 769.163 933.111Z" stroke="black" style="stroke:black;stroke-opacity:1;" stroke-width="10"/>
<path d="M437.961 940.287C364.686 938.854 290.003 935.157 275.926 932.269C266.044 930.244 264.365 927.6 271.743 925.682C279.031 923.788 281.13 918.801 278.852 908.81C274.63 890.293 271.259 840.829 272.854 820.835C277.418 763.632 297.993 716.049 335.988 674.831C341.953 668.364 367.935 645.424 393.729 623.851C462.209 566.578 471.876 553.617 477.339 511.723C478.714 501.191 480.513 487.564 481.34 481.441L482.84 470.31L467.058 464.447C434.94 452.513 375.461 414.143 366.109 399.323C361.699 392.335 356.182 364.682 354.213 339.709C351.917 310.543 344.39 266.293 334.921 226.301C324.63 182.832 322.382 166.269 326.77 166.269C328.477 166.269 335.564 170.68 342.516 176.068C349.472 181.457 356.172 185.868 357.403 185.868C363.716 185.868 365.597 179.673 363.962 164.295C363.045 155.681 363.035 148.633 363.939 148.633C364.845 148.633 375.177 156.113 386.902 165.255C414.908 187.092 416.854 187.911 421.001 179.599C422.775 176.04 424.995 167.925 425.929 161.561C427.629 150.023 431.351 140.794 434.308 140.794C437.495 140.794 448.424 151.907 455.566 162.413C464.045 174.881 471.438 181.946 476 181.946C478.176 181.946 479.976 176.862 481.724 165.767C484.456 148.431 487.919 138.833 491.45 138.833C493.398 138.833 503.73 154.634 503.73 157.616C503.73 158.271 505.957 161.366 508.676 164.497C513.732 170.316 522.3 172.139 523.908 167.741C531.04 148.195 533.661 142.614 538.671 136.314C541.915 132.234 545.576 129.402 546.805 130.027C548.033 130.649 550.204 134.87 551.628 139.407C558.783 162.227 561.484 168.23 564.581 168.23C566.406 168.23 577.755 158.005 589.802 145.51C601.85 133.014 612.259 123.243 612.934 123.796C613.61 124.351 615.699 133.795 617.573 144.785C619.447 155.773 621.567 165.544 622.289 166.497C625.258 170.439 633.133 167.741 640.457 160.273C647.182 153.412 648.495 152.806 649.967 155.862C652.443 161.008 652.271 359.935 649.773 381.083C648.472 392.104 645.823 401.896 642.856 406.663C636.026 417.633 617.673 433.748 602.024 442.521C594.659 446.648 585.563 452.684 581.81 455.938C575.676 461.255 575.162 462.709 576.718 470.351C582.737 499.903 614.035 554.498 659.109 614.079C688.321 652.689 707.347 681.192 724.799 712.486C744.882 748.495 751.789 764.73 756.169 786.219C761.471 812.241 763.491 880.504 759.699 905.679C757.467 920.496 757.344 927.073 759.246 929.983C761.678 933.706 761.013 934.054 749.385 935.195C703.85 939.66 541.587 942.315 437.961 940.287Z" fill="#808080" style="fill:#808080;fill:color(display-p3 0.5020 0.5020 0.5020);fill-opacity:1;"/>
<path d="M468.708 399.564C461.19 386.523 461.919 386.423 485.336 397.27C500.67 404.368 507.418 404.71 525.594 399.306C537.603 395.737 553.147 387.984 560.135 382.078C567.122 376.171 576.254 372.393 580.428 373.685C584.944 375.085 577.663 383.003 562.477 393.214C541.414 407.377 531.498 410.391 505.943 410.391C480.918 410.391 473.747 408.307 468.708 399.564ZM462.878 345.432C462.878 342.454 465.501 340.02 468.711 340.02C471.914 340.02 474.541 342.454 474.541 345.432C474.541 348.409 471.914 350.843 468.708 350.843C465.501 350.843 462.875 348.409 462.875 345.432H462.878ZM530.909 336.411C524.199 330.183 526.663 323.777 535.767 323.777C540.579 323.777 544.514 327.435 544.514 331.897C544.514 340.35 537.618 342.639 530.909 336.411Z" fill="black" stroke="black" style="fill:black;fill-opacity:1;stroke:black;stroke-opacity:1;" stroke-width="3.90989"/>
<path d="M478.437 133.925C490.454 112.913 501.585 111.047 506.764 129.174C510.43 142.01 521.507 149.221 521.507 138.774C521.507 136.332 527.095 128.196 533.928 120.698C544.314 109.293 545.182 105.486 539.235 97.4504C530.454 85.5822 516.604 81.2148 487.763 81.2148C463.067 81.2148 437.808 87.41 421.58 97.4452C408.048 105.816 402.308 122.697 410.702 129.432C416.339 133.959 418.165 133.851 425.392 128.572C436.771 120.26 438.148 120.682 450.746 136.321C456.851 143.899 463.502 150.089 465.525 150.081C467.55 150.071 473.358 142.801 478.435 133.928L478.437 133.925ZM807.515 677.925C772.858 647.39 667.906 583.633 659.785 588.179C657.814 589.283 666.733 602.305 679.607 617.118C701.232 641.988 707.015 645.679 755.319 665.425C784.086 677.183 810.016 686.936 812.942 687.1C815.871 687.262 813.429 683.132 807.515 677.925ZM317.398 642.835C355.066 631.016 385.706 618.848 392.631 612.955C399.057 607.487 408.869 599.525 414.437 595.263C423.935 587.992 423.871 587.514 413.401 587.514C390.924 587.514 314.083 617.135 258.554 647.208C197.677 680.173 185.061 690.915 227.701 673.473C242.085 667.59 282.449 653.805 317.398 642.835Z" fill="#808080" style="fill:#808080;fill:color(display-p3 0.5020 0.5020 0.5020);fill-opacity:1;"/>
</svg>
