<svg width="1024" height="1024" viewBox="0 0 1024 1024" fill="none" xmlns="http://www.w3.org/2000/svg">
<path d="M409.54 897.591C399.546 895.69 377.284 890.341 360.071 885.704C330.864 877.835 328.455 876.392 323.945 864.036C310.46 827.087 323.983 725.371 347.39 687.698C376.591 640.696 387.403 608.903 390.169 561.908L391.366 541.562L365.117 539.82C337.449 537.986 332.07 536.295 339.75 531.85C345.123 528.738 365.117 501.966 365.117 497.88C365.117 496.385 361.028 493.481 356.029 491.43C344.813 486.819 322.397 456.034 316.62 437.304C297.334 374.775 317.096 318.144 370.131 283.969C405.621 261.099 433.091 254.072 480.214 255.816C515.368 257.118 523.997 258.851 546.848 269.199C596.094 291.504 624.814 329.209 633.007 382.316C636.881 407.407 636.372 411.625 625.828 441.985C619.587 459.955 610.719 479.132 606.121 484.607C596.698 495.829 595.49 494.204 627.591 513.518C650.376 527.224 648.261 533.41 618.752 539.371C593.525 544.464 593.287 544.632 592.934 557.708C592.111 588.036 605.747 628.588 626.934 658.834C660.285 706.444 670.323 742.364 665.856 798.145C664.289 817.744 660.564 866.282 658.567 866.282C656.483 866.282 656.853 816.457 658.346 793.117C660.623 757.52 659.821 748.926 651.905 724.089C646.489 707.094 634.895 684.352 622.987 667.355C598.339 632.178 587.233 599.91 587.233 563.47V536.025L607.973 533.726C619.381 532.46 629.558 530.634 630.589 529.668C634.236 526.253 626.881 519.645 610.993 512.052C590.308 502.17 588.667 497.296 600.519 480.942C605.86 473.571 614.386 455.431 619.466 440.631C636.832 390.054 623.381 337.498 583.519 300.166C552.751 271.35 525.328 261.386 476.174 261.163C431.96 260.964 413.614 265.712 381.845 285.58C353.061 303.583 332.357 328.449 322.406 356.966C316.159 374.87 315.823 381.33 319.801 406.901C326.435 449.531 344.088 479.227 370.422 492.056L381.783 497.592L367.077 512.837C358.991 521.22 353.499 529.136 354.877 530.424C356.252 531.713 365.933 533.689 376.393 534.816C395.391 536.861 395.406 536.876 396.627 552.536C399.665 591.552 380.592 652.426 354.866 685.82C349.444 692.857 343.122 704.771 340.82 712.297C331.793 741.769 324.098 802.78 325.772 831.583C327.341 858.564 328.587 862.341 338.328 869.613C351.691 879.595 408.041 893.772 445.657 896.621C507.035 901.265 613.717 885.865 647.104 867.54C659.545 860.714 660.438 860.661 659.222 866.83C657.514 875.477 604.718 892.233 561.701 897.783C524.31 902.604 435.309 902.491 409.542 897.589L409.54 897.591Z" fill="black" stroke="black" style="fill:black;fill-opacity:1;stroke:black;stroke-opacity:1;" stroke-width="13.0997"/>
<path d="M444.415 895.934C414.058 893.481 365.183 882.189 347.05 873.439C337.105 868.639 333.457 865.708 330.874 860.442C320.311 838.917 330.131 734.661 345.739 702.636C348.125 697.744 353.77 688.402 358.283 681.874C375.781 656.592 389.769 620.181 395.378 585.314C398.007 568.96 397.426 542.631 394.356 539.106C392.37 536.822 387.764 535.708 371.375 533.55C367.65 533.035 363.945 532.39 360.265 531.615L354.863 530.432L356.706 526.723C357.723 524.685 363.91 517.305 370.456 510.326L382.36 497.639L370.692 491.295C356.996 483.848 347.516 474.978 339.534 462.132C321.878 433.723 313.396 385.782 321.64 360.978C333.467 325.387 358.196 298.11 397.352 277.471C417.558 266.821 431.735 263.355 460.962 261.922C479.121 261.028 505.012 262.649 518.273 265.508C543.269 270.897 560.953 280.453 582.189 300.053C619.839 334.8 634.285 382.413 621.823 430.672C618.397 443.932 608.216 467.234 600.285 479.959C588.845 498.32 589.82 501.302 610.922 512.525C623.589 519.263 631.008 524.864 631.008 527.693C631.008 528.64 628.614 529.774 625.017 530.535C619.424 531.72 591.315 535.365 587.77 535.365C585.517 535.365 586.753 580.872 589.346 593.495C594.382 618.01 602.792 637.102 620.973 665.311C636.192 688.919 646.701 709.668 652.054 726.679C658.671 747.702 658.966 751.68 657.624 802.524C656.966 827.515 656.659 851.001 656.943 854.713L657.458 861.466L649.652 865.552C611.242 885.648 507.409 901.02 444.415 895.934Z" fill="white" style="fill:white;fill-opacity:1;"/>
<path d="M479.646 497.852C474.336 492.879 479.129 490.468 498.755 488.244C510.418 486.922 524.955 484.785 531.064 483.492C544.698 480.605 546.346 488.317 533.084 492.948C521.768 496.897 482.478 500.502 479.646 497.852ZM475.476 444.027C472.102 434.074 479.412 425.516 486.01 431.694C491.37 436.715 489.442 448.689 482.944 450.713C480.356 451.52 476.996 448.512 475.476 444.027ZM530.735 432.284C531.479 427.39 535.359 422.888 539.469 422.154C545.194 421.13 546.561 422.821 545.525 429.642C544.783 434.534 540.903 439.036 536.792 439.77C531.068 440.793 529.699 439.102 530.735 432.284Z" fill="black" stroke="black" style="fill:black;fill-opacity:1;stroke:black;stroke-opacity:1;" stroke-width="2.37114"/>
</svg>
