<svg width="1024" height="1024" viewBox="0 0 1024 1024" fill="none" xmlns="http://www.w3.org/2000/svg">
<path d="M351.119 920.9C351.119 919.248 345.999 907.775 339.745 895.405C306.398 829.464 269.386 716.302 251.43 625.383C226.844 500.883 219.082 398.166 227.586 309.807C231.37 270.503 232.169 236.824 229.565 226.441C228.641 222.759 225.766 215.684 223.175 210.72C220.585 205.753 218.465 200.938 218.465 200.014C218.465 196.596 224.788 192.564 234.03 190.091C247.198 186.564 278.161 181.41 286.177 181.41C295.695 181.41 298.938 184.851 301.69 197.866C302.817 203.206 304.954 211.408 306.437 216.093L309.132 224.615L323.737 224.413C331.768 224.303 345.735 223.097 354.769 221.733C376.499 218.454 376.145 218.855 374.717 199.056C373.214 178.223 373.493 167.023 375.569 165.003C376.678 163.923 382.881 162.876 393.106 162.041C411.955 160.505 487.488 156.717 488.028 157.282C488.235 157.5 489.039 168.086 489.812 180.801C490.588 193.519 491.45 205.07 491.732 206.468C492.208 208.841 493.532 209.11 511.39 210.482C543.449 212.944 565.184 213.444 575.636 211.951C586.234 210.441 594.298 207.164 596.615 203.429C597.429 202.116 598.656 194.295 599.339 186.052C600.834 168.034 602.053 163.293 606.179 159.412C611.356 154.548 623.843 154.791 668.252 160.623C689.057 163.355 706.718 165.59 707.502 165.59C708.559 165.59 708.928 175.842 708.935 205.446C708.951 245.976 710.407 289.271 712.573 313.458C715.456 345.642 730.024 493.431 733.867 529.478C742.284 608.421 744.522 646.962 744.532 713.248C744.545 782.637 740.636 832.055 731.906 872.807L730.703 878.411L710.382 879.128C696.524 879.62 682.898 881.022 667.545 883.539C614.126 892.299 477.509 908.594 406.494 914.676C381.483 916.819 373.007 918.025 365.529 920.511C362.624 921.476 358.192 922.633 355.683 923.083C351.421 923.851 351.119 923.705 351.119 920.9Z" stroke="black" style="stroke:black;stroke-opacity:1;" stroke-width="10.479"/>
<path d="M349.868 883.383C272.894 721.346 227.802 486.148 241.391 317.562C243.106 296.263 244.547 266.444 244.591 251.296C244.668 225.082 244.453 223.29 240.134 213.974L235.598 204.19L244.343 202.313C256.723 199.659 285.543 195.102 286.106 195.711C286.362 195.993 288.533 203.578 290.924 212.571C293.315 221.565 296.088 231.054 297.089 233.655L298.906 238.389L318.311 238.356C328.984 238.338 345.074 237.273 354.067 235.99C386.123 231.423 389.374 227.747 388.729 196.82L388.314 176.762L404.322 175.636C431.727 173.71 473.657 171.657 474.279 172.213C474.607 172.502 475.567 181.352 476.412 191.874C478.127 213.204 479.32 216.555 486.524 220.282C497.99 226.211 571.362 228.579 588.258 223.566C606.385 218.188 610.97 212.154 612.962 191.057C613.589 184.432 614.529 176.826 615.054 174.156L616.003 169.305L627.459 170.426C644.238 172.067 680.935 176.299 688.395 177.453L694.851 178.452L694.882 215.735C694.938 279.111 696.82 303.374 718.05 514.631C726.324 596.986 728.595 628.438 730.159 682.439C731.815 739.598 727.087 825.581 720.636 855.671L718.767 864.375L701.356 865.515C691.777 866.144 671.486 868.543 656.265 870.85C600.638 879.277 487.008 892.855 417.749 899.35C396.45 901.347 375.924 903.684 372.138 904.542C368.352 905.399 364.227 906.121 362.978 906.144C361.726 906.17 355.826 895.925 349.868 883.383Z" fill="white" style="fill:white;fill-opacity:1;"/>
<path d="M549.75 476.55C541.865 471.801 546.143 467.884 556.953 469.95C568.44 472.149 605.512 463.619 623.603 454.618C634.811 449.04 643.461 451.17 636.633 457.826C631.419 462.91 575.705 478.826 562.949 478.872C557.839 478.89 551.9 477.848 549.75 476.55ZM292.121 434.466C278.669 430.068 275.988 426.842 275.988 415.051C275.988 372.652 338.69 338.875 390.103 353.575C416.445 361.106 430.236 374.119 427.402 388.762C425.779 397.126 427.248 399.852 432.701 398.593C443.433 396.109 442.089 400.272 427.607 414.395C404.618 436.808 332.134 447.547 292.121 434.466Z" fill="black" stroke="black" style="fill:black;fill-opacity:1;stroke:black;stroke-opacity:1;" stroke-width="1.779"/>
<path d="M388.079 426.915C392.6 424.193 392.574 421.047 387.992 415.889C378.955 405.713 379.656 366.808 388.913 364.737C401.091 362.013 366.406 355.478 351.414 357.672C332.514 360.437 312.246 372.038 298.883 387.741C284.365 404.799 284.752 417.023 300.112 426.277C310.639 432.621 317.709 433.517 347.129 432.234C366.175 431.405 384.602 429.009 388.079 426.915ZM573.85 434.51C555.556 428.527 534.022 408.823 545.703 408.823C549.64 408.823 565.197 418.321 571.858 422.04C591.719 433.13 611.794 432.943 635.595 421.446C651.91 413.564 651.953 413.426 642.177 401.632C634.799 392.733 633.086 384.081 635.344 367.133C638.211 345.606 637.686 344.408 624.477 342.412C589.604 337.138 549.19 365.452 549.922 394.651C550.344 411.552 544.564 416.979 537.667 406.15C531.341 396.218 534.109 382.028 545.194 367.556C561.706 345.998 581.694 336.772 616.223 334.773C645.018 333.109 646.664 333.518 669.881 348.225C692.596 362.613 693.643 364.233 690.21 379.616C685.994 398.506 662.426 420.558 634.215 432.014C611.49 441.243 596.353 441.87 573.85 434.51Z" fill="black" stroke="black" style="fill:black;fill-opacity:1;stroke:black;stroke-opacity:1;" stroke-width="1.779"/>
<path d="M317.792 429.631C309.546 428.676 301.881 425.253 296.249 420.013C289.312 413.561 289.284 406.002 296.152 395.667C306.3 380.404 325.433 366.977 344.552 361.703C349.759 360.267 351.336 360.111 360.375 360.15C367.789 360.183 372.315 360.534 377.675 361.491C381.669 362.205 385.043 362.896 385.176 363.027C385.307 363.16 384.674 364.389 383.768 365.761C380.965 369.995 379.775 375.438 379.409 385.678C378.873 400.677 381.065 410.968 386.244 417.796C387.746 419.78 388.975 421.743 388.975 422.163C388.975 425.711 374.004 428.315 345.773 429.679C330.912 430.398 324.32 430.388 317.792 429.631ZM594.958 427.188C586.945 426.256 579.69 423.348 564.878 415.113L551.351 407.594L551.763 405.418C551.993 404.217 552.395 399.54 552.664 395.024C553.245 385.227 554.431 381.313 558.895 374.468C570.344 356.911 593.834 344.516 615.661 344.516C624.459 344.516 631.046 345.837 632.915 347.977C634.264 349.52 634.338 349.981 634.026 354.832C633.844 357.692 633.235 363.731 632.674 368.247C630.504 385.757 632.441 393.652 641.762 405.29C646.534 411.242 646.841 411.997 645.08 413.4C642.833 415.192 629.608 421.472 623.761 423.525C613.969 426.966 603.987 428.238 594.958 427.188Z" fill="white" style="fill:white;fill-opacity:1;"/>
</svg>
