<svg width="1024" height="1024" viewBox="0 0 1024 1024" fill="none" xmlns="http://www.w3.org/2000/svg">
<path d="M291.338 875.018C366.358 897.479 444.334 908.512 522.641 907.746C595.633 906.976 668.155 895.959 738.083 875.018L734.067 858.956C728.044 832.051 719.209 775.63 738.083 716.198C763.783 634.479 830.243 532.882 785.267 382.896C737.681 224.076 515.413 176.49 515.413 176.49L519.027 250.78L259.413 439.116C251.531 444.877 246.173 453.455 244.453 463.065C242.733 472.676 244.783 482.579 250.177 490.717C255.598 498.749 261.019 507.985 265.637 517.221C270.255 526.457 291.739 559.385 305.192 568.22C310.529 571.648 316.776 573.385 323.116 573.206C329.457 573.027 335.596 570.939 340.731 567.216C356.794 555.771 376.872 530.473 433.092 535.894C581.672 561.193 618.817 480.076 618.817 480.076C618.817 480.076 595.124 528.465 499.35 573.641C399.36 611.79 333.904 677.246 300.574 787.878C284.913 840.484 291.338 875.018 291.338 875.018Z" fill="#4D4D4D" style="fill:#4D4D4D;fill:color(display-p3 0.3020 0.3020 0.3020);fill-opacity:1;"/>
<path d="M267.845 506.981L581.068 335.109C581.068 335.109 618.414 316.637 599.741 279.291C591.509 262.827 527.86 190.946 527.86 190.946V265.236L249.172 469.836L267.845 506.981ZM645.721 494.532C581.47 601.952 504.971 657.971 461.602 707.364C425.46 748.926 399.359 846.909 401.366 888.069C402.571 912.967 298.766 868.192 298.766 868.192L325.671 740.292L381.288 634.88L472.243 568.822L645.721 494.532Z" fill="#808080" style="fill:#808080;fill:color(display-p3 0.5020 0.5020 0.5020);fill-opacity:1;"/>
<mask id="mask0_1_3932" style="mask-type:luminance" maskUnits="userSpaceOnUse" x="212" y="145" width="620" height="794">
<path d="M212.832 145.569H831.248V938.667H212.832V145.569Z" fill="white" style="fill:white;fill-opacity:1;"/>
</mask>
<g mask="url(#mask0_1_3932)">
<path d="M321.254 851.326C445.67 884.721 576.611 885.344 701.338 853.133C694.311 814.984 691.098 761.977 708.567 706.761C713.988 689.494 721.015 671.825 728.444 653.152C756.554 582.074 788.479 501.56 755.55 391.932C725.433 290.937 610.182 239.335 548.341 218.253L549.947 249.375C550.212 254.546 549.175 259.701 546.93 264.367C544.684 269.032 541.303 273.06 537.097 276.079L277.684 464.214C276.273 465.293 275.323 466.866 275.025 468.617C274.727 470.367 275.103 472.166 276.077 473.651C282.904 483.891 288.727 493.93 293.345 503.367C301.396 517.499 311.25 530.526 322.659 542.118L328.683 537.299C344.946 524.048 375.466 499.15 435.902 505.174H438.11C530.069 521.036 569.825 491.721 584.08 475.859C589.1 469.836 591.108 466.021 591.309 465.82L590.907 466.423L604.761 465.017C623.635 463.009 641.304 474.655 646.926 492.926L646.725 493.528C646.469 494.069 646.201 494.605 645.922 495.135C644.172 498.394 642.227 501.545 640.099 504.572C626.848 523.847 591.911 564.204 512.4 601.55L510.393 602.554C415.221 638.896 359.804 698.931 330.289 796.713C324.822 814.432 321.717 832.795 321.053 851.326M514.609 938.667C435.994 938.614 357.805 927.116 282.502 904.534C277.128 902.934 272.289 899.903 268.505 895.765C264.721 891.627 262.133 886.538 261.019 881.042C256.612 846.721 260.045 811.847 271.058 779.044C300.573 681.262 353.982 613.196 437.307 568.22C434.491 567.781 431.68 567.313 428.874 566.815C394.741 563.602 381.088 574.846 367.836 585.488L358.8 592.716C348.633 600.063 336.483 604.168 323.943 604.49C311.403 604.812 299.057 601.338 288.526 594.523C265.837 579.665 240.94 537.099 237.928 531.075C233.986 523.011 229.491 515.228 224.476 507.784C214.612 493.009 210.858 474.985 214.003 457.5C217.148 440.015 226.947 424.43 241.342 414.018L487.302 235.721L484.491 178.096C484.232 173.351 485.07 168.61 486.94 164.24C488.81 159.871 491.662 155.992 495.274 152.904C498.887 149.816 503.162 147.602 507.769 146.435C512.376 145.267 517.19 145.177 521.837 146.172C531.676 148.179 762.778 199.58 814.982 374.062C853.935 504.371 814.782 603.558 786.069 675.841C779.042 693.51 772.416 710.175 767.597 725.434C754.098 771.595 754.168 820.665 767.798 866.786C769.981 874.586 769.017 882.931 765.112 890.028C761.207 897.124 754.674 902.405 746.917 904.735C671.548 927.33 593.291 938.828 514.609 938.868" fill="black" style="fill:black;fill-opacity:1;"/>
</g>
<path d="M323.262 772.016C388.49 791.646 456.335 801.193 524.448 800.327C586.63 799.542 648.398 790.081 707.964 772.217" fill="white" style="fill:white;fill-opacity:1;"/>
<path d="M323.262 772.016C388.49 791.646 456.335 801.193 524.448 800.327C586.63 799.542 648.398 790.081 707.964 772.217" stroke="black" style="stroke:black;stroke-opacity:1;" stroke-width="5.88235" stroke-miterlimit="10" stroke-linecap="round" stroke-linejoin="round"/>
<path d="M553.563 373.66C553.905 377.862 553.372 382.09 551.998 386.076C550.625 390.063 548.44 393.721 545.582 396.821C542.724 399.921 539.255 402.395 535.393 404.087C531.531 405.779 527.361 406.653 523.144 406.653C518.928 406.653 514.757 405.779 510.896 404.087C507.034 402.395 503.564 399.921 500.706 396.821C497.848 393.721 495.664 390.063 494.29 386.076C492.916 382.09 492.384 377.862 492.725 373.66C493.347 366.019 496.821 358.892 502.457 353.696C508.093 348.499 515.478 345.614 523.144 345.614C530.81 345.614 538.196 348.499 543.832 353.696C549.468 358.892 552.942 366.019 553.563 373.66Z" fill="black" style="fill:black;fill-opacity:1;"/>
</svg>
