<svg width="1024" height="1024" viewBox="0 0 1024 1024" fill="none" xmlns="http://www.w3.org/2000/svg">
<path d="M772.204 913.91H271.794C266.485 913.91 261.394 911.801 257.64 908.048C253.886 904.294 251.777 899.203 251.777 893.894V843.853C251.777 838.544 253.886 833.453 257.64 829.699C261.394 825.945 266.485 823.836 271.794 823.836H772.204C777.513 823.836 782.604 825.945 786.358 829.699C790.112 833.453 792.221 838.544 792.221 843.853V893.894C792.221 899.203 790.112 904.294 786.358 908.048C782.604 911.801 777.513 913.91 772.204 913.91Z" fill="#CCCCCC" style="fill:#CCCCCC;fill:color(display-p3 0.8000 0.8000 0.8000);fill-opacity:1;"/>
<path d="M323.836 907.905H251.777V817.832H323.836V907.905Z" fill="white" style="fill:white;fill-opacity:1;"/>
<mask id="mask0_1_3970" style="mask-type:luminance" maskUnits="userSpaceOnUse" x="220" y="792" width="604" height="152">
<path d="M220.992 792.651H823.486V943.935H220.992V792.651Z" fill="white" style="fill:white;fill-opacity:1;"/>
</mask>
<g mask="url(#mask0_1_3970)">
<path d="M281.803 883.886H762.197V853.861H281.803V883.886ZM772.205 943.935H271.795C244.212 943.935 221.754 921.477 221.754 893.894V843.853C221.754 816.25 244.212 793.812 271.795 793.812H772.205C799.808 793.812 822.247 816.25 822.247 843.853V893.894C822.247 921.477 799.808 943.935 772.205 943.935Z" fill="black" style="fill:black;fill-opacity:1;"/>
</g>
<path d="M790.218 823.836H253.778C248.469 823.836 243.378 821.728 239.624 817.974C235.871 814.22 233.762 809.129 233.762 803.82V711.744C233.762 706.436 235.871 701.345 239.624 697.591C243.378 693.837 248.469 691.728 253.778 691.728H790.218C795.527 691.728 800.618 693.837 804.372 697.591C808.126 701.345 810.235 706.436 810.235 711.744V803.82C810.235 809.129 808.126 814.22 804.372 817.974C800.618 821.728 795.527 823.836 790.218 823.836Z" fill="#CCCCCC" style="fill:#CCCCCC;fill:color(display-p3 0.8000 0.8000 0.8000);fill-opacity:1;"/>
<path d="M309.823 799.817H239.766V709.743H309.823V799.817Z" fill="white" style="fill:white;fill-opacity:1;"/>
<path d="M263.788 793.811H780.211V721.752H263.788V793.811ZM790.219 853.861H253.779C226.197 853.861 203.738 831.402 203.738 803.82V711.744C203.738 684.142 226.197 661.703 253.779 661.703H790.219C817.822 661.703 840.26 684.142 840.26 711.744V803.82C840.26 831.402 817.822 853.861 790.219 853.861Z" fill="black" style="fill:black;fill-opacity:1;"/>
<path d="M521.997 356.633V110.091M449.938 182.15H594.056" stroke="black" style="stroke:black;stroke-opacity:1;" stroke-width="5.86419" stroke-miterlimit="10" stroke-linecap="round"/>
<path d="M548.019 275.987H499.66C489.331 275.987 479.984 282.132 475.88 291.6L445.876 360.916C444.473 364.165 443.75 367.666 443.75 371.205C443.75 374.743 444.473 378.245 445.876 381.493L475.88 450.81C477.89 455.448 481.212 459.396 485.437 462.17C489.662 464.944 494.606 466.422 499.66 466.423H548.019C558.348 466.423 567.696 460.298 571.799 450.81L601.784 381.493C603.186 378.245 603.909 374.743 603.909 371.205C603.909 367.666 603.186 364.165 601.784 360.916L571.799 291.6C569.787 286.964 566.465 283.017 562.24 280.243C558.016 277.469 553.073 275.99 548.019 275.987Z" fill="#CCCCCC" style="fill:#CCCCCC;fill:color(display-p3 0.8000 0.8000 0.8000);fill-opacity:1;"/>
<path d="M502.362 436.399H545.318L573.541 371.205L545.318 305.992H502.362L474.139 371.205L502.362 436.399ZM548 496.448H499.66C488.744 496.452 478.065 493.261 468.942 487.268C459.818 481.274 452.649 472.741 448.318 462.72L418.334 393.423C415.312 386.406 413.754 378.846 413.754 371.205C413.754 363.565 415.312 356.005 418.334 348.987L448.318 279.69C452.648 269.667 459.816 261.131 468.94 255.134C478.063 249.137 488.742 245.942 499.66 245.942H548C558.921 245.938 569.605 249.132 578.732 255.129C587.859 261.126 595.031 269.664 599.362 279.69L629.327 348.987C632.348 356.005 633.906 363.565 633.906 371.205C633.906 378.846 632.348 386.406 629.327 393.423L599.342 462.72C595.01 472.744 587.838 481.279 578.71 487.273C569.583 493.267 558.899 496.456 547.98 496.448" fill="black" style="fill:black;fill-opacity:1;"/>
<path d="M763.735 363.499C828.528 363.499 881.071 411.738 881.071 471.287C881.071 597.05 783.291 668.909 763.735 686.884C744.179 704.859 646.398 686.884 646.398 686.884V471.287C646.398 411.758 698.922 363.479 763.735 363.479" fill="#CCCCCC" style="fill:#CCCCCC;fill:color(display-p3 0.8000 0.8000 0.8000);fill-opacity:1;"/>
<path d="M868.282 377.47C822.244 465.543 734.172 367.462 698.143 665.707C698.143 665.707 720.161 719.651 684.131 667.708C648.101 615.766 688.134 519.487 688.134 467.544C688.134 415.602 732.17 383.215 768.2 365.901C804.23 348.587 876.289 377.47 868.282 377.47Z" fill="white" style="fill:white;fill-opacity:1;"/>
<mask id="mask1_1_3970" style="mask-type:luminance" maskUnits="userSpaceOnUse" x="615" y="334" width="297" height="391">
<path d="M615.316 334.275H911.099V724.595H615.316V334.275Z" fill="white" style="fill:white;fill-opacity:1;"/>
</mask>
<g mask="url(#mask1_1_3970)">
<path d="M676.428 662.344C706.573 666.247 735.337 667.268 744.864 664.346C746.546 662.844 748.467 661.203 750.589 659.382C778.052 635.762 851.051 573.071 851.051 471.287C851.051 427.752 811.879 392.343 763.74 392.343C715.58 392.343 676.428 427.772 676.428 471.287V662.344ZM724.788 723.754C715.941 723.754 706.093 723.274 695.124 722.353C676.906 720.776 658.767 718.399 640.759 715.227L616.379 710.744V471.287C616.379 395.946 682.493 334.635 763.74 334.635C845.006 334.635 911.101 395.946 911.101 471.287C911.101 598.912 820.406 676.816 790.602 702.417C788.04 704.619 785.838 706.5 784.477 707.741C772.627 718.65 754.112 723.754 724.788 723.754Z" fill="black" style="fill:black;fill-opacity:1;"/>
</g>
<path d="M639.336 356.293C704.149 356.293 756.672 404.533 756.672 464.081C756.672 589.845 658.892 661.724 639.336 679.678C619.78 697.653 522 679.678 522 679.678V464.101C522 404.553 574.543 356.293 639.336 356.293Z" fill="#CCCCCC" style="fill:#CCCCCC;fill:color(display-p3 0.8000 0.8000 0.8000);fill-opacity:1;"/>
<path d="M712.155 377.47C634.091 421.506 600.063 379.472 590.054 685.723C590.054 685.723 574.041 715.648 538.012 663.705C501.982 611.762 524 519.487 524 467.544C524 415.602 568.036 383.215 604.066 365.901C640.096 348.587 712.155 377.47 712.155 377.47Z" fill="white" style="fill:white;fill-opacity:1;"/>
<path d="M552.022 655.138C582.167 659.041 610.95 660.062 620.458 657.14C622.354 655.47 624.262 653.816 626.183 652.176C653.665 628.576 726.665 565.885 726.665 464.081C726.665 420.566 687.473 385.137 639.334 385.137C591.194 385.137 552.022 420.566 552.022 464.081V655.138ZM600.402 716.548C591.534 716.548 581.686 716.088 570.737 715.167C552.519 713.59 534.38 711.205 516.373 708.021L491.973 703.538V464.081C491.973 388.74 558.087 327.429 639.334 327.429C720.58 327.429 786.694 388.74 786.694 464.081C786.694 591.706 696 669.61 666.196 695.211C663.634 697.413 661.432 699.294 660.071 700.535C648.221 711.444 629.706 716.548 600.402 716.548Z" fill="black" style="fill:black;fill-opacity:1;"/>
<path d="M280.282 363.499C215.488 363.499 162.945 411.738 162.945 471.267C162.945 597.03 260.726 668.889 280.282 686.864C299.838 704.839 397.618 686.864 397.618 686.864V471.287C397.618 411.758 345.075 363.479 280.282 363.479" fill="#CCCCCC" style="fill:#CCCCCC;fill:color(display-p3 0.8000 0.8000 0.8000);fill-opacity:1;"/>
<path d="M295.814 360.136C169.71 437.52 233.763 552.494 323.837 673.713C323.837 673.713 277.799 706.4 241.769 654.478C205.74 602.535 151.695 533.278 151.695 481.336C151.695 429.393 187.725 377.45 223.754 360.136C259.784 342.822 295.814 360.136 295.814 360.136Z" fill="white" style="fill:white;fill-opacity:1;"/>
<path d="M299.154 664.345C308.662 667.268 337.446 666.247 367.59 662.344V471.287C367.59 427.751 328.418 392.342 280.279 392.342C232.139 392.342 192.967 427.771 192.967 471.287C192.967 573.09 265.947 635.782 293.45 659.381L299.154 664.325M319.211 723.754C289.907 723.754 271.392 718.65 259.522 707.741C257.506 705.936 255.464 704.161 253.397 702.417C223.612 676.795 132.918 598.892 132.918 471.287C132.918 395.945 199.032 334.635 280.279 334.635C361.546 334.635 427.64 395.945 427.64 471.287V710.743L403.24 715.227C402.179 715.427 376.958 720.031 348.875 722.373C337.926 723.274 328.078 723.754 319.211 723.754Z" fill="black" style="fill:black;fill-opacity:1;"/>
<path d="M404.68 356.293C339.867 356.293 287.324 404.533 287.324 464.081C287.324 589.845 385.104 661.724 404.66 679.678C424.217 697.653 521.997 679.678 521.997 679.678V464.101C521.997 404.553 469.474 356.293 404.68 356.293Z" fill="#CCCCCC" style="fill:#CCCCCC;fill:color(display-p3 0.8000 0.8000 0.8000);fill-opacity:1;"/>
<path d="M437.927 357.454C365.868 424.368 377.878 544.507 467.952 665.706C467.952 665.706 431.923 718.19 395.893 666.247C359.863 614.304 297.812 525.491 297.812 473.549C297.812 421.606 341.849 389.22 377.878 371.905C413.908 354.591 437.927 357.454 437.927 357.454Z" fill="white" style="fill:white;fill-opacity:1;"/>
<path d="M423.557 657.14C433.084 660.082 461.868 659.061 491.973 655.138V464.081C491.973 420.566 452.821 385.137 404.681 385.137C356.522 385.137 317.35 420.566 317.35 464.081C317.35 565.885 390.349 628.576 417.832 652.176C419.954 653.997 421.855 655.638 423.537 657.14M443.613 716.548C414.289 716.548 395.774 711.444 383.924 700.535C382.563 699.294 380.361 697.393 377.819 695.211C347.995 669.61 257.32 591.706 257.32 464.081C257.32 388.74 323.415 327.429 404.661 327.429C485.928 327.429 552.022 388.74 552.022 464.081V703.538L527.642 708.021C526.581 708.222 501.36 712.825 473.257 715.167C462.328 716.088 452.46 716.548 443.613 716.548Z" fill="black" style="fill:black;fill-opacity:1;"/>
<path d="M341.852 691.728L405.604 829.841Z" fill="white" style="fill:white;fill-opacity:1;"/>
<mask id="mask2_1_3970" style="mask-type:luminance" maskUnits="userSpaceOnUse" x="132" y="80" width="780" height="864">
<path d="M132.918 80.0664H911.096V943.935H132.918V80.0664Z" fill="white" style="fill:white;fill-opacity:1;"/>
</mask>
<g mask="url(#mask2_1_3970)">
<path d="M341.848 691.728L405.62 829.841" stroke="black" style="stroke:black;stroke-opacity:1;" stroke-width="5.86419" stroke-miterlimit="10"/>
</g>
<path d="M490.613 691.728L554.386 829.841Z" fill="white" style="fill:white;fill-opacity:1;"/>
<mask id="mask3_1_3970" style="mask-type:luminance" maskUnits="userSpaceOnUse" x="132" y="80" width="780" height="864">
<path d="M132.918 80.0664H911.096V943.935H132.918V80.0664Z" fill="white" style="fill:white;fill-opacity:1;"/>
</mask>
<g mask="url(#mask3_1_3970)">
<path d="M490.613 691.728L554.386 829.841" stroke="black" style="stroke:black;stroke-opacity:1;" stroke-width="5.86419" stroke-miterlimit="10"/>
</g>
<path d="M639.395 691.728L703.147 829.841Z" fill="white" style="fill:white;fill-opacity:1;"/>
<mask id="mask4_1_3970" style="mask-type:luminance" maskUnits="userSpaceOnUse" x="132" y="80" width="780" height="864">
<path d="M132.918 80.0664H911.096V943.935H132.918V80.0664Z" fill="white" style="fill:white;fill-opacity:1;"/>
</mask>
<g mask="url(#mask4_1_3970)">
<path d="M639.395 691.728L703.147 829.841" stroke="black" style="stroke:black;stroke-opacity:1;" stroke-width="5.86419" stroke-miterlimit="10"/>
</g>
</svg>
