<svg width="1024" height="1024" viewBox="0 0 1024 1024" fill="none" xmlns="http://www.w3.org/2000/svg">
<path d="M360.117 818.959L364.936 862.329C376.501 862.329 387.424 862.007 397.704 861.365C407.984 860.722 418.586 859.759 429.508 858.474V814.14C408.948 814.14 385.818 815.747 360.117 818.959ZM660.812 818.959C651.174 818.959 640.573 818.317 629.007 817.032C618.085 815.104 608.126 814.14 599.131 814.14V860.401C608.768 860.401 618.085 860.722 627.08 861.365C636.075 862.007 646.034 862.329 656.957 862.329L660.812 818.959ZM304.219 749.568C311.286 745.713 319.96 741.858 330.24 738.003C340.521 733.505 354.335 728.687 371.682 723.547C394.813 715.836 416.658 710.054 437.218 706.199C458.421 702.344 476.733 699.774 492.153 698.489V526.939C479.303 467.185 465.81 410.966 451.675 358.28C437.54 305.594 417.943 275.396 392.885 267.686C363.972 259.976 330.24 257.727 291.69 260.939C253.782 264.152 228.724 268.65 216.516 274.432C203.023 281.5 185.997 294.671 165.437 313.947C145.519 332.579 131.705 353.461 123.995 376.591C115.642 401.007 110.181 422.852 107.611 442.127C105.683 461.403 104.077 477.144 102.792 489.352C102.792 514.41 108.253 550.069 119.176 596.33C125.601 619.46 134.275 639.378 145.198 656.083C156.763 672.788 173.468 689.815 195.313 707.163C214.589 723.868 233.221 734.79 251.212 739.931C269.202 744.428 286.871 747.641 304.219 749.568ZM513.356 426.707C519.138 399.722 525.242 374.021 531.667 349.606C538.735 324.548 547.087 302.381 556.725 283.106C556.725 276.681 553.834 267.686 548.051 256.121C542.911 246.483 537.129 237.488 530.704 229.135C524.921 220.783 519.781 211.787 515.283 202.15C499.22 223.995 487.655 241.985 480.588 256.121C474.805 266.401 471.271 273.79 469.986 278.287C469.344 282.785 469.023 286.961 469.023 290.816C486.37 326.154 501.148 371.451 513.356 426.707ZM758.152 791.01C763.292 846.266 769.717 907.304 777.427 974.125H241.574C245.429 940.715 248.963 908.268 252.175 876.785C255.388 845.302 258.922 816.71 262.777 791.01C247.357 787.798 231.936 782.979 216.516 776.554C201.096 769.486 184.069 758.885 165.437 744.749C139.736 723.547 120.14 702.665 106.647 682.105C93.1543 661.544 82.5529 636.808 74.8428 607.895C62.6351 560.349 56.5312 520.192 56.5312 487.424C57.1738 473.931 58.78 456.262 61.3501 434.417C64.5626 412.572 71.6302 387.835 82.5529 360.207C91.548 331.294 108.896 304.951 134.596 281.179C160.297 257.406 181.499 241.985 198.205 234.918C212.982 227.208 242.859 221.104 287.835 216.606C332.81 212.109 371.682 214.358 404.45 223.353C419.871 229.778 429.829 235.882 434.327 241.664C442.037 228.171 451.032 214.036 461.312 199.259C472.235 183.838 482.515 169.382 492.153 155.889V139.505H447.82V93.2444H492.153V49.875H536.486V93.2444H577.928V139.505H536.486V155.889C545.481 169.382 554.798 183.517 564.435 198.295C574.715 212.43 583.71 226.244 591.421 239.737C595.918 236.524 600.416 233.633 604.913 231.063C610.053 228.493 614.872 225.923 619.37 223.353C652.78 214.358 691.652 212.109 735.985 216.606C780.961 221.104 811.802 227.208 828.507 234.918C843.285 241.985 863.524 257.406 889.224 281.179C914.924 304.951 933.236 331.294 944.159 360.207C953.154 387.835 959.258 412.572 962.47 434.417C965.683 456.262 967.289 473.931 967.289 487.424C968.574 519.55 962.47 559.707 948.977 607.895C941.267 636.808 930.666 661.544 917.173 682.105C904.323 702.665 884.726 723.547 858.383 744.749C839.108 760.17 821.439 771.413 805.376 778.481C789.314 784.906 773.572 789.083 758.152 791.01ZM515.283 786.191L489.262 812.213C476.411 825.706 469.023 833.416 467.095 835.343C469.023 839.198 476.411 847.872 489.262 861.365C502.754 874.215 511.428 881.604 515.283 883.531C515.926 881.604 522.672 874.215 535.522 861.365L561.544 835.343C557.689 833.416 549.015 825.706 535.522 812.213C522.672 798.72 515.926 790.046 515.283 786.191ZM533.595 698.489C549.658 698.489 570.539 699.774 596.239 702.344C621.94 704.914 641.215 709.09 654.065 714.873L684.906 730.293C696.471 736.075 708.036 742.501 719.601 749.568C736.949 748.283 754.297 745.392 771.645 740.894C789.635 735.754 809.231 724.51 830.434 707.163C869.627 674.395 894.364 637.45 904.644 596.33C916.852 550.711 922.313 515.052 921.028 489.352C921.028 477.144 919.743 461.403 917.173 442.127C914.603 422.852 908.821 401.007 899.825 376.591C891.473 353.461 877.016 332.579 856.456 313.947C835.896 294.671 819.512 281.5 807.304 274.432C793.811 268.65 768.753 264.152 732.13 260.939C695.507 257.727 662.739 259.976 633.826 267.686C608.126 275.396 588.208 305.594 574.073 358.28C560.58 410.966 547.087 467.185 533.595 526.939V698.489ZM287.835 695.597L255.067 682.105C233.864 673.11 218.765 661.544 209.77 647.409C196.277 634.559 183.106 613.677 170.255 584.764C159.333 560.349 153.229 528.545 151.944 489.352C149.374 468.791 151.944 445.019 159.654 418.033C167.364 391.048 175.396 371.772 183.748 360.207C203.023 333.222 232.579 316.195 272.415 309.128C292.975 307.2 313.856 306.879 335.059 308.164C356.905 308.806 371.361 312.983 378.429 320.693C382.284 325.19 387.424 337.719 393.849 358.28C400.274 378.84 406.699 401.328 413.124 425.743C420.192 450.159 426.296 473.931 431.436 497.062C436.576 519.55 439.788 534.97 441.073 543.323C444.286 560.67 445.571 579.303 444.928 599.221C444.286 618.496 443.965 636.165 443.965 652.228L287.835 695.597ZM739.84 700.416L584.674 658.974C584.674 642.912 584.032 625.243 582.747 605.967C582.104 586.049 583.711 566.453 587.566 547.178C588.208 538.825 591.099 523.405 596.239 500.917C601.38 478.429 607.162 455.299 613.587 431.526C620.012 407.11 626.437 384.944 632.863 365.026C639.93 344.466 645.391 331.937 649.246 327.439C656.314 319.729 670.771 315.232 692.616 313.947C715.104 312.019 736.307 312.662 756.224 315.874C797.345 321.014 826.579 338.041 843.927 366.954C851.637 378.519 859.347 397.794 867.057 424.779C875.41 451.765 878.623 475.859 876.695 497.062C874.767 535.612 868.664 566.453 858.383 589.583C853.243 603.718 846.497 616.569 838.144 628.134C829.792 639.699 823.367 648.373 818.869 654.155C809.231 667.006 793.49 677.928 771.645 686.923L739.84 700.416ZM332.168 873.894L323.494 827.633L290.726 837.271L287.835 888.35L332.168 873.894ZM686.833 871.966L733.094 885.459L728.275 837.271L696.471 827.633L686.833 871.966Z" fill="black" style="fill:black;fill-opacity:1;"/>
<path fill-rule="evenodd" clip-rule="evenodd" d="M290.29 862.66V838.174L305.997 833.807C314.625 831.398 322.004 829.741 322.396 830.133C324.459 832.196 330.588 871.77 329.067 873.201C328.073 874.165 320.483 877.116 312.201 879.767C303.919 882.432 295.591 885.188 293.709 885.88C291.149 886.829 290.29 881.092 290.29 862.66ZM365.856 858.865C365.193 856.772 363.898 847.511 362.964 838.295C361.624 824.952 362.106 821.188 365.298 819.968C367.497 819.125 382.947 817.559 399.632 816.504L429.931 814.592V835.358C429.931 846.773 428.982 856.696 427.823 857.419C426.648 858.142 412.508 859.603 396.38 860.687C372.542 862.283 366.834 861.952 365.856 858.865ZM489.142 858.97L467.412 836.864L490.377 813.779C503.011 801.084 513.974 791.01 514.772 791.401C515.525 791.778 525.961 802.289 537.933 814.758L559.708 837.421L538.008 859.256C526.066 871.258 515.073 881.092 513.583 881.092C512.077 881.092 501.084 871.138 489.142 858.97ZM611.314 859.904L599.674 858.85V814.682L619.536 816.55C629.7 817.494 639.842 818.659 649.955 820.043C660.346 821.624 660.481 821.805 658.87 831.518C657.967 836.939 657.214 846.02 657.214 851.667L657.184 861.922L640.062 861.455C630.468 861.181 620.883 860.653 611.314 859.904ZM707.013 877.658C692.662 873.577 687.452 870.927 688.491 868.232C689.289 866.153 691.397 856.486 693.204 846.728C695.764 832.768 697.391 829.259 700.779 830.223C727.855 837.918 728.367 838.189 728.367 844.152C728.367 847.465 729.15 857.736 730.129 866.982C731.107 876.393 730.806 883.697 729.436 883.576C728.096 883.441 717.991 880.776 707.013 877.658ZM692.768 734.178C648.841 709.376 625.937 703.157 563.412 698.955L533.972 696.983V528.474L546.381 475.467C580.926 327.891 595.156 290.5 622.759 274.778C636.357 267.023 641.613 265.758 674.095 262.37C702.285 259.433 751.798 262.581 784.416 269.372C808.751 274.447 825.782 285.726 858.46 318.389C886.228 346.157 895.941 363.038 907.446 403.607C925.848 468.51 923.122 538.278 899.42 609.19C889.842 637.847 872.57 664.727 848.34 688.7C815.693 720.986 791.779 735.654 760.547 742.566C723.894 750.667 721.44 750.366 692.768 734.178ZM765.216 690.793C796.899 676.954 809.88 667 828.914 641.882C857.496 604.145 870.898 567.492 876.32 512.181C879.873 475.889 877.103 451.855 865.131 415.202C850.9 371.682 833.959 346.534 809.052 331.927C783.331 316.853 722.855 308.134 684.967 314.052C659.457 318.027 650.317 322.816 643.857 335.586C630.499 361.909 595.728 489.577 587.326 543.096C584.389 561.8 583.29 584.373 583.832 615.228L584.615 660.104L658.554 680.056C699.213 691.034 734.932 700.085 737.944 700.16C740.956 700.235 753.229 696.019 765.216 690.793ZM273.861 743.846C259.555 740.849 241.696 735.563 234.166 732.1C204.937 718.652 158.827 676.533 141.344 647.319C124.176 618.632 108.515 558.773 105.097 508.717C102.251 466.929 115.713 392.132 131.841 359.981C145.078 333.628 180.557 297.186 209.906 279.793C240.22 261.843 341.972 255.142 389.618 267.987C395.491 269.568 405.792 275.908 412.508 282.097C435.352 303.164 447.685 337.815 476.342 461.598L490.166 521.291V697.389L479.896 698.955C418.125 708.442 348.161 727.416 317.08 743.123C309.972 746.722 303.196 749.568 302.021 749.463C300.832 749.357 288.167 746.827 273.861 743.846ZM367.934 674.515C408.382 663.311 442.174 653.463 443.002 652.619C446.194 649.427 446.887 579.9 443.936 557.975C437.671 511.337 400.295 367.059 385.733 333.192C381.125 322.5 377.647 318.81 367.346 313.751C355.872 308.104 350.752 307.486 314.942 307.486C271.181 307.486 254.812 310.408 228.082 322.967C192.694 339.576 171.582 370.04 157.261 425.231C150.725 450.424 150.288 455.62 151.734 490.918C152.728 514.906 155.393 537.811 158.857 552.132C169.142 594.598 206.036 654.562 231.591 670.359C246.288 679.439 287.911 697.314 291.344 696.034C293.031 695.416 327.486 685.734 367.934 674.515ZM510.932 412.883C505.782 388.939 491.627 343.416 481.568 318.434C473.586 298.586 470.906 288.392 471.809 281.389C473.165 270.938 490.166 238.788 505.571 217.585L515.179 204.363L524.064 218.97L541.351 247.236C557.103 272.926 557.554 277.926 546.637 305.318C537.767 327.575 526.398 366.11 516.896 406.046L512.98 422.46L510.932 412.883Z" fill="white" style="fill:white;fill-opacity:1;"/>
</svg>
