<svg width="1024" height="1024" viewBox="0 0 1024 1024" fill="none" xmlns="http://www.w3.org/2000/svg">
<path d="M632.472 763.89C631.418 793.586 637.637 822.619 643.42 851.502L648.901 876.153C649.805 877.057 651.055 877.734 651.642 878.894C652.049 879.707 650.829 881.213 651.642 881.619C653.268 882.448 655.286 881.619 657.108 881.619H772.113C776.675 881.619 781.253 882.041 785.801 881.619C791.328 881.123 796.719 879.571 802.215 878.894C804.037 878.668 805.905 879.195 807.697 878.894C811.416 878.276 814.925 876.68 818.659 876.153C822.379 875.611 834.983 876.861 837.814 876.153C838.718 875.927 836.911 873.412 837.814 873.412C838.718 873.412 837.814 877.057 837.814 876.153V840.539C837.814 839.636 838.326 838.566 837.814 837.798C836.384 835.66 833.778 834.485 832.348 832.332C831.836 831.579 832.348 830.51 832.348 829.591C830.526 827.769 828.297 826.263 826.866 824.11C826.354 823.357 826.866 822.303 826.866 821.369V804.955C826.866 803.118 827.318 801.251 826.866 799.474C826.37 797.486 824.623 795.98 824.126 793.992C823.674 792.23 824.939 790.152 824.126 788.526C823.719 787.698 821.385 789.429 821.385 788.526C821.385 787.698 830.466 790.333 821.385 785.785C820.572 785.379 819.292 786.433 818.659 785.785C818.012 785.138 817.741 783.044 818.659 783.044C820.346 783.044 828.719 797.697 818.659 777.563C818.072 776.419 815 775.756 815.919 774.837C816.822 773.919 818.659 778.858 818.659 777.563C818.659 774.687 817.515 771.75 815.919 769.356C815.407 768.603 814.097 769.356 813.178 769.356H810.437C812.259 769.356 817.545 770.169 815.919 769.356C812.546 767.669 808.54 767.805 804.971 766.615C803.028 765.968 801.312 764.793 799.49 763.875C791.267 762.971 783 762.504 774.853 761.134C771.992 760.667 769.507 758.724 766.631 758.408C761.195 757.806 755.683 758.408 750.217 758.408H722.825C720.084 758.408 717.329 758.785 714.618 758.408C687.693 754.553 721.41 755.667 689.967 755.667C675.947 755.667 695.403 755.969 668.071 752.927C665.346 752.626 662.59 752.927 659.849 752.927C658.946 752.927 657.937 752.52 657.108 752.927C654.172 754.403 651.913 757.068 648.901 758.408C643.631 760.742 635.348 758.875 632.472 763.89C630.033 768.166 637.14 772.714 637.954 777.578C638.164 778.843 635.213 779.009 635.213 780.304C635.213 781.207 637.035 780.304 637.954 780.304" fill="white" style="fill:white;fill-opacity:1;"/>
<path d="M632.472 763.89C631.418 793.586 637.637 822.619 643.42 851.502L648.901 876.153C649.805 877.057 651.055 877.734 651.642 878.894C652.049 879.707 650.829 881.213 651.642 881.619C653.268 882.448 655.286 881.619 657.108 881.619H772.113C776.675 881.619 781.253 882.041 785.801 881.619C791.328 881.123 796.719 879.571 802.215 878.894C804.037 878.668 805.905 879.195 807.697 878.894C811.416 878.276 814.925 876.68 818.659 876.153C822.379 875.611 834.983 876.861 837.814 876.153M632.472 763.89C635.348 758.875 643.631 760.742 648.901 758.408C651.913 757.068 654.172 754.403 657.108 752.927C657.937 752.52 658.946 752.927 659.849 752.927C662.59 752.927 665.346 752.626 668.071 752.927C695.403 755.969 675.947 755.667 689.967 755.667C721.41 755.667 687.693 754.553 714.618 758.408C717.329 758.785 720.084 758.408 722.825 758.408H750.217C755.683 758.408 761.195 757.806 766.631 758.408C769.507 758.724 771.992 760.667 774.853 761.134C783 762.504 791.267 762.971 799.49 763.875C801.312 764.793 803.028 765.968 804.971 766.615C808.54 767.805 812.546 767.669 815.919 769.356M632.472 763.89C630.033 768.166 637.14 772.714 637.954 777.578C638.164 778.843 635.213 779.009 635.213 780.304C635.213 781.207 637.035 780.304 637.954 780.304M837.814 876.153C838.718 875.927 836.911 873.412 837.814 873.412C838.718 873.412 837.814 877.057 837.814 876.153ZM837.814 876.153V840.539C837.814 839.636 838.326 838.566 837.814 837.798C836.384 835.66 833.778 834.485 832.348 832.332C831.836 831.579 832.348 830.51 832.348 829.591C830.526 827.769 828.297 826.263 826.866 824.11C826.354 823.357 826.866 822.303 826.866 821.369V804.955C826.866 803.118 827.318 801.251 826.866 799.474C826.37 797.486 824.623 795.98 824.126 793.992C823.674 792.23 824.939 790.152 824.126 788.526C823.719 787.698 821.385 789.429 821.385 788.526C821.385 787.698 830.466 790.333 821.385 785.785C820.572 785.379 819.292 786.433 818.659 785.785C818.012 785.138 817.741 783.044 818.659 783.044C820.346 783.044 828.719 797.697 818.659 777.563M818.659 777.563C818.072 776.419 815 775.756 815.919 774.837C816.822 773.919 818.659 778.858 818.659 777.563ZM818.659 777.563C818.659 774.687 817.515 771.75 815.919 769.356M815.919 769.356C815.407 768.603 814.097 769.356 813.178 769.356H810.437C812.259 769.356 817.545 770.169 815.919 769.356Z" stroke="black" style="stroke:black;stroke-opacity:1;"/>
<path d="M374.183 598.257C370.327 605.325 371.291 611.75 377.074 617.533C382.856 623.315 381.893 630.704 374.183 639.699C367.115 649.979 353.944 663.793 334.668 681.141C316.035 698.489 299.973 710.054 286.48 715.837C264.635 728.687 242.147 729.651 219.016 718.728C207.451 712.945 192.995 701.701 175.647 684.996C158.942 668.291 147.377 654.798 140.951 644.518C133.241 634.238 130.35 625.564 132.278 618.496C134.205 611.429 134.526 603.076 133.241 593.438C133.241 585.728 131.314 580.267 127.459 577.054C123.604 573.199 125.531 560.67 133.241 539.468C140.951 520.192 157.335 488.388 182.393 444.055C207.451 399.722 223.514 366.954 230.582 345.751C237.649 326.476 236.364 317.802 226.727 319.729C217.731 321.014 215.161 316.517 219.016 306.237C222.871 294.671 229.939 279.251 240.219 259.976C250.499 240.058 259.816 225.28 268.168 215.643C277.164 206.648 286.48 203.114 296.118 205.041C306.398 206.326 315.393 200.544 323.103 187.694C330.171 175.486 336.917 156.532 343.342 130.831C350.41 105.131 357.799 81.6794 365.509 60.4766C375.146 80.3944 385.426 99.3484 396.349 117.339C407.272 135.329 418.516 146.573 430.081 151.07C458.994 140.148 493.689 137.578 534.167 143.36C591.993 151.07 634.72 162.636 662.348 178.056C689.976 192.834 723.065 223.995 761.616 271.541C776.394 290.174 788.28 310.092 797.275 331.294C806.27 351.855 814.302 374.343 821.369 398.758C828.437 423.173 833.898 451.123 837.753 482.606C842.251 514.089 845.464 542.359 847.391 567.417C847.391 594.402 846.427 619.46 844.5 642.59C843.215 665.078 843.215 687.887 844.5 711.018V767.88C844.5 782.015 847.07 800.969 852.21 824.742C855.422 844.66 861.848 866.826 871.485 891.242C881.123 915.657 890.118 939.751 898.471 963.524H293.226C284.874 946.819 281.982 928.507 284.552 908.59C284.552 895.739 286.159 879.998 289.371 861.365C292.584 842.732 297.724 825.063 304.791 808.358C310.574 793.58 318.284 779.445 327.922 765.952C337.559 751.817 347.84 738.324 358.762 725.474C379.323 693.349 398.598 667.648 416.588 648.373C432.008 631.025 448.714 614.641 466.704 599.221C485.337 583.158 502.363 565.811 517.783 547.178C530.634 528.545 539.308 511.518 543.805 496.098C547.018 485.818 546.696 472.004 542.841 454.656C538.986 436.666 535.453 427.992 532.24 428.635C529.67 429.92 524.53 441.806 516.82 464.294C509.11 486.782 501.721 501.881 494.653 509.591C487.586 520.514 479.875 528.224 471.523 532.721C463.813 536.576 457.066 540.431 451.284 544.286C443.574 548.142 437.47 550.069 432.972 550.069C429.117 550.069 424.298 551.997 418.516 555.852C411.448 560.992 403.095 567.738 393.458 576.091C384.463 583.801 378.038 591.19 374.183 598.257ZM339.487 843.054C355.55 846.909 380.286 848.836 413.697 848.836C447.75 848.194 470.238 847.872 481.16 847.872L483.088 799.684C473.45 799.684 453.532 799.042 423.335 797.757C393.779 796.472 372.255 794.544 358.762 791.974L339.487 843.054ZM664.276 850.764C684.836 849.479 709.251 847.551 737.522 844.981C766.435 842.411 791.493 840.483 812.695 839.198L803.058 790.046C785.71 793.902 760.331 796.793 726.92 798.72C693.51 800.005 671.665 800.969 661.384 801.612L664.276 850.764ZM571.754 773.662L520.675 824.742L571.754 877.749L622.834 824.742L571.754 773.662ZM342.378 347.678C334.668 346.393 322.139 345.751 304.791 345.751C300.294 345.751 295.796 348.321 291.299 353.461C287.444 358.601 285.195 362.777 284.552 365.99V379.483C285.195 385.908 287.444 390.727 291.299 393.939C292.584 395.224 299.33 395.867 311.538 395.867C315.393 395.224 320.212 393.618 325.994 391.048C331.777 387.835 337.238 384.944 342.378 382.374C355.871 375.306 362.617 369.203 362.617 364.062C363.902 356.995 362.296 353.14 357.799 352.497C353.943 351.855 348.803 350.248 342.378 347.678ZM159.263 553.924C170.186 564.847 175.647 576.412 175.647 588.62C176.29 591.19 175.647 597.615 173.719 607.895C171.792 617.533 170.828 622.673 170.828 623.315C172.756 625.885 179.502 620.424 191.067 606.931C203.275 593.438 208.736 584.122 207.451 578.982C207.451 575.127 201.026 569.666 188.176 562.598C175.326 555.53 165.688 552.639 159.263 553.924ZM448.392 176.128C486.943 181.911 527.1 190.585 568.863 202.15C610.626 213.073 645.322 232.348 672.95 259.976C698.008 288.889 715.034 310.092 724.029 323.584C733.024 336.435 743.304 356.031 754.87 382.374C763.865 412.572 770.611 444.376 775.109 477.787C780.249 511.197 784.104 542.68 786.674 572.236C788.601 597.294 789.565 622.03 789.565 646.446C789.565 670.218 797.275 704.271 812.695 748.605C810.768 715.837 810.768 685.639 812.695 658.011C815.266 629.74 815.908 600.506 814.623 570.308C813.338 536.898 809.162 499.311 802.094 457.548C795.026 415.784 787.638 385.265 779.928 365.99C770.29 342.217 757.44 320.051 741.377 299.49C725.957 278.93 708.609 258.048 689.334 236.846C671.986 218.213 653.032 204.72 632.472 196.367C611.911 187.372 585.247 179.983 552.479 174.201C530.634 169.703 512.322 168.739 497.544 171.31C483.409 173.88 467.025 175.486 448.392 176.128Z" fill="black" style="fill:black;fill-opacity:1;"/>
<path fill-rule="evenodd" clip-rule="evenodd" d="M358.1 845.689C351.022 844.695 344.411 843.099 343.448 842.135C342.484 841.157 345.706 829.712 350.631 816.686L359.561 793.014L368.249 794.655C375.402 795.995 460.455 801.431 477.08 801.627C481.176 801.672 481.868 804.428 481.868 820.616C481.868 850.433 486.431 848.279 424.765 847.858C395.19 847.647 365.193 846.683 358.1 845.689ZM546.215 850.96L521.639 826.278L546.907 801.01L572.176 775.741L596.722 800.166L621.268 824.607L598.589 849.258C586.121 862.811 574.751 874.301 573.336 874.768C571.92 875.25 559.722 864.528 546.215 850.96ZM708.383 846.427C710.25 845.674 713.94 845.629 716.605 846.322C719.271 847.014 717.75 847.632 713.232 847.677C708.714 847.737 706.531 847.18 708.383 846.427ZM801.191 708.579C794.685 684.876 792.878 671.188 790.845 630.559C785.605 525.99 770.019 422.024 752.957 377.781C742.612 350.932 725.023 322.38 699.468 290.892C665.104 248.562 640.152 228.609 601.812 212.797C581.753 204.515 521.684 188.673 487.937 182.74C476.974 180.827 469.038 178.207 470.318 176.927C471.598 175.647 486.115 173.885 502.589 172.997C536.246 171.174 568.396 176.4 614.326 191.173C656.837 204.846 680.133 223.925 728.547 284.688C769.1 335.587 785.304 371.969 797.817 440.261C812.65 521.126 815.737 582.431 810.768 697.631L809.066 737.326L801.191 708.579ZM295.786 394.03C283.559 390.627 281.255 368.174 291.826 355.6C298.346 347.86 300.289 347.167 315.784 347.227C340.933 347.302 359.817 352.859 360.931 360.494C362.241 369.499 357.046 374.197 332.801 385.943C310.604 396.665 307.608 397.328 295.786 394.03ZM174.442 600.411C175.707 577.326 175.346 575.157 168.75 565.52C163.118 557.313 162.576 555.265 166.025 555.265C172.199 555.265 202.919 572.07 204.56 576.347C207.346 583.621 202.151 593.815 187.83 609.221L173.102 625.032L174.457 600.411H174.442Z" fill="white" style="fill:white;fill-opacity:1;"/>
</svg>
