<svg width="1024" height="1024" viewBox="0 0 1024 1024" fill="none" xmlns="http://www.w3.org/2000/svg">
<path d="M418.516 441.646C418.516 430.723 422.371 422.37 430.082 416.588C434.579 414.66 443.896 405.665 458.031 389.602C435.543 379.322 416.91 363.902 402.132 343.342C387.997 322.139 380.93 298.045 380.93 271.059C380.93 235.079 393.78 204.56 419.48 179.502C445.823 153.801 476.342 140.951 511.038 140.951C546.376 140.951 576.574 153.801 601.632 179.502C627.332 204.56 640.182 235.079 640.182 271.059C640.182 298.045 632.793 322.139 618.016 343.342C603.88 363.902 585.89 379.322 564.045 389.602C577.538 405.665 586.854 414.66 591.994 416.588C598.419 422.37 601.632 430.723 601.632 441.646C601.632 452.568 598.419 461.242 591.994 467.667L580.429 479.233C591.994 507.503 602.917 535.131 613.197 562.116C623.477 589.102 633.436 613.196 643.074 634.399C650.784 653.674 661.385 666.203 674.878 671.986L696.081 680.659L737.523 705.717C765.15 722.423 781.534 737.522 786.675 751.014C791.172 763.864 794.063 782.497 795.348 806.913C797.276 830.685 798.882 856.065 800.167 883.05H223.836C223.836 856.065 224.478 830.685 225.763 806.913C227.048 782.497 230.261 763.864 235.401 751.014C239.256 737.522 255.319 722.423 283.589 705.717L325.995 680.659L346.234 671.986C359.727 666.203 370.649 653.674 379.002 634.399C387.997 613.196 397.956 589.102 408.879 562.116C419.801 535.131 430.724 507.503 441.647 479.233L430.082 467.667C422.371 461.242 418.516 452.568 418.516 441.646ZM508.147 396.349C481.161 425.262 466.705 440.682 464.777 442.61C466.705 445.18 474.093 453.211 486.944 466.704C500.436 479.554 508.468 487.585 511.038 490.798C512.965 487.585 520.354 479.554 533.204 466.704C546.697 453.211 555.371 445.18 559.226 442.61C555.371 440.682 546.055 432.651 531.277 418.515C517.142 403.738 509.432 396.349 508.147 396.349Z" fill="black" style="fill:black;fill-opacity:1;"/>
<path fill-rule="evenodd" clip-rule="evenodd" d="M488.191 465.8L466.566 442.971L485.616 421.948C496.082 410.368 505.915 400.49 507.481 399.963C509.032 399.451 520.793 409.224 533.623 421.692L556.934 444.371L533.367 466.508L509.8 488.629L488.191 465.8Z" fill="white" style="fill:white;fill-opacity:1;"/>
</svg>
