<svg width="1024" height="1024" viewBox="0 0 1024 1024" fill="none" xmlns="http://www.w3.org/2000/svg">
<path d="M317.562 772.699L292.504 850.763L347.439 800.648L317.562 772.699ZM695.358 774.626L662.59 802.575L711.742 844.017L695.358 774.626ZM421.649 763.061L382.134 772.699L386.953 816.068L426.467 809.322L421.649 763.061ZM634.641 772.699L596.09 763.061L588.38 809.322L625.967 814.14L634.641 772.699ZM287.685 723.547L125.773 357.316C111.638 361.171 100.072 358.28 91.0773 348.642L69.8744 325.512C50.5991 308.807 50.5991 290.816 69.8744 271.541L91.0773 251.302C107.783 230.742 125.452 230.742 144.084 251.302L167.215 271.541C182.635 290.816 182.635 308.807 167.215 325.512L155.65 337.077L320.453 466.221L305.997 258.048C297.644 256.121 290.577 252.266 284.794 246.483L264.555 225.28C244.637 207.29 244.637 189.621 264.555 172.273L284.794 149.143C302.784 132.438 320.775 132.438 338.765 149.143L361.895 172.273C377.315 189.621 377.315 207.29 361.895 225.28L338.765 246.483L438.033 416.106L491.04 221.425L482.366 216.606L461.163 193.476C443.815 175.486 443.815 157.495 461.163 139.505L482.366 116.375C499.714 102.24 517.382 102.24 535.373 116.375L556.576 139.505C576.493 157.495 576.493 175.486 556.576 193.476L535.373 216.606L525.735 221.425L579.706 418.033L678.974 251.302L655.843 228.172C640.423 209.539 640.423 190.906 655.843 172.273L677.046 151.07C695.679 135.65 713.991 135.65 731.981 151.07L753.184 172.273C771.816 190.906 771.816 209.539 753.184 228.172L731.981 248.411L713.669 259.976L702.104 464.294L871.727 313.947L857.27 302.381C841.85 283.749 841.85 265.116 857.27 246.483L880.401 225.28C898.391 208.575 916.381 208.575 934.371 225.28L954.61 246.483C973.243 265.116 973.243 283.749 954.61 302.381L934.371 322.62C923.449 333.543 911.562 337.398 898.712 334.186L730.053 730.293L776.314 918.227H220.222L287.685 723.547ZM510.315 733.184L461.163 781.372L510.315 830.524L556.576 781.372L510.315 733.184ZM305.997 657.047L324.308 695.597C351.294 683.39 380.528 671.825 412.011 660.902C444.136 649.979 477.547 644.518 512.242 644.518C545.653 644.518 574.887 648.694 599.945 657.047C625.003 665.399 656.807 679.213 695.358 698.489L711.742 658.974C677.046 639.699 644.278 625.243 613.438 615.605C582.597 605.967 548.865 601.148 512.242 601.148C476.262 601.148 439.639 605.967 402.373 615.605C365.75 624.6 333.625 638.414 305.997 657.047ZM116.135 281.179L94.9323 299.49L116.135 320.693L134.447 299.49L116.135 281.179ZM312.743 179.02L292.504 198.295L312.743 218.534L332.018 198.295L312.743 179.02ZM510.315 144.324L487.185 167.454L510.315 190.585L530.554 167.454L510.315 144.324ZM704.995 179.02L683.793 200.222L704.995 221.425L723.307 200.222L704.995 179.02ZM906.422 253.229L887.147 272.505L906.422 292.744L925.697 272.505L906.422 253.229Z" fill="black" style="fill:black;fill-opacity:1;"/>
<path fill-rule="evenodd" clip-rule="evenodd" d="M297.384 841.171C297.384 840.193 301.871 824.878 307.368 807.138L317.352 774.852L332.019 787.517L346.686 800.181L324.098 821.414C302.88 841.352 297.384 845.418 297.384 841.171ZM386.411 800.016C385.448 791.236 384.424 781.689 384.153 778.783C383.716 774.446 386.893 772.684 401.997 768.844L420.369 764.191L421.935 776.87L424.766 799.489L426.031 809.442L410.566 811.385C402.057 812.439 393.549 813.915 391.637 814.638C389.212 815.571 387.661 811.219 386.411 800.016ZM485.393 805.121L461.193 780.755L484.821 759.131C497.801 747.235 509.758 737.522 511.385 737.522C513.011 737.522 523.537 747.611 534.786 759.974L555.221 782.442L532.407 805.964L509.577 829.501L485.393 805.121ZM600.608 810.813C588.952 809.608 588.998 809.759 593.425 782.924L596.497 764.296L614.643 768.934C626.901 772.067 632.623 774.822 632.292 777.442C631.211 784.005 630.006 790.547 628.678 797.064C625.244 814.382 626.916 813.569 600.608 810.813ZM685.359 821.505L664.006 803.223L678.432 790.378C686.368 783.3 693.521 778.165 694.319 778.948C696.593 781.222 710.161 840.208 708.339 839.997C707.435 839.876 697.105 831.564 685.359 821.505ZM662.891 682.677C596.286 650.271 541.141 638.901 482.411 645.512C443.816 649.864 419.24 656.626 367.558 677.136L324.098 694.363L316.072 676.684C310.033 663.342 308.813 658.101 311.102 655.346C315.846 649.623 356.761 630.348 380.328 622.728C436.497 604.567 508.629 597.896 562.569 605.877C603.153 611.886 630.184 620.545 674.547 641.763C708.971 658.237 710.688 659.442 708.339 665.465C703.038 679.033 694.545 697.811 693.807 697.571C693.37 697.45 679.456 690.749 662.891 682.677ZM895.927 280.998L888.984 272.114L897.643 263.184L906.302 254.254L915.172 262.837L924.026 271.421L916.678 280.637C912.627 285.712 907.868 289.853 906.091 289.853C904.314 289.853 899.752 285.877 895.927 280.998ZM694.394 209.092L685.103 199.5L694.53 189.757L703.972 180.029L712.962 189.817L721.952 199.635L714.694 209.153C710.703 214.393 706.577 218.67 705.553 218.67C704.514 218.67 699.499 214.363 694.394 209.092ZM499.172 178.162L489.022 167.771L500.105 156.959L511.189 146.146L520.36 157.064L529.545 167.997L520.917 178.041C516.188 183.568 511.641 188.191 510.827 188.326C509.999 188.447 504.759 183.884 499.172 178.162ZM302.278 206.593L294.854 197.633L303.738 189.019L312.623 180.42L321.237 189.034L329.85 197.648L322.878 206.788C319.038 211.818 314.505 215.839 312.789 215.733C311.102 215.628 306.359 211.517 302.278 206.593ZM105.881 310.604L96.4688 300.831L104.345 292.609C114.073 282.444 116.482 282.384 125.788 292.097L133.167 299.822L124.237 310.092L115.307 320.377L105.881 310.604Z" fill="white" style="fill:white;fill-opacity:1;"/>
</svg>
