<svg width="1024" height="1024" viewBox="0 0 1024 1024" fill="none" xmlns="http://www.w3.org/2000/svg">
<path d="M421.406 835.342C393.778 834.7 370.969 834.378 352.979 834.378C334.988 833.736 325.351 832.451 324.066 830.523C315.713 822.813 311.216 813.497 310.573 802.574C309.931 791.652 313.786 782.656 322.138 775.589C322.781 774.304 328.242 766.594 338.522 752.458C348.802 737.681 361.01 719.69 375.145 698.488C350.73 667.647 327.6 637.449 305.754 607.894C283.909 577.696 270.737 560.027 266.24 554.887C252.105 542.679 245.037 527.58 245.037 509.59C245.037 490.957 252.105 474.573 266.24 460.438C270.095 456.583 281.66 441.805 300.935 416.105C320.853 390.404 342.056 362.455 364.544 332.257C387.674 302.059 408.877 274.11 428.152 248.41C448.07 222.067 459.314 207.61 461.884 205.04C464.454 202.47 466.382 200.221 467.667 198.294C460.599 190.584 453.21 183.195 445.5 176.127C438.432 169.06 434.256 164.241 432.971 161.671C412.411 143.68 412.411 125.69 432.971 107.7C434.899 104.487 443.573 95.4922 458.993 80.7144C475.056 65.9367 484.372 56.6203 486.942 52.7653C504.29 36.06 520.995 36.06 537.058 52.7653L565.007 80.7144C579.785 95.4922 589.101 104.487 592.956 107.7C610.946 125.69 610.946 143.68 592.956 161.671C590.386 164.241 585.246 169.06 577.536 176.127C569.826 183.195 562.758 190.584 556.333 198.294C556.976 198.294 557.297 198.936 557.297 200.221C557.939 200.864 559.224 201.185 561.152 201.185C565.649 206.325 577.536 222.067 596.811 248.41C616.086 274.11 636.647 302.059 658.492 332.257C680.98 362.455 701.54 390.404 720.173 416.105C739.448 441.805 751.014 456.583 754.869 460.438C768.361 474.573 775.108 490.957 775.108 509.59C775.108 527.58 768.361 542.679 754.869 554.887C750.371 560.027 737.521 577.053 716.318 605.966C695.758 634.237 673.912 663.792 650.782 694.633C666.845 715.835 680.337 734.468 691.26 750.531C702.825 765.951 709.572 774.304 711.499 775.589C728.847 793.579 727.883 811.891 708.608 830.523C707.323 832.451 696.721 833.736 676.804 834.378C657.528 834.378 633.434 834.7 604.521 835.342C602.594 849.477 601.951 856.545 602.594 856.545C605.806 859.758 616.729 861.364 635.362 861.364C653.995 860.721 674.555 860.079 697.043 859.436C719.53 858.794 741.055 858.473 761.615 858.473C782.818 857.83 797.595 858.794 805.948 861.364C827.151 868.431 841.929 884.815 850.281 910.516C858.634 935.574 865.702 959.989 871.484 983.762H614.159C600.666 983.762 587.816 983.441 575.608 982.798C564.043 981.513 552.157 977.979 539.949 972.197C528.384 966.414 520.995 962.238 517.782 959.668C514.57 956.455 512.642 952.921 512 949.066C512 952.921 510.715 956.455 508.145 959.668C505.575 962.238 498.507 966.414 486.942 972.197C473.449 977.979 460.599 981.513 448.391 982.798C436.184 983.441 424.297 983.762 412.732 983.762H152.516C159.583 959.989 167.936 935.574 177.574 910.516C187.854 884.815 203.595 868.431 224.798 861.364C232.508 858.794 246.322 857.83 266.24 858.473C286.8 858.473 307.682 858.794 328.885 859.436C350.73 860.079 370.326 860.721 387.674 861.364C405.664 861.364 416.266 859.758 419.478 856.545C422.691 854.618 423.655 852.69 422.37 850.762C421.727 848.192 421.406 843.052 421.406 835.342ZM525.493 833.415C525.493 873.25 530.954 898.629 541.877 909.552C547.659 917.905 550.55 922.724 550.55 924.009C550.55 925.294 553.12 927.542 558.261 930.755C578.821 938.465 596.49 942.32 611.268 942.32H810.767C809.482 939.108 807.554 932.682 804.984 923.045C802.414 913.407 796.632 906.661 787.637 902.806C780.569 900.878 766.434 900.236 745.231 900.878C724.671 900.878 702.825 901.521 679.695 902.806C656.565 903.448 635.04 903.769 615.123 903.769C595.847 903.127 583.961 900.557 579.463 896.059C568.541 887.064 563.079 877.427 563.079 867.146C563.079 856.224 563.722 844.98 565.007 833.415H525.493ZM498.507 862.328C498.507 843.052 498.186 833.415 497.543 833.415H458.993C459.635 844.98 459.957 855.903 459.957 866.183C459.957 875.82 454.174 885.779 442.609 896.059C438.111 900.557 426.225 903.127 406.95 903.769C387.674 903.769 366.471 903.448 343.341 902.806C320.211 901.521 298.044 900.878 276.841 900.878C255.638 900.236 241.503 900.878 234.436 902.806C226.083 906.661 220.3 913.407 217.088 923.045C213.875 932.682 211.948 939.108 211.305 942.32H412.732C428.795 942.32 446.464 938.465 465.739 930.755C471.522 927.542 474.092 925.294 473.449 924.009C473.449 922.724 476.983 917.905 484.051 909.552C493.688 897.344 498.507 881.603 498.507 862.328ZM535.13 527.901V694.633H490.797V527.901H437.79V483.568H490.797V418.996H535.13V483.568H588.137V527.901H535.13ZM431.044 698.488C411.126 728.043 393.457 752.458 378.037 771.734C363.259 790.367 355.549 800.004 354.906 800.647C355.549 801.932 372.575 802.895 405.986 803.538C439.396 804.18 476.019 804.502 515.855 804.502C555.691 804.502 592.314 804.18 625.724 803.538C659.777 802.895 677.446 801.932 678.731 800.647C677.446 800.004 668.451 789.724 651.746 769.806C635.683 749.888 617.05 724.83 595.847 694.633C622.19 658.009 648.533 621.708 674.876 585.727C701.862 549.747 717.924 528.865 723.064 523.082C733.987 514.73 733.987 504.771 723.064 493.206C717.924 488.708 705.717 473.609 686.441 447.909C667.166 421.566 646.284 393.617 623.797 364.061C601.951 333.863 581.391 305.914 562.116 280.214C543.483 253.871 532.239 238.129 528.384 232.989C523.886 228.492 519.067 226.243 513.927 226.243C506.86 226.243 501.72 228.492 498.507 232.989C493.367 238.129 480.838 253.871 460.92 280.214C441.645 305.914 420.442 333.863 397.312 364.061C374.824 393.617 353.942 421.566 334.667 447.909C315.392 473.609 303.505 488.708 299.008 493.206C286.158 504.771 286.158 514.73 299.008 523.082C302.863 528.865 318.604 550.068 346.232 586.691C374.503 623.314 402.773 660.58 431.044 698.488ZM512 84.5695C509.43 88.4246 501.398 97.0984 487.906 110.591C475.056 124.084 467.667 131.794 465.739 133.722C467.667 137.577 475.056 146.25 487.906 159.743C501.398 172.593 509.43 179.982 512 181.91C513.927 179.982 521.637 172.593 535.13 159.743L561.152 133.722C557.297 131.794 548.623 124.084 535.13 110.591C521.637 97.0984 513.927 88.4246 512 84.5695Z" fill="black" style="fill:black;fill-opacity:1;"/>
<path fill-rule="evenodd" clip-rule="evenodd" d="M214.257 934.369C218.971 918.949 223.775 910.501 230.205 906.284C236.439 902.188 247.251 901.812 333.794 902.64C442.368 903.694 441.676 903.784 454.114 883.786C459.46 875.173 460.469 870.128 460.108 853.593L459.686 833.746H498.237L496.942 860.475C495.601 888.274 494.291 892.415 480.076 913.678C463.315 938.751 452.97 940.483 321.401 940.513L212.375 940.528L214.257 934.369ZM589.222 939.143C583.099 937.28 576.95 935.508 570.775 933.827C556.334 929.806 554.286 928.195 545.024 913.768C532.782 894.644 527.692 876.618 527.647 852.223L527.616 833.746H563.2V854.979C563.216 879.48 568.26 890.638 582.927 898.649C591.21 903.167 599.703 903.498 689.393 902.64L786.854 901.736L794.218 908.121C798.269 911.645 803.328 920.364 805.467 927.517L809.352 940.528L700.642 940.317C640.859 940.197 590.728 939.67 589.222 939.143ZM373.61 801.731C364.951 801.128 357.858 799.969 357.858 799.171C357.858 798.373 365.087 788.871 373.926 778.058C389.512 758.979 424.298 711.107 429.267 701.891C431.18 698.337 417.973 679.182 368.821 614.264C334.216 568.59 302.201 526.666 297.653 521.125C293.135 515.568 289.416 509.725 289.416 508.129C289.416 506.518 293.527 500.584 298.542 494.937C303.571 489.275 322.907 464.323 341.504 439.476C402.764 357.676 479.022 257.656 491.023 243.38C497.499 235.655 505.119 228.743 507.935 228.005C519.786 224.903 527.887 233.456 578.545 302.576C655.375 407.431 705.973 474.909 718.758 489.607C730.037 502.572 733.395 513.851 727.146 517.721C724.164 519.574 635.408 637.861 608.708 675.568C600.802 686.727 596.465 695.37 597.685 697.479C604.311 708.923 636.055 751.239 654.397 773.074C666.203 787.154 675.057 799.472 674.064 800.466C672.121 802.423 399.496 803.553 373.61 801.731ZM535.191 612.652L535.914 529.829H587.852V483.282H535.823V417.58H489.277V483.282H437.264V529.829H489.277V611.523C489.277 656.443 490.15 694.075 491.219 695.129C492.273 696.183 502.438 696.711 513.807 696.274L534.453 695.476L535.191 612.652ZM488.147 157.544L466.824 135.604L480.558 119.837C488.102 111.178 498.402 100.351 503.432 95.7882L512.573 87.5059L536.23 111.6L559.903 135.694L536.712 156.852C523.942 168.477 512.618 178.341 511.519 178.747C510.419 179.154 499.923 169.607 488.177 157.544H488.147Z" fill="white" style="fill:white;fill-opacity:1;"/>
</svg>
