<svg width="1024" height="1024" viewBox="0 0 1024 1024" fill="none" xmlns="http://www.w3.org/2000/svg">
<path d="M596.239 860.401C560.901 895.739 541.626 914.372 538.414 916.299C522.351 931.077 505.324 931.077 487.334 916.299C483.479 914.372 464.204 895.097 429.508 858.474L362.045 862.329L302.291 927.865H721.529L660.812 865.22L596.239 860.401ZM686.833 784.264C677.196 778.481 667.879 773.341 658.884 768.843C649.889 764.346 642.179 760.17 635.754 756.315C622.904 750.532 602.343 746.677 574.073 744.749C546.445 742.822 527.491 741.537 517.211 740.894C507.573 741.537 490.547 743.464 466.131 746.677C442.358 749.889 415.373 755.993 385.175 764.988C353.692 776.554 334.417 784.264 327.349 788.119L358.19 818.959L429.508 814.14L487.334 753.423C504.682 737.361 521.708 737.361 538.414 753.423L599.131 814.14L657.92 818.959L686.833 784.264ZM304.219 827.633L299.4 865.22L325.422 844.017L304.219 827.633ZM304.219 749.568C311.286 745.713 319.96 741.858 330.24 738.003C340.521 733.505 354.335 728.687 371.682 723.547C394.813 715.836 416.658 710.054 437.218 706.199C458.421 702.344 476.733 699.774 492.153 698.489L490.225 526.939C478.66 467.185 465.81 410.966 451.675 358.28C437.54 305.594 417.943 275.396 392.885 267.686C363.972 259.976 330.24 257.727 291.69 260.939C253.782 264.152 228.724 268.65 216.516 274.432C203.023 281.5 185.997 294.671 165.437 313.947C145.519 332.579 131.705 353.461 123.995 376.591C115.642 401.007 110.181 422.852 107.611 442.127C105.683 461.403 104.077 477.144 102.792 489.352C102.792 514.41 108.253 550.069 119.176 596.33C125.601 619.46 134.275 639.378 145.198 656.083C156.763 672.788 173.468 689.815 195.313 707.163C214.589 723.868 233.221 734.79 251.212 739.931C269.202 744.428 286.871 747.641 304.219 749.568ZM513.356 426.707C519.138 399.722 525.242 374.021 531.667 349.606C538.735 324.548 547.087 302.381 556.725 283.106C556.725 276.681 553.834 267.686 548.051 256.121C542.911 246.483 537.129 237.488 530.704 229.135C524.921 220.783 519.781 211.787 515.283 202.15C499.22 223.995 487.655 241.985 480.588 256.121C474.805 266.401 471.271 273.79 469.986 278.287C469.344 282.785 469.023 286.961 469.023 290.816C486.37 326.154 501.148 371.451 513.356 426.707ZM758.152 791.01L777.427 974.125H241.574L262.777 791.01C247.357 787.798 231.936 782.979 216.516 776.554C201.096 769.486 184.069 758.885 165.437 744.749C139.736 723.547 120.14 702.665 106.647 682.105C93.1543 661.544 82.5529 636.808 74.8428 607.895C62.6351 560.349 56.5312 520.192 56.5312 487.424C57.1738 473.931 58.78 456.262 61.3501 434.417C64.5626 412.572 71.6302 387.835 82.5529 360.207C91.548 331.294 108.896 304.951 134.596 281.179C160.297 257.406 181.499 241.985 198.205 234.918C212.982 227.208 242.859 221.104 287.835 216.606C332.81 212.109 371.682 214.358 404.45 223.353C419.871 229.778 429.829 235.882 434.327 241.664C442.037 228.171 451.032 214.036 461.312 199.259C472.235 183.838 482.515 169.382 492.153 155.889V139.505H447.82V93.2444H492.153V49.875H536.486V93.2444H577.928V139.505H536.486V155.889C545.481 169.382 554.798 183.517 564.435 198.295C574.715 212.43 583.71 226.244 591.421 239.737C595.918 236.524 600.416 233.633 604.913 231.063C610.053 228.493 614.872 225.923 619.37 223.353C652.78 214.358 691.652 212.109 735.985 216.606C780.961 221.104 811.802 227.208 828.507 234.918C843.285 241.985 863.524 257.406 889.224 281.179C914.924 304.951 933.236 331.294 944.159 360.207C953.154 387.835 959.258 412.572 962.47 434.417C965.683 456.262 967.289 473.931 967.289 487.424C968.574 519.55 962.47 559.707 948.977 607.895C941.267 636.808 930.666 661.544 917.173 682.105C904.323 702.665 884.726 723.547 858.383 744.749C839.108 760.17 821.439 771.413 805.376 778.481C789.314 784.906 773.572 789.083 758.152 791.01ZM515.283 786.191L467.095 835.343L515.283 883.531L561.544 835.343L515.283 786.191ZM714.783 820.887L691.652 839.198L719.601 865.22L714.783 820.887ZM533.595 698.489C549.658 698.489 570.539 699.774 596.239 702.344C621.94 704.914 641.215 709.09 654.065 714.873L684.906 730.293C696.471 736.075 708.036 742.501 719.601 749.568C736.949 748.283 754.297 745.392 771.645 740.894C789.635 735.754 809.231 724.51 830.434 707.163C869.627 674.395 894.364 637.45 904.644 596.33C916.852 550.711 922.313 515.052 921.028 489.352C921.028 477.144 919.743 461.403 917.173 442.127C914.603 422.852 908.821 401.007 899.825 376.591C891.473 353.461 877.016 332.579 856.456 313.947C835.896 294.671 819.512 281.5 807.304 274.432C793.811 268.65 768.753 264.152 732.13 260.939C695.507 257.727 662.739 259.976 633.826 267.686C608.126 275.396 588.208 305.594 574.073 358.28C560.58 410.966 548.051 467.185 536.486 526.939L533.595 698.489Z" fill="black" style="fill:black;fill-opacity:1;"/>
<path fill-rule="evenodd" clip-rule="evenodd" d="M331.747 896.828C347.348 879.887 361.142 865.265 362.407 864.331C363.672 863.413 379.077 861.982 396.636 861.154L428.56 859.648L458.678 889.148C475.243 905.367 491.838 920.666 495.572 923.136C501.897 927.337 495.964 927.624 402.855 927.624H303.376L331.747 896.828ZM302.142 852.149C303.12 846.231 303.934 838.551 303.949 835.087L303.979 828.777L313.616 836.126C324.248 844.243 323.766 846.246 308.572 857.058L300.365 862.916L302.142 852.149ZM490.784 858.428L468.256 835.795L492.214 811.972L516.173 788.179L538.565 812.288L560.958 836.412L538.52 858.745C526.172 871.033 515.435 881.077 514.682 881.077C513.929 881.077 503.177 870.897 490.784 858.428ZM532.918 921.721C537.255 918.468 553.187 903.65 568.321 888.787L595.834 861.756L627.186 863.593L658.554 865.446L685.479 891.753C700.282 906.21 713.579 920.2 714.994 922.835C717.464 927.353 712.193 927.624 621.313 927.624H525.012L532.918 921.721ZM704.393 850.221L693.084 838.641L703.655 831.096L714.241 823.537L716.154 841.487C717.208 851.351 717.539 859.964 716.892 860.612C716.244 861.259 710.612 856.591 704.393 850.221ZM619.491 815.481L599.599 813.643L564.075 778.496L528.566 743.364L560.702 745.216C604.749 747.731 625.605 752.685 653.705 767.307C666.912 774.174 679.456 780.905 681.564 782.261C684.636 784.218 682.663 788.134 671.986 801.265C657.033 819.667 659.051 819.11 619.491 815.481ZM342.665 803.403L328.148 788.706L348.237 780.409C374.063 769.747 388.519 764.943 416.001 757.926C434.96 753.092 485.377 744.252 494.307 744.192C495.843 744.192 481.658 759.733 462.834 778.737L428.56 813.297L401.184 815.586C356.399 819.321 358.898 819.833 342.665 803.403ZM273.861 743.846C259.555 740.849 241.696 735.563 234.166 732.1C204.937 718.652 158.827 676.533 141.344 647.319C124.176 618.632 108.515 558.773 105.097 508.717C102.251 466.929 115.713 392.132 131.841 359.981C145.078 333.628 180.557 297.186 209.906 279.793C240.325 261.768 341.521 255.172 390.055 268.047C407.072 272.565 426.859 294.505 437.942 321.114C447.941 345.118 465.394 412.04 480.348 483.689L490.166 530.748V697.389L479.896 698.955C418.125 708.442 348.161 727.416 317.08 743.123C309.972 746.722 303.196 749.568 302.021 749.463C300.832 749.357 288.167 746.827 273.861 743.846ZM692.768 734.178C648.871 709.391 625.906 703.157 563.533 698.97L534.243 697.013L535.779 611.75L537.3 526.517L548.022 475.919C577.507 336.821 594.599 290.816 622.759 274.778C636.357 267.023 641.613 265.758 674.095 262.37C702.285 259.433 751.798 262.581 784.416 269.372C808.751 274.447 825.782 285.726 858.46 318.389C886.228 346.157 895.941 363.038 907.446 403.607C925.848 468.51 923.122 538.278 899.42 609.19C889.842 637.847 872.57 664.727 848.34 688.7C815.693 720.986 791.779 735.654 760.547 742.566C723.894 750.667 721.44 750.366 692.768 734.178ZM510.932 412.883C505.782 388.939 491.627 343.416 481.568 318.434C473.586 298.586 470.906 288.392 471.809 281.389C473.165 270.938 490.166 238.788 505.571 217.585L515.179 204.363L524.064 218.97L541.351 247.236C557.103 272.926 557.554 277.926 546.637 305.318C537.767 327.575 526.398 366.11 516.896 406.046L512.98 422.46L510.932 412.883Z" fill="white" style="fill:white;fill-opacity:1;"/>
</svg>
