<svg width="1024" height="1024" viewBox="0 0 1024 1024" fill="none" xmlns="http://www.w3.org/2000/svg">
<path d="M374.183 598.257C370.327 605.325 371.291 611.75 377.074 617.533C382.856 623.315 381.893 630.704 374.183 639.699C367.115 649.979 353.944 663.793 334.668 681.141C316.035 698.489 299.973 710.054 286.48 715.837C264.635 728.687 242.147 729.651 219.016 718.728C207.451 712.945 192.995 701.701 175.647 684.996C158.942 668.291 147.377 654.798 140.951 644.518C133.241 634.238 130.35 625.564 132.278 618.496C134.205 611.429 134.526 603.076 133.241 593.438C133.241 585.728 131.314 580.267 127.459 577.054C123.604 573.199 125.531 560.67 133.241 539.468C140.951 520.192 157.335 488.388 182.393 444.055C207.451 399.722 223.514 366.954 230.582 345.751C237.649 326.476 236.364 317.802 226.727 319.729C217.731 321.014 215.161 316.517 219.016 306.237C222.871 294.671 229.939 279.251 240.219 259.976C250.499 240.058 259.816 225.28 268.168 215.643C277.164 206.648 286.48 203.114 296.118 205.041C306.398 206.326 315.393 200.544 323.103 187.694C330.171 175.486 336.917 156.532 343.342 130.831C350.41 105.131 357.799 81.6794 365.509 60.4766C375.146 80.3944 385.426 99.3484 396.349 117.339C407.272 135.329 418.516 146.573 430.081 151.07C458.994 140.148 493.689 137.578 534.167 143.36C591.993 151.07 634.72 162.636 662.348 178.056C689.976 192.834 723.065 223.995 761.616 271.541C776.394 290.174 788.28 310.092 797.275 331.294C806.27 351.855 814.302 374.343 821.369 398.758C828.437 423.173 833.898 451.123 837.753 482.606C842.251 514.089 845.464 542.359 847.391 567.417C847.391 594.402 846.427 619.46 844.5 642.59C843.215 665.078 843.215 687.887 844.5 711.018V767.88C844.5 782.015 847.07 800.969 852.21 824.742C855.422 844.66 861.848 866.826 871.485 891.242C881.123 915.657 890.118 939.751 898.471 963.524H293.226C284.874 946.819 281.982 928.507 284.552 908.59C284.552 895.739 286.159 879.998 289.371 861.365C292.584 842.732 297.724 825.063 304.791 808.358C310.574 793.58 318.284 779.445 327.922 765.952C337.559 751.817 347.84 738.324 358.762 725.474C379.323 693.349 398.598 667.648 416.588 648.373C432.008 631.025 448.392 614.963 465.74 600.185C483.73 585.407 500.436 568.381 515.856 549.105C529.349 527.902 537.701 509.27 540.914 493.207C542.841 483.569 542.52 470.398 539.95 453.693C538.023 436.345 535.453 427.992 532.24 428.635C529.67 429.92 524.53 441.806 516.82 464.294C509.11 486.782 501.721 501.881 494.653 509.591C487.586 520.514 479.875 528.224 471.523 532.721C463.813 536.576 457.066 540.431 451.284 544.286C443.574 548.142 437.47 550.069 432.972 550.069C429.117 550.069 424.298 551.997 418.516 555.852C411.448 560.992 403.095 567.738 393.458 576.091C384.463 583.801 378.038 591.19 374.183 598.257ZM413.697 711.018L355.871 790.046L483.088 799.684L540.914 738.967C560.189 719.692 579.786 719.692 599.704 738.967L661.384 801.612L803.058 791.974C803.058 759.206 804.343 720.334 806.913 675.358C810.125 629.74 811.089 594.724 809.804 570.308C808.519 545.25 805.949 517.944 802.094 488.388C798.882 458.19 793.741 432.168 786.674 410.323C773.824 367.275 755.512 330.009 731.739 298.526C717.604 283.106 704.433 269.292 692.225 257.085C680.66 244.877 665.882 231.705 647.892 217.57C626.689 208.575 606.771 200.544 588.138 193.476C570.148 186.408 550.551 182.232 529.349 180.947C490.156 176.45 457.066 179.341 430.081 189.621C408.878 181.911 395.385 173.558 389.603 164.563C384.463 155.568 380.286 146.252 377.074 136.614C377.074 164.242 370.006 186.73 355.871 204.078C348.803 212.43 338.845 218.534 325.994 222.389C313.787 225.602 303.828 231.705 296.118 240.701C287.765 250.338 279.412 262.867 271.06 278.287C263.35 293.065 257.567 305.273 253.712 314.91C251.784 325.833 254.997 331.294 263.35 331.294C271.702 330.652 272.345 339.968 265.277 359.244C258.21 379.161 241.826 411.929 216.125 457.548C191.067 502.523 175.005 534.649 167.937 553.924C160.227 573.842 158.621 583.48 163.118 582.837C168.258 582.195 170.828 584.765 170.828 590.547C170.828 596.33 169.222 601.791 166.009 606.931C163.439 611.429 165.046 616.89 170.828 623.315C176.611 631.668 187.212 643.233 202.632 658.011C218.053 672.146 229.939 681.462 238.292 685.96C246.002 690.457 250.821 692.706 252.748 692.706C254.676 692.064 260.458 688.851 270.096 683.069C277.806 679.214 290.656 669.576 308.647 654.156C326.637 638.735 338.523 626.849 344.306 618.496C351.373 609.501 351.695 603.076 345.27 599.221C339.487 594.723 338.523 588.941 342.378 581.873C346.233 574.163 354.265 564.526 366.472 552.96C378.68 540.753 388.318 531.758 395.385 525.975C403.095 520.192 409.521 517.622 414.661 518.265C420.443 518.265 426.226 516.337 432.008 512.482C437.791 508.627 443.252 506.057 448.392 504.772C453.532 502.845 458.994 498.347 464.776 491.279C469.274 484.854 474.735 474.895 481.16 461.403C488.228 447.267 493.689 434.738 497.544 423.816C499.472 414.821 501.721 406.468 504.291 398.758C507.503 390.405 507.503 382.695 504.291 375.628C499.151 367.918 488.549 359.565 472.487 350.57C456.424 341.575 449.356 335.15 451.284 331.294C451.926 328.082 460.921 326.476 478.269 326.476C495.617 326.476 509.752 330.331 520.675 338.041C528.385 345.751 537.38 358.28 547.66 375.628C557.94 392.975 565.008 408.396 568.863 421.888C579.786 454.014 582.356 480.999 576.573 502.845C571.433 525.975 559.547 548.463 540.914 570.308C528.064 590.226 512.965 608.216 495.617 624.279C478.269 640.342 460.921 657.047 443.574 674.395C429.438 688.53 419.479 700.738 413.697 711.018ZM337.559 839.198C333.704 852.691 330.492 867.79 327.922 884.495C325.352 901.201 326.958 915.336 332.741 926.901H832.935L807.877 841.126L661.384 850.764L599.704 912.445C579.786 929.792 560.189 929.792 540.914 912.445L481.16 847.872L337.559 839.198ZM571.754 773.662L520.675 824.742L571.754 877.749L622.834 824.742L571.754 773.662ZM342.378 347.678C348.803 350.248 353.943 351.855 357.799 352.497C362.296 353.14 363.902 356.995 362.617 364.062C362.617 366.632 359.726 368.881 353.943 370.809C348.803 372.094 343.985 373.7 339.487 375.628C334.989 378.198 329.528 380.446 323.103 382.374C317.32 384.301 313.465 385.908 311.538 387.193C300.615 390.405 292.905 389.442 288.408 384.302C285.837 381.731 284.552 375.628 284.552 365.99C285.195 362.777 287.444 358.601 291.299 353.461C295.796 348.321 300.294 345.751 304.791 345.751C322.139 345.751 334.668 346.393 342.378 347.678ZM187.212 562.598C192.995 562.598 199.741 563.562 207.451 565.489C215.161 567.417 219.98 570.308 221.908 574.163C221.908 579.303 217.731 586.692 209.379 596.33C201.026 605.325 194.922 608.859 191.067 606.931C191.067 605.004 191.71 602.112 192.995 598.257C194.28 594.402 194.601 590.547 193.959 586.692C193.959 577.054 191.71 569.023 187.212 562.598Z" fill="black" style="fill:black;fill-opacity:1;"/>
<path fill-rule="evenodd" clip-rule="evenodd" d="M331.218 920.591C327.273 910.216 327.965 888.124 333.025 862.615L337.498 840.026L355.613 841.472C384.451 843.731 460.317 848.218 470.874 848.248C479.698 848.294 483.131 851.185 511.984 882.854C532.479 905.336 547.297 919.16 554.435 922.458C565.277 927.458 564.283 927.503 449.626 927.563L333.883 927.624L331.218 920.591ZM585.923 922.88C591.194 920.335 610.906 903.288 629.729 884.977L663.943 851.697L734.825 847.134C773.812 844.634 806.158 843.038 806.7 843.58C807.604 844.484 815.736 871.288 827.888 913.242L832.044 927.624L704.195 927.563C582.264 927.503 576.782 927.277 585.923 922.88ZM546.213 850.959L521.637 826.278L546.906 801.009L572.174 775.74L596.72 800.166L621.266 824.606L598.587 849.257C586.119 862.81 574.749 874.3 573.334 874.767C571.918 875.249 559.721 864.527 546.213 850.959Z" fill="white" style="fill:white;fill-opacity:1;"/>
<path fill-rule="evenodd" clip-rule="evenodd" d="M630.798 770.063C590.396 726.784 574.177 718.2 553.306 728.997C549.074 731.181 531.546 747.926 514.364 766.193L483.117 799.412L421.571 794.714C387.734 792.124 359.634 789.669 359.152 789.248C358.67 788.841 373.323 767.759 391.725 742.385C418.168 705.927 435.847 685.372 476.205 644.246C560.429 558.411 583.529 519.258 579.629 469.007C576.225 425.11 544.903 357.285 518.881 337.438C508.084 329.201 483.086 324.216 465.076 326.686C444.882 329.472 447.141 335.36 475.708 354.439C506.277 374.859 508.867 379.738 502.271 404.329C496.037 427.55 481.641 462.065 470.136 481.325C462.606 493.914 458.014 498.055 442.081 506.578C431.585 512.165 419.93 516.803 416.165 516.849C406.904 516.984 396.438 523.866 373.925 544.617C354.559 562.447 339.501 582.776 339.501 591.059C339.501 593.588 341.353 597.187 343.612 599.07C354.379 608.015 343.612 624.007 305.227 656.037C291.177 667.783 273.468 680.749 265.893 684.875L252.099 692.374L241.724 687.028C227.358 679.634 191.638 648.448 178.175 631.552C166.43 616.794 165.225 612.307 169.818 600.244C173.146 591.495 170.947 582.626 165.451 582.626C164.398 582.606 163.395 582.17 162.662 581.414C161.928 580.658 161.523 579.643 161.535 578.59C161.535 566.633 186.322 514.048 227.418 438.889C253.409 391.348 268.679 356.442 269.221 343.296C269.628 333.869 268.814 332.273 262.836 330.827C252.009 328.192 252.792 317.846 265.758 291.975C288.24 247.145 301.989 231.966 328.658 222.554C335.164 220.265 344.5 215.326 349.409 211.561C360.131 203.399 374.136 175.616 376.651 157.515L378.458 144.459L383.909 154.774C391.89 169.878 399.073 176.715 414.855 184.169C428.83 190.795 429.04 190.795 445.123 186.187C457.321 182.708 471.19 181.624 501.037 181.85C547.93 182.196 564.133 185.524 613.074 204.83C642.936 216.606 650.45 220.928 669.5 237.176C712.282 273.664 749.989 321.204 766.96 360.026C802.243 440.741 813.884 533.579 806.414 674.861C804.11 718.26 802.228 762.021 802.228 772.111V790.483L793.313 791.883C788.419 792.651 762.864 794.563 736.511 796.13C710.158 797.696 682.3 799.653 674.59 800.482L660.585 801.987L630.798 770.063ZM210.462 595.019C224.572 579.719 225.023 572.762 212.269 567.431C207.043 565.263 199.002 563.471 194.379 563.471C186.548 563.471 186.202 563.877 189.259 569.585C191.051 572.943 192.451 582.791 192.376 591.48C192.195 611.011 195.192 611.599 210.462 595.019ZM334.019 379.301C359.755 368.911 362.782 366.983 362.782 360.869C362.782 351.834 348.581 347.075 319.472 346.338C299.038 345.826 297.682 346.187 291.373 353.491C282.458 363.806 282.187 380.672 290.83 386.71C299.384 392.704 301.763 392.282 334.019 379.301Z" fill="white" style="fill:white;fill-opacity:1;"/>
</svg>
