<svg width="1024" height="1024" viewBox="0 0 1024 1024" fill="none" xmlns="http://www.w3.org/2000/svg">
<path d="M729.812 376.59L766.435 670.538L805.95 761.132V955.813H213.234V761.132L252.749 670.538L289.372 376.59L215.162 214.678L261.423 68.1855H391.531V193.475H447.429V68.1855H579.465V193.475H634.4V68.1855H764.508L810.768 214.678L729.812 376.59ZM254.676 786.19V916.298H766.435V786.19H254.676ZM266.241 744.748H752.943L731.74 693.669H287.444L266.241 744.748ZM535.132 450.8L597.776 513.445H706.682L692.225 394.902H330.814L315.393 513.445H419.48L485.98 450.8C500.115 432.81 516.499 432.81 535.132 450.8ZM424.299 554.887H310.575L296.118 657.046H723.066L711.501 554.887H594.885L535.132 614.64C516.499 633.273 500.115 633.273 485.98 614.64L424.299 554.887ZM256.604 211.786L326.959 355.387H697.044L769.327 211.786L736.559 107.7H673.914V234.917H539.951V107.7H485.98V234.917H352.016V107.7H291.299L256.604 211.786ZM456.103 531.756L509.11 587.655L565.009 531.756L509.11 478.749L456.103 531.756Z" fill="black" style="fill:black;fill-opacity:1;"/>
<path fill-rule="evenodd" clip-rule="evenodd" d="M256.543 852.329V787.983H765.802V916.675H256.543V852.329ZM273.364 729.81L283.333 705.159L287.489 694.889L509.531 694.904H731.574L741.663 719.54L751.752 744.177H267.581L273.364 729.81ZM297.608 654.08C297.608 652.724 300.695 630.422 304.46 604.536C308.225 578.665 311.297 556.98 311.297 556.378C311.297 555.761 336.731 555.264 367.813 555.264H424.313L461.885 592.218C501.866 631.552 505.706 633.675 521.578 625.272C525.644 623.119 543.73 606.479 561.785 588.303L594.599 555.264H652.816C697.571 555.264 711.048 556.047 711.063 558.682C711.063 560.564 713.533 582.43 716.515 607.277C719.496 632.124 721.966 653.387 721.981 654.516C721.981 655.646 626.508 656.564 509.802 656.564C384.648 656.564 297.608 655.54 297.608 654.08Z" fill="white" style="fill:white;fill-opacity:1;"/>
<path fill-rule="evenodd" clip-rule="evenodd" d="M481.914 558.322L456.766 531.532L482.516 505.887L508.267 480.227L515.887 486.852C525.189 495.304 534.346 503.913 543.354 512.678L563.201 531.878L536.547 558.638C521.88 573.35 509.246 585.337 508.478 585.262C507.695 585.187 495.723 573.064 481.899 558.337L481.914 558.322Z" fill="white" style="fill:white;fill-opacity:1;"/>
<path fill-rule="evenodd" clip-rule="evenodd" d="M317.683 502.558C320.417 483.415 322.952 464.244 325.288 445.049L331.371 396.454H511.625C610.758 396.454 691.88 397.162 691.88 398.035C691.88 401.047 702.827 490.978 704.439 501.188L706.05 511.458H597.325L568.623 482.41C532.723 446.073 521.399 437.534 509.231 437.534C499.232 437.534 495.136 440.802 445.126 488.795L421.529 511.458H316.162L317.683 502.558ZM292.52 283.513L257.508 211.637L274.374 160.994L291.24 110.336L321.809 109.568L352.378 108.785V234.918H486.522V108.966H538.536V234.918H675.45V108.785L705.96 109.568L736.469 110.336L752.311 160.678L768.152 211.02L732.102 283.196L696.021 355.388H327.531L292.52 283.513Z" fill="white" style="fill:white;fill-opacity:1;"/>
</svg>
