<svg width="1024" height="1024" viewBox="0 0 1024 1024" fill="none" xmlns="http://www.w3.org/2000/svg">
<path d="M322.184 929.402C322.184 925.792 327.225 921.376 334.464 918.639L346.743 913.998L337.276 896.936C320.381 866.49 314.947 833.745 314.888 762.08C314.858 724.481 316.748 682.607 319.092 669.032L323.35 644.343H311.494C304.971 644.343 296.834 645.769 293.408 647.51C288.41 650.047 285.348 649.517 277.925 644.827C270.316 640.014 269.054 635.969 270.816 622.038C272.647 607.556 277.241 600.69 302.478 574.714C319.043 557.664 344.769 536.168 361.108 525.731C382.566 512.019 394.159 501.505 405.201 485.741C413.44 473.978 423.575 460.965 427.722 456.823C435.854 448.698 435.996 448.782 409.259 445.759C381.448 442.61 390.137 420.172 422.228 412.266L438.502 408.257L424.05 388.942C386.961 339.373 353.392 243.071 363.503 215.231C366.335 207.436 370.201 205.152 387.421 201.115C398.716 198.465 417.884 196.256 430.016 196.207C464.182 196.067 474.13 193.97 474.13 186.904C474.13 183.515 477.494 177.381 481.607 173.272C490.749 164.141 484.26 163.401 460.531 170.876C437.512 178.126 422.533 177.481 416.321 168.966C407.564 156.973 405.173 144.864 408.528 129.537C412.377 111.963 417.97 110.079 449.109 115.862C461.327 118.132 472.118 119.579 473.087 119.077C474.057 118.575 471.444 114.761 467.278 110.601C463.112 106.438 458.328 98.5894 456.65 93.1571C453.844 84.0998 454.746 83.0016 467.535 79.927C485.011 75.7286 586.515 73.3658 596.615 76.9242C603.067 79.2 603.01 81.2045 596.128 94.1658C591.844 102.232 586.519 111.026 584.3 113.704C580.876 117.83 581.697 118.26 589.689 116.507C621.517 109.523 641.709 107.035 646.495 109.508C654.904 113.852 657.104 153.379 649.346 160.739C643.409 166.371 639.865 167.008 617.218 166.516C603.219 166.214 591.765 166.542 591.765 167.251C591.765 167.958 596.258 173.088 601.752 178.651C607.246 184.214 610.424 189.864 608.816 191.208C607.069 192.669 616.921 193.655 633.296 193.655C648.368 193.655 668.379 195.311 677.763 197.336L694.826 201.02L692.228 235.949C687.773 295.825 676.858 334.422 650.128 384.813C644.709 395.027 642.712 402.874 645.409 403.34C647.983 403.782 655.716 406.429 662.59 409.222C680.173 416.367 679.307 427.337 660.385 437.111C647.802 443.613 645.693 446.598 645.766 457.806C645.813 465.01 649.053 478.711 652.966 488.252C659.555 504.319 662.588 506.961 694.054 524.074C742.573 550.458 759.419 569.617 761.925 601.263C764.547 634.372 755.013 642.556 722.144 635.409C713.996 633.637 713.237 634.213 716.07 640.042C725.42 659.291 735.429 724.533 735.758 768.411C736.13 817.601 730.625 843.378 711.736 880.885C705.763 892.745 706.043 894.396 715.331 902.179C724.392 909.772 724.646 911.005 717.86 914.51C711.199 917.953 708.658 917.976 696.009 914.715C685.819 912.091 678.276 911.717 669.816 913.417C642.263 918.954 518.062 926.271 447.172 926.532C389.084 926.747 369.664 927.72 354.671 931.163C328.987 937.059 322.184 936.693 322.184 929.402Z" fill="black" stroke="black" style="fill:black;fill-opacity:1;stroke:black;stroke-opacity:1;" stroke-width="6.80005"/>
<path d="M677.726 253.085C680.536 215.88 679.933 206.908 674.456 204.563C670.485 202.863 642.357 201.337 605.638 200.835C571.485 200.367 541.856 199.11 539.796 198.042C533.058 194.548 546.366 190.575 569.282 189.241C581.65 188.519 591.767 187.475 591.767 186.912C591.767 183.665 575.45 166.547 568.658 162.668C554.531 154.604 567.338 152.897 601.155 158.334C618.358 161.099 633.749 162.681 635.361 161.849C640.222 159.34 641.495 121.742 636.837 118.186C633.396 115.557 625.836 116.294 599.921 121.793C582 125.594 565.925 127.978 564.205 127.089C562.484 126.199 565.762 119.45 571.489 112.088C577.216 104.728 583.36 94.8283 585.144 90.0923L588.388 81.4805L537.386 82.8885C509.335 83.6667 482.541 85.0978 477.842 86.0706C466.987 88.3182 470.144 96.1979 489.429 114.978C497.192 122.538 503.539 129.66 503.539 130.804C503.539 134.329 491.809 133.157 459.72 126.419C442.774 122.863 427.514 120.674 425.809 121.555C421.43 123.818 421.902 155.531 426.44 163.912L430.215 170.888L459.842 163.162C477.214 158.631 493.242 156.056 498.593 156.931C507.395 158.375 507.35 158.887 497.346 171.324C487.509 183.553 487.393 184.595 495.143 191.568C505.017 200.456 505.588 200.326 447.663 202.346C423.669 203.185 398.306 205.285 391.295 207.013C380.072 209.78 378.379 211.889 377.083 224.705C372.835 266.714 419.319 377.071 452.167 402.97C462.182 410.865 458.412 416.467 443.087 416.467C426.442 416.467 405.512 425.719 405.512 433.079C405.512 438.255 408.519 439.443 425.116 440.815C449.635 442.837 449.851 445.059 428.224 472.771C404.798 502.787 373.473 553.091 359.042 583.86C334.756 635.649 329.936 663.962 330.005 754.484C330.069 842.533 334.23 866.274 355.892 902.229L365.346 917.922L351.118 921.721C343.291 923.81 336.891 926.035 336.891 926.662C336.891 928.285 362.354 923.07 369.606 919.96C373.533 918.278 394.548 917.989 428.981 919.141C483.657 920.971 562.785 917.187 646.818 908.724C674.09 905.98 687.399 905.652 694.285 907.554C709.639 911.799 711.902 910.636 700.493 904.362L689.877 898.525L701.753 871.376C720.982 827.413 725.854 799.758 722.539 753.391C717.422 681.862 707.847 647.53 665.303 548.13C647.361 506.215 636.061 473.642 635.188 461.346C633.873 442.75 634.534 441.304 647.091 435.29C665.885 426.287 665.254 415.591 645.682 411.403C627.235 407.455 627.015 403.398 643.509 371.375C657.752 343.727 668.312 322.935 670.369 303.161C676.372 284.332 675.827 278.188 677.726 253.085Z" fill="black" stroke="black" style="fill:black;fill-opacity:1;stroke:black;stroke-opacity:1;" stroke-width="6.80005"/>
<path d="M313.756 635.285C321.083 639.071 321.938 638.646 324.748 629.84C335.732 595.392 361.856 542.049 373.793 529.692C375.434 527.995 369.859 530.593 361.411 535.468C339.679 548.004 288.294 602.583 284.702 616.945C283.07 623.46 283.286 631.977 285.176 635.873L288.617 642.952L297.214 637.064C305.138 631.637 306.429 631.498 313.756 635.285ZM748.538 604.915C748.653 577.224 725.296 549.118 686.024 529.692L671.789 522.652L688.015 561.344C705.029 601.91 719.71 625.352 728.106 625.352C730.847 625.352 734.778 626.225 736.842 627.29C744.083 631.03 748.461 622.651 748.538 604.915Z" fill="black" stroke="black" style="fill:black;fill-opacity:1;stroke:black;stroke-opacity:1;" stroke-width="6.80005"/>
<path d="M360.452 902.762C346.807 879.958 340.407 862.455 336.861 838.219C334.04 818.963 332.558 757.984 333.935 718.015C335.819 663.415 339.14 642.746 351.126 611.032C364.745 575.003 395.488 522.661 429.961 476.817C446.409 454.941 449.422 448.529 445.879 442.948C443.711 439.533 440.324 438.493 425.949 436.837C418.628 435.992 411.639 434.861 410.423 434.321C408.319 433.389 408.365 433.21 411.378 430.642C416.562 426.223 427.769 422.373 439.261 421.062C454.68 419.301 457.092 418.528 459.565 414.537C462.588 409.66 461.085 406.304 452.092 397.843C425.588 372.909 390.411 297.727 381.999 248.042C379.593 233.806 380.307 217.798 383.489 214.711C388.123 210.221 407.143 208.081 463.525 205.697C497.747 204.251 501.961 203.462 503.044 198.304C503.658 195.378 503.044 194.149 498.73 189.651C495.965 186.766 493.705 183.917 493.71 183.323C493.712 182.729 496.831 178.159 500.635 173.17C508.448 162.922 509.39 160.37 506.784 156.52C502.916 150.801 487.704 151.978 453.925 160.616C443.012 163.406 433.44 165.69 432.656 165.69C428.886 165.69 425.079 145.274 426.425 132.279L427.145 125.331L433.924 126.089C437.654 126.506 451.439 128.93 464.562 131.473C492.624 136.915 502.506 137.65 505.143 134.493C508.407 130.584 506.118 126.688 492.128 112.324C477.648 97.463 474.07 92.5913 476.376 90.8863C477.121 90.3334 483.391 89.4911 490.308 89.0175C502.045 88.2086 566.614 85.7663 578.167 85.6895L583.359 85.6562L581.072 90.5254C579.815 93.2006 576.091 99.1551 572.796 103.755C563.283 117.034 560.575 121.931 560.575 125.841C560.575 128.708 561.184 129.681 563.393 130.344C567.438 131.557 578.871 130.146 600.472 125.766C610.853 123.659 622.57 121.542 626.51 121.058C633.048 120.257 633.78 120.413 634.868 122.84C636.374 126.207 636.409 146.692 634.922 153.102C633.54 159.062 634.646 159.005 604.248 154.71C576.065 150.726 565.047 150.522 561.542 153.919C559.341 156.051 559.19 156.758 560.301 159.676C560.997 161.504 563.449 164.154 565.753 165.559C568.057 166.967 573.485 171.49 577.816 175.617L585.688 183.115L579.872 183.996C576.672 184.48 567.988 185.481 560.575 186.221C544.984 187.775 536.198 190.455 535.274 193.931C534.301 197.61 535.635 200.232 539.255 201.742C541.231 202.566 563.263 203.662 593.896 204.456C658.894 206.145 672.575 207.154 674.651 210.408C677.723 215.22 673.709 277.428 669.162 295.461C667.739 301.119 665.714 309.231 664.667 313.491C661.833 325.011 656.672 337.317 645.108 360.129C632.436 385.12 628.512 394.707 628.509 400.659C628.509 409.158 631.446 411.764 645.211 415.476C649.355 416.595 653.884 418.402 655.277 419.496C657.744 421.431 657.76 421.544 655.827 424.157C654.742 425.632 649.908 429.032 645.088 431.717C633.337 438.263 631.745 440.851 631.745 453.426C631.745 472.078 638.524 493.003 665.535 557.736C702.483 646.281 711.133 675.188 717.006 729.76C722.326 779.188 720.549 808.378 710.337 839.287C707.401 848.18 692.22 885.275 687.126 896.011C685.369 899.708 685.323 900.384 686.742 901.477C687.837 902.322 684.719 902.731 677.034 902.755C670.808 902.772 660.374 903.338 653.851 904.014C574.46 912.239 525.569 914.761 442.884 914.899L367.789 915.027L360.452 902.762Z" fill="#808080" style="fill:#808080;fill:color(display-p3 0.5020 0.5020 0.5020);fill-opacity:1;"/>
<path d="M288.222 634.755C286.937 631.916 286.932 631.877 286.96 625.971C286.98 621.653 287.159 619.507 287.612 618.092C289.097 613.453 293.756 606.756 304.053 594.466C315.799 580.43 328.51 567.23 342.092 554.962C350.658 547.244 361.924 538.517 362.475 539.172C362.585 539.305 362.004 540.508 361.182 541.847C356.164 550.014 348.039 565.627 341.273 580.104C336.665 589.97 327.029 613.379 324.366 621.179C319.81 634.542 320.148 633.741 319.124 633.605C318.612 633.536 316.308 632.571 313.998 631.46C306.51 627.856 304.296 628.158 295.579 633.969C292.579 635.971 289.986 637.609 289.819 637.609C289.653 637.609 288.933 636.324 288.222 634.755ZM736.731 623.429C735.641 622.956 732.825 622.265 730.472 621.896C726.612 621.292 725.992 621.059 724.144 619.536C717.224 613.832 706.859 596.099 695.328 570.235C690.28 558.912 678.596 530.742 678.832 530.46C679.113 530.125 687.408 534.275 694.274 538.192C717.273 551.304 733.664 567.627 740.989 584.707C743.963 591.644 745.038 596.329 745.282 603.449C745.696 615.506 743.38 624.453 739.877 624.333C739.237 624.31 737.819 623.906 736.729 623.429H736.731Z" fill="#808080" style="fill:#808080;fill:color(display-p3 0.5020 0.5020 0.5020);fill-opacity:1;"/>
<path d="M665.812 315.772C661.642 322.558 627.937 330.791 604.014 330.865C582.766 330.932 562.793 321.923 557.716 309.986C554.854 303.253 556.554 301.062 569.162 295.241C594.88 283.372 653.714 280.451 663.882 290.54C665.917 292.558 668.894 296.364 670.364 303.161C669.161 306.768 667.666 312.753 665.812 315.772ZM509.867 362.036C505.477 358.368 520.166 344.057 531.55 340.911C541.524 338.154 544.333 338.789 559.224 347.183C574.95 356.048 577.712 361.329 567.503 363.011C564.976 363.429 557.816 359.712 551.595 354.753C542.351 347.385 538.99 346.292 533.214 348.768C529.328 350.432 526.149 353.227 526.149 354.976C526.149 359.061 513.085 364.727 509.867 362.036ZM458.447 331.646C444.239 330.243 428.162 316.965 428.137 306.609C428.129 302.291 433.154 294.885 439.309 290.151C448.896 282.778 453.675 281.44 472.665 280.797C492.621 280.121 497.136 281.091 517.844 290.507C530.498 296.262 540.851 302.493 540.851 304.357C540.851 312.549 489.5 334.521 473.651 333.108C471.521 332.919 464.681 332.263 458.447 331.646ZM431.723 266.11C424.553 262.403 436.623 256.953 470.799 248.462C494.853 242.484 509.281 240.175 512.422 241.795C517.788 244.568 483.466 257.859 455.181 263.965C435.858 268.138 435.678 268.153 431.723 266.11ZM626.099 259.974C600.371 253.351 581.327 243.168 588.109 239.666C591.48 237.925 597.383 238.839 606.382 242.497C613.693 245.466 628.685 250.359 639.693 253.367C673.848 262.695 660.976 268.954 626.099 259.974Z" fill="black" stroke="black" style="fill:black;fill-opacity:1;stroke:black;stroke-opacity:1;" stroke-width="1.828"/>
<path d="M473.017 310.927C472.099 304.104 473.831 296.13 476.866 293.201C481.761 288.475 481.051 287.879 470.515 287.879C456.95 287.879 442.82 297.236 442.82 306.216C442.82 313.863 455.853 323.327 466.381 323.33C473.278 323.33 474.4 321.231 473.017 310.927ZM523.429 307.181C527.543 303.741 526.097 301.872 516.344 298.024L504.09 293.186L501.474 304.173C500.037 310.215 495.625 317.281 491.671 319.876C487.013 322.933 490.427 322.288 501.369 318.046C510.657 314.444 520.582 309.554 523.426 307.179L523.429 307.181Z" fill="white" stroke="black" style="fill:white;fill-opacity:1;stroke:black;stroke-opacity:1;" stroke-width="1.82797"/>
<path d="M644.951 317.886C655.652 314.993 661.507 303.586 655.036 298.246C652.343 296.024 642.41 293.863 632.958 293.443C616.099 292.693 615.721 292.885 612.855 303.683C611.249 309.738 608.396 316.762 606.517 319.292C603.482 323.377 604.97 323.685 619.765 322.044C628.931 321.025 640.263 319.156 644.951 317.886ZM590.088 302.147C594.549 295.051 594.412 294.979 583.679 298.717C573.234 302.357 571.825 307.078 578.604 315.728C580.925 318.69 582.015 318.411 583.557 314.461C584.643 311.678 587.584 306.136 590.09 302.147H590.088Z" fill="white" stroke="black" style="fill:white;fill-opacity:1;stroke:black;stroke-opacity:1;" stroke-width="1.82797"/>
</svg>
