<svg width="1024" height="1024" viewBox="0 0 1024 1024" fill="none" xmlns="http://www.w3.org/2000/svg">
<path d="M280.148 884.493C267.829 883.341 263.405 882.701 260.019 881.59C257.945 880.909 255.828 880.351 255.313 880.351C252.774 880.351 244.789 877.72 241.075 875.659C240.578 875.382 239.915 875.157 239.6 875.157C239.047 875.157 230.169 871.112 227.875 869.817C226.339 868.952 219.384 862.291 219.384 861.691C219.384 861.425 217.981 859.987 216.268 858.497C213.322 855.934 210.554 851.585 210.554 849.511C210.554 849.083 210.339 848.597 210.076 848.436C209.812 848.272 209.446 847.46 209.264 846.631C209.082 845.799 208.591 844.99 208.171 844.829C207.685 844.642 207.418 843.83 207.429 842.579C207.439 841.503 207.326 838.283 207.178 835.426C206.829 828.591 208.432 800.5 209.297 798.293C210.554 795.08 210.948 785.508 211.711 739.603C211.75 737.176 211.491 732.171 211.133 728.482C210.114 717.994 210.621 702.355 212.333 691.303C214.108 679.868 214.502 676.834 215.487 667.011C215.928 662.649 216.66 657.391 217.116 655.327C218.324 649.877 218.805 647.332 219.368 643.413C219.642 641.496 220.904 636.47 222.172 632.246C223.256 628.66 224.297 625.06 225.295 621.448C227.066 614.852 228.901 608.272 230.799 601.711C232.277 596.523 233.735 591.33 235.171 586.131L239.19 571.595C240.061 568.454 241.433 564.478 242.237 562.755C243.043 561.032 244.198 558.109 244.804 556.258C245.411 554.407 246.125 552.426 246.392 551.855C246.658 551.281 247.838 548.36 249.013 545.363C249.923 543.01 250.871 540.671 251.855 538.348C252.761 536.351 254.804 530.404 256.839 523.838C257.72 520.996 259.002 517.448 259.686 515.953C261.56 511.857 264.048 505.24 264.051 504.344C264.053 503.908 264.409 502.874 264.842 502.045C265.651 500.493 267.437 493.525 267.85 490.31C268.582 484.611 270.077 478.393 272.586 470.572C275.555 461.331 276.95 456.479 277.296 454.214C277.744 451.306 279.539 445.305 280.79 442.527L283.123 437.389C283.827 435.848 284.723 433.677 285.114 432.566C285.509 431.455 286.187 430.032 286.625 429.41C287.06 428.785 287.421 427.8 287.423 427.221C287.423 426.643 287.751 425.544 288.148 424.784C288.545 424.024 289.369 422.065 289.981 420.432C290.593 418.799 291.435 416.973 291.852 416.377C292.272 415.778 292.613 414.808 292.613 414.216C292.613 413.151 293.165 411.956 295.966 406.951C296.767 405.523 297.779 403.654 298.216 402.796C298.652 401.939 299.42 400.646 299.919 399.924C300.42 399.202 301.391 397.569 302.077 396.289C302.763 395.011 303.595 393.498 303.925 392.927C304.258 392.356 305.709 389.436 307.158 386.435C308.605 383.437 310.824 379.58 312.089 377.867C313.354 376.152 315.033 373.464 315.827 371.894C317.542 368.469 323.737 359.376 326.077 356.831C326.998 355.833 329.054 353.25 330.646 351.097C332.241 348.939 333.916 346.865 334.371 346.489C334.827 346.108 335.201 345.532 335.201 345.204C335.201 344.876 336.079 343.512 337.149 342.17C339.02 339.828 341.644 336.257 342.73 334.564C345.256 330.643 348.426 327.051 356.843 318.559C362.221 313.137 367.674 307.984 368.959 307.108C373.132 304.269 375.853 300.532 376.409 296.868C376.619 295.486 376.486 294.554 376.01 294.014C375.098 292.982 373.634 287.22 373.634 284.665C373.634 283.579 373.286 281.703 372.858 280.492C372.364 279.094 371.896 274.579 371.571 268.094C371.007 256.835 370.895 255.699 369.405 245.95C367.211 231.594 366.819 229.295 366.389 228.291C366.146 227.718 365.662 225.501 365.314 223.355C364.883 220.847 364.333 218.361 363.665 215.906C362.275 211.021 362.406 197.494 363.88 193.506C365.291 189.697 366.707 188.634 370.375 188.629C374.85 188.629 377.553 189.397 380.861 191.645C385.763 194.973 387.414 197.256 390.269 204.66C390.876 206.229 391.782 207.983 392.286 208.554C392.79 209.124 393.515 210.412 393.899 211.411C394.283 212.409 395.478 214.541 396.554 216.147C397.629 217.752 398.66 219.669 398.847 220.409C399.032 221.151 399.513 222.027 399.912 222.36C400.314 222.692 400.642 223.496 400.642 224.147C400.642 224.797 401.489 226.579 402.526 228.107C403.563 229.635 405.555 233.145 406.952 235.902C408.348 238.662 410.554 242.212 411.857 243.795C413.38 245.696 414.586 247.83 415.428 250.115C416.089 252.01 416.752 253.364 416.898 253.126C417.044 252.89 417.18 250.008 417.205 246.726C417.226 243.441 417.615 238.183 418.073 235.042C418.529 231.901 419.117 227.81 419.381 225.954C419.645 224.095 420.093 218.955 420.38 214.526C421.265 200.83 422.919 189.11 424.778 183.366C426.349 178.502 428.167 170.515 428.167 168.472C428.167 165.945 429.734 161.895 431.206 160.62C434.385 157.863 435.046 157.395 435.757 157.395C436.172 157.395 436.666 157.804 436.858 158.303C437.05 158.803 437.726 159.732 438.358 160.364C438.993 160.999 439.679 162.043 439.882 162.683C440.086 163.323 440.772 164.26 441.41 164.76C442.05 165.261 442.861 166.38 443.222 167.248C443.581 168.113 444.08 168.822 444.331 168.822C444.582 168.822 444.787 169.25 444.787 169.77C444.787 170.794 448.412 177.711 450.623 180.913C452.049 182.977 452.715 185.196 453.88 191.775C454.269 193.977 454.837 196.237 455.142 196.806C455.444 197.374 455.695 198.229 455.695 198.705C455.695 199.184 456.89 202.412 458.349 205.881C459.811 209.352 461.301 213.241 461.657 214.526C462.328 216.927 463.29 219.718 465.328 225.176C465.968 226.888 466.774 229.341 467.12 230.628C467.463 231.914 468.06 233.9 468.441 235.042C468.825 236.184 469.419 238.639 469.765 240.495C470.11 242.351 470.801 244.458 471.3 245.174C471.8 245.891 472.376 247.811 472.578 249.444C472.857 251.677 473.187 252.483 473.914 252.714C474.703 252.964 474.772 253.195 474.298 253.958C473.84 254.685 473.901 255.163 474.57 256.118C475.043 256.794 475.43 257.936 475.432 258.658C475.432 259.38 475.786 260.642 476.211 261.459C476.638 262.278 476.986 263.194 476.986 263.496C476.986 263.798 477.375 264.472 477.849 264.996C478.323 265.519 478.85 266.817 479.024 267.882C479.467 270.613 480.924 271.261 485.698 270.851C487.828 270.669 490.544 270.772 491.929 271.087C498.585 272.605 505.894 274.458 506.59 274.804C507.02 275.016 508.889 275.436 510.745 275.736L517.498 276.816C521.057 277.384 530.928 277.31 542.097 276.629C547.448 276.304 549.347 275.971 551.641 274.955C554.321 273.77 555.281 273.67 566.599 273.37C578.795 273.05 582.694 273.337 589.69 275.067C594.268 276.202 601.049 277.287 605.503 277.602C607.774 277.763 610.931 278.221 612.515 278.621C614.334 279.074 616.16 279.495 617.994 279.883C619.422 280.175 622.576 281.096 625.008 281.931C627.435 282.76 631.057 283.72 633.057 284.058C635.053 284.399 639.846 285.243 643.704 285.94C647.559 286.634 652.702 287.46 655.129 287.775C661.096 288.551 667.64 289.834 668.83 290.463C669.368 290.747 671.001 291.16 672.465 291.377C675.253 291.792 681.853 293.005 688.253 294.278C690.332 294.69 693.007 295.028 694.195 295.028C696.473 295.028 699.632 295.532 707.327 297.122C709.895 297.652 713.986 298.351 716.415 298.668L726.543 300.004C734.829 301.098 737.502 301.576 741.862 302.744C744.005 303.32 746.342 303.944 747.059 304.131C750.044 304.917 755.217 306.596 756.697 307.257C757.573 307.649 759.326 308.127 760.593 308.322C761.86 308.516 763.289 309.082 763.768 309.576C764.244 310.073 765.529 310.644 766.622 310.846C767.715 311.048 770.247 311.998 772.246 312.961C774.243 313.923 777.021 315.08 778.413 315.531C779.806 315.984 781.434 316.698 782.033 317.118C782.632 317.538 783.562 317.881 784.097 317.881C784.629 317.881 785.187 318.334 785.331 318.89C785.484 319.481 786.227 320.036 787.125 320.234C789.224 320.694 792.501 322.919 793.31 324.432C793.725 325.205 794.759 325.891 796.031 326.232C797.951 326.749 800.207 328.715 805.862 334.795C806.637 335.632 807.882 336.902 808.621 337.616C809.364 338.33 810.129 339.083 810.324 339.29C810.518 339.498 811.962 340.778 813.534 342.134C819.704 347.467 825.405 353.468 825.768 355.014C826.091 356.401 828.341 359.873 830.312 362.028C831.221 363.019 831.664 364.245 832.276 367.46C832.547 368.879 833.215 370.983 833.763 372.135C836.323 377.516 836.828 379.907 836.413 384.717C836.198 387.234 835.637 390.196 835.166 391.304C834.695 392.41 834.309 393.974 834.309 394.778C834.309 395.585 834.078 396.388 833.791 396.565C833.505 396.739 833.272 397.697 833.272 398.69C833.272 399.683 832.924 401.025 832.499 401.675C832.074 402.323 831.27 404.184 830.707 405.817C830.146 407.445 829.347 409.421 828.93 410.202C827.668 412.57 826.521 415.376 826.511 416.118C826.506 416.502 825.773 417.636 824.885 418.637C823.994 419.636 822.617 421.889 821.826 423.64C821.032 425.391 820.136 426.978 819.829 427.167C819.524 427.357 818.915 428.26 818.472 429.177C817.635 430.918 817.379 431.227 809.377 440.254C804.41 445.858 788.835 461.743 786.652 463.432C786.006 463.931 785.305 464.341 785.095 464.341C784.883 464.341 784.045 464.915 783.234 465.613C782.42 466.312 780.262 467.772 778.434 468.857C776.606 469.945 774.978 471.238 774.817 471.732C774.54 472.569 770.495 474.727 769.192 474.727C768.872 474.73 767.813 475.411 766.837 476.245C765.864 477.077 764.464 478.063 763.724 478.439C762.982 478.815 761.643 479.663 760.742 480.323C759.843 480.984 757.542 481.972 755.629 482.517C753.717 483.065 751.764 483.951 751.293 484.491C750.169 485.771 748.605 486.577 745.402 487.53C743.964 487.957 741.588 488.953 740.118 489.744C738.649 490.538 735.812 491.723 733.813 492.381C731.814 493.036 728.775 494.211 727.06 494.992C722.337 497.137 719.636 498.1 718.32 498.1C717.667 498.1 716.679 498.443 716.124 498.863C715.439 499.326 714.644 499.601 713.82 499.659C711.915 499.71 706.49 501.348 704.988 502.329C704.273 502.795 702.402 503.583 700.833 504.08C699.263 504.579 696.844 505.79 695.457 506.773C694.074 507.754 690.567 509.348 687.669 510.316C678.612 513.337 676.666 514.054 674.454 515.183C673.277 515.784 671.51 516.278 670.535 516.278C669.56 516.278 668.482 516.611 668.141 517.021C667.801 517.433 666.785 517.93 665.889 518.127C664.988 518.326 663.892 518.664 663.457 518.877C662.069 519.555 658.987 520.433 657.989 520.433C657.461 520.433 656.637 520.787 656.161 521.219C655.682 521.652 653.977 522.346 652.372 522.765C650.767 523.183 648.453 523.981 647.226 524.539C646.003 525.095 642.314 526.175 639.029 526.938C635.745 527.701 632.237 528.564 631.239 528.858C628.349 529.703 623.313 530.264 614.1 530.763C601.922 531.426 597.117 532.913 594.557 536.82C593.802 537.974 593.812 538.294 594.692 540.811C595.22 542.314 596.295 544.456 597.086 545.57C597.875 546.684 598.52 547.787 598.52 548.02C598.52 548.255 599.121 549.763 599.856 551.373C601.077 554.044 601.707 556.432 602.508 561.46C602.667 562.461 602.979 563.513 603.199 563.8C604.07 564.918 606.829 574.091 606.829 575.857C606.829 577.685 608.181 584.016 610.797 594.425C611.514 597.274 612.231 601.247 612.392 603.257C612.551 605.264 612.881 607.294 613.125 607.768C613.368 608.241 613.7 609.747 613.864 611.114C614.028 612.481 614.31 613.837 614.492 614.132C614.671 614.424 614.993 616.423 615.203 618.576C615.654 623.21 617.423 630.506 619.74 637.29C621.869 643.531 622.108 644.404 622.44 647.156C622.858 650.609 624.867 664.059 625.505 667.672C625.95 670.188 627.727 681.06 628.73 687.409C629.004 689.122 629.432 694.964 629.685 700.391C629.939 705.818 630.41 711.545 630.735 713.114C631.306 715.889 631.523 718.431 632.739 736.487C633.361 745.749 633.448 746.471 634.349 749.991C634.677 751.276 635.043 753.452 635.161 754.829C635.279 756.204 635.757 758.132 636.226 759.117C636.692 760.1 637.061 761.885 637.045 763.083C637.02 764.67 637.286 765.448 638.02 765.963C638.653 766.406 639.029 767.276 639.029 768.292C639.029 770.847 640.918 774.114 644.129 777.104C645.752 778.614 647.546 780.844 648.117 782.055C648.688 783.266 649.284 784.259 649.441 784.264C649.599 784.264 649.625 785.135 649.502 786.192C649.259 788.283 648.399 789.464 647.116 789.464C646.645 789.464 646.3 789.904 646.3 790.506C646.3 791.235 645.685 791.793 644.262 792.364C643.143 792.812 642.099 793.508 641.945 793.908C641.791 794.317 641.31 794.502 640.865 794.333C640.424 794.164 639.073 794.486 637.859 795.05C636.646 795.613 634.718 796.358 633.576 796.708C632.432 797.057 630.76 797.674 629.862 798.078C628.961 798.48 628.021 798.81 627.775 798.81C627.527 798.81 626.495 799.376 625.477 800.065C624.46 800.756 622.01 801.867 620.034 802.532C618.055 803.198 616.25 804.038 616.022 804.394C615.878 804.587 615.692 804.746 615.478 804.858C615.264 804.971 615.027 805.034 614.786 805.044C613.869 805.044 608.061 807.77 605.27 809.511C604.272 810.136 601.528 811.272 599.172 812.04C596.817 812.808 594.762 813.651 594.598 813.914C594.437 814.178 593.727 814.393 593.023 814.393C592.322 814.393 590.407 815.13 588.771 816.034C583.185 819.116 581.119 820.074 579.302 820.422C578.303 820.616 576.716 821.441 575.779 822.257C574.84 823.074 573.852 823.742 573.583 823.742C573.314 823.742 571.379 824.543 569.282 825.524C567.188 826.504 564.787 827.464 563.949 827.656C561.005 828.332 556.172 830.18 554.255 831.368C550.901 833.444 543.405 836.778 538.012 838.59C531.038 840.932 527.766 842.09 523.637 843.669C520.353 844.926 515.041 846.311 508.669 847.568L503.475 848.597C502.189 848.853 499.268 849.552 496.982 850.154C494.696 850.753 488.125 851.943 482.38 852.793C476.636 853.645 469.739 854.843 467.059 855.455C464.378 856.07 461.25 856.748 460.108 856.966C457.1 857.542 453.657 858.404 446.604 860.355C443.176 861.302 439.206 862.331 437.775 862.639C436.346 862.946 433.075 863.786 430.504 864.507C423.487 866.471 420.216 867.165 413.365 868.145C409.937 868.634 406.433 869.246 405.575 869.497C402.961 870.27 388.587 872.454 386.068 872.459C383.953 872.459 377.735 873.324 370.257 874.648C368.829 874.904 365.324 875.265 362.467 875.457C359.61 875.649 353.735 876.327 349.409 876.97C342.297 878.024 341.352 878.291 339.54 879.729C336.627 882.046 330.483 883.434 320.399 884.048C309.785 884.696 285.224 884.97 280.148 884.493Z" fill="black" stroke="black" style="fill:black;fill-opacity:1;stroke:black;stroke-opacity:1;" stroke-width="9.99976"/>
<path d="M301.212 869.927C303.196 869.594 308.442 869.241 312.868 869.144C317.297 869.044 323.139 868.721 325.852 868.422C328.566 868.122 335.227 867.674 340.654 867.426C346.081 867.178 352.392 866.714 354.678 866.399C362.074 865.375 367.119 864.743 368.182 864.71C369.439 864.664 378.926 863.343 383.242 862.608C389.133 861.604 392.085 861.195 397.527 860.627C400.525 860.312 403.799 859.846 404.797 859.59C405.796 859.334 409.418 858.727 412.846 858.243C416.277 857.762 422.234 856.548 426.092 855.55C429.947 854.552 435.052 853.29 437.432 852.747C439.813 852.204 442.568 851.426 443.551 851.016C445.325 850.274 448.015 849.601 455.954 847.911C458.24 847.425 461.745 846.595 463.744 846.065C465.743 845.535 468.198 844.947 469.197 844.76C470.195 844.57 473.702 843.651 476.987 842.717C484.982 840.444 489.132 839.522 495.944 838.513C501.212 837.732 505.531 836.578 509.448 834.901C512.274 833.693 520.461 831.01 521.326 831.01C521.795 831.01 523.287 830.457 524.641 829.776C526.675 828.757 528.708 827.738 530.742 826.719C532.741 825.721 536.832 824.036 539.83 822.982C546.232 820.734 548.675 819.526 551.549 817.183C552.835 816.136 555.482 814.867 558.303 813.942C564.949 811.764 567.34 810.765 569.695 809.186C572.739 807.146 574.717 806.324 581.563 804.263C584.947 803.247 588.854 801.836 590.244 801.132C591.634 800.426 593.188 799.847 593.7 799.842C594.207 799.842 595.558 799.263 596.7 798.57C597.845 797.873 600.182 796.583 601.897 795.697C606.684 793.224 608.236 792.313 611.42 790.104C613.386 788.737 616.166 787.513 619.812 786.41C622.812 785.503 626.596 784.149 628.221 783.399L631.176 782.04L629.911 780.381C628.559 778.609 627.389 773.817 627.909 772.179C628.229 771.172 626.578 764.534 626.007 764.534C625.836 764.534 625.664 763.754 625.628 762.799C625.559 761.688 625.323 760.594 624.929 759.553C623.713 756.655 622.858 751.763 622.4 745.058C622.144 741.346 621.791 737.137 621.612 735.709C621.432 734.28 621.507 732.15 621.778 730.973C622.357 728.451 621.274 719.366 619.029 707.923C617.644 700.865 617.277 696.881 617.021 686.111C616.791 676.332 616.663 675.16 615.434 671.765C614.702 669.73 614.101 667.208 614.101 666.159C614.101 665.109 613.768 662.567 613.358 660.509C612.887 658.022 612.522 655.516 612.265 652.998C612.073 650.924 611.707 649.101 611.451 648.943C611.195 648.784 610.985 648.019 610.985 647.24C610.985 646.462 610.616 644.547 610.168 642.986C609.4 640.308 608.858 637.863 608.097 633.654C607.918 632.656 607.191 630.355 606.485 628.545C605.097 624.986 604.39 621.589 603.279 613.139C602.058 603.846 601.05 598.155 600.397 596.875C599.736 595.582 598.523 591.688 596.157 583.276C594.348 576.84 587.482 559.115 585.999 557.046C582.746 552.507 582.236 540.191 585.055 534.196C586.273 531.603 593.925 523.546 595.167 523.546C595.5 523.546 596.401 522.965 597.171 522.251C597.942 521.534 599.061 520.95 599.657 520.95C600.254 520.95 601.014 520.577 601.352 520.118C601.823 519.473 602.808 519.299 605.694 519.356C607.747 519.394 609.718 519.419 610.076 519.414C614.19 519.355 631.941 517.341 632.402 516.88C632.735 516.547 633.879 516.276 634.949 516.276C636.017 516.276 637.036 516.045 637.212 515.759C637.389 515.472 638.019 515.239 638.61 515.239C639.201 515.239 640.415 514.799 641.306 514.264C642.197 513.726 644.562 513.009 646.561 512.671C648.558 512.333 650.898 511.811 651.753 511.512C652.611 511.212 654.364 510.667 655.649 510.303C656.934 509.937 658.688 509.284 659.546 508.849C662.712 507.247 666.373 505.828 669.153 505.127C672.43 504.3 677.371 502.608 678.815 501.819C679.358 501.523 680.853 500.829 682.138 500.276C685.153 498.978 687.905 497.703 688.888 497.145C691.085 495.898 692.083 495.501 693.03 495.501C693.601 495.501 696 494.705 698.36 493.73C700.721 492.755 704.404 491.595 706.547 491.155C708.769 490.694 712.184 489.45 714.501 488.249C717.663 486.611 719.073 486.168 720.888 486.237C722.842 486.311 723.689 485.991 726.177 484.24C727.805 483.093 730.017 481.839 731.087 481.452C732.157 481.068 733.033 480.582 733.033 480.372C733.033 480.162 733.56 479.832 734.203 479.635C734.845 479.44 735.721 478.995 736.149 478.644C736.579 478.296 738.332 477.469 740.045 476.808C741.76 476.145 743.383 475.408 743.654 475.167C743.985 474.903 744.391 474.749 744.814 474.727C745.18 474.727 746.808 473.851 748.431 472.781C752.297 470.229 755.845 468.115 757.384 467.449C758.296 467.019 759.169 466.512 759.995 465.933C760.75 465.396 762.473 464.346 763.822 463.609C766.364 462.214 768.673 460.921 773.545 458.164C775.117 457.276 777.743 455.908 779.387 455.125C781.03 454.342 782.374 453.53 782.374 453.318C782.374 452.506 786.903 447.806 800.228 434.786C807.575 427.61 808.599 426.389 810.197 422.933C811.177 420.813 811.978 418.945 811.978 418.781C811.978 418.617 812.797 417.485 813.796 416.264C814.794 415.046 815.613 413.786 815.613 413.469C815.613 413.151 815.964 412.757 816.392 412.591C816.822 412.427 817.173 411.751 817.173 411.088C817.173 410.422 817.505 409.547 817.912 409.142C819.269 407.783 820.805 404.888 820.805 403.679C820.805 403.021 821.151 401.821 821.573 401.007C822.592 399.033 823.913 393.25 824.369 388.772C824.673 385.77 824.568 384.787 823.767 383.125C823.235 382.019 822.671 380.33 822.515 379.37C822.362 378.41 821.911 377.357 821.519 377.032C821.128 376.707 820.808 376.141 820.808 375.773C820.808 375.115 818.181 368.845 817.173 367.094C816.886 366.6 816.653 365.827 816.653 365.379C816.653 364.099 807.06 354.548 803.034 351.821C800.801 350.311 797.985 347.684 795.761 345.043C793.764 342.672 791.864 340.726 791.537 340.716C791.212 340.716 790.27 340.017 789.445 339.178C788.623 338.338 787.174 337.396 786.227 337.084C783.421 336.157 778.043 333.441 776.87 332.36C775.631 331.213 766.815 328.592 756.147 326.196C748.776 324.544 741.417 322.834 734.072 321.066C730.504 320.216 726.413 319.389 724.984 319.227C722.988 318.989 720.997 318.713 719.012 318.398C717.156 318.104 713.999 317.64 712 317.374C708.363 316.872 704.727 316.353 701.094 315.818C697.096 315.231 692.186 314.538 690.189 314.276C678.751 312.776 671.624 311.553 668.664 310.58C666.752 309.95 664.701 309.602 663.88 309.768C663.027 309.937 662.165 309.784 661.76 309.377C660.403 308.02 658.775 307.492 655.813 307.457C650.591 307.39 647.534 306.73 645.312 305.191C643.797 304.141 642.806 303.809 641.774 304.006C640.986 304.159 639.951 304.072 639.48 303.821C639.007 303.565 637.368 303.332 635.84 303.297C632.858 303.227 629.903 302.472 628.641 301.456C628.214 301.11 626.926 300.662 625.787 300.458C624.643 300.253 623.009 299.728 622.154 299.295C621.302 298.86 619.484 298.548 618.115 298.596C616.748 298.643 615.135 298.417 614.531 298.097C613.164 297.365 600.62 294.616 595.402 293.907C592.641 293.555 589.87 293.288 587.093 293.105C580.861 292.726 514.947 293.028 513.388 293.446C512.678 293.635 511.268 293.617 510.254 293.407C509.24 293.197 506.074 292.568 503.214 292.01C500.36 291.452 496.737 290.586 495.165 290.09C493.107 289.439 490.207 289.153 484.78 289.063C478.054 288.953 477.094 289.045 475.82 289.944C474.591 290.804 474.345 290.837 474.086 290.161C473.92 289.731 473.134 289.235 472.335 289.06C470.008 288.548 468.833 286.8 467.96 282.563C467.52 280.42 466.074 276.097 464.742 272.956C463.411 269.812 462.024 266.189 461.658 264.904C461.279 263.588 460.843 262.289 460.352 261.011C460.004 260.153 459.41 258.166 459.031 256.595C458.559 254.678 458.042 252.773 457.482 250.881C456.904 248.892 456.401 246.881 455.974 244.854C455.621 243.114 455.142 241.38 454.912 241.007C454.682 240.635 454.195 239.023 453.829 237.425C452.567 231.916 452.129 230.467 450.611 226.788C449.772 224.756 448.666 221.694 448.151 219.979C447.634 218.264 446.472 215.228 445.565 213.228C444.487 210.772 443.547 208.258 442.749 205.697C442.109 203.554 441.275 200.866 440.899 199.724C440.443 198.221 440.111 196.683 439.905 195.126C439.544 192.149 438.236 188.097 437.284 187.001C436.913 186.571 436.26 185.542 435.837 184.715L435.069 183.207L433.956 186.873C433.341 188.888 432.842 191.14 432.842 191.878C432.842 192.615 432.62 194.215 432.346 195.431C431.567 198.9 430.231 211.311 430.234 215.046C430.239 218.307 429.289 226.763 428.14 233.741C427.832 235.6 427.361 241.324 427.09 246.467C426.816 251.608 426.455 256.95 426.284 258.34C426.089 259.953 426.214 261.31 426.637 262.099C427.174 263.102 427.167 264.175 426.604 267.807C426.092 271.102 426.058 272.523 426.478 273.199C426.954 273.962 426.678 274.479 424.812 276.312C423.255 277.84 422.479 279.092 422.264 280.423C421.824 283.188 418.903 285.901 416.445 285.832C414.372 285.773 413.589 285.305 414.561 284.706C415.048 284.404 414.968 284.086 414.236 283.426C413.704 282.939 412.861 281.089 412.367 279.309L410.614 272.956C410.143 271.24 409.226 268.732 408.576 267.375C407.926 266.018 407.393 264.779 407.393 264.618C407.393 264.346 407.009 263.471 403.994 256.856C403.034 254.694 402.117 252.513 401.244 250.315C400.384 248.147 398.984 245.343 398.136 244.084C397.212 242.691 396.394 241.231 395.689 239.716L394.222 236.337C393.915 235.626 393.027 234.084 392.248 232.915C391.47 231.745 390.671 230.106 390.474 229.279C390.07 227.592 388.774 225.035 387.786 223.978C387.43 223.594 387.139 222.92 387.139 222.477C387.139 222.037 386.496 220.916 385.71 219.994C382.848 216.623 382.482 216.075 382.131 214.664C381.937 213.873 381.348 212.924 380.823 212.55C380.296 212.176 379.868 211.533 379.868 211.121C379.868 210.709 379.553 210.371 379.169 210.371C378.785 210.371 377.487 209.204 376.282 207.775C375.078 206.347 373.788 205.177 373.417 205.177C372.429 205.177 372.444 211.034 373.443 214.526C375.585 222.009 376.399 225.439 376.776 228.55C376.998 230.406 377.789 235.782 378.534 240.495C380.493 252.89 380.869 256.298 381.42 266.722C381.693 271.865 382.157 276.888 382.454 277.889C382.751 278.887 383.212 281.575 383.478 283.861C383.741 286.147 384.343 288.784 384.817 289.723C385.29 290.663 385.533 291.802 385.359 292.258C385.28 292.516 385.264 292.79 385.311 293.056C385.358 293.322 385.468 293.573 385.631 293.789C385.953 294.18 386.34 296.008 386.488 297.852C386.726 300.831 386.616 301.379 385.518 302.756C384.84 303.606 383.698 305.173 382.984 306.233C381.256 308.803 376.207 314.246 375.555 314.246C374.431 314.246 371.08 318.69 370.755 320.612C370.511 322.061 369.93 322.937 368.525 323.974C366.262 325.643 363.832 328.09 360.65 331.907C357.348 335.87 356.6 336.577 355.717 336.577C355.287 336.577 354.939 336.825 354.939 337.13C354.939 337.434 353.651 338.988 352.082 340.586C350.51 342.183 349.225 343.652 349.225 343.852C349.225 344.052 348.641 344.845 347.927 345.619C347.21 346.387 346.627 347.103 346.627 347.206C346.627 347.306 345.398 348.673 343.89 350.239C342.385 351.806 340.616 354.164 339.958 355.48C339.302 356.795 338.488 357.871 338.153 357.871C337.326 357.871 332.48 363.528 329.539 367.932C326.881 371.967 324.456 376.15 322.276 380.463C321.708 381.604 320.41 383.345 319.393 384.328C318.374 385.314 317.542 386.333 317.542 386.591C317.542 387.428 310.584 401.158 308.844 403.756C307.917 405.141 307.154 406.5 307.154 406.777C307.154 407.053 306.573 408.047 305.859 408.981C305.142 409.918 304.558 410.85 304.558 411.057C304.558 411.262 303.995 412.644 303.309 414.124L300.449 420.299C299.321 422.844 298.319 425.444 297.449 428.089C296.681 430.459 295.675 432.984 295.206 433.695C294.741 434.412 293.929 436.166 293.407 437.592C292.57 439.758 291.662 441.896 290.683 444.002C288.993 447.635 286.902 454.618 286.902 456.61C286.902 457.124 285.484 462.052 283.753 467.564C282.02 473.076 280.143 479.571 279.585 481.997L278.06 488.628C277.781 489.846 277.553 491.564 277.553 492.442C277.553 495.064 272.653 510.713 270.008 516.532C267.994 520.971 267.167 523.126 267.167 523.923C267.167 524.345 266.854 525.425 266.476 526.326C265.943 527.638 265.443 528.963 264.978 530.299C262.034 538.76 259.428 545.659 257.805 549.256C257.032 550.971 255.77 554.243 254.999 556.527C254.229 558.813 253.292 561.383 252.915 562.241C250.662 567.386 247.429 576.876 247.429 578.335C247.429 578.824 246.866 581.131 246.175 583.458C243.154 593.639 241.183 600.725 241.188 601.373C241.193 601.757 240.87 602.812 240.471 603.71C240.074 604.611 239.104 607.801 238.321 610.801C237.535 613.799 236.37 618.123 235.73 620.409C235.09 622.695 233.928 626.901 233.149 629.758C232.371 632.615 231.293 636.235 230.756 637.807C230.216 639.379 229.517 642.299 229.205 644.299L228.234 650.532C227.892 652.554 227.478 654.562 226.993 656.554C226.529 658.438 225.797 663.463 225.365 667.72C224.343 677.771 222.999 687.939 221.176 699.416C220.257 705.194 220.196 719.844 221.056 728.177C221.722 734.641 221.722 736.976 221.02 770.504C220.739 783.865 220.311 793.882 219.95 795.434C219.617 796.862 219.116 800.369 218.834 803.226C218.56 806.001 218.239 808.772 217.871 811.536C217.354 815.146 217.569 830.216 218.207 835.165C218.447 837.023 218.924 839.051 219.269 839.67C219.615 840.292 220.147 841.962 220.452 843.382C221.153 846.657 221.286 846.774 233.277 854.741C241.923 860.483 243.364 861.318 245.64 861.896C246.83 862.198 248.154 862.733 248.579 863.087C249.004 863.443 250.842 863.885 252.659 864.077C254.682 864.287 256.346 864.774 256.934 865.324C257.469 865.821 258.762 866.348 259.809 866.491C265.685 867.306 271.242 868.337 272.522 868.854C273.326 869.179 276.833 869.461 280.312 869.482C283.794 869.499 287.055 869.681 287.562 869.881C289.19 870.526 297.495 870.554 301.212 869.927Z" fill="black" stroke="black" style="fill:black;fill-opacity:1;stroke:black;stroke-opacity:1;" stroke-width="9.99976"/>
<path d="M280.583 868.634C274.306 868.309 261.563 866.054 256.443 864.362C254.476 863.712 250.603 862.467 247.833 861.597C245.027 860.714 238.315 857.015 232.665 853.234C223.262 846.941 222.412 846.132 220.856 841.982C218.288 835.144 217.838 817.219 219.878 803.093C221.25 793.603 221.516 784.976 221.644 745.877C221.767 709.182 222.08 698.018 223.193 690.894C223.961 685.978 225.036 677.93 225.584 673.015C227.788 653.262 231.58 636.99 243.814 594.786C245.223 589.886 246.573 584.969 247.861 580.035C248.878 576.101 251.957 567.049 254.709 559.919C257.796 551.899 260.813 543.852 263.762 535.781C265.989 529.637 269.34 520.582 271.209 515.667C275.061 505.527 277.593 496.864 279.178 488.398C279.777 485.203 281.999 476.553 284.119 469.177C286.236 461.802 288.268 454.357 288.635 452.64C289.001 450.917 290.88 445.889 292.812 441.463C294.745 437.036 297.364 430.601 298.634 427.157C301.365 419.749 304.975 412.276 311.229 401.086C313.746 396.581 316.426 391.41 317.186 389.594C317.944 387.777 319.603 385.027 320.87 383.481C322.137 381.935 325.258 377.166 327.805 372.885C330.352 368.605 334.318 362.973 336.619 360.367C340.417 356.003 344.163 351.594 347.858 347.142C351.739 342.473 358.558 334.997 363.013 330.53C367.467 326.066 371.363 321.614 371.673 320.638C371.98 319.66 375.15 315.854 378.708 312.175C382.269 308.499 385.763 304.382 386.475 303.028C387.837 300.435 387.76 299.721 384.366 283.221C383.659 279.778 382.635 271.374 382.09 264.544C380.892 249.488 378.045 229.298 375.831 220.192C372.577 206.787 372.738 204.911 376.778 209.294C385.39 218.64 405.015 257.831 411.223 278.081C413.731 286.258 413.79 286.35 416.614 286.35C418.636 286.35 420.014 285.661 421.324 283.994C422.346 282.699 423.178 281.23 423.178 280.725C423.178 280.224 424.112 278.57 425.254 277.047C427.046 274.661 427.32 273.294 427.251 267.129C427.148 257.934 428.172 241.946 429.913 225.555L432.143 204.547C432.611 200.121 433.449 193.964 434.004 190.864C434.892 185.875 435.143 185.417 436.165 186.873C436.8 187.782 438.359 192.638 439.631 197.666C440.901 202.694 442.9 209.117 444.07 211.936C448.294 222.112 451.742 232.51 455.331 245.889C457.341 253.385 460.247 263.041 461.785 267.347C463.507 272.165 465.214 276.989 466.905 281.818C468.761 287.148 469.772 288.766 471.997 289.998C473.776 290.983 475.22 291.25 476.019 290.743C478.366 289.258 490.081 289.923 500.247 292.122C510.351 294.306 510.594 294.316 545.689 293.786C569.822 293.423 583.925 293.582 590.315 294.288C601.003 295.471 617.211 298.853 627.015 301.948C630.702 303.113 635.809 304.316 638.361 304.62C640.916 304.922 644.334 305.716 645.962 306.382C647.587 307.047 651.297 307.877 654.205 308.227C657.111 308.578 660.126 309.21 660.907 309.635C663.109 310.828 679.787 313.719 704.796 317.241C725.184 320.114 756.085 326.465 769.612 330.563C778.063 333.123 788.774 339.477 795.479 345.911C799.579 349.821 803.76 353.646 808.018 357.385C813.112 361.808 814.666 363.849 817.19 369.452C823.677 383.858 824.01 384.976 823.339 390.035C822.156 398.964 819.589 405.259 812.037 417.77C810.551 420.228 809.076 422.693 807.61 425.163C806.809 426.525 800.373 433.47 793.305 440.597C781.97 452.03 779.456 454.096 771.929 458.154C766.115 461.323 760.361 464.603 754.672 467.992C749.872 470.874 743.024 474.61 739.45 476.286C735.308 478.252 731.205 480.301 727.145 482.43C723.95 484.128 719.726 485.935 717.757 486.45C710.789 488.267 690.841 495.402 684.132 498.476C680.389 500.192 673.968 502.682 669.865 504.011C665.758 505.34 661.289 507.001 659.932 507.705C658.57 508.407 653.726 510.014 649.164 511.274C644.904 512.45 640.65 513.65 636.403 514.876C631.119 516.422 613.44 518.723 606.451 518.775C600.261 518.821 594.132 522.136 588.352 528.567C580.979 536.766 580.418 546.743 586.56 560.487C593.917 576.948 600.355 598.224 602.485 613.113C603.33 619.014 604.577 625.427 605.255 627.362C607.296 633.173 611.143 650.768 612.306 659.603C612.631 662.06 613.657 667.59 614.592 671.886C615.575 676.422 616.286 683.191 616.286 688.026C616.286 692.737 617.257 702.153 618.519 709.715C619.747 717.065 620.751 726.155 620.754 729.913C620.761 740.806 622.435 754.241 624.816 762.451C626.025 766.624 627.015 771.462 627.015 773.203C627.015 774.938 627.617 777.527 628.354 778.947C629.926 781.991 630 781.927 621.509 784.815C617.991 786.01 613.667 787.861 611.901 788.931C599.925 796.166 582.973 803.987 579.269 803.987C578.557 803.987 575.26 805.402 571.945 807.13C568.629 808.858 563.177 811.26 559.833 812.468C556.487 813.674 552.215 815.676 550.341 816.917C548.464 818.159 543.326 820.627 538.923 822.403C534.52 824.178 529.472 826.369 527.703 827.27C521.861 830.252 502.901 836.227 493.757 837.971C488.814 838.91 481.874 840.492 478.336 841.483C474.798 842.474 466.068 844.678 458.938 846.38C451.809 848.08 439.738 851.07 432.12 853.021C424.496 854.972 412.628 857.417 405.744 858.456C360.169 865.317 357.112 865.644 312.765 868.361C299.102 869.195 292.482 869.251 280.583 868.634Z" fill="#808080" style="fill:#808080;fill:color(display-p3 0.5020 0.5020 0.5020);fill-opacity:1;"/>
<path d="M595.852 443.276C594.359 442.787 592.852 442.101 592.503 441.753C592.153 441.402 591.344 441.116 590.704 441.116C590.064 441.116 589.396 440.883 589.219 440.596C589.04 440.312 588.495 440.076 588 440.076C587.509 440.076 585.886 438.842 584.396 437.334L581.687 434.59V431.088C581.687 427.745 581.752 427.563 583.116 427.046C583.902 426.749 585.128 425.953 585.842 425.274C588.469 422.781 591.561 422.658 594.229 424.941C594.746 425.384 597.045 426.129 599.336 426.6C605.539 427.875 616.34 426.805 618.045 424.752C618.411 424.314 619.545 423.976 620.661 423.976C622.159 423.976 622.857 423.669 623.582 422.681C624.235 421.795 625.312 421.245 627.012 420.93C628.61 420.633 629.936 419.988 630.75 419.107C631.446 418.357 632.212 417.745 632.452 417.745C632.693 417.745 633.894 416.808 635.117 415.667C636.346 414.525 637.636 413.59 637.992 413.59C638.345 413.59 639.185 413.004 639.856 412.29C640.527 411.576 641.604 410.992 642.247 410.992C643.066 410.992 643.468 410.641 643.586 409.825C643.721 408.865 644.126 408.627 645.833 408.501C647.636 408.368 648.155 408.596 649.707 410.196C651.499 412.044 651.499 412.049 651.634 417.548C651.711 420.694 652.024 423.359 652.361 423.764C652.82 424.317 652.679 424.703 651.727 425.502L647.963 428.661C645.798 430.484 638.543 434.365 637.298 434.365C637.076 434.365 635.865 434.902 634.61 435.56C633.353 436.221 631.508 437.076 630.507 437.465C629.508 437.852 628.338 438.453 627.911 438.796C626.772 439.715 613.196 443.271 608.954 443.763C603.337 444.415 598.827 444.249 595.852 443.276ZM462.235 420.077C460.948 419.66 459.176 419.45 458.295 419.612C457.062 419.837 456.155 419.54 454.322 418.303C451.268 416.243 444.057 408.898 444.057 407.851C444.057 406.922 443.066 405.798 442.249 405.798C441.942 405.798 440.56 407.295 439.177 409.126C437.124 411.845 436.354 412.487 434.948 412.651C434.001 412.761 432.88 412.725 432.452 412.572C428.518 411.148 427.629 401.41 431.101 397.716L432.15 396.6L430.701 395.056C429.081 393.328 424.77 391.644 423.065 392.071C422.363 392.248 421.488 391.953 420.717 391.285C420.041 390.696 419.212 390.218 418.877 390.218C418.08 390.218 416.368 388.249 415.605 386.46C415.103 385.282 415.19 384.529 416.107 382.046C418.142 376.532 420.743 375.262 426.449 376.99C429.111 377.794 430.046 378.449 432.99 381.57L436.42 385.21L437.659 383.69C438.337 382.857 438.961 381.982 439.528 381.071C439.876 380.469 440.916 378.949 441.837 377.694C447.011 370.662 448.749 368.468 451.422 365.601C453.356 363.489 455.199 361.295 456.946 359.027C460.187 354.739 464.401 350.922 466.377 350.489C467.353 350.24 468.274 349.81 469.091 349.222C469.746 348.71 470.868 348.111 471.582 347.891C472.498 347.57 473.371 347.135 474.178 346.595C477.05 344.609 485.204 343.531 488.98 344.642C492.487 345.671 500.146 350.94 500.146 352.322C500.146 352.527 500.804 352.97 501.606 353.302C502.409 353.635 504.66 355.473 506.605 357.391C508.551 359.306 510.868 361.223 511.753 361.653C512.639 362.081 514.216 363.717 515.261 365.288C516.303 366.858 518.1 368.898 519.254 369.82C521.479 371.599 522.91 374.796 523.038 378.273C523.115 380.397 521.707 385.835 520.662 387.43C520.265 388.039 519.933 388.973 519.927 389.509C519.902 391.633 519.211 393.853 518.573 393.853C518.205 393.853 517.063 395.02 516.039 396.449C515.012 397.877 513.94 399.047 513.65 399.047C513.366 399.047 513.131 399.365 513.131 399.751C513.131 400.14 511.825 401.323 510.233 402.38C507.176 404.41 505.187 406.049 502.537 408.719C500.379 410.895 493.639 414.23 491.058 414.405C488.887 414.55 483.883 416.115 479.892 417.891C477.69 418.872 471.287 420.198 466.649 420.638C465.504 420.746 463.518 420.492 462.233 420.075L462.235 420.077Z" fill="black" stroke="black" style="fill:black;fill-opacity:1;stroke:black;stroke-opacity:1;" stroke-width="0.191633"/>
<path d="M470.805 407.357C472.755 406.33 474.524 405.798 475.986 405.798C478.713 405.798 479.749 404.835 478.754 403.222C478.38 402.618 477.55 401.994 476.91 401.83C475.51 401.471 472.745 398.433 471.824 396.228C471.455 395.35 470.549 394.065 469.811 393.374C468.915 392.534 468.467 391.567 468.467 390.481C468.467 389.58 468.135 387.809 467.725 386.544C466.614 383.098 465.703 372.799 466.396 371.507C467.228 369.95 466.425 369.059 465.406 370.406C464.947 371.015 463.754 371.949 462.754 372.479C461.755 373.014 460.7 373.913 460.411 374.479C460.122 375.047 458.133 377.438 455.995 379.798C453.858 382.154 451.95 384.499 451.758 385.005C451.569 385.512 450.099 388.2 448.494 390.98C445.374 396.382 445.404 396.049 447.821 398.748C448.323 399.306 448.732 400.068 448.732 400.442C448.732 400.819 448.988 401.126 449.306 401.126C449.621 401.126 450.573 401.709 451.423 402.424C452.27 403.138 453.317 403.722 453.742 403.722C454.587 403.722 456.003 404.932 456.003 405.657C456.003 406.435 462.531 408.286 467.246 408.844C467.574 408.883 469.174 408.214 470.805 407.357ZM496.738 397.411C497.459 397.081 498.184 396.392 498.348 395.878C498.509 395.366 499.507 394.419 500.565 393.771C501.622 393.126 502.564 392.409 502.664 392.173C502.761 391.94 503.78 390.561 504.927 389.109C506.258 387.422 507.111 385.74 507.285 384.45C507.525 382.65 507.336 382.192 505.523 380.223C504.407 379.007 503.178 377.195 502.792 376.194C501.215 372.093 500.923 371.573 500.066 371.348C499.571 371.22 498.965 370.329 498.719 369.369C498.432 368.253 497.769 367.382 496.873 366.947C496.105 366.576 495.473 365.933 495.473 365.519C495.473 365.004 494.889 364.769 493.609 364.769C492.529 364.769 491.185 364.333 490.422 363.729C489.695 363.158 488.666 362.692 488.133 362.692C487.337 362.692 487.168 363.084 487.181 364.899C487.191 366.113 487.534 367.551 487.946 368.097C488.725 369.126 489.943 372.856 491.098 377.753C492.442 383.452 492.939 385.254 493.307 385.784C493.747 386.416 493.648 391.39 493.118 395.281C492.752 397.962 492.767 398.008 494.085 398.008C494.823 398.008 496.016 397.739 496.738 397.411ZM626.189 387.763C625.567 387.412 624.121 386.882 622.979 386.585C621.556 386.185 620.166 385.673 618.824 385.054C617.506 384.429 616.178 383.825 614.841 383.242C612.531 382.243 605.174 374.512 603.018 370.813C602.246 369.485 601.464 368.162 600.674 366.845C599.624 365.127 597.269 359.779 597.269 359.126C597.269 358.842 596.178 357.718 594.844 356.625C593.323 355.365 591.851 354.047 590.431 352.673C588.537 350.796 588.439 350.543 588.439 347.386C588.439 345.062 588.196 343.825 587.623 343.252C587.175 342.804 587.054 342.435 587.354 342.435C587.656 342.435 588.037 341.795 588.206 341.009C588.762 338.413 590.144 334.924 591.117 333.667C591.737 332.868 592.074 331.568 592.074 329.999C592.074 327.997 592.341 327.316 593.575 326.133C594.435 325.309 595.469 323.435 595.996 321.75C597.261 317.698 598.551 315.857 603.63 310.85C609.211 305.341 615.537 301.926 620.147 301.926C621.888 301.926 623.442 302.23 624.046 302.689C624.602 303.108 625.567 303.457 626.194 303.467C626.819 303.485 627.474 303.718 627.653 304.004C627.827 304.289 628.647 304.522 629.471 304.522C630.293 304.522 631.094 304.732 631.253 304.982C631.409 305.238 632.151 305.602 632.904 305.789C634.361 306.155 635.702 307.245 635.702 308.062C635.702 308.336 636.488 308.932 637.448 309.388C638.408 309.844 639.488 310.571 639.849 311.006C640.208 311.441 640.786 311.795 641.134 311.795C641.803 311.795 647.207 317.419 650.245 321.277C651.244 322.547 653.64 324.963 655.568 326.648C657.495 328.332 659.075 330.073 659.075 330.516C659.075 330.959 659.313 331.56 659.605 331.855C659.899 332.147 660.373 334.474 660.662 337.021C661.148 341.322 661.622 343.446 662.777 346.485C663.473 348.321 663.34 357.181 662.603 357.916C661.86 358.658 660.688 362.874 660.657 364.92C660.642 365.718 660.176 366.86 659.62 367.457C659.062 368.056 658.248 369.3 657.81 370.221C657.375 371.143 656.645 372.205 656.192 372.579C655.739 372.956 655.004 373.982 654.556 374.858C654.111 375.736 652.255 377.937 650.435 379.752C648.617 381.565 647.127 383.252 647.127 383.503C647.127 384.135 644.288 385.543 643.018 385.543C642.442 385.543 641.736 385.983 641.447 386.521C641.16 387.059 640.51 387.688 640 387.919C638.485 388.607 627.472 388.482 626.189 387.763Z" fill="black" stroke="black" style="fill:black;fill-opacity:1;stroke:black;stroke-opacity:1;" stroke-width="0.191633"/>
<path d="M636.222 369.486C636.222 368.938 636.862 368.026 637.643 367.456L639.066 366.419L637.387 365.464C636.465 364.939 635.707 364.145 635.705 363.703C635.702 362.571 634.497 360.103 633.946 360.098C633.693 360.098 633.109 360.513 632.648 361.025C632.187 361.537 631.033 362.323 630.086 362.768C628.667 363.439 628.045 363.475 626.573 362.968C624.185 362.149 621.679 359.681 621.679 358.15C621.679 357.472 620.696 355.006 619.492 352.669C617.229 348.273 617.291 348.588 616.41 337.242C616.374 336.812 616.469 334.012 616.615 331.016C616.879 325.633 616.866 325.556 615.514 324.394C614.764 323.749 613.878 323.219 613.548 323.219C612.109 323.219 608.838 325.556 607.496 327.545C606.602 328.866 605.693 330.176 604.767 331.475C604.071 332.448 603.503 333.758 603.503 334.391C603.503 335.023 602.801 336.423 601.944 337.501C600.472 339.352 599.837 341.917 600.848 341.917C601.104 341.917 601.462 342.524 601.652 343.269C602.1 345.061 605.382 349.423 608.369 352.203C609.69 353.432 610.773 354.886 610.773 355.431C610.773 356.727 616.81 362.786 618.824 363.513C619.943 363.918 620.427 364.465 620.545 365.459C620.673 366.526 620.995 366.846 621.942 366.846C622.621 366.846 623.312 367.064 623.478 367.333C624.449 368.902 629.021 370.353 633.235 370.43C635.851 370.474 636.222 370.356 636.222 369.486ZM649.014 359.706C649.69 358.918 650.243 357.973 650.243 357.607C650.243 357.236 650.719 356.425 651.3 355.802C652.583 354.423 652.442 353.253 650.906 352.577C650.274 352.298 649.613 351.425 649.442 350.631C649.268 349.84 648.843 349.018 648.497 348.801C647.581 348.227 644.012 342.644 644.012 341.786C644.012 341.382 643.851 340.89 643.654 340.691C643.454 340.494 643.218 339.81 643.124 339.175C642.758 336.677 641.885 334.869 640.81 334.378C639.796 333.917 639.325 333.292 638.347 331.101C637.896 330.087 636.99 330.581 637.082 331.787C637.192 333.195 639.371 341.433 639.929 342.557C640.175 343.054 640.377 343.773 640.377 344.157C640.377 344.541 640.961 346.292 641.675 348.048C642.392 349.807 642.973 352.037 642.973 353.009C642.973 353.98 643.321 355.063 643.746 355.416C644.173 355.767 644.396 356.258 644.245 356.501C644.091 356.747 644.565 357.466 645.295 358.099C646.16 358.851 646.513 359.576 646.319 360.19C645.848 361.67 647.594 361.358 649.014 359.706Z" fill="black" stroke="black" style="fill:black;fill-opacity:1;stroke:black;stroke-opacity:1;" stroke-width="0.191633"/>
<path d="M461.147 407.161C458.078 406.37 457.01 405.871 455.94 404.724C455.198 403.93 454.335 403.283 454.02 403.283C452.349 403.283 447.659 398.752 446.535 396.048C446.453 395.854 447.751 393.227 449.42 390.211C452.794 384.119 460.216 374.898 463.838 372.302L465.904 370.822L465.97 375.765C466.006 378.484 466.37 382.217 466.779 384.062C467.189 385.906 467.675 388.471 467.867 389.761C468.098 391.343 468.651 392.654 469.557 393.785C470.299 394.707 471.249 396.128 471.672 396.942C472.772 399.072 475.314 401.752 476.827 402.379C478.251 402.968 478.919 404.082 478.251 404.75C478.018 404.983 476.853 405.277 475.665 405.405C474.475 405.533 472.217 406.214 470.648 406.921C467.256 408.441 466.224 408.467 461.15 407.161H461.147ZM493.703 392.047C493.918 386.581 493.897 386.435 491.86 378.768C490.723 374.506 489.3 369.834 488.69 368.39C487.738 366.127 487.203 363.052 487.761 363.052C487.861 363.052 489.016 363.554 490.334 364.166C491.647 364.78 493.15 365.282 493.667 365.285C494.886 365.292 497.768 368.011 498.365 369.716C498.618 370.446 499.284 371.339 499.842 371.705C500.405 372.074 501.301 373.554 501.846 375.01C502.389 376.462 503.725 378.738 504.818 380.071C506.242 381.807 506.805 382.892 506.805 383.911C506.805 385.76 502.863 391.709 500.784 392.994C499.947 393.511 498.695 394.635 498.004 395.493C497.126 396.583 496.258 397.131 495.116 397.313L493.485 397.574L493.703 392.047ZM627.65 369.117C626.626 368.797 625.218 368.131 624.521 367.64C623.823 367.148 622.819 366.613 622.294 366.45C621.767 366.286 621.096 365.571 620.802 364.862C620.507 364.156 619.696 363.339 618.994 363.05C617.433 362.402 611.558 356.635 611.148 355.347C610.984 354.835 609.254 352.6 607.298 350.386C605.342 348.171 603.227 345.337 602.598 344.088C601.968 342.841 601.272 341.702 601.049 341.559C600.547 341.239 601.261 339.265 602.516 337.501C603.023 336.789 603.629 335.512 603.865 334.665C604.587 332.041 608.539 326.603 610.818 325.095C613.25 323.485 613.498 323.457 614.98 324.594L616.099 325.454L616.15 334.083C616.219 344.992 616.639 347.662 619.151 353.122C620.246 355.511 621.263 357.986 621.406 358.626C621.713 359.973 623.567 361.952 625.43 362.917C627.519 363.997 629.606 363.762 631.83 362.195C632.918 361.427 633.993 360.912 634.219 361.05C634.441 361.189 634.843 362.108 635.107 363.093C635.437 364.312 636.024 365.146 636.958 365.712C638.289 366.524 638.302 366.557 637.385 367.046C636.871 367.322 636.323 368.044 636.172 368.654C635.908 369.703 635.737 369.754 632.701 369.729C630.944 369.714 628.671 369.437 627.65 369.114V369.117ZM646.719 359.824C646.719 359.218 646.294 358.339 645.772 357.871C644.653 356.86 644.213 355.828 643.135 351.655C642.335 348.732 641.474 345.826 640.555 342.939C639.582 339.867 638.476 335.993 638.102 334.332C637.403 331.244 637.698 330.305 638.648 332.591C638.937 333.295 639.759 334.301 640.473 334.828C641.305 335.445 641.94 336.464 642.247 337.685C643.11 341.1 644.909 344.899 646.95 347.623C648.05 349.093 648.954 350.526 648.954 350.81C648.954 351.092 649.584 351.939 650.352 352.692C651.181 353.504 651.632 354.3 651.453 354.645C649.986 357.513 648.493 359.75 647.687 360.285C646.783 360.884 646.719 360.856 646.719 359.824Z" fill="white" style="fill:white;fill-opacity:1;"/>
</svg>
