<svg width="1024" height="1024" viewBox="0 0 1024 1024" fill="none" xmlns="http://www.w3.org/2000/svg">
<path d="M298.393 602.204L238.715 472.732C238.715 472.732 216.967 445.783 252.948 435.162C275.056 428.66 351.352 459.149 399.327 446.216C429.672 438.052 453.081 431.694 454.164 430.972C456.982 429.021 460.811 391.451 460.811 391.451L438.053 378.952C438.053 378.952 468.542 307.785 472.66 300.488C472.949 300.271 473.094 300.127 473.094 299.982C473.094 299.766 472.949 299.982 472.66 300.488C468.542 303.884 437.619 317.539 415.727 327.004C403.156 332.423 393.547 336.541 393.547 336.541C393.547 336.541 348.101 251.792 396.437 189.223C408.502 194.281 421.146 199.627 432.634 204.54C456.187 214.655 475.045 222.892 475.045 222.892L440.076 150.063L437.186 143.922C437.186 143.922 468.759 122.681 512.976 122.97C557.193 122.753 588.694 143.922 588.694 143.922L585.804 150.063L550.835 222.892C550.835 222.892 569.692 214.583 593.318 204.468C604.806 199.555 617.377 194.208 629.515 189.151C677.85 251.719 632.333 336.469 632.333 336.469C632.333 336.469 622.724 332.423 610.224 326.932C588.26 317.467 557.337 303.739 553.291 300.416C553.002 299.91 552.858 299.693 552.858 299.91C552.858 300.055 553.002 300.199 553.291 300.416C557.41 307.641 587.899 378.879 587.899 378.879L565.14 391.379C565.14 391.379 568.897 428.949 571.715 430.899C572.799 431.622 596.208 437.98 626.625 446.144C674.671 459.005 748.366 428.587 770.403 435.09C806.383 445.711 784.636 472.66 784.636 472.66L727.558 602.132L709.279 645.627L691.144 694.106L668.097 755.808H358.072L335.024 694.106L316.889 645.627L298.61 602.132L298.393 602.204Z" fill="#5F5955" style="fill:#5F5955;fill:color(display-p3 0.3725 0.3490 0.3333);fill-opacity:1;"/>
<path opacity="0.25" d="M233.078 439.857C233.078 439.857 310.097 608.995 363.273 743.741C365.585 749.521 386.248 751.905 383.214 743.741C338.997 622.506 253.742 428.514 253.742 428.514L233.006 439.857H233.078ZM384.297 275.344C384.297 275.344 391.089 212.559 420.278 193.485C421.073 192.979 399.687 189.511 398.892 190.595C386.898 206.49 384.297 223.541 384.297 223.541V275.272V275.344ZM597.146 143.271C597.146 143.271 504.738 88.5054 451.49 175.639C449.178 179.396 455.03 181.491 443.976 164.729C394.34 89.8059 576.41 135.901 576.41 135.901L597.146 143.199V143.271Z" fill="white" style="fill:white;fill-opacity:1;"/>
<path opacity="0.18" fill-rule="evenodd" clip-rule="evenodd" d="M682.619 701.331C667.808 717.009 666.074 715.853 644.182 716.504C575.4 712.819 506.184 716.504 506.184 716.504L410.164 709.134C650.395 697.141 660.944 676.622 709.424 639.196L682.547 701.331H682.619ZM479.885 443.254C568.247 421.073 566.513 432.633 578.001 391.378L581.108 436.246C578.073 457.27 541.515 470.637 516.083 463.99C505.101 461.1 479.885 443.182 479.885 443.182V443.254ZM471.215 383.359C559.577 361.178 557.843 372.738 569.331 331.483L586.599 364.212C583.564 385.237 530.677 402.216 505.245 395.569C494.263 392.679 471.288 383.359 471.288 383.359H471.215ZM576.556 298.031C614.343 303.017 640.642 303.595 652.129 262.34L645.266 295.069C642.231 316.094 636.379 319.851 610.947 313.276C599.965 310.386 576.484 298.031 576.484 298.031H576.556Z" fill="black" style="fill:black;fill-opacity:1;"/>
<path opacity="0.18" fill-rule="evenodd" clip-rule="evenodd" d="M480.246 395.063C568.897 374.617 566.513 382.636 580.24 353.52L580.746 384.37C576.555 399.037 526.269 410.814 506.979 408.357C496.286 406.985 480.174 395.136 480.174 395.136L480.246 395.063Z" fill="black" style="fill:black;fill-opacity:1;"/>
<path d="M473.528 293.842C469.409 301.139 438.92 372.305 438.92 372.305L461.679 384.804C461.679 384.804 457.849 422.374 455.031 424.325C453.948 425.048 430.539 431.406 400.194 439.57C352.22 452.503 275.924 422.013 253.815 428.516C217.835 439.137 239.582 466.086 239.582 466.086L299.26 595.558L299.477 595.486L317.756 638.98L335.891 687.46L358.939 749.162H668.964L692.012 687.46L710.146 638.98L728.426 595.486L785.503 466.014C785.503 466.014 807.251 439.064 771.27 428.443C749.234 421.941 675.539 452.358 627.492 439.498C597.075 431.334 573.666 424.975 572.582 424.253C569.765 422.302 566.008 384.732 566.008 384.732L588.766 372.233C588.766 372.233 558.277 300.994 554.159 293.769M473.528 293.842C473.817 293.625 473.961 293.48 473.961 293.336C473.961 293.119 473.817 293.336 473.528 293.842ZM473.528 293.842C469.409 297.237 438.486 310.893 416.594 320.357C404.023 325.776 394.414 329.894 394.414 329.894C394.414 329.894 348.968 245.145 397.304 182.577C409.369 187.634 422.013 192.981 433.501 197.894C457.054 208.009 475.912 216.245 475.912 216.245L440.943 143.417L438.053 137.276C438.053 137.276 469.626 116.034 513.843 116.323C558.06 116.106 589.561 137.276 589.561 137.276L586.671 143.417L551.702 216.245C551.702 216.245 570.559 207.936 594.185 197.821C605.673 192.908 618.244 187.562 630.382 182.504C678.718 245.073 633.2 329.822 633.2 329.822C633.2 329.822 623.591 325.776 611.092 320.285C589.128 310.82 558.205 297.093 554.159 293.769M554.159 293.769C553.87 293.264 553.725 293.047 553.725 293.264C553.725 293.408 553.87 293.553 554.159 293.769Z" stroke="#1E1E1E" style="stroke:#1E1E1E;stroke:color(display-p3 0.1176 0.1176 0.1176);stroke-opacity:1;" stroke-width="3.06" stroke-linejoin="round"/>
<path d="M473.528 293.914L440.87 364.285L437.98 370.427C437.98 370.427 469.554 391.668 513.771 391.379C557.988 391.596 589.489 370.427 589.489 370.427L586.599 364.285L553.581 293.408M455.031 424.398C455.031 424.398 508.93 463.774 572.438 424.398" stroke="#1E1E1E" style="stroke:#1E1E1E;stroke:color(display-p3 0.1176 0.1176 0.1176);stroke-opacity:1;" stroke-width="3.06" stroke-linejoin="round"/>
<path d="M364.502 718.6H348.535V718.816C348.535 718.816 341.31 720.189 335.675 724.452C330.039 728.642 331.701 740.853 331.701 740.853C331.701 740.853 323.609 745.404 313.638 753.135C302.801 761.588 289.724 773.726 282.86 787.743C269.638 814.475 293.119 837.668 293.119 837.668C293.119 837.668 269.205 846.843 269.421 869.458C269.638 892 277.947 903.415 290.735 907.461H735.362C748.15 903.487 756.531 892.144 756.676 869.53C756.82 846.916 732.906 837.74 732.906 837.74C732.906 837.74 756.387 814.548 743.165 787.815C736.229 773.799 723.224 761.588 712.314 753.207C702.416 745.477 694.324 740.925 694.324 740.925C694.324 740.925 695.913 728.715 690.35 724.524C684.715 720.334 677.49 718.889 677.49 718.889V718.672H661.522M732.327 837.884L292.541 837.812Z" fill="#5F5955" style="fill:#5F5955;fill:color(display-p3 0.3725 0.3490 0.3333);fill-opacity:1;"/>
<path opacity="0.25" d="M277.006 870.685C277.223 892.577 288.132 903.559 304.822 907.533C304.967 907.533 305.039 907.533 305.183 907.605C298.392 901.247 294.418 891.493 294.274 877.405C294.057 854.501 324.041 845.181 324.041 845.181C324.041 845.181 294.563 821.7 311.18 794.606C319.85 780.373 336.251 768.09 349.906 759.492C362.333 751.689 372.52 747.065 372.52 747.065C372.52 747.065 370.497 734.711 377.578 730.448C384.586 726.185 393.69 724.74 393.69 724.74V724.523H371.003L380.251 724.74C380.251 724.74 361.538 726.113 354.241 730.231C346.944 734.277 349.039 746.126 349.039 746.126C349.039 746.126 338.491 750.606 325.558 758.047C311.397 766.212 300.993 776.905 291.962 790.488C274.694 816.353 308.001 839.979 308.001 839.979C308.001 839.979 276.789 848.866 277.078 870.758L277.006 870.685Z" fill="white" style="fill:white;fill-opacity:1;"/>
<path opacity="0.18" d="M756.313 869.529C756.024 892.071 754.868 903.559 733.121 907.605H690.421C699.308 901.03 723.15 890.626 723.295 876.104C723.584 852.478 691.071 838.028 691.071 838.028C691.071 838.028 744.825 815.703 723.295 787.742C711.951 773.075 713.469 771.702 695.695 762.888C679.439 754.868 660.076 742.008 660.076 742.008C660.076 742.008 662.749 729.292 653.501 724.885C644.325 720.477 632.549 718.96 632.549 718.96C632.549 718.96 604.371 718.96 604.299 718.743H662.099L650.105 718.96C650.105 718.96 664.483 717.37 674.02 721.633C683.557 725.824 685.074 735.65 685.074 735.65C685.074 735.65 688.037 745.114 704.871 752.845C723.367 761.298 736.95 770.041 748.727 784.057C771.196 810.79 715.997 837.739 715.997 837.739C715.997 837.739 756.602 846.915 756.313 869.529Z" fill="black" style="fill:black;fill-opacity:1;"/>
<path d="M732.544 837.885L292.686 837.812" stroke="#1E1E1E" style="stroke:#1E1E1E;stroke:color(display-p3 0.1176 0.1176 0.1176);stroke-opacity:1;" stroke-width="1.51" stroke-linejoin="round"/>
<path d="M364.141 718.6H348.174V718.816C348.174 718.816 340.949 720.189 335.313 724.452C329.678 728.642 331.34 740.853 331.34 740.853C331.34 740.853 323.248 745.404 313.277 753.135C302.44 761.588 289.362 773.726 282.499 787.743C269.277 814.475 292.758 837.668 292.758 837.668C292.758 837.668 268.843 846.843 269.06 869.458C269.277 892 277.586 903.415 290.374 907.461H735.001C747.789 903.487 756.17 892.144 756.314 869.53C756.459 846.916 732.544 837.74 732.544 837.74C732.544 837.74 756.025 814.548 742.804 787.815C735.868 773.799 722.863 761.588 711.953 753.207C702.055 745.477 693.963 740.925 693.963 740.925C693.963 740.925 695.552 728.715 689.989 724.524C684.353 720.334 677.128 718.889 677.128 718.889V718.672H364.286L364.141 718.6Z" stroke="#1E1E1E" style="stroke:#1E1E1E;stroke:color(display-p3 0.1176 0.1176 0.1176);stroke-opacity:1;" stroke-width="2.9" stroke-linejoin="round"/>
</svg>
