<svg width="1024" height="1024" viewBox="0 0 1024 1024" fill="none" xmlns="http://www.w3.org/2000/svg">
<path d="M688.181 232.067C679.583 224.698 675.321 184.382 646.421 179.469C628.43 176.362 528.942 51.2253 567.523 166.753C575.76 191.463 543.753 199.627 527.425 202.445C511.024 205.19 489.349 209.814 489.349 209.814C489.349 209.814 445.06 193.413 414.426 221.446C409.007 226.143 366.524 277.946 298.536 286.76C230.621 295.575 229.104 305.329 224.769 316.889C220.434 328.449 203.889 364.429 203.889 364.429C203.889 364.429 191.534 396.725 212.342 392.318C214.148 394.485 210.536 408.719 227.37 403.011C244.277 397.231 286.543 396.436 284.014 377.579C284.014 372.521 309.374 362.984 311.758 370.282C313.203 374.906 326.064 415.51 317.177 419.267C306.556 423.747 225.853 419.484 225.853 419.484C225.853 419.484 222.24 422.735 224.697 430.972C222.891 434.006 210.536 442.748 226.792 450.624C243.121 458.571 242.832 456.982 251.213 465.724C259.666 474.466 320.067 494.046 337.263 474.322C354.458 454.67 358.504 434.584 382.78 438.558C547.655 465.652 567.451 389.139 546.137 420.64C546.137 420.64 392.173 537.035 378.879 604.95C374.616 626.625 332.205 656.681 333.217 681.824H744.681C744.681 681.824 796.195 324.33 688.109 232.139L688.181 232.067Z" fill="#F0F0F0" style="fill:#F0F0F0;fill:color(display-p3 0.9412 0.9412 0.9412);fill-opacity:1;"/>
<path opacity="0.4" fill-rule="evenodd" clip-rule="evenodd" d="M470.347 260.751C477.789 254.899 478.222 255.621 478.367 253.671C478.8 246.229 472.876 238.281 465.434 236.041C457.053 233.513 455.536 232.79 447.733 233.296C445.638 233.441 442.314 234.38 440.58 235.464C422.951 246.879 428.587 280.403 453.224 267.398C453.874 267.037 454.597 266.748 455.319 266.459L466.446 262.774C467.891 262.268 469.263 261.618 470.419 260.679L470.347 260.751Z" fill="black" style="fill:black;fill-opacity:1;"/>
<path opacity="0.35" fill-rule="evenodd" clip-rule="evenodd" d="M256.704 320.43C250.635 322.236 240.809 330.761 238.425 333.868C233.223 340.804 241.098 350.558 249.118 346.945C253.091 345.139 269.709 342.032 272.671 330.978C272.671 330.978 272.021 327.51 270.937 326.932C269.637 326.21 256.632 320.502 256.632 320.502L256.704 320.43Z" fill="black" style="fill:black;fill-opacity:1;"/>
<path d="M200.205 384.515C202.589 372.811 222.169 314.939 230.767 302.656C241.171 286.111 315.805 285.822 332.278 275.346C448.962 201.94 413.054 218.413 485.521 208.442C590.789 193.92 567.524 166.609 561.672 146.885C558.854 137.565 561.672 123.765 566.874 127.666C577.639 137.854 607.84 185.539 594.69 197.316C583.708 209.237 528.582 218.774 510.88 222.82C453.369 235.969 451.202 193.27 401.927 256.199C388.922 272.817 334.301 294.275 325.125 297.382C314.071 301.211 271.444 301.934 242.616 320.357C224.915 331.701 200.205 384.443 200.205 384.443V384.515Z" fill="white" style="fill:white;fill-opacity:1;"/>
<path opacity="0.18" fill-rule="evenodd" clip-rule="evenodd" d="M370.788 436.173C387.911 442.459 418.617 465.362 523.597 425.841C531.111 423.023 560.444 399.976 556.181 406.55C551.341 413.992 549.607 431.332 550.546 430.393C563.768 418.038 586.815 394.268 594.546 345.788C596.063 336.468 581.541 330.471 577.784 339.213C523.886 462.472 317.106 416.593 370.788 436.173Z" fill="black" style="fill:black;fill-opacity:1;"/>
<path fill-rule="evenodd" clip-rule="evenodd" d="M552.062 417.533C394.846 553.725 370.57 603.144 339.286 671.564C335.095 680.74 383.214 688.11 384.587 678.139C408.718 498.742 552.062 520.201 552.062 417.461V417.533Z" fill="white" style="fill:white;fill-opacity:1;"/>
<path opacity="0.18" fill-rule="evenodd" clip-rule="evenodd" d="M566.874 127.739C566.874 127.739 622.434 170.438 650.25 217.473C810.14 405.107 699.452 691 658.992 681.68H744.825C750.533 631.683 802.481 312.916 646.493 179.397C619.616 158.662 612.463 131.062 560.371 120.514L566.946 127.666L566.874 127.739Z" fill="black" style="fill:black;fill-opacity:1;"/>
<path d="M688.181 232.066C679.583 224.697 678.789 201.288 646.421 179.468C631.248 169.209 528.942 51.2245 567.523 166.752C575.76 191.462 543.753 199.626 527.425 202.444C511.024 205.189 489.349 209.813 489.349 209.813C489.349 209.813 445.06 193.413 414.426 221.446C409.007 226.142 366.524 277.945 298.536 286.76C230.621 295.574 229.104 305.328 224.769 316.888C220.434 328.448 203.889 364.428 203.889 364.428C203.889 364.428 191.534 396.724 212.342 392.317C214.148 394.485 210.536 408.718 227.37 403.01C244.277 397.23 286.543 396.435 284.014 377.578C284.014 372.52 309.374 362.983 311.758 370.281C313.203 374.905 326.064 415.509 317.177 419.266C306.556 423.746 225.853 419.483 225.853 419.483C225.853 419.483 222.24 422.734 224.697 430.971C222.891 434.005 210.536 442.748 226.792 450.623C243.121 458.57 242.832 456.981 251.213 465.723C259.666 474.465 320.067 494.045 337.263 474.321C354.458 454.669 358.504 434.583 382.78 438.557C547.655 465.651 567.451 389.138 546.137 420.639C546.137 420.639 392.173 537.034 378.879 604.949C374.616 626.624 332.205 656.68 333.217 681.823H744.681C744.681 681.823 796.195 324.33 688.109 232.139L688.181 232.066Z" stroke="#1E1E1E" style="stroke:#1E1E1E;stroke:color(display-p3 0.1176 0.1176 0.1176);stroke-opacity:1;" stroke-width="3" stroke-linecap="round" stroke-linejoin="round"/>
<path d="M361.684 682.908H342.899V683.197C342.899 683.197 334.374 684.787 327.799 689.7C321.152 694.613 323.103 708.774 323.103 708.774C323.103 708.774 313.566 714.048 301.861 723.007C289.073 732.761 273.684 746.922 265.519 763.106C249.913 794.101 277.585 820.978 277.585 820.978C277.585 820.978 249.408 831.599 249.624 857.826C249.841 883.98 259.667 897.202 274.767 901.826H798.725C813.825 897.274 823.723 884.052 823.868 857.898C824.012 831.671 795.835 821.05 795.835 821.05C795.835 821.05 823.506 794.173 807.9 763.178C799.736 746.922 784.419 732.833 771.559 723.079C759.854 714.12 750.317 708.846 750.317 708.846C750.317 708.846 752.196 694.685 745.621 689.772C738.974 684.859 730.521 683.269 730.521 683.269V682.98H711.663" fill="#F0F0F0" style="fill:#F0F0F0;fill:color(display-p3 0.9412 0.9412 0.9412);fill-opacity:1;"/>
<path d="M795.183 821.123L276.861 821.051Z" fill="#5F5955" style="fill:#5F5955;fill:color(display-p3 0.3725 0.3490 0.3333);fill-opacity:1;"/>
<path d="M258.584 859.198C258.873 884.558 271.733 897.346 291.385 901.898C291.53 901.898 291.674 901.898 291.819 901.97C283.799 894.6 279.103 883.257 278.958 867.001C278.669 840.413 314.072 829.648 314.072 829.648C314.072 829.648 279.392 802.409 298.899 770.981C309.159 754.508 328.45 740.202 344.489 730.304C359.156 721.273 371.149 715.854 371.149 715.854C371.149 715.854 368.765 701.548 377.074 696.563C385.383 691.578 396.076 689.916 396.076 689.916V689.627H369.343L380.181 689.916C380.181 689.916 358.144 691.505 349.474 696.274C340.877 700.97 343.333 714.698 343.333 714.698C343.333 714.698 330.906 719.828 315.661 728.498C298.971 737.962 286.689 750.389 276.068 766.068C255.766 796.124 294.998 823.434 294.998 823.434C294.998 823.434 258.222 833.766 258.511 859.126L258.584 859.198Z" fill="white" style="fill:white;fill-opacity:1;"/>
<path opacity="0.18" d="M812.957 862.593C812.668 889.253 811.656 902.836 792.004 907.605H753.423C761.442 899.802 782.973 887.447 783.117 870.324C783.406 842.363 754.073 825.24 754.073 825.24C754.073 825.24 802.625 798.868 783.19 765.778C773.002 748.438 774.303 746.776 758.263 736.372C743.597 726.835 726.112 711.59 726.112 711.59C726.112 711.59 728.496 696.49 720.188 691.288C711.951 686.086 701.258 684.28 701.258 684.28C701.258 684.28 675.826 684.28 675.754 684.063H727.918L717.081 684.28C717.081 684.28 730.086 682.474 738.684 687.459C747.281 692.444 748.726 704.076 748.726 704.076C748.726 704.076 751.4 715.275 766.572 724.379C783.262 734.349 795.545 744.753 806.165 761.298C826.395 792.944 776.615 824.878 776.615 824.878C776.615 824.878 813.318 835.788 813.029 862.448L812.957 862.593Z" fill="black" style="fill:black;fill-opacity:1;"/>
<path opacity="0.18" d="M812.957 862.593C812.668 889.253 811.656 902.836 792.004 907.605H753.423C761.442 899.802 782.973 887.447 783.117 870.324C783.406 842.363 754.073 825.24 754.073 825.24C754.073 825.24 802.625 798.868 783.19 765.778C773.002 748.438 774.303 746.776 758.263 736.372C743.597 726.835 726.112 711.59 726.112 711.59C726.112 711.59 728.496 696.49 720.188 691.288C711.951 686.086 701.258 684.28 701.258 684.28C701.258 684.28 675.826 684.28 675.754 684.063H727.918L717.081 684.28C717.081 684.28 730.086 682.474 738.684 687.459C747.281 692.444 748.726 704.076 748.726 704.076C748.726 704.076 751.4 715.275 766.572 724.379C783.262 734.349 795.545 744.753 806.165 761.298C826.395 792.944 776.615 824.878 776.615 824.878C776.615 824.878 813.318 835.788 813.029 862.448L812.957 862.593Z" fill="black" style="fill:black;fill-opacity:1;"/>
<path d="M795.4 821.123L277.078 821.051" stroke="#1E1E1E" style="stroke:#1E1E1E;stroke:color(display-p3 0.1176 0.1176 0.1176);stroke-opacity:1;" stroke-width="1.57" stroke-linecap="round" stroke-linejoin="round"/>
<path d="M719.033 682.98L347.595 682.908M361.323 682.908H342.538V683.197C342.538 683.197 334.012 684.787 327.438 689.7C320.791 694.613 322.741 708.774 322.741 708.774C322.741 708.774 313.204 714.048 301.5 723.007C288.711 732.761 273.322 746.922 265.158 763.106C249.552 794.101 277.224 820.978 277.224 820.978C277.224 820.978 249.046 831.599 249.263 857.826C249.48 883.98 259.306 897.202 274.406 901.826H798.363C813.464 897.274 823.362 884.052 823.506 857.898C823.651 831.671 795.473 821.05 795.473 821.05C795.473 821.05 823.145 794.173 807.539 763.178C799.375 746.922 784.058 732.833 771.197 723.079C759.493 714.12 749.956 708.846 749.956 708.846C749.956 708.846 751.834 694.685 745.26 689.772C738.613 684.859 730.159 683.269 730.159 683.269V682.98H711.302" stroke="#1E1E1E" style="stroke:#1E1E1E;stroke:color(display-p3 0.1176 0.1176 0.1176);stroke-opacity:1;" stroke-width="3" stroke-linecap="round" stroke-linejoin="round"/>
</svg>
