<svg width="1024" height="1024" viewBox="0 0 1024 1024" fill="none" xmlns="http://www.w3.org/2000/svg">
<path d="M685.076 656.893H666.287L623.65 622.205L596.912 445.155C747.947 330.976 644.607 147.422 511.639 147.422C378.671 147.422 279.667 330.976 430.702 445.155L401.073 621.483L358.436 656.17H339.647" fill="#F0F0F0" style="fill:#F0F0F0;fill:color(display-p3 0.9412 0.9412 0.9412);fill-opacity:1;"/>
<path d="M685.076 656.893H666.287L623.65 622.205L596.912 445.155C747.947 330.976 644.607 147.422 511.639 147.422C378.671 147.422 279.667 330.976 430.702 445.155L401.073 621.483L358.436 656.17H339.647" stroke="#3C3C3C" style="stroke:#3C3C3C;stroke:color(display-p3 0.2353 0.2353 0.2353);stroke-opacity:1;" stroke-width="2.9" stroke-linecap="round" stroke-linejoin="round"/>
<path d="M599.079 442.264C554.275 472.615 472.615 472.615 426.365 442.264Z" fill="#F0F0F0" style="fill:#F0F0F0;fill:color(display-p3 0.9412 0.9412 0.9412);fill-opacity:1;"/>
<path d="M599.079 442.264C554.275 472.615 472.615 472.615 426.365 442.264" stroke="#3C3C3C" style="stroke:#3C3C3C;stroke:color(display-p3 0.2353 0.2353 0.2353);stroke-opacity:1;" stroke-width="2.9" stroke-linecap="round" stroke-linejoin="round"/>
<path d="M599.079 442.264C554.275 472.615 472.615 472.615 426.365 442.264Z" fill="#F0F0F0" style="fill:#F0F0F0;fill:color(display-p3 0.9412 0.9412 0.9412);fill-opacity:1;"/>
<path d="M599.079 442.264C554.275 472.615 472.615 472.615 426.365 442.264" stroke="#3C3C3C" style="stroke:#3C3C3C;stroke:color(display-p3 0.2353 0.2353 0.2353);stroke-opacity:1;" stroke-width="2.9" stroke-linecap="round" stroke-linejoin="round"/>
<path d="M460.33 466.111L447.322 628.708H403.963L427.088 459.607L460.33 466.111Z" fill="white" style="fill:white;fill-opacity:1;"/>
<path d="M434.314 255.097C452.673 255.097 467.556 240.214 467.556 221.855C467.556 203.496 452.673 188.613 434.314 188.613C415.955 188.613 401.072 203.496 401.072 221.855C401.072 240.214 415.955 255.097 434.314 255.097Z" fill="white" style="fill:white;fill-opacity:1;"/>
<path d="M447.323 628.709L411.19 654.724L374.335 653.279L403.964 628.709H447.323Z" fill="white" style="fill:white;fill-opacity:1;"/>
<path opacity="0.2" fill-rule="evenodd" clip-rule="evenodd" d="M604.861 463.221C590.408 479.842 579.568 492.127 554.998 496.463C491.404 503.689 473.338 479.842 463.221 468.279C461.053 466.111 461.053 463.221 463.221 460.33L435.037 455.271C430.701 469.725 547.771 486.346 596.189 443.709L604.138 462.498L604.861 463.221Z" fill="black" style="fill:black;fill-opacity:1;"/>
<path opacity="0.2" fill-rule="evenodd" clip-rule="evenodd" d="M616.424 428.534C597.635 440.096 591.131 457.44 566.561 461.776C502.967 469.003 487.791 474.061 477.674 463.221C475.506 461.053 475.506 458.163 477.674 455.272L449.491 450.214C445.155 464.667 643.885 444.432 661.951 276.777C680.74 276.054 673.513 394.569 616.424 428.534Z" fill="black" style="fill:black;fill-opacity:1;"/>
<path d="M685.076 656.893H666.287L623.65 622.205L596.912 445.155C747.947 330.976 644.607 147.422 511.639 147.422C378.671 147.422 279.667 330.976 430.702 445.155L401.073 621.483L358.436 656.17H339.647" stroke="#1E1E1E" style="stroke:#1E1E1E;stroke:color(display-p3 0.1176 0.1176 0.1176);stroke-opacity:1;" stroke-width="2.8" stroke-linecap="round" stroke-linejoin="round"/>
<path d="M599.079 442.264C554.275 472.615 472.615 472.615 426.365 442.264" stroke="#1E1E1E" style="stroke:#1E1E1E;stroke:color(display-p3 0.1176 0.1176 0.1176);stroke-opacity:1;" stroke-width="2.8" stroke-linecap="round" stroke-linejoin="round"/>
<path d="M677.127 688.689H346.874" stroke="#1E1E1E" style="stroke:#1E1E1E;stroke:color(display-p3 0.1176 0.1176 0.1176);stroke-opacity:1;" stroke-width="2.9" stroke-linejoin="round"/>
<path d="M670.622 656.893H687.966C687.966 656.893 695.915 659.061 701.697 663.396C707.478 668.455 706.032 682.185 706.032 682.185C706.032 682.185 714.704 687.244 725.544 696.639C737.107 706.756 750.837 720.486 758.786 737.107C773.239 768.181 747.946 794.919 747.946 794.919C747.946 794.919 773.239 805.759 773.239 831.775C773.239 857.79 763.845 871.521 750.114 875.857H274.608C260.878 871.521 252.206 857.79 251.483 831.775C251.483 805.759 276.776 794.919 276.776 794.919C276.776 794.919 251.483 768.181 265.936 737.107C273.163 720.486 286.893 706.756 299.179 696.639C310.018 687.967 318.69 682.185 318.69 682.185C318.69 682.185 317.245 667.732 323.026 663.396C328.807 658.338 336.757 656.893 336.757 656.893H354.1" fill="#F0F0F0" style="fill:#F0F0F0;fill:color(display-p3 0.9412 0.9412 0.9412);fill-opacity:1;"/>
<path d="M670.622 656.893H687.966C687.966 656.893 695.915 659.061 701.697 663.396C707.478 668.455 706.032 682.185 706.032 682.185C706.032 682.185 714.704 687.244 725.544 696.639C737.107 706.756 750.837 720.486 758.786 737.107C773.239 768.181 747.946 794.919 747.946 794.919C747.946 794.919 773.239 805.759 773.239 831.775C773.239 857.79 763.845 871.521 750.114 875.857H274.608C260.878 871.521 252.206 857.79 251.483 831.775C251.483 805.759 276.776 794.919 276.776 794.919C276.776 794.919 251.483 768.181 265.936 737.107C273.163 720.486 286.893 706.756 299.179 696.639C310.018 687.967 318.69 682.185 318.69 682.185C318.69 682.185 317.245 667.732 323.026 663.396C328.807 658.338 336.757 656.893 336.757 656.893H354.1" stroke="#3C3C3C" style="stroke:#3C3C3C;stroke:color(display-p3 0.2353 0.2353 0.2353);stroke-opacity:1;" stroke-width="2.7" stroke-linecap="round" stroke-linejoin="round"/>
<path opacity="0.2" d="M763.845 833.942C763.845 859.235 762.4 872.243 745.056 876.579H710.369C717.595 869.352 737.107 857.79 737.107 841.169C737.107 814.431 710.369 798.532 710.369 798.532C710.369 798.532 754.451 773.239 737.107 742.165C727.713 725.544 729.158 724.099 714.705 713.982C701.697 704.587 685.799 690.134 685.799 690.134C685.799 690.134 687.967 675.681 680.74 670.623C673.514 665.564 663.396 664.119 663.396 664.119H640.271H687.967H677.85C677.85 664.119 689.412 662.674 697.361 667.732C705.31 672.791 706.756 683.63 706.756 683.63C706.756 683.63 708.924 694.47 722.654 703.142C737.83 712.537 748.67 722.654 758.787 738.552C776.853 768.904 732.049 799.255 732.049 799.255C732.049 799.255 765.291 809.372 765.291 835.388L763.845 833.942Z" fill="black" style="fill:black;fill-opacity:1;"/>
<path d="M260.155 823.103C260.155 849.118 273.163 862.849 293.397 867.185C285.448 859.236 280.39 847.673 280.39 831.052C280.39 803.591 315.8 792.751 315.8 792.751C315.8 792.751 281.112 764.568 300.624 732.049C310.741 714.705 330.253 700.252 346.151 690.135C360.604 680.74 372.889 674.959 372.889 674.959C372.889 674.959 370.721 660.506 378.67 654.725C386.62 649.666 397.459 647.498 397.459 647.498H370.721H381.561C381.561 647.498 359.159 649.666 350.487 654.002C341.815 659.061 344.706 672.791 344.706 672.791C344.706 672.791 332.421 677.849 317.245 687.244C300.624 697.361 288.339 709.646 277.499 726.267C257.265 757.341 296.288 785.525 296.288 785.525C296.288 785.525 259.433 796.365 259.433 822.38L260.155 823.103Z" fill="white" style="fill:white;fill-opacity:1;"/>
<path d="M277.499 795.641H747.224" stroke="#1E1E1E" style="stroke:#1E1E1E;stroke:color(display-p3 0.1176 0.1176 0.1176);stroke-opacity:1;" stroke-width="1.5" stroke-linecap="round" stroke-linejoin="round"/>
<path d="M670.622 656.893H687.966C687.966 656.893 695.915 659.061 701.697 663.396C707.478 668.455 706.032 682.185 706.032 682.185C706.032 682.185 714.704 687.244 725.544 696.639C737.107 706.756 750.837 720.486 758.786 737.107C773.239 768.181 747.946 794.919 747.946 794.919C747.946 794.919 773.239 805.759 773.239 831.775C773.239 857.79 763.845 871.521 750.114 875.857H274.608C260.878 871.521 252.206 857.79 251.483 831.775C251.483 805.759 276.776 794.919 276.776 794.919C276.776 794.919 251.483 768.181 265.936 737.107C273.163 720.486 286.893 706.756 299.179 696.639C310.018 687.967 318.69 682.185 318.69 682.185C318.69 682.185 317.245 667.732 323.026 663.396C328.807 658.338 336.757 656.893 336.757 656.893H670.622Z" stroke="#1E1E1E" style="stroke:#1E1E1E;stroke:color(display-p3 0.1176 0.1176 0.1176);stroke-opacity:1;" stroke-width="2.8" stroke-linecap="round" stroke-linejoin="round"/>
</svg>
