<svg width="1024" height="1024" viewBox="0 0 1024 1024" fill="none" xmlns="http://www.w3.org/2000/svg">
<path d="M308.002 555.747C280.402 469.914 234.234 370.064 183.587 293.913C183.587 293.913 203.817 294.419 237.558 293.985C237.558 293.985 244.855 334.662 266.096 336.035C287.627 337.48 290.878 306.34 290.878 306.34H335.095L349.329 315.299H356.481C356.481 315.299 398.17 257.788 467.457 257.932C456.831 250.89 448.115 241.324 442.089 230.091C436.062 218.857 432.913 206.306 432.922 193.558C432.922 150.93 467.457 116.395 510.085 116.395C510.807 116.395 511.53 116.395 512.325 116.467C513.047 116.395 513.77 116.395 514.564 116.395C557.192 116.395 591.727 150.93 591.727 193.558C591.727 220.435 578 244.133 557.192 257.932C626.48 257.788 662.532 303.811 662.532 303.811H669.685L689.554 306.34H733.771C733.771 306.34 736.95 337.48 758.553 336.035C779.794 334.662 787.092 293.985 787.092 293.985C820.76 294.419 841.062 293.913 841.062 293.913C790.343 369.992 744.247 469.914 716.648 555.747L695.262 637.968C690.132 665.784 688.47 689.554 691.288 706.966H333.65C336.396 689.554 334.806 665.784 329.677 637.968L308.29 555.747H308.002Z" fill="#F0F0F0" style="fill:#F0F0F0;fill:color(display-p3 0.9412 0.9412 0.9412);fill-opacity:1;"/>
<path d="M467.386 258.006C467.386 258.006 511.241 283.871 557.048 258.006H556.831" fill="#5F5955" style="fill:#5F5955;fill:color(display-p3 0.3725 0.3490 0.3333);fill-opacity:1;"/>
<path d="M201.217 297.164C201.217 297.164 325.559 509.579 333.362 707.039C333.723 715.42 350.774 718.093 353.592 707.039C384.804 583.708 228.238 297.164 228.238 297.164H201.217Z" fill="white" style="fill:white;fill-opacity:1;"/>
<path d="M484.509 161.551C493.966 161.551 501.632 153.885 501.632 144.428C501.632 134.971 493.966 127.305 484.509 127.305C475.052 127.305 467.386 134.971 467.386 144.428C467.386 153.885 475.052 161.551 484.509 161.551Z" fill="white" style="fill:white;fill-opacity:1;"/>
<path opacity="0.18" fill-rule="evenodd" clip-rule="evenodd" d="M692.806 690.133C677.85 705.739 676.044 704.655 653.863 705.306C584.214 701.621 514.059 705.306 514.059 705.306L416.811 697.936C660.149 685.943 644.181 665.496 693.312 628.215L692.806 690.133Z" fill="black" style="fill:black;fill-opacity:1;"/>
<path d="M353.592 706.967H336.541V707.256C336.541 707.256 328.81 708.701 322.813 713.18C316.817 717.588 318.551 730.448 318.551 730.448C318.551 730.448 309.881 735.217 299.26 743.381C287.628 752.268 273.683 765.056 266.314 779.795C252.153 807.9 277.224 832.321 277.224 832.321C277.224 832.321 251.719 842.002 251.864 865.772C252.081 889.543 261.04 901.536 274.695 905.727H750.173C763.828 901.608 772.859 889.615 773.004 865.845C773.148 842.074 747.572 832.393 747.572 832.393C747.572 832.393 772.715 807.972 758.554 779.867C751.184 765.128 737.24 752.268 725.535 743.453C714.915 735.289 706.245 730.52 706.245 730.52C706.245 730.52 707.979 717.66 701.982 713.253C695.985 708.845 688.254 707.328 688.254 707.328V707.039H671.203" fill="#F0F0F0" style="fill:#F0F0F0;fill:color(display-p3 0.9412 0.9412 0.9412);fill-opacity:1;"/>
<path d="M746.993 832.393L276.646 832.32Z" fill="#5F5955" style="fill:#5F5955;fill:color(display-p3 0.3725 0.3490 0.3333);fill-opacity:1;"/>
<path d="M260.028 867C260.245 889.976 271.95 901.608 289.795 905.726C289.94 905.726 290.084 905.726 290.229 905.798C282.932 899.079 278.669 888.82 278.597 874.081C278.38 849.949 310.459 840.195 310.459 840.195C310.459 840.195 278.958 815.486 296.659 786.947C305.979 771.991 323.464 759.058 338.058 750.027C351.352 741.863 362.262 736.95 362.262 736.95C362.262 736.95 360.095 723.945 367.609 719.465C375.123 714.986 384.804 713.469 384.804 713.469V713.252H360.528L370.426 713.469C370.426 713.469 350.413 714.914 342.61 719.249C334.807 723.511 337.047 735.938 337.047 735.938C337.047 735.938 325.704 740.635 311.904 748.438C296.731 757.035 285.605 768.306 275.996 782.54C257.572 809.778 293.191 834.632 293.191 834.632C293.191 834.632 259.812 844.025 260.101 867.072L260.028 867Z" fill="white" style="fill:white;fill-opacity:1;"/>
<path d="M747.21 832.393L276.79 832.32" stroke="#1E1E1E" style="stroke:#1E1E1E;stroke:color(display-p3 0.1176 0.1176 0.1176);stroke-opacity:1;" stroke-width="1.56" stroke-linejoin="round"/>
<path d="M353.231 706.967H336.18V707.256C336.18 707.256 328.449 708.701 322.452 713.18C316.455 717.588 318.189 730.448 318.189 730.448C318.189 730.448 309.519 735.217 298.899 743.381C287.266 752.268 273.322 765.056 265.953 779.795C251.792 807.9 276.862 832.321 276.862 832.321C276.862 832.321 251.358 842.002 251.503 865.772C251.719 889.543 260.678 901.536 274.334 905.727H749.811C763.466 901.608 772.498 889.615 772.642 865.845C772.787 842.074 747.21 832.393 747.21 832.393C747.21 832.393 772.353 807.972 758.192 779.867C750.823 765.128 736.878 752.268 725.174 743.453C714.553 735.289 705.883 730.52 705.883 730.52C705.883 730.52 707.617 717.66 701.62 713.253C695.624 708.845 687.893 707.328 687.893 707.328V707.039H353.303L353.231 706.967Z" stroke="#1E1E1E" style="stroke:#1E1E1E;stroke:color(display-p3 0.1176 0.1176 0.1176);stroke-opacity:1;" stroke-width="2.99" stroke-linejoin="round"/>
<path opacity="0.18" fill-rule="evenodd" clip-rule="evenodd" d="M467.675 263.786C559.577 256.127 555.964 266.531 573.955 230.117L570.053 272.022C563.767 290.952 511.603 295.503 492.673 287.773C482.125 283.51 467.675 263.786 467.675 263.786ZM634.283 351.786C632.911 318.407 633.778 291.241 588.766 271.011L641.725 277.585C665.423 285.099 667.518 321.803 656.536 340.226C650.467 350.414 634.356 351.786 634.356 351.786H634.283Z" fill="black" style="fill:black;fill-opacity:1;"/>
<path d="M479.235 316.456C479.235 316.456 471.938 358.072 512.47 357.566C550.257 357.132 544.116 316.383 544.116 316.383H616.293C616.293 316.383 619.472 347.523 641.075 346.078C662.317 344.705 669.614 304.029 669.614 304.029H689.121L733.339 303.956C733.339 303.956 736.518 335.096 758.12 333.651C779.362 332.278 786.659 291.602 786.659 291.602C820.328 292.035 840.63 291.529 840.63 291.529C789.91 367.609 743.815 467.53 716.215 553.363L694.829 635.584C689.699 663.4 688.038 687.171 690.856 704.583H333.218C335.963 687.171 334.374 663.4 329.244 635.584L307.858 553.363C280.258 467.53 234.091 367.681 183.443 291.529C183.443 291.529 203.673 292.035 237.414 291.602C237.414 291.602 244.711 332.278 265.953 333.651C287.483 335.096 290.735 303.956 290.735 303.956H353.737C353.737 303.956 361.034 344.633 382.276 346.006C403.806 347.451 407.057 316.311 407.057 316.311L466.086 316.528H479.596L479.235 316.456Z" stroke="#1E1E1E" style="stroke:#1E1E1E;stroke:color(display-p3 0.1176 0.1176 0.1176);stroke-opacity:1;" stroke-width="2.99" stroke-linejoin="round"/>
<path opacity="0.18" d="M767.079 866.785C766.79 890.916 765.778 903.271 746.271 907.534H707.906C715.854 900.525 737.312 889.327 737.456 873.793C737.745 848.505 708.556 832.972 708.556 832.972C708.556 832.972 756.892 809.057 737.456 779.145C727.269 763.467 728.642 761.95 712.675 752.485C698.08 743.887 680.668 730.088 680.668 730.088C680.668 730.088 683.052 716.432 674.816 711.736C666.579 707.04 655.958 705.45 655.958 705.45C655.958 705.45 630.599 705.45 630.599 705.234H682.474L671.709 705.45C671.709 705.45 684.642 703.789 693.239 708.34C701.765 712.82 703.21 723.368 703.21 723.368C703.21 723.368 705.883 733.556 720.983 741.792C737.601 750.823 749.811 760.216 760.36 775.244C780.517 803.855 730.954 832.755 730.954 832.755C730.954 832.755 767.44 842.581 767.151 866.785H767.079Z" fill="black" style="fill:black;fill-opacity:1;"/>
<path opacity="0.18" fill-rule="evenodd" clip-rule="evenodd" d="M484.653 254.321C575.038 218.991 572.582 223.976 578.145 175.641L588.766 226.432C588.91 250.708 537.757 270.938 515.865 267.254C503.727 265.231 484.653 254.249 484.653 254.249V254.321Z" fill="black" style="fill:black;fill-opacity:1;"/>
<path d="M359.011 303.811C359.011 303.811 398.098 257.86 467.386 258.005C456.76 250.962 448.044 241.397 442.017 230.163C435.991 218.93 432.841 206.378 432.85 193.63C432.85 151.002 467.386 116.467 510.013 116.467C510.736 116.467 511.458 116.467 512.253 116.539C512.976 116.467 513.698 116.467 514.493 116.467C557.12 116.467 591.656 151.002 591.656 193.63C591.656 220.507 577.928 244.205 557.12 258.005C626.408 257.86 669.614 303.883 669.614 303.883" stroke="#1E1E1E" style="stroke:#1E1E1E;stroke:color(display-p3 0.1176 0.1176 0.1176);stroke-opacity:1;" stroke-width="2.99" stroke-linejoin="round"/>
<path d="M467.386 258.006C467.386 258.006 511.241 283.871 557.048 258.006H556.831" stroke="#1E1E1E" style="stroke:#1E1E1E;stroke:color(display-p3 0.1176 0.1176 0.1176);stroke-opacity:1;" stroke-width="2.99" stroke-linejoin="round"/>
</svg>
