<svg width="1024" height="1024" viewBox="0 0 1024 1024" fill="none" xmlns="http://www.w3.org/2000/svg">
<path fill-rule="evenodd" clip-rule="evenodd" d="M512.001 251.165C439.093 251.165 379.967 305.539 379.967 372.611C379.967 407.53 396.33 440.728 424.818 463.747H390.698C363.829 463.747 341.546 483.777 341.546 507.943V516.914C341.546 541.08 363.829 561.089 390.698 561.089H439.359C439.359 710.45 248.035 693.328 261.408 904.743L512.001 904.539L762.595 904.702C775.968 693.287 584.644 710.429 584.644 561.068H633.304C660.174 561.068 682.456 541.039 682.456 516.893V507.923C682.456 483.756 660.195 463.747 633.304 463.747H599.185C627.672 440.707 644.036 407.489 644.036 372.611C644.036 305.519 584.931 251.165 512.022 251.145L512.001 251.165Z" fill="url(#paint0_linear_1_10084)" stroke="#323232" style="stroke:#323232;stroke:color(display-p3 0.1961 0.1961 0.1961);stroke-opacity:1;" stroke-width="6.04724" stroke-linejoin="round"/>
<path opacity="0.15" fill-rule="evenodd" clip-rule="evenodd" d="M511.981 251.165C501.311 251.165 490.928 252.353 480.995 254.565C609.138 268.737 638.179 386.988 581.695 443.431C540.407 478.042 424.777 463.768 424.777 463.768C477.206 472.841 526.563 503.786 573.298 514.722C449.742 748.911 771.954 699.575 762.574 904.723C782.952 687.799 605.431 737.852 584.624 561.068H633.305C660.174 561.068 682.416 541.059 682.416 516.913V507.943C682.416 483.777 660.174 463.747 633.305 463.747H599.165C627.652 440.707 644.036 407.509 644.016 372.632C644.016 305.539 584.91 251.145 511.981 251.145V251.165Z" fill="black" style="fill:black;fill-opacity:1;"/>
<path fill-rule="evenodd" clip-rule="evenodd" d="M470.202 274.453C433.953 307.262 409.418 348.427 399.014 401.224C399.014 401.224 375.257 314.492 470.202 274.453ZM273.246 889.222C278.837 780.248 325.921 762.573 427.624 655.053C406.53 728.085 276.339 775.23 273.246 889.222Z" fill="white" style="fill:white;fill-opacity:1;"/>
<defs>
<linearGradient id="paint0_linear_1_10084" x1="256.157" y1="577.944" x2="767.917" y2="577.944" gradientUnits="userSpaceOnUse">
<stop stop-color="white" style="stop-color:white;stop-opacity:1;"/>
<stop offset="1" stop-color="#BBA38A" style="stop-color:#BBA38A;stop-color:color(display-p3 0.7333 0.6392 0.5412);stop-opacity:1;"/>
</linearGradient>
</defs>
</svg>
