<svg width="1024" height="1024" viewBox="0 0 1024 1024" fill="none" xmlns="http://www.w3.org/2000/svg">
<path fill-rule="evenodd" clip-rule="evenodd" d="M263.27 212.645V369.583C263.27 436.511 397.004 446.874 397.004 446.874C389.795 648.889 293.867 784.508 293.867 784.508L732.712 783.709C732.712 783.709 637.46 648.131 630.312 446.895C630.312 446.895 771.542 436.511 771.542 369.603V212.665H674.877C674.877 212.665 684.277 258.745 665.251 279.43C644.054 302.49 615.73 302.49 594.513 279.43C575.508 258.745 584.887 212.665 584.887 212.665H449.924C449.924 212.665 459.325 258.745 440.299 279.43C417.32 304.415 385.023 304.415 362.065 279.43C343.039 258.745 352.439 212.665 352.439 212.665L263.27 212.645Z" fill="url(#paint0_linear_1_10078)" stroke="#323232" style="stroke:#323232;stroke:color(display-p3 0.1961 0.1961 0.1961);stroke-opacity:1;" stroke-width="6.04724" stroke-linejoin="round"/>
<path opacity="0.1" fill-rule="evenodd" clip-rule="evenodd" d="M768.88 214.262L769.167 369.603C774.553 440.874 265.768 413.328 266.936 390.698C309.903 442.553 357.969 444.212 397.025 446.895C546.365 457.094 597.729 628.962 669.531 783.709H730.357C730.357 783.709 635.125 648.131 627.957 446.895C680.12 438.805 688.455 430.265 710.635 425.227H711.003L710.962 425.145C731.914 420.312 768.511 396.965 769.167 369.583V212.645L768.88 214.262Z" fill="black" style="fill:black;fill-opacity:1;"/>
<path fill-rule="evenodd" clip-rule="evenodd" d="M271.133 784.098C241.703 784.098 217.332 809.001 217.332 839.086V850.228L217.598 905.216H806.398L806.644 850.228V839.086C806.644 809.001 782.273 784.098 752.843 784.098H511.998H271.133Z" fill="url(#paint1_linear_1_10078)" stroke="#323232" style="stroke:#323232;stroke:color(display-p3 0.1961 0.1961 0.1961);stroke-opacity:1;" stroke-width="6.04724" stroke-linecap="round" stroke-linejoin="round"/>
<path fill-rule="evenodd" clip-rule="evenodd" d="M279.676 228.72V342.179C289.506 303.943 285.799 258.457 311.502 228.72H279.676ZM468.522 228.617C469.648 246.967 465.368 264.416 463.013 282.193C472.843 243.977 500.348 228.617 500.348 228.617H468.522ZM347.075 723.189C364.995 699.78 420.865 511.569 413.287 451.952C427.623 459.939 426.763 657.919 347.075 723.189ZM693.515 229.559C693.617 241.806 692.389 254.668 689.685 270.929C699.516 232.693 716.207 229.15 716.207 229.15L693.515 229.559Z" fill="white" style="fill:white;fill-opacity:1;"/>
<defs>
<linearGradient id="paint0_linear_1_10078" x1="246.783" y1="498.484" x2="787.865" y2="498.484" gradientUnits="userSpaceOnUse">
<stop stop-color="white" style="stop-color:white;stop-opacity:1;"/>
<stop offset="1" stop-color="#BBA38A" style="stop-color:#BBA38A;stop-color:color(display-p3 0.7333 0.6392 0.5412);stop-opacity:1;"/>
</linearGradient>
<linearGradient id="paint1_linear_1_10078" x1="200.907" y1="844.596" x2="822.885" y2="844.596" gradientUnits="userSpaceOnUse">
<stop stop-color="white" style="stop-color:white;stop-opacity:1;"/>
<stop offset="1" stop-color="#BBA38A" style="stop-color:#BBA38A;stop-color:color(display-p3 0.7333 0.6392 0.5412);stop-opacity:1;"/>
</linearGradient>
</defs>
</svg>
