<svg width="1024" height="1024" viewBox="0 0 1024 1024" fill="none" xmlns="http://www.w3.org/2000/svg">
<path fill-rule="evenodd" clip-rule="evenodd" d="M550.296 168.409C431.573 121.346 407.919 220.162 454.695 288.421C251.984 505.509 224.234 624.805 327.821 784.119H696.257C820.857 642.561 748.645 486.852 597.482 327.415C538.438 411.772 530.43 477.943 516.668 555.378L442.53 553.924C429.013 430.921 598.629 243.857 550.275 168.429L550.296 168.409Z" fill="url(#paint0_linear_1_10024)" stroke="#1E1E1E" style="stroke:#1E1E1E;stroke:color(display-p3 0.1176 0.1176 0.1176);stroke-opacity:1;" stroke-width="6.04724" stroke-linejoin="round"/>
<path opacity="0.15" fill-rule="evenodd" clip-rule="evenodd" d="M510.63 156.753C497.83 157.163 506.39 160.788 494.839 168.365C494.839 168.427 495.044 168.488 495.044 168.529C568.404 162.16 446.527 409.62 425.535 555.478C436.512 493.752 452.671 439.152 488.655 376.79C529.676 287.682 575.428 199.003 550.258 168.529C541.841 160.747 526.809 156.221 510.63 156.753ZM597.465 327.515C585.177 345.046 586.877 341.237 577.558 357.457C700.52 481.341 756.308 639.815 640.985 784.219H696.199C820.82 642.662 748.648 486.952 597.465 327.515Z" fill="black" style="fill:black;fill-opacity:1;"/>
<path fill-rule="evenodd" clip-rule="evenodd" d="M271.156 784.098C241.727 784.098 217.355 809.001 217.355 839.086V850.248L217.622 905.216H806.401L806.647 850.248V839.086C806.647 809.022 782.276 784.098 752.846 784.098H512.001H271.156Z" fill="url(#paint1_linear_1_10024)" stroke="#1E1E1E" style="stroke:#1E1E1E;stroke:color(display-p3 0.1176 0.1176 0.1176);stroke-opacity:1;" stroke-width="6.04724" stroke-linecap="round" stroke-linejoin="round"/>
<path opacity="0.25" fill-rule="evenodd" clip-rule="evenodd" d="M305.048 703.018C290.385 674.428 238.161 563.509 397.475 380.684C354.467 480.216 275.455 558.655 305.048 703.018Z" fill="white" style="fill:white;fill-opacity:1;"/>
<defs>
<linearGradient id="paint0_linear_1_10024" x1="253.598" y1="469.548" x2="775.326" y2="469.548" gradientUnits="userSpaceOnUse">
<stop stop-color="#796C60" style="stop-color:#796C60;stop-color:color(display-p3 0.4745 0.4235 0.3765);stop-opacity:1;"/>
<stop offset="1" stop-color="#4B403B" style="stop-color:#4B403B;stop-color:color(display-p3 0.2941 0.2510 0.2314);stop-opacity:1;"/>
</linearGradient>
<linearGradient id="paint1_linear_1_10024" x1="200.821" y1="844.725" x2="822.844" y2="844.725" gradientUnits="userSpaceOnUse">
<stop stop-color="#796C60" style="stop-color:#796C60;stop-color:color(display-p3 0.4745 0.4235 0.3765);stop-opacity:1;"/>
<stop offset="1" stop-color="#4B403B" style="stop-color:#4B403B;stop-color:color(display-p3 0.2941 0.2510 0.2314);stop-opacity:1;"/>
</linearGradient>
</defs>
</svg>
