<svg width="1024" height="1024" viewBox="0 0 1024 1024" fill="none" xmlns="http://www.w3.org/2000/svg">
<path fill-rule="evenodd" clip-rule="evenodd" d="M532.213 482.222L294.809 504.689L265.031 397.865L561.336 258.294L597.442 178.422L806.338 421.97L722.042 784.016H301.875C306.892 552.755 499.302 618.127 532.213 482.222Z" fill="url(#paint0_linear_1_10035)" stroke="#1E1E1E" style="stroke:#1E1E1E;stroke:color(display-p3 0.1176 0.1176 0.1176);stroke-opacity:1;" stroke-width="6.04724" stroke-linejoin="round"/>
<path opacity="0.15" fill-rule="evenodd" clip-rule="evenodd" d="M597.463 178.586L579.461 218.42L588.185 199.107C643.318 275.333 703.037 348.181 761.241 422.093L653.005 783.995H722.063L806.379 422.093L597.463 178.586Z" fill="black" style="fill:black;fill-opacity:1;"/>
<path fill-rule="evenodd" clip-rule="evenodd" d="M271.156 784.098C241.727 784.098 217.355 809.001 217.355 839.086V850.248L217.622 905.216H806.381L806.647 850.248V839.086C806.647 809.022 782.276 784.098 752.846 784.098H512.001H271.156Z" fill="url(#paint1_linear_1_10035)" stroke="#1E1E1E" style="stroke:#1E1E1E;stroke:color(display-p3 0.1176 0.1176 0.1176);stroke-opacity:1;" stroke-width="6.04724" stroke-linecap="round" stroke-linejoin="round"/>
<path opacity="0.25" fill-rule="evenodd" clip-rule="evenodd" d="M319.898 770.723C323.155 679.137 363.828 627.957 497.398 569.262C477.185 591.933 366.224 615.075 319.898 770.723ZM295.281 443.801L284.57 406.876L574.055 270.54L598.979 213.934L585.237 286.801L291.349 408.064L295.281 443.801Z" fill="white" style="fill:white;fill-opacity:1;"/>
<defs>
<linearGradient id="paint0_linear_1_10035" x1="250.382" y1="481.081" x2="824.63" y2="481.081" gradientUnits="userSpaceOnUse">
<stop stop-color="#796C60" style="stop-color:#796C60;stop-color:color(display-p3 0.4745 0.4235 0.3765);stop-opacity:1;"/>
<stop offset="1" stop-color="#4B403B" style="stop-color:#4B403B;stop-color:color(display-p3 0.2941 0.2510 0.2314);stop-opacity:1;"/>
</linearGradient>
<linearGradient id="paint1_linear_1_10035" x1="200.821" y1="844.725" x2="822.844" y2="844.725" gradientUnits="userSpaceOnUse">
<stop stop-color="#796C60" style="stop-color:#796C60;stop-color:color(display-p3 0.4745 0.4235 0.3765);stop-opacity:1;"/>
<stop offset="1" stop-color="#4B403B" style="stop-color:#4B403B;stop-color:color(display-p3 0.2941 0.2510 0.2314);stop-opacity:1;"/>
</linearGradient>
</defs>
</svg>
