<svg width="1024" height="1024" viewBox="0 0 1024 1024" fill="none" xmlns="http://www.w3.org/2000/svg">
<path fill-rule="evenodd" clip-rule="evenodd" d="M511.999 125.379C458.034 125.379 414.289 168.346 414.289 221.328C414.33 259.318 437.185 293.704 472.575 309.044C465.018 355.861 441.65 463.831 376.728 473.068C328.498 479.908 297.778 446.71 276.786 408.679C287.921 400.786 297.012 390.352 303.306 378.242C309.6 366.132 312.914 352.695 312.974 339.047C312.974 291.39 273.632 252.744 225.095 252.744C176.557 252.744 137.194 291.39 137.215 339.047C137.215 382.915 170.802 419.799 215.223 424.715L317.07 783.934H706.928L808.775 424.715C853.196 419.799 886.742 382.915 886.783 339.047C886.783 291.39 847.42 252.744 798.883 252.744C750.345 252.744 711.023 291.39 711.023 339.047C711.081 352.693 714.392 366.129 720.682 378.239C726.973 390.349 736.06 400.784 747.191 408.679C726.199 446.71 695.479 479.908 647.249 473.068C582.327 463.852 558.98 355.861 551.402 309.023C586.812 293.704 609.668 259.318 609.709 221.328C609.709 168.346 565.943 125.379 511.999 125.379Z" fill="url(#paint0_linear_1_10044)" stroke="#1E1E1E" style="stroke:#1E1E1E;stroke:color(display-p3 0.1176 0.1176 0.1176);stroke-opacity:1;" stroke-width="6.04724" stroke-linejoin="round"/>
<path opacity="0.15" fill-rule="evenodd" clip-rule="evenodd" d="M798.761 252.766C787.781 252.791 776.901 254.846 766.669 258.828C863.765 293.193 846.07 398.194 778.773 408.659L622.879 783.976H708.895L808.633 424.736C853.074 419.801 886.62 382.916 886.661 339.048C886.661 291.391 847.299 252.745 798.761 252.766Z" fill="black" style="fill:black;fill-opacity:1;"/>
<path fill-rule="evenodd" clip-rule="evenodd" d="M270.891 784.098C241.461 784.098 217.09 809.001 217.09 839.086V850.248L217.356 905.216H806.095L806.361 850.248V839.086C806.361 809.022 781.99 784.098 752.56 784.098H511.715H270.891Z" fill="url(#paint1_linear_1_10044)" stroke="#1E1E1E" style="stroke:#1E1E1E;stroke:color(display-p3 0.1176 0.1176 0.1176);stroke-opacity:1;" stroke-width="6.04724" stroke-linecap="round" stroke-linejoin="round"/>
<path opacity="0.25" fill-rule="evenodd" clip-rule="evenodd" d="M194.867 276.255C178.606 300.216 159.519 330.875 163.041 374.129C163.041 374.129 130.191 312.484 194.867 276.255ZM484.536 148.07C467.067 165.97 435.999 208.159 440.852 258.13C436.613 256.41 405.422 178.401 484.536 148.07ZM247.03 477.757L354.427 766.751L330.465 767.222L247.03 477.757Z" fill="white" style="fill:white;fill-opacity:1;"/>
<defs>
<linearGradient id="paint0_linear_1_10044" x1="120.918" y1="454.649" x2="903.238" y2="454.649" gradientUnits="userSpaceOnUse">
<stop stop-color="#796C60" style="stop-color:#796C60;stop-color:color(display-p3 0.4745 0.4235 0.3765);stop-opacity:1;"/>
<stop offset="1" stop-color="#4B403B" style="stop-color:#4B403B;stop-color:color(display-p3 0.2941 0.2510 0.2314);stop-opacity:1;"/>
</linearGradient>
<linearGradient id="paint1_linear_1_10044" x1="200.616" y1="844.725" x2="822.64" y2="844.725" gradientUnits="userSpaceOnUse">
<stop stop-color="#796C60" style="stop-color:#796C60;stop-color:color(display-p3 0.4745 0.4235 0.3765);stop-opacity:1;"/>
<stop offset="1" stop-color="#4B403B" style="stop-color:#4B403B;stop-color:color(display-p3 0.2941 0.2510 0.2314);stop-opacity:1;"/>
</linearGradient>
</defs>
</svg>
