<svg width="1024" height="1024" viewBox="0 0 1024 1024" fill="none" xmlns="http://www.w3.org/2000/svg">
<path fill-rule="evenodd" clip-rule="evenodd" d="M512.124 79.2148C475.198 81.2628 446.014 104.487 446.014 132.831C446.014 144.403 451.011 166.501 460.207 175.778H342.119V280.349H471.266L417.813 338.369L472.556 382.749C358.196 390.163 226.387 416.398 203.163 464.608C177.194 518.634 330.446 784.096 330.446 784.096H693.556C693.556 784.096 846.828 518.613 820.839 464.608C797.635 416.336 665.314 390.06 550.933 382.708L606.434 338.369L552.981 280.349H682.128V175.778H564.02C573.216 166.501 578.213 144.423 578.213 132.831C578.213 104.487 549.029 81.2628 512.103 79.2148H512.124Z" fill="url(#paint0_linear_1_10066)" stroke="#323232" style="stroke:#323232;stroke:color(display-p3 0.1961 0.1961 0.1961);stroke-opacity:1;" stroke-width="6.04724" stroke-linejoin="round"/>
<path opacity="0.1" fill-rule="evenodd" clip-rule="evenodd" d="M640.797 784.036L693.492 783.934C693.492 783.934 846.723 529.408 820.755 475.402C736.049 397.087 550.828 382.73 550.828 382.73C777.132 440.525 809.245 485.704 640.797 784.036Z" fill="black" style="fill:black;fill-opacity:1;"/>
<path fill-rule="evenodd" clip-rule="evenodd" d="M271.195 784.098C241.766 784.098 217.395 809.001 217.395 839.086V850.248L217.661 905.216H806.44L806.686 850.248V839.086C806.686 809.022 782.315 784.098 752.885 784.098H512.04H271.195Z" fill="url(#paint1_linear_1_10066)" stroke="#323232" style="stroke:#323232;stroke:color(display-p3 0.1961 0.1961 0.1961);stroke-opacity:1;" stroke-width="6.04724" stroke-linecap="round" stroke-linejoin="round"/>
<path fill-rule="evenodd" clip-rule="evenodd" d="M272.035 637.705C272.035 637.705 209.08 503.459 217.436 471.981C225.792 440.524 340.049 415.948 340.049 415.948C207.216 471.449 242.032 509.296 272.035 637.705ZM358.83 263.863V191.774L390.205 191.548C371.957 191.692 358.83 235.519 358.83 263.863ZM507.863 95.6406C507.863 95.6406 454.328 114.482 476.528 167.771C472.883 167.628 432.66 112.066 507.863 95.6406Z" fill="white" style="fill:white;fill-opacity:1;"/>
<defs>
<linearGradient id="paint0_linear_1_10066" x1="183.36" y1="436.933" x2="840.69" y2="436.933" gradientUnits="userSpaceOnUse">
<stop stop-color="white" style="stop-color:white;stop-opacity:1;"/>
<stop offset="1" stop-color="#BBA38A" style="stop-color:#BBA38A;stop-color:color(display-p3 0.7333 0.6392 0.5412);stop-opacity:1;"/>
</linearGradient>
<linearGradient id="paint1_linear_1_10066" x1="200.908" y1="844.8" x2="823.091" y2="844.8" gradientUnits="userSpaceOnUse">
<stop stop-color="white" style="stop-color:white;stop-opacity:1;"/>
<stop offset="1" stop-color="#BBA38A" style="stop-color:#BBA38A;stop-color:color(display-p3 0.7333 0.6392 0.5412);stop-opacity:1;"/>
</linearGradient>
</defs>
</svg>
