<svg width="1024" height="1024" viewBox="0 0 1024 1024" fill="none" xmlns="http://www.w3.org/2000/svg">
<path d="M421.406 835.342C393.778 834.7 370.969 834.378 352.979 834.378C334.988 833.736 325.351 832.451 324.066 830.523C315.713 822.813 311.216 813.497 310.573 802.574C309.931 791.652 313.786 782.656 322.138 775.589C322.781 774.304 328.242 766.594 338.522 752.458C348.802 737.681 361.01 719.69 375.145 698.488C350.73 667.647 327.6 637.449 305.754 607.894C283.909 577.696 270.737 560.027 266.24 554.887C252.105 542.679 245.037 527.58 245.037 509.59C245.037 490.957 252.105 474.573 266.24 460.438C270.095 456.583 281.66 441.805 300.935 416.105C320.853 390.404 342.056 362.455 364.544 332.257C387.674 302.059 408.877 274.11 428.152 248.41C448.07 222.067 459.314 207.61 461.884 205.04C464.454 202.47 466.382 200.221 467.667 198.294C460.599 190.584 453.21 183.195 445.5 176.127C438.432 169.06 434.256 164.241 432.971 161.671C412.411 143.68 412.411 125.69 432.971 107.7C434.899 104.487 443.573 95.4922 458.993 80.7144C475.056 65.9367 484.372 56.6203 486.942 52.7653C504.29 36.06 520.995 36.06 537.058 52.7653L565.007 80.7144C579.785 95.4922 589.101 104.487 592.956 107.7C610.946 125.69 610.946 143.68 592.956 161.671C590.386 164.241 585.246 169.06 577.536 176.127C569.826 183.195 562.758 190.584 556.333 198.294C556.976 198.294 558.582 199.258 561.152 201.185C565.649 206.325 577.536 222.067 596.811 248.41C616.086 274.11 636.647 302.059 658.492 332.257C680.98 362.455 701.54 390.404 720.173 416.105C739.448 441.805 751.014 456.583 754.869 460.438C768.361 474.573 775.108 490.957 775.108 509.59C775.108 527.58 768.361 542.679 754.869 554.887C750.371 560.027 737.521 577.053 716.318 605.966C695.758 634.237 673.912 663.792 650.782 694.633C666.845 715.835 680.337 734.468 691.26 750.531C702.825 765.951 709.572 774.304 711.499 775.589C728.847 793.579 727.883 811.891 708.608 830.523C707.323 832.451 696.721 833.736 676.804 834.378C657.528 834.378 633.434 834.7 604.521 835.342C602.594 849.477 601.951 856.545 602.594 856.545C605.806 859.758 616.729 861.364 635.362 861.364C653.995 860.721 674.555 860.079 697.043 859.436C719.53 858.794 741.055 858.473 761.615 858.473C782.818 857.83 797.595 858.794 805.948 861.364C827.151 868.431 841.929 884.815 850.281 910.516C858.634 935.574 865.702 959.989 871.484 983.762H614.159C600.666 983.762 587.816 983.441 575.608 982.798C564.043 981.513 552.157 977.979 539.949 972.197C528.384 966.414 520.995 962.238 517.782 959.668C514.57 956.455 512.642 952.921 512 949.066C512 952.921 510.715 956.455 508.145 959.668C505.575 962.238 498.507 966.414 486.942 972.197C473.449 977.979 460.599 981.513 448.391 982.798C436.184 983.441 424.297 983.762 412.732 983.762H152.516C159.583 959.989 167.936 935.574 177.574 910.516C187.854 884.815 203.595 868.431 224.798 861.364C232.508 858.794 246.322 857.83 266.24 858.473C286.8 858.473 307.682 858.794 328.885 859.436C350.73 860.079 370.326 860.721 387.674 861.364C405.664 861.364 416.266 859.758 419.478 856.545C422.691 854.618 423.655 852.69 422.37 850.762C421.727 848.192 421.406 843.052 421.406 835.342ZM535.13 527.901H588.137V483.568H535.13V418.996H490.797V483.568H437.79V527.901H490.797V694.633H535.13V527.901ZM512 84.5695C509.43 88.4246 501.398 97.0984 487.906 110.591C475.056 124.084 467.667 131.794 465.739 133.722C467.667 137.577 475.056 146.25 487.906 159.743C501.398 172.593 509.43 179.982 512 181.91C513.927 179.982 521.637 172.593 535.13 159.743L561.152 133.722C557.297 131.794 548.623 124.084 535.13 110.591C521.637 97.0984 513.927 88.4246 512 84.5695ZM467.667 833.415H556.333L565.007 795.828H458.993L467.667 833.415Z" fill="black" style="fill:black;fill-opacity:1;"/>
<path fill-rule="evenodd" clip-rule="evenodd" d="M465.108 819.847C459.009 793.373 455.018 795.421 512.904 795.421H563.893L562.147 804.155C561.183 808.974 559.135 817.603 557.584 823.325L554.783 833.746H468.33L465.108 819.847ZM492.018 610.604V527.103H440.02V483.282H492.033V420.321H533.113V483.282H587.867V526.892L561.168 527.675L534.468 528.458L533.746 611.282L533.023 694.105H492.018V610.604ZM488.148 157.544L466.824 135.604L480.558 119.837C488.102 111.178 498.403 100.351 503.432 95.7882L512.573 87.5059L536.23 111.6L559.903 135.694L536.712 156.852C523.942 168.477 512.618 178.341 511.519 178.747C510.42 179.154 499.924 169.607 488.178 157.544H488.148Z" fill="white" style="fill:white;fill-opacity:1;"/>
<path d="M421.406 835.342C393.778 834.7 370.969 834.378 352.979 834.378C334.988 833.736 325.351 832.451 324.066 830.523C315.713 822.813 311.216 813.497 310.573 802.574C309.931 791.652 313.786 782.656 322.138 775.589C322.781 774.304 328.242 766.594 338.522 752.458C348.802 737.681 361.01 719.69 375.145 698.488C350.73 667.647 327.6 637.449 305.754 607.894C283.909 577.696 270.737 560.027 266.24 554.887C252.105 542.679 245.037 527.58 245.037 509.59C245.037 490.957 252.105 474.573 266.24 460.438C270.095 456.583 281.66 441.805 300.935 416.105C320.853 390.404 342.056 362.455 364.544 332.257C387.674 302.059 408.877 274.11 428.152 248.41C448.07 222.067 459.314 207.61 461.884 205.04C464.454 202.47 466.382 200.221 467.667 198.294C460.599 190.584 453.21 183.195 445.5 176.127C438.432 169.06 434.256 164.241 432.971 161.671C412.411 143.68 412.411 125.69 432.971 107.7C434.899 104.487 443.573 95.4922 458.993 80.7144C475.056 65.9367 484.372 56.6203 486.942 52.7653C504.29 36.06 520.995 36.06 537.058 52.7653L565.007 80.7144C579.785 95.4922 589.101 104.487 592.956 107.7C610.946 125.69 610.946 143.68 592.956 161.671C590.386 164.241 585.246 169.06 577.536 176.127C569.826 183.195 562.758 190.584 556.333 198.294C556.976 198.294 558.582 199.258 561.152 201.185C565.649 206.325 577.536 222.067 596.811 248.41C616.086 274.11 636.647 302.059 658.492 332.257C680.98 362.455 701.54 390.404 720.173 416.105C739.448 441.805 751.014 456.583 754.869 460.438C768.361 474.573 775.108 490.957 775.108 509.59C775.108 527.58 768.361 542.679 754.869 554.887C750.371 560.027 737.521 577.053 716.318 605.966C695.758 634.237 673.912 663.792 650.782 694.633C666.845 715.835 680.337 734.468 691.26 750.531C702.825 765.951 709.572 774.304 711.499 775.589C728.847 793.579 727.883 811.891 708.608 830.523C707.323 832.451 696.721 833.736 676.804 834.378C657.528 834.378 633.434 834.7 604.521 835.342C602.594 849.477 601.951 856.545 602.594 856.545C605.806 859.758 616.729 861.364 635.362 861.364C653.995 860.721 674.555 860.079 697.043 859.436C719.53 858.794 741.055 858.473 761.615 858.473C782.818 857.83 797.595 858.794 805.948 861.364C827.151 868.431 841.929 884.815 850.281 910.516C858.634 935.574 865.702 959.989 871.484 983.762H614.159C600.666 983.762 587.816 983.441 575.608 982.798C564.043 981.513 552.157 977.979 539.949 972.197C528.384 966.414 520.995 962.238 517.782 959.668C514.57 956.455 512.642 952.921 512 949.066C512 952.921 510.715 956.455 508.145 959.668C505.575 962.238 498.507 966.414 486.942 972.197C473.449 977.979 460.599 981.513 448.391 982.798C436.184 983.441 424.297 983.762 412.732 983.762H152.516C159.583 959.989 167.936 935.574 177.574 910.516C187.854 884.815 203.595 868.431 224.798 861.364C232.508 858.794 246.322 857.83 266.24 858.473C286.8 858.473 307.682 858.794 328.885 859.436C350.73 860.079 370.326 860.721 387.674 861.364C405.664 861.364 416.266 859.758 419.478 856.545C422.691 854.618 423.655 852.69 422.37 850.762C421.727 848.192 421.406 843.052 421.406 835.342ZM535.13 527.901H588.137V483.568H535.13V418.996H490.797V483.568H437.79V527.901H490.797V694.633H535.13V527.901ZM512 84.5695C509.43 88.4246 501.398 97.0984 487.906 110.591C475.056 124.084 467.667 131.794 465.739 133.722C467.667 137.577 475.056 146.25 487.906 159.743C501.398 172.593 509.43 179.982 512 181.91C513.927 179.982 521.637 172.593 535.13 159.743L561.152 133.722C557.297 131.794 548.623 124.084 535.13 110.591C521.637 97.0984 513.927 88.4246 512 84.5695ZM467.667 833.415H556.333L565.007 795.828H458.993L467.667 833.415Z" fill="black" style="fill:black;fill-opacity:1;"/>
<path fill-rule="evenodd" clip-rule="evenodd" d="M465.108 819.847C459.009 793.373 455.018 795.421 512.904 795.421H563.893L562.147 804.155C561.183 808.974 559.135 817.603 557.584 823.325L554.783 833.746H468.33L465.108 819.847ZM492.018 610.604V527.103H440.02V483.282H492.033V420.321H533.113V483.282H587.867V526.892L561.168 527.675L534.468 528.458L533.746 611.282L533.023 694.105H492.018V610.604ZM488.148 157.544L466.824 135.604L480.558 119.837C488.102 111.178 498.403 100.351 503.432 95.7882L512.573 87.5059L536.23 111.6L559.903 135.694L536.712 156.852C523.942 168.477 512.618 178.341 511.519 178.747C510.42 179.154 499.924 169.607 488.178 157.544H488.148Z" fill="white" style="fill:white;fill-opacity:1;"/>
</svg>
