<svg width="1024" height="1024" viewBox="0 0 1024 1024" fill="none" xmlns="http://www.w3.org/2000/svg">
<path d="M456.103 531.756L509.11 587.655L565.009 531.756L509.11 478.749L456.103 531.756ZM729.812 376.59L766.435 670.538L808.841 761.132V955.813H213.234V761.132L252.749 670.538L289.372 376.59L215.162 214.678L261.423 68.1855H391.531V193.475H447.429V68.1855H579.465V193.475H634.4V68.1855H764.508L810.768 214.678L729.812 376.59ZM287.444 698.488L266.241 744.748H752.943L729.812 698.488H287.444ZM697.044 355.387H326.959L335.632 399.721H692.225L697.044 355.387Z" fill="black" style="fill:black;fill-opacity:1;"/>
<path fill-rule="evenodd" clip-rule="evenodd" d="M333.283 383.458C331.627 374.799 329.669 364.935 328.931 361.547L327.621 355.373H694.62V364.589C694.62 369.649 693.837 379.497 692.873 386.485L691.126 399.194H336.34L333.283 383.458ZM481.914 558.321L456.765 531.531L482.516 505.886L508.267 480.226L515.886 486.852C525.189 495.303 534.346 503.913 543.354 512.677L563.201 531.877L536.547 558.637C521.88 573.35 509.245 585.336 508.477 585.261C507.694 585.186 495.723 573.063 481.899 558.336L481.914 558.321ZM274.012 729.811C277.565 721.905 282.068 712.041 284.011 707.9L287.534 700.371H730.143L741.166 722.281L752.174 744.177H267.566L274.012 729.811Z" fill="white" style="fill:white;fill-opacity:1;"/>
</svg>
