<svg width="1024" height="1024" viewBox="0 0 1024 1024" fill="none" xmlns="http://www.w3.org/2000/svg">
<path d="M346.234 673.912C359.727 667.487 370.649 654.958 379.002 636.325C387.997 614.48 397.956 590.064 408.879 563.079C419.801 535.451 430.724 507.181 441.647 478.268C439.077 476.34 436.507 474.734 433.937 473.449C432.009 472.164 430.724 470.879 430.082 469.594C412.091 449.676 412.091 432.65 430.082 418.514L440.683 407.913L458.031 390.565C435.543 380.285 416.91 364.544 402.132 343.341C387.997 321.495 380.93 297.722 380.93 272.022C380.93 236.684 393.78 205.844 419.48 179.501C445.823 153.158 476.342 139.986 511.038 139.986C546.376 139.986 576.574 153.158 601.632 179.501C627.332 205.844 640.182 236.684 640.182 272.022C640.182 297.722 632.793 321.495 618.016 343.341C603.88 364.544 585.89 380.285 564.045 390.565C569.827 396.348 575.289 402.13 580.429 407.913C585.569 413.053 589.424 416.587 591.994 418.514C608.057 432.65 608.057 449.676 591.994 469.594C590.709 470.879 588.782 472.164 586.211 473.449C584.284 474.734 582.356 476.34 580.429 478.268C591.994 507.181 602.917 535.451 613.197 563.079C623.477 590.064 633.436 614.48 643.074 636.325C650.784 654.958 661.385 667.487 674.878 673.912C689.013 679.695 709.895 690.938 737.523 707.644C765.15 723.706 781.534 738.484 786.675 751.977C791.172 764.827 794.063 783.46 795.348 807.875C797.276 832.291 798.882 857.67 800.167 884.013H223.836C223.836 857.67 224.478 832.291 225.763 807.875C227.048 783.46 230.261 764.827 235.401 751.977C239.256 738.484 255.319 723.706 283.589 707.644C311.86 690.938 332.741 679.695 346.234 673.912ZM508.147 395.384C508.147 396.669 501.4 404.379 487.907 418.514L464.777 441.645C466.705 445.5 474.093 454.174 486.944 467.666C500.436 480.517 508.468 487.905 511.038 489.833L533.204 467.666L559.226 441.645C555.371 439.717 546.055 432.007 531.277 418.514L508.147 395.384ZM593.922 270.095C593.922 246.964 585.89 227.368 569.827 211.305C553.765 194.6 534.168 186.247 511.038 186.247C488.55 186.247 468.953 194.921 452.248 212.269C435.543 228.974 427.19 248.892 427.19 272.022C427.19 293.225 433.937 311.536 447.429 326.957C460.922 342.377 477.306 351.051 496.581 352.978C505.577 358.761 514.893 358.761 524.531 352.978C543.806 351.051 560.19 342.377 573.683 326.957C587.175 311.536 593.922 292.582 593.922 270.095ZM276.843 765.47C272.345 785.387 270.097 809.482 270.097 837.752H751.979C751.979 814.622 749.73 790.528 745.233 765.47C741.378 757.76 729.491 749.407 709.573 740.412C689.655 730.774 669.417 721.137 648.856 711.499C628.938 701.219 613.197 681.622 601.632 652.709C591.994 633.434 582.356 611.91 572.719 588.137C563.724 564.364 554.729 540.27 545.733 515.855C543.163 517.14 541.236 518.746 539.951 520.673C538.666 521.958 537.381 522.601 536.096 522.601C519.39 543.161 502.364 543.161 485.016 522.601C483.731 522.601 482.446 521.958 481.161 520.673C479.876 518.746 478.27 517.14 476.342 515.855C466.705 540.27 457.067 564.364 447.429 588.137C438.434 611.91 429.439 633.434 420.444 652.709C408.879 681.622 392.816 701.219 372.256 711.499C351.695 721.137 331.456 730.774 311.539 740.412C291.621 749.407 280.056 757.76 276.843 765.47Z" fill="black" style="fill:black;fill-opacity:1;"/>
<path fill-rule="evenodd" clip-rule="evenodd" d="M270.23 830.313C270.23 814.983 276.314 770.033 279.115 764.807C283.783 755.998 287.97 753.438 337.694 728.877C375.145 710.4 386.982 703.172 396.213 693.142C410.037 678.159 428.544 639.925 456.674 568.335L476.807 517.06L483.719 523.415C504.32 542.328 513.506 543.187 531.998 527.902L545.205 516.984L548.548 525.854C567.311 575.548 590.742 632.335 601.75 654.833C621.402 694.935 629.308 701.997 685.026 729.133C710.626 741.617 734.389 754.838 737.822 758.528C744.297 765.485 747.234 778.963 750.667 817.408L752.444 837.255H270.23V830.313ZM487.454 465.905C476.401 454.415 467.366 443.603 467.366 441.871C467.366 440.154 476.476 429.688 487.62 418.62C511.006 395.399 506.895 394.933 537.886 424.192L557.116 442.338L534.769 464.565C522.481 476.792 511.322 486.791 509.997 486.791C508.642 486.791 498.522 477.395 487.454 465.905ZM484.081 349.425C427.911 332.002 410.443 260.909 450.951 214.769C466.116 197.511 481.4 190.328 506.097 188.898C532.585 187.362 547.87 192.437 565.323 208.535C596.329 237.101 601.735 283.422 578.229 318.931C567.642 334.938 551.725 345.615 529.694 351.473C511.352 356.352 505.555 356.096 484.081 349.425Z" fill="white" style="fill:white;fill-opacity:1;"/>
</svg>
