<svg width="1024" height="1024" viewBox="0 0 1024 1024" fill="none" xmlns="http://www.w3.org/2000/svg">
<path d="M317.562 772.699L292.504 850.763L347.439 800.648L317.562 772.699ZM695.358 774.626L662.59 802.575L711.742 844.017L695.358 774.626ZM428.395 807.394L386.953 816.068L335.874 878.713H674.155C667.087 872.288 650.061 851.406 623.075 816.068L588.38 809.322L535.373 862.329C517.382 880.319 499.714 880.319 482.366 862.329L428.395 807.394ZM287.685 723.547C259.415 662.508 231.787 601.47 204.801 540.431C178.459 478.75 152.116 417.712 125.773 357.316C111.638 361.171 100.072 358.28 91.0773 348.642L69.8744 325.512C50.5991 308.807 50.5991 290.816 69.8744 271.541L91.0773 251.302C107.783 230.742 125.452 230.742 144.084 251.302L167.215 271.541C182.635 290.816 182.635 308.807 167.215 325.512L155.65 337.077L320.453 466.221L305.997 258.048C297.644 256.121 290.577 252.266 284.794 246.483L264.555 225.28C244.637 207.29 244.637 189.621 264.555 172.273L284.794 149.143C302.784 132.438 320.775 132.438 338.765 149.143L361.895 172.273C377.315 189.621 377.315 207.29 361.895 225.28L338.765 246.483L438.033 416.106L491.04 221.425C492.967 221.425 490.076 219.819 482.366 216.606L461.163 193.476C443.815 175.486 443.815 157.495 461.163 139.505L482.366 116.375C499.714 102.24 517.382 102.24 535.373 116.375L556.576 139.505C576.493 157.495 576.493 175.486 556.576 193.476L535.373 216.606C532.16 219.819 528.948 221.425 525.735 221.425L579.706 418.033L678.974 251.302L655.843 228.172C640.423 209.539 640.423 190.906 655.843 172.273L677.046 151.07C695.679 135.65 713.991 135.65 731.981 151.07L753.184 172.273C771.816 190.906 771.816 209.539 753.184 228.172L731.981 248.411L713.669 259.976L702.104 464.294L871.727 313.947L857.27 302.381C841.85 283.749 841.85 265.116 857.27 246.483L880.401 225.28C898.391 208.575 916.381 208.575 934.371 225.28L954.61 246.483C973.243 265.116 973.243 283.749 954.61 302.381L934.371 322.62C923.449 333.543 911.562 337.398 898.712 334.186L730.053 730.293L776.314 918.227H220.222L287.685 723.547ZM287.685 612.714C353.864 574.163 428.716 554.888 512.242 554.888C588.059 554.888 660.02 575.769 728.126 617.532L809.082 431.526L670.3 534.649L660.662 371.772L565.249 490.316L510.315 330.331L444.779 490.316L359.004 371.772L351.294 534.649L211.548 441.164L287.685 612.714ZM510.315 733.184L461.163 781.372L510.315 830.524L556.576 781.372L510.315 733.184ZM305.997 657.047C309.209 664.114 312.422 670.861 315.634 677.286C319.489 683.711 322.381 689.815 324.308 695.597C351.294 683.39 380.528 671.825 412.011 660.902C444.136 649.979 477.547 644.518 512.242 644.518C545.653 644.518 574.887 648.694 599.945 657.047C625.003 665.399 656.807 679.213 695.358 698.489L711.742 658.974C677.046 639.699 644.278 625.243 613.438 615.605C582.597 605.967 548.865 601.148 512.242 601.148C476.262 601.148 439.639 605.967 402.373 615.605C365.75 624.6 333.625 638.414 305.997 657.047ZM118.063 283.106L102.642 299.49L118.063 315.874L134.447 299.49L118.063 283.106ZM312.743 181.911L296.359 198.295L312.743 213.715L329.127 198.295L312.743 181.911ZM510.315 151.07L493.931 167.454L510.315 183.838L523.808 167.454L510.315 151.07ZM704.995 183.838L688.611 200.222L704.995 216.606L720.416 200.222L704.995 183.838ZM906.422 258.048L890.038 274.432L906.422 290.816L922.806 274.432L906.422 258.048ZM667.409 738.003C637.211 721.94 611.189 709.733 589.344 701.38C568.141 693.027 542.44 688.851 512.242 688.851C482.044 688.851 452.489 694.312 423.576 705.235C394.663 715.515 368.641 726.438 345.511 738.003L380.207 772.699L424.54 763.061L482.366 700.416C499.714 686.281 517.382 686.281 535.373 700.416L596.09 763.061L634.641 772.699L667.409 738.003Z" fill="black" style="fill:black;fill-opacity:1;"/>
<path fill-rule="evenodd" clip-rule="evenodd" d="M297.383 841.173C297.383 840.194 301.87 824.879 307.367 807.14L317.351 774.854L332.018 787.518L346.685 800.182L324.097 821.415C302.879 841.353 297.383 845.419 297.383 841.173ZM343.598 871.004C351.62 860.606 359.824 850.35 368.204 840.239L387.299 817.003L407.372 812.561L427.431 808.134L461.9 841.956C493.554 873.037 497.183 875.778 506.565 875.778C521.292 875.778 525.449 872.947 558.864 840.088L588.982 810.453L605.727 813.675C622.292 816.883 622.714 817.199 639.64 838.823C649.082 850.87 660.572 864.725 665.18 869.619L673.552 878.518H338.072L343.598 871.004Z" fill="white" style="fill:white;fill-opacity:1;"/>
<path fill-rule="evenodd" clip-rule="evenodd" d="M485.391 805.121L461.191 780.755L484.819 759.131C497.799 747.234 509.756 737.522 511.382 737.522C513.009 737.522 523.535 747.611 534.784 759.974L555.219 782.442L532.405 805.964L509.575 829.501L485.391 805.121ZM685.357 821.505L664.004 803.223L678.43 790.378C686.366 783.3 693.519 778.165 694.317 778.948C696.591 781.222 710.159 840.208 708.337 839.997C707.433 839.876 697.103 831.564 685.357 821.505ZM612.743 766.811C595.923 762.594 594.673 761.646 565.549 730.519C549.09 712.915 531.607 696.546 526.697 694.122L517.782 689.725L526.005 689.755C540.687 689.815 574.871 697.074 593.077 703.986C607.985 709.663 660.631 734.706 663.898 737.687C665.6 739.253 635.693 771.63 632.787 771.374C631.281 771.223 622.261 769.19 612.759 766.811H612.743ZM364.619 755.502C355.674 746.436 348.898 738.53 349.56 737.943C352.527 735.263 370.507 727.026 397.944 715.807C428.71 703.187 461.252 693.986 484.939 691.201L498.628 689.574L490.406 694.634C485.888 697.435 469.022 713.849 452.909 731.152C424.599 761.555 423.123 762.7 407.733 766.028C398.998 767.925 389.376 770.034 386.364 770.726C382.404 771.63 376.365 767.398 364.619 755.502Z" fill="white" style="fill:white;fill-opacity:1;"/>
<path fill-rule="evenodd" clip-rule="evenodd" d="M662.889 682.678C596.284 650.271 541.138 638.902 482.409 645.512C443.858 649.849 419.237 656.626 367.901 676.985L324.818 694.062L316.551 676.398C310.482 663.417 309.067 657.8 311.22 655.195C315.888 649.593 357.014 630.243 380.34 622.713C436.509 604.552 508.641 597.881 562.582 605.863C603.165 611.871 630.196 620.53 674.559 641.748C708.984 658.222 710.701 659.427 708.351 665.45C703.051 679.018 694.557 697.797 693.82 697.556C693.383 697.435 679.484 690.734 662.919 682.663L662.889 682.678Z" fill="white" style="fill:white;fill-opacity:1;"/>
<path fill-rule="evenodd" clip-rule="evenodd" d="M695.763 599.508C662.436 582.359 626.993 569.681 590.351 561.8C557.146 554.693 456.9 554.632 423.333 561.71C386.454 569.495 347.633 582.28 316.792 596.797C301.116 604.191 287.879 609.838 287.413 609.356C285.485 607.444 215.326 447.67 216.064 446.932C216.516 446.48 246.693 465.996 283.151 490.271C319.593 514.546 350.042 533.821 350.765 533.083C351.518 532.345 353.792 497.605 355.87 455.892C357.948 414.179 360.162 379.483 360.839 378.821C361.502 378.158 380.326 402.794 402.673 433.575C425.02 464.37 444.16 489.021 445.214 488.374C446.268 487.726 461.176 452.744 478.343 410.625C495.51 368.52 510.358 335.512 511.322 337.288C512.271 339.065 524.544 374.092 538.609 415.143C552.674 456.193 565.007 489.458 566.016 489.081C567.04 488.675 587.731 463.722 612.006 433.605C636.28 403.487 657.122 378.519 658.281 378.113C659.456 377.721 662.377 411.98 664.772 454.25C667.181 496.52 669.831 531.803 670.69 532.647C671.533 533.505 701.47 512.513 737.205 486.009C772.939 459.506 802.71 438.348 803.358 438.996C804.804 440.426 729.178 615.606 727.236 615.304C726.483 615.184 712.327 608.076 695.763 599.508ZM110.336 306.824L102.957 299.114L110.667 291.735L118.362 284.357L125.741 292.067L133.12 299.762L125.425 307.141L117.715 314.519L110.336 306.824ZM304.73 205.524L297.351 197.814L305.061 190.435L312.757 183.056L320.135 190.751L327.514 198.461L319.819 205.84L312.124 213.219L304.73 205.524ZM501.82 175.331L494.486 167.696L502.212 160.302L509.937 152.908L516.141 159.519C521.065 164.759 521.773 167.229 519.544 171.415C513.551 182.604 509.606 183.463 501.82 175.331ZM697.63 209.62C690.101 201.593 690.131 199.139 697.991 191.775C705.973 184.261 705.897 184.246 712.869 193.688L718.682 201.548L711.153 208.776L703.623 216.005L697.63 209.62ZM898.876 282.173L891.497 274.478L899.192 267.099L906.902 259.72L914.281 267.415L921.66 275.126L913.965 282.504L906.255 289.883L898.876 282.173Z" fill="white" style="fill:white;fill-opacity:1;"/>
</svg>
